<?xml version="1.0" encoding="UTF-8" standalone="no"?>
<svg
   xmlns:dc="http://purl.org/dc/elements/1.1/"
   xmlns:cc="http://creativecommons.org/ns#"
   xmlns:rdf="http://www.w3.org/1999/02/22-rdf-syntax-ns#"
   xmlns:svg="http://www.w3.org/2000/svg"
   xmlns="http://www.w3.org/2000/svg"
   xmlns:sodipodi="http://sodipodi.sourceforge.net/DTD/sodipodi-0.dtd"
   xmlns:inkscape="http://www.inkscape.org/namespaces/inkscape"
   width="514.64001"
   height="156.89314"
   id="svg2"
   sodipodi:version="0.32"
   inkscape:version="0.46"
   inkscape:output_extension="org.inkscape.output.svg.inkscape"
   sodipodi:docname="adapt.svg"
   version="1.0">
  <metadata
     id="metadata173">
    <rdf:RDF>
      <cc:Work
         rdf:about="">
        <dc:format>image/svg+xml</dc:format>
        <dc:type
           rdf:resource="http://purl.org/dc/dcmitype/StillImage" />
      </cc:Work>
    </rdf:RDF>
  </metadata>
  <defs
     id="defs171">
    <inkscape:perspective
       sodipodi:type="inkscape:persp3d"
       inkscape:vp_x="0 : 64.009842 : 1"
       inkscape:vp_y="0 : 1000 : 0"
       inkscape:vp_z="414.49606 : 64.009842 : 1"
       inkscape:persp3d-origin="207.24803 : 42.673228 : 1"
       id="perspective175" />
  </defs>
  <sodipodi:namedview
     inkscape:window-height="750"
     inkscape:window-width="1276"
     inkscape:pageshadow="2"
     inkscape:pageopacity="0.0"
     guidetolerance="10.0"
     gridtolerance="10.0"
     objecttolerance="10.0"
     borderopacity="1.0"
     bordercolor="#666666"
     pagecolor="#ffffff"
     id="base"
     showgrid="false"
     units="cm"
     inkscape:zoom="1.3124371"
     inkscape:cx="194.49933"
     inkscape:cy="10.373781"
     inkscape:window-x="0"
     inkscape:window-y="14"
     inkscape:current-layer="svg2" />
<!-- EMR_GDICOMMENT --><!-- EMR_SETMAPMODE --><!-- EMR_SETVIEWPORTEXTEX --><!-- EMR_SETWINDOWEXTEX --><!-- EMR_SETWINDOWEXTEX --><!-- EMR_SAVEDC --><!-- EMR_SETBKMODE --><!-- EMR_SETTEXTCOLOR --><!-- EMR_SETTEXTALIGN --><!-- EMR_SETBKMODE --><!-- EMR_SETTEXTCOLOR --><!-- EMR_SETTEXTALIGN --><!-- EMR_SETBKMODE --><!-- EMR_SETTEXTCOLOR --><!-- EMR_SETTEXTALIGN --><!-- EMR_SETBKMODE --><!-- EMR_SETTEXTCOLOR --><!-- EMR_SETTEXTALIGN --><!-- EMR_SETBKMODE --><!-- EMR_SETTEXTCOLOR --><!-- EMR_SETTEXTALIGN --><!-- EMR_SETBKMODE --><!-- EMR_SETTEXTCOLOR --><!-- EMR_SETTEXTALIGN --><!-- EMR_SETBKMODE --><!-- EMR_SETTEXTCOLOR --><!-- EMR_SETTEXTALIGN --><!-- EMR_SETBKMODE --><!-- EMR_SETTEXTCOLOR --><!-- EMR_SETTEXTALIGN --><!-- EMR_SETBKMODE --><!-- EMR_SETTEXTCOLOR --><!-- EMR_SETTEXTALIGN --><!-- EMR_SETBKMODE --><!-- EMR_SETTEXTCOLOR --><!-- EMR_SETTEXTALIGN --><!-- EMR_SETBKMODE --><!-- EMR_SETTEXTCOLOR --><!-- EMR_SETTEXTALIGN --><!-- EMR_SETBKMODE --><!-- EMR_SETTEXTCOLOR --><!-- EMR_SETTEXTALIGN --><!-- EMR_SETBKMODE --><!-- EMR_SETTEXTCOLOR --><!-- EMR_SETTEXTALIGN --><!-- EMR_SETBKMODE --><!-- EMR_SETTEXTCOLOR --><!-- EMR_SETTEXTALIGN --><!-- EMR_SETBKMODE --><!-- EMR_SETTEXTCOLOR --><!-- EMR_SETTEXTALIGN --><!-- EMR_SETBKMODE --><!-- EMR_SETTEXTCOLOR --><!-- EMR_SETTEXTALIGN --><!-- EMR_SETBKMODE --><!-- EMR_SETTEXTCOLOR --><!-- EMR_SETTEXTALIGN --><!-- EMR_SETBKMODE --><!-- EMR_SETTEXTCOLOR --><!-- EMR_SETTEXTALIGN --><!-- EMR_SETBKMODE --><!-- EMR_SETTEXTCOLOR --><!-- EMR_SETTEXTALIGN --><!-- EMR_SETBKMODE --><!-- EMR_SETTEXTCOLOR --><!-- EMR_SETTEXTALIGN --><!-- EMR_SETBKMODE --><!-- EMR_SETTEXTCOLOR --><!-- EMR_SETTEXTALIGN --><!-- EMR_SETBKMODE --><!-- EMR_SETTEXTCOLOR --><!-- EMR_SETTEXTALIGN --><!-- EMR_SETBKMODE --><!-- EMR_SETTEXTCOLOR --><!-- EMR_SETTEXTALIGN --><!-- EMR_SETBKMODE --><!-- EMR_SETTEXTCOLOR --><!-- EMR_SETTEXTALIGN --><!-- EMR_SETBKMODE --><!-- EMR_SETTEXTCOLOR --><!-- EMR_SETTEXTALIGN --><!-- EMR_SETBKMODE --><!-- EMR_SETTEXTCOLOR --><!-- EMR_SETTEXTALIGN --><!-- EMR_SETBKMODE --><!-- EMR_SETTEXTCOLOR --><!-- EMR_SETTEXTALIGN --><!-- EMR_SETBKMODE --><!-- EMR_SETTEXTCOLOR --><!-- EMR_SETTEXTALIGN --><!-- EMR_RESTOREDC --><!-- EMR_SELECTPALETTE --><!-- EMR_EXTSELECTCLIPRGN -->  <g
     id="g3549"
     transform="translate(-4.024306e-2,-0.1678027)">
    <g
       id="g3120"
       transform="matrix(1.5790381,0,0,-1.5790381,-167.65366,515.12367)">
      <path
         id="path2685"
         style="fill:none;stroke:#000000;stroke-width:0.23992801;stroke-linecap:round;stroke-linejoin:round;stroke-miterlimit:10;stroke-dasharray:none;stroke-opacity:1"
         d="M 217.68,271.52 L 246.72,242.48" />
      <path
         id="path2687"
         style="fill:#000000;fill-opacity:1;fill-rule:evenodd;stroke:none"
         d="M 248.16,244.88 L 250.08,239.12 L 244.32,241.04 L 248.16,244.88" />
      <path
         id="path2689"
         style="fill:#ffffff;fill-opacity:1;fill-rule:evenodd;stroke:none"
         d="M 219.84,250.4 L 248.1599,250.4 L 248.1599,260 L 219.84,260 L 219.84,250.4 z" />
      <path
         id="path2723"
         style="fill:none;stroke:#000000;stroke-width:0.239952;stroke-linecap:round;stroke-linejoin:round;stroke-miterlimit:10;stroke-dasharray:none;stroke-opacity:1"
         d="M 248.16,234.08 C 248.16,237.92 251.28,241.04 255.12,241.04 C 259.2,241.04 262.32,237.92 262.32,234.08 C 262.32,234.08 262.32,234.08 262.32,234.08 C 262.32,230 259.2,226.88 255.12,226.88 C 251.28,226.88 248.16,230 248.16,234.08 z" />
      <path
         id="path2733"
         style="fill:none;stroke:#000000;stroke-width:0.23992801;stroke-linecap:round;stroke-linejoin:round;stroke-miterlimit:10;stroke-dasharray:none;stroke-opacity:1"
         d="M 255.12,241.04 L 255.12,264.56" />
      <path
         id="path2735"
         style="fill:#000000;fill-opacity:1;fill-rule:evenodd;stroke:none"
         d="M 252.48,263.84 L 255.12,269.36 L 258,263.84 L 252.48,263.84" />
      <path
         id="path2737"
         style="fill:#ffffff;fill-opacity:1;fill-rule:evenodd;stroke:none"
         d="M 250.8,250.4 L 259.68008,250.4 L 259.68008,260 L 250.8,260 L 250.8,250.4 z" />
      <path
         id="path2747"
         style="fill:none;stroke:#000000;stroke-width:0.23992801;stroke-linecap:round;stroke-linejoin:round;stroke-miterlimit:10;stroke-dasharray:none;stroke-opacity:1"
         d="M 260.16,239.12 L 289.2,268.16" />
      <path
         id="path2749"
         style="fill:#000000;fill-opacity:1;fill-rule:evenodd;stroke:none"
         d="M 286.8,269.6 L 292.8,271.52 L 290.64,265.76 L 286.8,269.6" />
      <path
         id="path2751"
         style="fill:#ffffff;fill-opacity:1;fill-rule:evenodd;stroke:none"
         d="M 271.92,250.4 L 280.79969,250.4 L 280.79969,260 L 271.92,260 L 271.92,250.4 z" />
      <path
         id="path2761"
         style="fill:none;stroke:#000000;stroke-width:0.23992801;stroke-linecap:round;stroke-linejoin:round;stroke-miterlimit:10;stroke-dasharray:none;stroke-opacity:1"
         d="M 106.32,276.56 L 115.68,276.56" />
      <path
         id="path2763"
         style="fill:#000000;fill-opacity:1;fill-rule:evenodd;stroke:none"
         d="M 114.96,279.2 L 120.48,276.56 L 114.96,273.68 L 114.96,279.2" />
      <path
         id="path2765"
         style="fill:none;stroke:#000000;stroke-width:0.23992801;stroke-linecap:round;stroke-linejoin:round;stroke-miterlimit:10;stroke-dasharray:none;stroke-opacity:1"
         d="M 134.64,276.56 L 158.16,276.56" />
      <path
         id="path2767"
         style="fill:#000000;fill-opacity:1;fill-rule:evenodd;stroke:none"
         d="M 157.68,279.2 L 163.2,276.56 L 157.68,273.68 L 157.68,279.2" />
      <path
         id="path2769"
         style="fill:#ffffff;fill-opacity:1;fill-rule:evenodd;stroke:none"
         d="M 144.48,271.76 L 153.36008,271.76 L 153.36008,281.36 L 144.48,281.36 L 144.48,271.76 z" />
      <path
         id="path2779"
         style="fill:none;stroke:#000000;stroke-width:0.239952;stroke-linecap:round;stroke-linejoin:round;stroke-miterlimit:10;stroke-dasharray:none;stroke-opacity:1"
         d="M 120.48,276.56 C 120.48,280.4 123.84,283.52 127.68,283.52 C 131.52,283.52 134.64,280.4 134.64,276.56 C 134.64,276.56 134.64,276.56 134.64,276.56 C 134.64,272.72 131.52,269.36 127.68,269.36 C 123.84,269.36 120.48,272.72 120.48,276.56 z" />
      <path
         id="path2789"
         style="fill:none;stroke:#000000;stroke-width:0.239952;stroke-linecap:round;stroke-linejoin:round;stroke-miterlimit:10;stroke-dasharray:none;stroke-opacity:1"
         d="M 163.2,276.56 C 163.2,280.4 166.32,283.52 170.16,283.52 C 174,283.52 177.36,280.4 177.36,276.56 C 177.36,276.56 177.36,276.56 177.36,276.56 C 177.36,272.72 174,269.36 170.16,269.36 C 166.32,269.36 163.2,272.72 163.2,276.56 z" />
      <path
         id="path2799"
         style="fill:none;stroke:#000000;stroke-width:0.23992801;stroke-linecap:round;stroke-linejoin:round;stroke-miterlimit:10;stroke-dasharray:none;stroke-opacity:1"
         d="M 177.36,276.56 L 200.88,276.56" />
      <path
         id="path2801"
         style="fill:#000000;fill-opacity:1;fill-rule:evenodd;stroke:none"
         d="M 200.16,279.2 L 205.68,276.56 L 200.16,273.68 L 200.16,279.2" />
      <path
         id="path2803"
         style="fill:#ffffff;fill-opacity:1;fill-rule:evenodd;stroke:none"
         d="M 186.96,271.76 L 195.84008,271.76 L 195.84008,281.36 L 186.96,281.36 L 186.96,271.76 z" />
      <path
         id="path2813"
         style="fill:none;stroke:#000000;stroke-width:0.239952;stroke-linecap:round;stroke-linejoin:round;stroke-miterlimit:10;stroke-dasharray:none;stroke-opacity:1"
         d="M 205.68,276.56 C 205.68,280.4 208.8,283.52 212.64,283.52 C 216.48,283.52 219.84,280.4 219.84,276.56 C 219.84,276.56 219.84,276.56 219.84,276.56 C 219.84,272.72 216.48,269.36 212.64,269.36 C 208.8,269.36 205.68,272.72 205.68,276.56 z" />
      <path
         id="path2823"
         style="fill:none;stroke:#000000;stroke-width:0.23992801;stroke-linecap:round;stroke-linejoin:round;stroke-miterlimit:10;stroke-dasharray:none;stroke-opacity:1"
         d="M 219.84,276.56 L 243.36,276.56" />
      <path
         id="path2825"
         style="fill:#000000;fill-opacity:1;fill-rule:evenodd;stroke:none"
         d="M 242.64,279.2 L 248.16,276.56 L 242.64,273.68 L 242.64,279.2" />
      <path
         id="path2827"
         style="fill:#ffffff;fill-opacity:1;fill-rule:evenodd;stroke:none"
         d="M 229.44,271.76 L 238.32008,271.76 L 238.32008,281.36 L 229.44,281.36 L 229.44,271.76 z" />
      <path
         id="path2837"
         style="fill:none;stroke:#000000;stroke-width:0.239952;stroke-linecap:round;stroke-linejoin:round;stroke-miterlimit:10;stroke-dasharray:none;stroke-opacity:1"
         d="M 248.16,276.56 C 248.16,280.4 251.28,283.52 255.12,283.52 C 259.2,283.52 262.32,280.4 262.32,276.56 C 262.32,276.56 262.32,276.56 262.32,276.56 C 262.32,272.72 259.2,269.36 255.12,269.36 C 251.28,269.36 248.16,272.72 248.16,276.56 z" />
      <path
         id="path2847"
         style="fill:none;stroke:#000000;stroke-width:0.23992801;stroke-linecap:round;stroke-linejoin:round;stroke-miterlimit:10;stroke-dasharray:none;stroke-opacity:1"
         d="M 262.32,276.56 L 285.84,276.56" />
      <path
         id="path2849"
         style="fill:#000000;fill-opacity:1;fill-rule:evenodd;stroke:none"
         d="M 285.12,279.2 L 290.64,276.56 L 285.12,273.68 L 285.12,279.2" />
      <path
         id="path2851"
         style="fill:#ffffff;fill-opacity:1;fill-rule:evenodd;stroke:none"
         d="M 271.92,271.76 L 280.79969,271.76 L 280.79969,281.36 L 271.92,281.36 L 271.92,271.76 z" />
      <path
         id="path2861"
         style="fill:none;stroke:#000000;stroke-width:0.239952;stroke-linecap:round;stroke-linejoin:round;stroke-miterlimit:10;stroke-dasharray:none;stroke-opacity:1"
         d="M 290.64,276.56 C 290.64,280.4 293.76,283.52 297.6,283.52 C 301.68,283.52 304.8,280.4 304.8,276.56 C 304.8,276.56 304.8,276.56 304.8,276.56 C 304.8,272.72 301.68,269.36 297.6,269.36 C 293.76,269.36 290.64,272.72 290.64,276.56 z" />
      <path
         id="path2871"
         style="fill:none;stroke:#000000;stroke-width:0.23992801;stroke-linecap:round;stroke-linejoin:round;stroke-miterlimit:10;stroke-dasharray:none;stroke-opacity:1"
         d="M 304.8,276.56 L 328.32,276.56" />
      <path
         id="path2873"
         style="fill:#000000;fill-opacity:1;fill-rule:evenodd;stroke:none"
         d="M 327.6,279.2 L 333.12,276.56 L 327.6,273.68 L 327.6,279.2" />
      <path
         id="path2875"
         style="fill:#ffffff;fill-opacity:1;fill-rule:evenodd;stroke:none"
         d="M 314.64,271.76 L 323.52008,271.76 L 323.52008,281.36 L 314.64,281.36 L 314.64,271.76 z" />
      <path
         id="path2885"
         style="fill:none;stroke:#000000;stroke-width:0.239952;stroke-linecap:round;stroke-linejoin:round;stroke-miterlimit:10;stroke-dasharray:none;stroke-opacity:1"
         d="M 333.12,276.56 C 333.12,280.4 336.24,283.52 340.32,283.52 C 344.16,283.52 347.28,280.4 347.28,276.56 C 347.28,276.56 347.28,276.56 347.28,276.56 C 347.28,272.72 344.16,269.36 340.32,269.36 C 336.24,269.36 333.12,272.72 333.12,276.56 z" />
      <path
         id="path2895"
         style="fill:none;stroke:#000000;stroke-width:0.23992801;stroke-linecap:round;stroke-linejoin:round;stroke-miterlimit:10;stroke-dasharray:none;stroke-opacity:1"
         d="M 347.28,276.56 L 370.8,276.56" />
      <path
         id="path2897"
         style="fill:#000000;fill-opacity:1;fill-rule:evenodd;stroke:none"
         d="M 370.08,279.2 L 375.6,276.56 L 370.08,273.68 L 370.08,279.2" />
      <path
         id="path2899"
         style="fill:#ffffff;fill-opacity:1;fill-rule:evenodd;stroke:none"
         d="M 357.12,271.76 L 365.99969,271.76 L 365.99969,281.36 L 357.12,281.36 L 357.12,271.76 z" />
      <path
         id="path2909"
         style="fill:none;stroke:#000000;stroke-width:0.239952;stroke-linecap:round;stroke-linejoin:round;stroke-miterlimit:10;stroke-dasharray:none;stroke-opacity:1"
         d="M 375.6,276.56 C 375.6,280.4 378.72,283.52 382.8,283.52 C 386.64,283.52 389.76,280.4 389.76,276.56 C 389.76,276.56 389.76,276.56 389.76,276.56 C 389.76,272.72 386.64,269.36 382.8,269.36 C 378.72,269.36 375.6,272.72 375.6,276.56 z" />
      <path
         id="path2919"
         style="fill:none;stroke:#000000;stroke-width:0.23992801;stroke-linecap:round;stroke-linejoin:round;stroke-miterlimit:10;stroke-dasharray:none;stroke-opacity:1"
         d="M 389.76,276.56 L 413.28,276.56" />
      <path
         id="path2921"
         style="fill:#000000;fill-opacity:1;fill-rule:evenodd;stroke:none"
         d="M 412.56,279.2 L 418.08,276.56 L 412.56,273.68 L 412.56,279.2" />
      <path
         id="path2923"
         style="fill:#ffffff;fill-opacity:1;fill-rule:evenodd;stroke:none"
         d="M 399.6,271.76 L 408.48008,271.76 L 408.48008,281.36 L 399.6,281.36 L 399.6,271.76 z" />
      <path
         id="path2933"
         style="fill:none;stroke:#000000;stroke-width:0.239952;stroke-linecap:round;stroke-linejoin:round;stroke-miterlimit:10;stroke-dasharray:none;stroke-opacity:1"
         d="M 418.08,276.56 C 418.08,280.4 421.2,283.52 425.04,283.52 C 428.88,283.52 432,280.4 432,276.56 C 432,276.56 432,276.56 432,276.56 C 432,272.72 428.88,269.6 425.04,269.6 C 421.2,269.6 418.08,272.72 418.08,276.56 z" />
      <path
         id="path2935"
         style="fill:none;stroke:#000000;stroke-width:0.239952;stroke-linecap:round;stroke-linejoin:round;stroke-miterlimit:10;stroke-dasharray:none;stroke-opacity:1"
         d="M 419.52,276.56 C 419.52,279.68 422.16,282.08 425.04,282.08 C 428.16,282.08 430.8,279.68 430.8,276.56 C 430.8,276.56 430.8,276.56 430.8,276.56 C 430.8,273.44 428.16,271.04 425.04,271.04 C 422.16,271.04 419.52,273.44 419.52,276.56 z" />
      <path
         id="path2945"
         style="fill:none;stroke:#000000;stroke-width:0.23992801;stroke-linecap:round;stroke-linejoin:round;stroke-miterlimit:10;stroke-dasharray:none;stroke-opacity:1"
         d="M 261.6,315.92 L 329.52,281.84" />
      <path
         id="path2947"
         style="fill:#000000;fill-opacity:1;fill-rule:evenodd;stroke:none"
         d="M 330.24,284.72 L 333.84,279.68 L 327.6,279.68 L 330.24,284.72" />
      <path
         id="path2949"
         style="fill:#ffffff;fill-opacity:1;fill-rule:evenodd;stroke:none"
         d="M 293.28,292.88 L 302.16008,292.88 L 302.16008,302.48 L 293.28,302.48 L 293.28,292.88 z" />
      <path
         id="path2959"
         style="fill:none;stroke:#000000;stroke-width:0.239952;stroke-linecap:round;stroke-linejoin:round;stroke-miterlimit:10;stroke-dasharray:none;stroke-opacity:1"
         d="M 248.16,319.04 C 248.16,322.88 251.28,326 255.12,326 C 259.2,326 262.32,322.88 262.32,319.04 C 262.32,319.04 262.32,319.04 262.32,319.04 C 262.32,315.2 259.2,311.84 255.12,311.84 C 251.28,311.84 248.16,315.2 248.16,319.04 z" />
      <path
         id="path2969"
         style="fill:none;stroke:#000000;stroke-width:0.23992801;stroke-linecap:round;stroke-linejoin:round;stroke-miterlimit:10;stroke-dasharray:none;stroke-opacity:1"
         d="M 217.68,281.6 L 246.72,310.64" />
      <path
         id="path2971"
         style="fill:#000000;fill-opacity:1;fill-rule:evenodd;stroke:none"
         d="M 244.32,312.08 L 250.08,314 L 248.16,308.24 L 244.32,312.08" />
      <path
         id="path2973"
         style="fill:#ffffff;fill-opacity:1;fill-rule:evenodd;stroke:none"
         d="M 229.44,292.88 L 238.32008,292.88 L 238.32008,302.48 L 229.44,302.48 L 229.44,292.88 z" />
      <path
         id="path2983"
         style="fill:none;stroke:#000000;stroke-width:0.23992801;stroke-linecap:round;stroke-linejoin:round;stroke-miterlimit:10;stroke-dasharray:none;stroke-opacity:1"
         d="M 260.16,314 L 289.2,284.96" />
      <path
         id="path2985"
         style="fill:#000000;fill-opacity:1;fill-rule:evenodd;stroke:none"
         d="M 290.64,287.36 L 292.8,281.6 L 286.8,283.52 L 290.64,287.36" />
      <path
         id="path2987"
         style="fill:#ffffff;fill-opacity:1;fill-rule:evenodd;stroke:none"
         d="M 271.92,292.88 L 280.79969,292.88 L 280.79969,302.48 L 271.92,302.48 L 271.92,292.88 z" />
      <path
         id="path2997"
         style="fill:none;stroke:#000000;stroke-width:0.23992801;stroke-linecap:round;stroke-linejoin:round;stroke-miterlimit:10;stroke-dasharray:none;stroke-opacity:1"
         d="M 255.12,311.84 L 255.12,288.32" />
      <path
         id="path2999"
         style="fill:#000000;fill-opacity:1;fill-rule:evenodd;stroke:none"
         d="M 258,289.04 L 255.12,283.52 L 252.48,289.04 L 258,289.04" />
      <path
         id="path3001"
         style="fill:#ffffff;fill-opacity:1;fill-rule:evenodd;stroke:none"
         d="M 250.8,292.88 L 259.68008,292.88 L 259.68008,302.48 L 250.8,302.48 L 250.8,292.88 z" />
    </g>
    <text
       sodipodi:linespacing="125%"
       id="text3326"
       y="115.75612"
       x="180.0564"
       style="font-size:12.5px;font-style:normal;font-weight:normal;line-height:125%;fill:#000000;fill-opacity:1;stroke:none;stroke-width:1px;stroke-linecap:butt;stroke-linejoin:miter;stroke-opacity:1;font-family:Bitstream Vera Sans"
       xml:space="preserve"><tspan
         style="font-size:12.5px;font-style:normal;font-variant:normal;font-weight:normal;font-stretch:normal;text-align:start;line-height:125%;writing-mode:lr-tb;text-anchor:start;font-family:Calibri;-inkscape-font-specification:Calibri"
         y="115.75612"
         x="180.0564"
         id="tspan3328"
         sodipodi:role="line">x≠73,74</tspan></text>
    <text
       transform="scale(-1,-1)"
       id="text30"
       style="font-size:-12.64092922px;font-style:normal;font-weight:normal;fill:#000000;fill-opacity:1;font-family:Calibri"
       y="-115.86903"
       x="-228.98621"
       xml:space="preserve">73</text>
    <text
       transform="scale(-1,-1)"
       id="text38"
       style="font-size:-12.64092922px;font-style:normal;font-weight:normal;fill:#000000;fill-opacity:1;font-family:Calibri"
       y="-115.86901"
       x="-262.08347"
       xml:space="preserve">74</text>
    <text
       transform="scale(-1,-1)"
       id="text50"
       style="font-size:-12.64092922px;font-style:normal;font-weight:normal;fill:#000000;fill-opacity:1;font-family:Calibri"
       y="-82.386459"
       x="-61.00502"
       xml:space="preserve">69</text>
    <text
       transform="scale(-1,-1)"
       id="text54"
       style="font-size:-12.64092922px;font-style:normal;font-weight:normal;fill:#000000;fill-opacity:1;font-family:Calibri"
       y="-82.386459"
       x="-30.537142"
       xml:space="preserve">0</text>
    <text
       transform="scale(-1,-1)"
       id="text58"
       style="font-size:-12.64092922px;font-style:normal;font-weight:normal;fill:#000000;fill-opacity:1;font-family:Calibri"
       y="-82.442009"
       x="-97.627602"
       xml:space="preserve">1</text>
    <text
       transform="scale(-1,-1)"
       id="text66"
       style="font-size:-12.64092922px;font-style:normal;font-weight:normal;fill:#000000;fill-opacity:1;font-family:Calibri"
       y="-82.404984"
       x="-128.09454"
       xml:space="preserve">71</text>
    <text
       transform="scale(-1,-1)"
       id="text70"
       style="font-size:-12.64092922px;font-style:normal;font-weight:normal;fill:#000000;fill-opacity:1;font-family:Calibri"
       y="-82.503731"
       x="-164.69507"
       xml:space="preserve">2</text>
    <text
       transform="scale(-1,-1)"
       id="text78"
       style="font-size:-12.64092922px;font-style:normal;font-weight:normal;fill:#000000;fill-opacity:1;font-family:Calibri"
       y="-82.386459"
       x="-195.32973"
       xml:space="preserve">73</text>
    <text
       transform="scale(-1,-1)"
       id="text82"
       style="font-size:-12.64092922px;font-style:normal;font-weight:normal;fill:#000000;fill-opacity:1;font-family:Calibri"
       y="-82.386459"
       x="-231.97964"
       xml:space="preserve">3</text>
    <text
       transform="scale(-1,-1)"
       id="text90"
       style="font-size:-12.64092922px;font-style:normal;font-weight:normal;fill:#000000;fill-opacity:1;font-family:Calibri"
       y="-82.386459"
       x="-262.08347"
       xml:space="preserve">74</text>
    <text
       transform="scale(-1,-1)"
       id="text94"
       style="font-size:-12.64092922px;font-style:normal;font-weight:normal;fill:#000000;fill-opacity:1;font-family:Calibri"
       y="-82.386459"
       x="-299.07285"
       xml:space="preserve">4</text>
    <text
       transform="scale(-1,-1)"
       id="text102"
       style="font-size:-12.64092922px;font-style:normal;font-weight:normal;fill:#000000;fill-opacity:1;font-family:Calibri"
       y="-82.380287"
       x="-329.37421"
       xml:space="preserve">76</text>
    <text
       transform="scale(-1,-1)"
       id="text106"
       style="font-size:-12.64092922px;font-style:normal;font-weight:normal;fill:#000000;fill-opacity:1;font-family:Calibri"
       y="-82.269188"
       x="-366.11938"
       xml:space="preserve">5</text>
    <text
       transform="scale(-1,-1)"
       id="text114"
       style="font-size:-12.64092922px;font-style:normal;font-weight:normal;fill:#000000;fill-opacity:1;font-family:Calibri"
       y="-82.349419"
       x="-396.61554"
       xml:space="preserve">77</text>
    <text
       transform="scale(-1,-1)"
       id="text118"
       style="font-size:-12.64092922px;font-style:normal;font-weight:normal;fill:#000000;fill-opacity:1;font-family:Calibri"
       y="-82.380287"
       x="-432.99655"
       xml:space="preserve">6</text>
    <text
       transform="scale(-1,-1)"
       id="text126"
       style="font-size:-12.64092922px;font-style:normal;font-weight:normal;fill:#000000;fill-opacity:1;font-family:Calibri"
       y="-82.380287"
       x="-463.52603"
       xml:space="preserve">76</text>
    <text
       transform="scale(-1,-1)"
       id="text132"
       style="font-size:-12.64092922px;font-style:normal;font-weight:normal;fill:#000000;fill-opacity:1;font-family:Calibri"
       y="-82.349426"
       x="-500.12924"
       xml:space="preserve">7</text>
    <text
       transform="scale(-1,-1)"
       id="text140"
       style="font-size:-12.64092922px;font-style:normal;font-weight:normal;fill:#000000;fill-opacity:1;font-family:Calibri"
       y="-48.897728"
       x="-295.71771"
       xml:space="preserve">76</text>
    <text
       transform="scale(-1,-1)"
       id="text144"
       style="font-size:-12.64092922px;font-style:normal;font-weight:normal;fill:#000000;fill-opacity:1;font-family:Calibri"
       y="-15.9928"
       x="-231.86235"
       xml:space="preserve">8</text>
    <text
       transform="scale(-1,-1)"
       id="text152"
       style="font-size:-12.64092922px;font-style:normal;font-weight:normal;fill:#000000;fill-opacity:1;font-family:Calibri"
       y="-48.9039"
       x="-194.92853"
       xml:space="preserve">74</text>
    <text
       transform="scale(-1,-1)"
       id="text160"
       style="font-size:-12.64092922px;font-style:normal;font-weight:normal;fill:#000000;fill-opacity:1;font-family:Calibri"
       y="-48.9039"
       x="-262.08347"
       xml:space="preserve">74</text>
    <text
       transform="scale(-1,-1)"
       id="text168"
       style="font-size:-12.64092922px;font-style:normal;font-weight:normal;fill:#000000;fill-opacity:1;font-family:Calibri"
       y="-48.9039"
       x="-228.98621"
       xml:space="preserve">73</text>
    <text
       transform="scale(-1,-1)"
       id="text22"
       style="font-size:-12.64092922px;font-style:normal;font-weight:normal;fill:#000000;fill-opacity:1;font-family:Calibri"
       y="-149.7491"
       x="-231.98579"
       xml:space="preserve">9</text>
  </g>
</svg>
