<?xml version="1.0" encoding="UTF-8" standalone="no"?>
<svg
   xmlns:dc="http://purl.org/dc/elements/1.1/"
   xmlns:cc="http://creativecommons.org/ns#"
   xmlns:rdf="http://www.w3.org/1999/02/22-rdf-syntax-ns#"
   xmlns:svg="http://www.w3.org/2000/svg"
   xmlns="http://www.w3.org/2000/svg"
   xmlns:sodipodi="http://sodipodi.sourceforge.net/DTD/sodipodi-0.dtd"
   xmlns:inkscape="http://www.inkscape.org/namespaces/inkscape"
   width="514.64001"
   height="89.815613"
   id="svg2"
   sodipodi:version="0.32"
   inkscape:version="0.46"
   inkscape:output_extension="org.inkscape.output.svg.inkscape"
   sodipodi:docname="adapt3.svg"
   version="1.0">
  <metadata
     id="metadata173">
    <rdf:RDF>
      <cc:Work
         rdf:about="">
        <dc:format>image/svg+xml</dc:format>
        <dc:type
           rdf:resource="http://purl.org/dc/dcmitype/StillImage" />
      </cc:Work>
    </rdf:RDF>
  </metadata>
  <defs
     id="defs171">
    <inkscape:perspective
       sodipodi:type="inkscape:persp3d"
       inkscape:vp_x="0 : 64.009842 : 1"
       inkscape:vp_y="0 : 1000 : 0"
       inkscape:vp_z="414.49606 : 64.009842 : 1"
       inkscape:persp3d-origin="207.24803 : 42.673228 : 1"
       id="perspective175" />
  </defs>
  <sodipodi:namedview
     inkscape:window-height="750"
     inkscape:window-width="1276"
     inkscape:pageshadow="2"
     inkscape:pageopacity="0.0"
     guidetolerance="10.0"
     gridtolerance="10.0"
     objecttolerance="10.0"
     borderopacity="1.0"
     bordercolor="#666666"
     pagecolor="#ffffff"
     id="base"
     showgrid="false"
     units="cm"
     inkscape:zoom="1.3124371"
     inkscape:cx="194.49933"
     inkscape:cy="10.373781"
     inkscape:window-x="0"
     inkscape:window-y="14"
     inkscape:current-layer="svg2" />
<!-- EMR_GDICOMMENT --><!-- EMR_SETMAPMODE --><!-- EMR_SETVIEWPORTEXTEX --><!-- EMR_SETWINDOWEXTEX --><!-- EMR_SETWINDOWEXTEX --><!-- EMR_SAVEDC --><!-- EMR_SETBKMODE --><!-- EMR_SETTEXTCOLOR --><!-- EMR_SETTEXTALIGN --><!-- EMR_SETBKMODE --><!-- EMR_SETTEXTCOLOR --><!-- EMR_SETTEXTALIGN --><!-- EMR_SETBKMODE --><!-- EMR_SETTEXTCOLOR --><!-- EMR_SETTEXTALIGN --><!-- EMR_SETBKMODE --><!-- EMR_SETTEXTCOLOR --><!-- EMR_SETTEXTALIGN --><!-- EMR_SETBKMODE --><!-- EMR_SETTEXTCOLOR --><!-- EMR_SETTEXTALIGN --><!-- EMR_SETBKMODE --><!-- EMR_SETTEXTCOLOR --><!-- EMR_SETTEXTALIGN --><!-- EMR_SETBKMODE --><!-- EMR_SETTEXTCOLOR --><!-- EMR_SETTEXTALIGN --><!-- EMR_SETBKMODE --><!-- EMR_SETTEXTCOLOR --><!-- EMR_SETTEXTALIGN --><!-- EMR_SETBKMODE --><!-- EMR_SETTEXTCOLOR --><!-- EMR_SETTEXTALIGN --><!-- EMR_SETBKMODE --><!-- EMR_SETTEXTCOLOR --><!-- EMR_SETTEXTALIGN --><!-- EMR_SETBKMODE --><!-- EMR_SETTEXTCOLOR --><!-- EMR_SETTEXTALIGN --><!-- EMR_SETBKMODE --><!-- EMR_SETTEXTCOLOR --><!-- EMR_SETTEXTALIGN --><!-- EMR_SETBKMODE --><!-- EMR_SETTEXTCOLOR --><!-- EMR_SETTEXTALIGN --><!-- EMR_SETBKMODE --><!-- EMR_SETTEXTCOLOR --><!-- EMR_SETTEXTALIGN --><!-- EMR_SETBKMODE --><!-- EMR_SETTEXTCOLOR --><!-- EMR_SETTEXTALIGN --><!-- EMR_SETBKMODE --><!-- EMR_SETTEXTCOLOR --><!-- EMR_SETTEXTALIGN --><!-- EMR_SETBKMODE --><!-- EMR_SETTEXTCOLOR --><!-- EMR_SETTEXTALIGN --><!-- EMR_SETBKMODE --><!-- EMR_SETTEXTCOLOR --><!-- EMR_SETTEXTALIGN --><!-- EMR_SETBKMODE --><!-- EMR_SETTEXTCOLOR --><!-- EMR_SETTEXTALIGN --><!-- EMR_SETBKMODE --><!-- EMR_SETTEXTCOLOR --><!-- EMR_SETTEXTALIGN --><!-- EMR_SETBKMODE --><!-- EMR_SETTEXTCOLOR --><!-- EMR_SETTEXTALIGN --><!-- EMR_SETBKMODE --><!-- EMR_SETTEXTCOLOR --><!-- EMR_SETTEXTALIGN --><!-- EMR_SETBKMODE --><!-- EMR_SETTEXTCOLOR --><!-- EMR_SETTEXTALIGN --><!-- EMR_SETBKMODE --><!-- EMR_SETTEXTCOLOR --><!-- EMR_SETTEXTALIGN --><!-- EMR_SETBKMODE --><!-- EMR_SETTEXTCOLOR --><!-- EMR_SETTEXTALIGN --><!-- EMR_SETBKMODE --><!-- EMR_SETTEXTCOLOR --><!-- EMR_SETTEXTALIGN --><!-- EMR_SETBKMODE --><!-- EMR_SETTEXTCOLOR --><!-- EMR_SETTEXTALIGN --><!-- EMR_SETBKMODE --><!-- EMR_SETTEXTCOLOR --><!-- EMR_SETTEXTALIGN --><!-- EMR_RESTOREDC --><!-- EMR_SELECTPALETTE --><!-- EMR_EXTSELECTCLIPRGN -->  <g
     id="g4598"
     transform="translate(-3.0565787e-6,-67.077541)">
    <path
       d="M 176.03111,86.215445 L 221.88638,132.07071"
       style="fill:none;stroke:#000000;stroke-width:0.37885547;stroke-linecap:round;stroke-linejoin:round;stroke-miterlimit:10;stroke-dasharray:none;stroke-opacity:1"
       id="path2685" />
    <path
       d="M 224.16019,128.28102 L 227.19195,137.37628 L 218.09669,134.34453 L 224.16019,128.28102"
       style="fill:#000000;fill-opacity:1;fill-rule:evenodd;stroke:none"
       id="path2687" />
    <path
       d="M 179.44184,119.56473 L 224.16004,119.56473 L 224.16004,104.40596 L 179.44184,104.40596 L 179.44184,119.56473 z"
       style="fill:#ffffff;fill-opacity:1;fill-rule:evenodd;stroke:none"
       id="path2689" />
    <path
       d="M 224.16019,145.33463 C 224.16019,139.27113 229.08679,134.34453 235.1503,134.34453 C 241.59278,134.34453 246.51937,139.27113 246.51937,145.33463 C 246.51937,145.33463 246.51937,145.33463 246.51937,145.33463 C 246.51937,151.77711 241.59278,156.70371 235.1503,156.70371 C 229.08679,156.70371 224.16019,151.77711 224.16019,145.33463 z"
       style="fill:none;stroke:#000000;stroke-width:0.37889335;stroke-linecap:round;stroke-linejoin:round;stroke-miterlimit:10;stroke-dasharray:none;stroke-opacity:1"
       id="path2723" />
    <path
       d="M 235.1503,134.34453 L 235.1503,97.20555"
       style="fill:none;stroke:#000000;stroke-width:0.37885547;stroke-linecap:round;stroke-linejoin:round;stroke-miterlimit:10;stroke-dasharray:none;stroke-opacity:1"
       id="path2733" />
    <path
       d="M 230.98164,98.342458 L 235.1503,89.626167 L 239.69793,98.342458 L 230.98164,98.342458"
       style="fill:#000000;fill-opacity:1;fill-rule:evenodd;stroke:none"
       id="path2735" />
    <path
       d="M 228.32886,119.56473 L 242.35084,119.56473 L 242.35084,104.40596 L 228.32886,104.40596 L 228.32886,119.56473 z"
       style="fill:#ffffff;fill-opacity:1;fill-rule:evenodd;stroke:none"
       id="path2737" />
    <path
       d="M 243.10865,137.37628 L 288.96392,91.521013"
       style="fill:none;stroke:#000000;stroke-width:0.37885547;stroke-linecap:round;stroke-linejoin:round;stroke-miterlimit:10;stroke-dasharray:none;stroke-opacity:1"
       id="path2747" />
    <path
       d="M 285.17423,89.247198 L 294.64846,86.215445 L 291.23773,95.310705 L 285.17423,89.247198"
       style="fill:#000000;fill-opacity:1;fill-rule:evenodd;stroke:none"
       id="path2749" />
    <path
       d="M 261.67814,119.56473 L 275.69951,119.56473 L 275.69951,104.40596 L 261.67814,104.40596 L 261.67814,119.56473 z"
       style="fill:#ffffff;fill-opacity:1;fill-rule:evenodd;stroke:none"
       id="path2751" />
    <path
       d="M 0.18943079,78.257093 L 14.969227,78.257093"
       style="fill:none;stroke:#000000;stroke-width:0.37885547;stroke-linecap:round;stroke-linejoin:round;stroke-miterlimit:10;stroke-dasharray:none;stroke-opacity:1"
       id="path2761" />
    <path
       d="M 13.83232,74.088432 L 22.54861,78.257093 L 13.83232,82.804723 L 13.83232,74.088432"
       style="fill:#000000;fill-opacity:1;fill-rule:evenodd;stroke:none"
       id="path2763" />
    <path
       d="M 44.90779,78.257093 L 82.046766,78.257093"
       style="fill:none;stroke:#000000;stroke-width:0.37885547;stroke-linecap:round;stroke-linejoin:round;stroke-miterlimit:10;stroke-dasharray:none;stroke-opacity:1"
       id="path2765" />
    <path
       d="M 81.288828,74.088432 L 90.005118,78.257093 L 81.288828,82.804723 L 81.288828,74.088432"
       style="fill:#000000;fill-opacity:1;fill-rule:evenodd;stroke:none"
       id="path2767" />
    <path
       d="M 60.445525,85.836476 L 74.467509,85.836476 L 74.467509,70.67771 L 60.445525,70.67771 L 60.445525,85.836476 z"
       style="fill:#ffffff;fill-opacity:1;fill-rule:evenodd;stroke:none"
       id="path2769" />
    <path
       d="M 22.54861,78.257093 C 22.54861,72.193587 27.854178,67.266988 33.917685,67.266988 C 39.981191,67.266988 44.90779,72.193587 44.90779,78.257093 C 44.90779,78.257093 44.90779,78.257093 44.90779,78.257093 C 44.90779,84.320599 39.981191,89.626167 33.917685,89.626167 C 27.854178,89.626167 22.54861,84.320599 22.54861,78.257093 z"
       style="fill:none;stroke:#000000;stroke-width:0.37889335;stroke-linecap:round;stroke-linejoin:round;stroke-miterlimit:10;stroke-dasharray:none;stroke-opacity:1"
       id="path2779" />
    <path
       d="M 90.005118,78.257093 C 90.005118,72.193587 94.931717,67.266988 100.99522,67.266988 C 107.05873,67.266988 112.3643,72.193587 112.3643,78.257093 C 112.3643,78.257093 112.3643,78.257093 112.3643,78.257093 C 112.3643,84.320599 107.05873,89.626167 100.99522,89.626167 C 94.931717,89.626167 90.005118,84.320599 90.005118,78.257093 z"
       style="fill:none;stroke:#000000;stroke-width:0.37889335;stroke-linecap:round;stroke-linejoin:round;stroke-miterlimit:10;stroke-dasharray:none;stroke-opacity:1"
       id="path2789" />
    <path
       d="M 112.3643,78.257093 L 149.50327,78.257093"
       style="fill:none;stroke:#000000;stroke-width:0.37885547;stroke-linecap:round;stroke-linejoin:round;stroke-miterlimit:10;stroke-dasharray:none;stroke-opacity:1"
       id="path2799" />
    <path
       d="M 148.36637,74.088432 L 157.08266,78.257093 L 148.36637,82.804723 L 148.36637,74.088432"
       style="fill:#000000;fill-opacity:1;fill-rule:evenodd;stroke:none"
       id="path2801" />
    <path
       d="M 127.52306,85.836476 L 141.54505,85.836476 L 141.54505,70.67771 L 127.52306,70.67771 L 127.52306,85.836476 z"
       style="fill:#ffffff;fill-opacity:1;fill-rule:evenodd;stroke:none"
       id="path2803" />
    <path
       d="M 157.08266,78.257093 C 157.08266,72.193587 162.00926,67.266988 168.07276,67.266988 C 174.13627,67.266988 179.44184,72.193587 179.44184,78.257093 C 179.44184,78.257093 179.44184,78.257093 179.44184,78.257093 C 179.44184,84.320599 174.13627,89.626167 168.07276,89.626167 C 162.00926,89.626167 157.08266,84.320599 157.08266,78.257093 z"
       style="fill:none;stroke:#000000;stroke-width:0.37889335;stroke-linecap:round;stroke-linejoin:round;stroke-miterlimit:10;stroke-dasharray:none;stroke-opacity:1"
       id="path2813" />
    <path
       d="M 179.44184,78.257093 L 216.58081,78.257093"
       style="fill:none;stroke:#000000;stroke-width:0.37885547;stroke-linecap:round;stroke-linejoin:round;stroke-miterlimit:10;stroke-dasharray:none;stroke-opacity:1"
       id="path2823" />
    <path
       d="M 215.4439,74.088432 L 224.16019,78.257093 L 215.4439,82.804723 L 215.4439,74.088432"
       style="fill:#000000;fill-opacity:1;fill-rule:evenodd;stroke:none"
       id="path2825" />
    <path
       d="M 194.6006,85.836476 L 208.62259,85.836476 L 208.62259,70.67771 L 194.6006,70.67771 L 194.6006,85.836476 z"
       style="fill:#ffffff;fill-opacity:1;fill-rule:evenodd;stroke:none"
       id="path2827" />
    <path
       d="M 224.16019,78.257093 C 224.16019,72.193587 229.08679,67.266988 235.1503,67.266988 C 241.59278,67.266988 246.51937,72.193587 246.51937,78.257093 C 246.51937,78.257093 246.51937,78.257093 246.51937,78.257093 C 246.51937,84.320599 241.59278,89.626167 235.1503,89.626167 C 229.08679,89.626167 224.16019,84.320599 224.16019,78.257093 z"
       style="fill:none;stroke:#000000;stroke-width:0.37889335;stroke-linecap:round;stroke-linejoin:round;stroke-miterlimit:10;stroke-dasharray:none;stroke-opacity:1"
       id="path2837" />
    <path
       d="M 246.51937,78.257093 L 283.65835,78.257093"
       style="fill:none;stroke:#000000;stroke-width:0.37885547;stroke-linecap:round;stroke-linejoin:round;stroke-miterlimit:10;stroke-dasharray:none;stroke-opacity:1"
       id="path2847" />
    <path
       d="M 282.52144,74.088432 L 291.23773,78.257093 L 282.52144,82.804723 L 282.52144,74.088432"
       style="fill:#000000;fill-opacity:1;fill-rule:evenodd;stroke:none"
       id="path2849" />
    <path
       d="M 261.67814,85.836476 L 275.69951,85.836476 L 275.69951,70.67771 L 261.67814,70.67771 L 261.67814,85.836476 z"
       style="fill:#ffffff;fill-opacity:1;fill-rule:evenodd;stroke:none"
       id="path2851" />
    <path
       d="M 291.23773,78.257093 C 291.23773,72.193587 296.16433,67.266988 302.22784,67.266988 C 308.67031,67.266988 313.59691,72.193587 313.59691,78.257093 C 313.59691,78.257093 313.59691,78.257093 313.59691,78.257093 C 313.59691,84.320599 308.67031,89.626167 302.22784,89.626167 C 296.16433,89.626167 291.23773,84.320599 291.23773,78.257093 z"
       style="fill:none;stroke:#000000;stroke-width:0.37889335;stroke-linecap:round;stroke-linejoin:round;stroke-miterlimit:10;stroke-dasharray:none;stroke-opacity:1"
       id="path2861" />
    <path
       d="M 313.59691,78.257093 L 350.73589,78.257093"
       style="fill:none;stroke:#000000;stroke-width:0.37885547;stroke-linecap:round;stroke-linejoin:round;stroke-miterlimit:10;stroke-dasharray:none;stroke-opacity:1"
       id="path2871" />
    <path
       d="M 349.59898,74.088432 L 358.31527,78.257093 L 349.59898,82.804723 L 349.59898,74.088432"
       style="fill:#000000;fill-opacity:1;fill-rule:evenodd;stroke:none"
       id="path2873" />
    <path
       d="M 329.13465,85.836476 L 343.15663,85.836476 L 343.15663,70.67771 L 329.13465,70.67771 L 329.13465,85.836476 z"
       style="fill:#ffffff;fill-opacity:1;fill-rule:evenodd;stroke:none"
       id="path2875" />
    <path
       d="M 358.31527,78.257093 C 358.31527,72.193587 363.24187,67.266988 369.68435,67.266988 C 375.74785,67.266988 380.67445,72.193587 380.67445,78.257093 C 380.67445,78.257093 380.67445,78.257093 380.67445,78.257093 C 380.67445,84.320599 375.74785,89.626167 369.68435,89.626167 C 363.24187,89.626167 358.31527,84.320599 358.31527,78.257093 z"
       style="fill:none;stroke:#000000;stroke-width:0.37889335;stroke-linecap:round;stroke-linejoin:round;stroke-miterlimit:10;stroke-dasharray:none;stroke-opacity:1"
       id="path2885" />
    <path
       d="M 380.67445,78.257093 L 417.81343,78.257093"
       style="fill:none;stroke:#000000;stroke-width:0.37885547;stroke-linecap:round;stroke-linejoin:round;stroke-miterlimit:10;stroke-dasharray:none;stroke-opacity:1"
       id="path2895" />
    <path
       d="M 416.67652,74.088432 L 425.39281,78.257093 L 416.67652,82.804723 L 416.67652,74.088432"
       style="fill:#000000;fill-opacity:1;fill-rule:evenodd;stroke:none"
       id="path2897" />
    <path
       d="M 396.21219,85.836476 L 410.23356,85.836476 L 410.23356,70.67771 L 396.21219,70.67771 L 396.21219,85.836476 z"
       style="fill:#ffffff;fill-opacity:1;fill-rule:evenodd;stroke:none"
       id="path2899" />
    <path
       d="M 425.39281,78.257093 C 425.39281,72.193587 430.31941,67.266988 436.76188,67.266988 C 442.82539,67.266988 447.75199,72.193587 447.75199,78.257093 C 447.75199,78.257093 447.75199,78.257093 447.75199,78.257093 C 447.75199,84.320599 442.82539,89.626167 436.76188,89.626167 C 430.31941,89.626167 425.39281,84.320599 425.39281,78.257093 z"
       style="fill:none;stroke:#000000;stroke-width:0.37889335;stroke-linecap:round;stroke-linejoin:round;stroke-miterlimit:10;stroke-dasharray:none;stroke-opacity:1"
       id="path2909" />
    <path
       d="M 447.75199,78.257093 L 484.89097,78.257093"
       style="fill:none;stroke:#000000;stroke-width:0.37885547;stroke-linecap:round;stroke-linejoin:round;stroke-miterlimit:10;stroke-dasharray:none;stroke-opacity:1"
       id="path2919" />
    <path
       d="M 483.75406,74.088432 L 492.47035,78.257093 L 483.75406,82.804723 L 483.75406,74.088432"
       style="fill:#000000;fill-opacity:1;fill-rule:evenodd;stroke:none"
       id="path2921" />
    <path
       d="M 463.28972,85.836476 L 477.31171,85.836476 L 477.31171,70.67771 L 463.28972,70.67771 L 463.28972,85.836476 z"
       style="fill:#ffffff;fill-opacity:1;fill-rule:evenodd;stroke:none"
       id="path2923" />
    <path
       d="M 492.47035,78.257093 C 492.47035,72.193587 497.39695,67.266988 503.46045,67.266988 C 509.52396,67.266988 514.45056,72.193587 514.45056,78.257093 C 514.45056,78.257093 514.45056,78.257093 514.45056,78.257093 C 514.45056,84.320599 509.52396,89.247198 503.46045,89.247198 C 497.39695,89.247198 492.47035,84.320599 492.47035,78.257093 z"
       style="fill:none;stroke:#000000;stroke-width:0.37889335;stroke-linecap:round;stroke-linejoin:round;stroke-miterlimit:10;stroke-dasharray:none;stroke-opacity:1"
       id="path2933" />
    <path
       d="M 494.74416,78.257093 C 494.74416,73.330494 498.91282,69.540803 503.46045,69.540803 C 508.38705,69.540803 512.55571,73.330494 512.55571,78.257093 C 512.55571,78.257093 512.55571,78.257093 512.55571,78.257093 C 512.55571,83.183692 508.38705,86.973383 503.46045,86.973383 C 498.91282,86.973383 494.74416,83.183692 494.74416,78.257093 z"
       style="fill:none;stroke:#000000;stroke-width:0.37889335;stroke-linecap:round;stroke-linejoin:round;stroke-miterlimit:10;stroke-dasharray:none;stroke-opacity:1"
       id="path2935" />
    <text
       sodipodi:linespacing="125%"
       id="text3326"
       y="115.58832"
       x="180.01616"
       style="font-size:12.5px;font-style:normal;font-weight:normal;line-height:125%;fill:#000000;fill-opacity:1;stroke:none;stroke-width:1px;stroke-linecap:butt;stroke-linejoin:miter;stroke-opacity:1;font-family:Bitstream Vera Sans"
       xml:space="preserve"><tspan
         style="font-size:12.5px;font-style:normal;font-variant:normal;font-weight:normal;font-stretch:normal;text-align:start;line-height:125%;writing-mode:lr-tb;text-anchor:start;font-family:Calibri;-inkscape-font-specification:Calibri"
         y="115.58832"
         x="180.01616"
         id="tspan3328"
         sodipodi:role="line">x≠73,74</tspan></text>
    <text
       transform="scale(-1,-1)"
       id="text30"
       style="font-size:-12.64092922px;font-style:normal;font-weight:normal;fill:#000000;fill-opacity:1;font-family:Calibri"
       y="-115.70123"
       x="-228.94597"
       xml:space="preserve">73</text>
    <text
       transform="scale(-1,-1)"
       id="text38"
       style="font-size:-12.64092922px;font-style:normal;font-weight:normal;fill:#000000;fill-opacity:1;font-family:Calibri"
       y="-115.70121"
       x="-262.04321"
       xml:space="preserve">74</text>
    <text
       transform="scale(-1,-1)"
       id="text50"
       style="font-size:-12.64092922px;font-style:normal;font-weight:normal;fill:#000000;fill-opacity:1;font-family:Calibri"
       y="-82.218658"
       x="-60.964779"
       xml:space="preserve">69</text>
    <text
       transform="scale(-1,-1)"
       id="text54"
       style="font-size:-12.64092922px;font-style:normal;font-weight:normal;fill:#000000;fill-opacity:1;font-family:Calibri"
       y="-82.218658"
       x="-30.496899"
       xml:space="preserve">0</text>
    <text
       transform="scale(-1,-1)"
       id="text58"
       style="font-size:-12.64092922px;font-style:normal;font-weight:normal;fill:#000000;fill-opacity:1;font-family:Calibri"
       y="-82.274208"
       x="-97.587357"
       xml:space="preserve">1</text>
    <text
       transform="scale(-1,-1)"
       id="text66"
       style="font-size:-12.64092922px;font-style:normal;font-weight:normal;fill:#000000;fill-opacity:1;font-family:Calibri"
       y="-82.237183"
       x="-128.05431"
       xml:space="preserve">71</text>
    <text
       transform="scale(-1,-1)"
       id="text70"
       style="font-size:-12.64092922px;font-style:normal;font-weight:normal;fill:#000000;fill-opacity:1;font-family:Calibri"
       y="-82.33593"
       x="-164.65483"
       xml:space="preserve">2</text>
    <text
       transform="scale(-1,-1)"
       id="text78"
       style="font-size:-12.64092922px;font-style:normal;font-weight:normal;fill:#000000;fill-opacity:1;font-family:Calibri"
       y="-82.218658"
       x="-195.28949"
       xml:space="preserve">73</text>
    <text
       transform="scale(-1,-1)"
       id="text82"
       style="font-size:-12.64092922px;font-style:normal;font-weight:normal;fill:#000000;fill-opacity:1;font-family:Calibri"
       y="-82.218658"
       x="-231.93941"
       xml:space="preserve">3</text>
    <text
       transform="scale(-1,-1)"
       id="text90"
       style="font-size:-12.64092922px;font-style:normal;font-weight:normal;fill:#000000;fill-opacity:1;font-family:Calibri"
       y="-82.218658"
       x="-262.04321"
       xml:space="preserve">74</text>
    <text
       transform="scale(-1,-1)"
       id="text94"
       style="font-size:-12.64092922px;font-style:normal;font-weight:normal;fill:#000000;fill-opacity:1;font-family:Calibri"
       y="-82.218658"
       x="-299.03259"
       xml:space="preserve">4</text>
    <text
       transform="scale(-1,-1)"
       id="text102"
       style="font-size:-12.64092922px;font-style:normal;font-weight:normal;fill:#000000;fill-opacity:1;font-family:Calibri"
       y="-82.212486"
       x="-329.33395"
       xml:space="preserve">76</text>
    <text
       transform="scale(-1,-1)"
       id="text106"
       style="font-size:-12.64092922px;font-style:normal;font-weight:normal;fill:#000000;fill-opacity:1;font-family:Calibri"
       y="-82.101387"
       x="-366.07913"
       xml:space="preserve">5</text>
    <text
       transform="scale(-1,-1)"
       id="text114"
       style="font-size:-12.64092922px;font-style:normal;font-weight:normal;fill:#000000;fill-opacity:1;font-family:Calibri"
       y="-82.181618"
       x="-396.57529"
       xml:space="preserve">77</text>
    <text
       transform="scale(-1,-1)"
       id="text118"
       style="font-size:-12.64092922px;font-style:normal;font-weight:normal;fill:#000000;fill-opacity:1;font-family:Calibri"
       y="-82.212486"
       x="-432.9563"
       xml:space="preserve">6</text>
    <text
       transform="scale(-1,-1)"
       id="text126"
       style="font-size:-12.64092922px;font-style:normal;font-weight:normal;fill:#000000;fill-opacity:1;font-family:Calibri"
       y="-82.212486"
       x="-463.48578"
       xml:space="preserve">76</text>
    <text
       transform="scale(-1,-1)"
       id="text132"
       style="font-size:-12.64092922px;font-style:normal;font-weight:normal;fill:#000000;fill-opacity:1;font-family:Calibri"
       y="-82.181625"
       x="-500.08899"
       xml:space="preserve">7</text>
    <text
       transform="scale(-1,-1)"
       id="text22"
       style="font-size:-12.64092922px;font-style:normal;font-weight:normal;fill:#000000;fill-opacity:1;font-family:Calibri"
       y="-149.5813"
       x="-231.94556"
       xml:space="preserve">9</text>
  </g>
</svg>
