<?xml version="1.0" encoding="UTF-8" standalone="no"?>
<svg
   xmlns:dc="http://purl.org/dc/elements/1.1/"
   xmlns:cc="http://creativecommons.org/ns#"
   xmlns:rdf="http://www.w3.org/1999/02/22-rdf-syntax-ns#"
   xmlns:svg="http://www.w3.org/2000/svg"
   xmlns="http://www.w3.org/2000/svg"
   xmlns:sodipodi="http://sodipodi.sourceforge.net/DTD/sodipodi-0.dtd"
   xmlns:inkscape="http://www.inkscape.org/namespaces/inkscape"
   width="514.64001"
   height="22.738071"
   id="svg2"
   sodipodi:version="0.32"
   inkscape:version="0.46"
   inkscape:output_extension="org.inkscape.output.svg.inkscape"
   sodipodi:docname="adapt1.svg"
   version="1.0">
  <metadata
     id="metadata173">
    <rdf:RDF>
      <cc:Work
         rdf:about="">
        <dc:format>image/svg+xml</dc:format>
        <dc:type
           rdf:resource="http://purl.org/dc/dcmitype/StillImage" />
      </cc:Work>
    </rdf:RDF>
  </metadata>
  <defs
     id="defs171">
    <inkscape:perspective
       sodipodi:type="inkscape:persp3d"
       inkscape:vp_x="0 : 64.009842 : 1"
       inkscape:vp_y="0 : 1000 : 0"
       inkscape:vp_z="414.49606 : 64.009842 : 1"
       inkscape:persp3d-origin="207.24803 : 42.673228 : 1"
       id="perspective175" />
  </defs>
  <sodipodi:namedview
     inkscape:window-height="750"
     inkscape:window-width="1276"
     inkscape:pageshadow="2"
     inkscape:pageopacity="0.0"
     guidetolerance="10.0"
     gridtolerance="10.0"
     objecttolerance="10.0"
     borderopacity="1.0"
     bordercolor="#666666"
     pagecolor="#ffffff"
     id="base"
     showgrid="false"
     units="cm"
     inkscape:zoom="1.3124371"
     inkscape:cx="194.49933"
     inkscape:cy="10.373781"
     inkscape:window-x="0"
     inkscape:window-y="14"
     inkscape:current-layer="svg2" />
<!-- EMR_GDICOMMENT --><!-- EMR_SETMAPMODE --><!-- EMR_SETVIEWPORTEXTEX --><!-- EMR_SETWINDOWEXTEX --><!-- EMR_SETWINDOWEXTEX --><!-- EMR_SAVEDC --><!-- EMR_SETBKMODE --><!-- EMR_SETTEXTCOLOR --><!-- EMR_SETTEXTALIGN --><!-- EMR_SETBKMODE --><!-- EMR_SETTEXTCOLOR --><!-- EMR_SETTEXTALIGN --><!-- EMR_SETBKMODE --><!-- EMR_SETTEXTCOLOR --><!-- EMR_SETTEXTALIGN --><!-- EMR_SETBKMODE --><!-- EMR_SETTEXTCOLOR --><!-- EMR_SETTEXTALIGN --><!-- EMR_SETBKMODE --><!-- EMR_SETTEXTCOLOR --><!-- EMR_SETTEXTALIGN --><!-- EMR_SETBKMODE --><!-- EMR_SETTEXTCOLOR --><!-- EMR_SETTEXTALIGN --><!-- EMR_SETBKMODE --><!-- EMR_SETTEXTCOLOR --><!-- EMR_SETTEXTALIGN --><!-- EMR_SETBKMODE --><!-- EMR_SETTEXTCOLOR --><!-- EMR_SETTEXTALIGN --><!-- EMR_SETBKMODE --><!-- EMR_SETTEXTCOLOR --><!-- EMR_SETTEXTALIGN --><!-- EMR_SETBKMODE --><!-- EMR_SETTEXTCOLOR --><!-- EMR_SETTEXTALIGN --><!-- EMR_SETBKMODE --><!-- EMR_SETTEXTCOLOR --><!-- EMR_SETTEXTALIGN --><!-- EMR_SETBKMODE --><!-- EMR_SETTEXTCOLOR --><!-- EMR_SETTEXTALIGN --><!-- EMR_SETBKMODE --><!-- EMR_SETTEXTCOLOR --><!-- EMR_SETTEXTALIGN --><!-- EMR_SETBKMODE --><!-- EMR_SETTEXTCOLOR --><!-- EMR_SETTEXTALIGN --><!-- EMR_SETBKMODE --><!-- EMR_SETTEXTCOLOR --><!-- EMR_SETTEXTALIGN --><!-- EMR_SETBKMODE --><!-- EMR_SETTEXTCOLOR --><!-- EMR_SETTEXTALIGN --><!-- EMR_SETBKMODE --><!-- EMR_SETTEXTCOLOR --><!-- EMR_SETTEXTALIGN --><!-- EMR_SETBKMODE --><!-- EMR_SETTEXTCOLOR --><!-- EMR_SETTEXTALIGN --><!-- EMR_SETBKMODE --><!-- EMR_SETTEXTCOLOR --><!-- EMR_SETTEXTALIGN --><!-- EMR_SETBKMODE --><!-- EMR_SETTEXTCOLOR --><!-- EMR_SETTEXTALIGN --><!-- EMR_SETBKMODE --><!-- EMR_SETTEXTCOLOR --><!-- EMR_SETTEXTALIGN --><!-- EMR_SETBKMODE --><!-- EMR_SETTEXTCOLOR --><!-- EMR_SETTEXTALIGN --><!-- EMR_SETBKMODE --><!-- EMR_SETTEXTCOLOR --><!-- EMR_SETTEXTALIGN --><!-- EMR_SETBKMODE --><!-- EMR_SETTEXTCOLOR --><!-- EMR_SETTEXTALIGN --><!-- EMR_SETBKMODE --><!-- EMR_SETTEXTCOLOR --><!-- EMR_SETTEXTALIGN --><!-- EMR_SETBKMODE --><!-- EMR_SETTEXTCOLOR --><!-- EMR_SETTEXTALIGN --><!-- EMR_SETBKMODE --><!-- EMR_SETTEXTCOLOR --><!-- EMR_SETTEXTALIGN --><!-- EMR_SETBKMODE --><!-- EMR_SETTEXTCOLOR --><!-- EMR_SETTEXTALIGN --><!-- EMR_RESTOREDC --><!-- EMR_SELECTPALETTE --><!-- EMR_EXTSELECTCLIPRGN -->  <path
     id="path2761"
     style="fill:none;stroke:#000000;stroke-width:0.37885547;stroke-linecap:round;stroke-linejoin:round;stroke-miterlimit:10;stroke-dasharray:none;stroke-opacity:1"
     d="M 0.18942773,11.179552 L 14.969224,11.179552" />
  <path
     id="path2763"
     style="fill:#000000;fill-opacity:1;fill-rule:evenodd;stroke:none"
     d="M 13.832317,7.0108907 L 22.548607,11.179552 L 13.832317,15.727182 L 13.832317,7.0108907" />
  <path
     id="path2765"
     style="fill:none;stroke:#000000;stroke-width:0.37885547;stroke-linecap:round;stroke-linejoin:round;stroke-miterlimit:10;stroke-dasharray:none;stroke-opacity:1"
     d="M 44.907787,11.179552 L 82.046763,11.179552" />
  <path
     id="path2767"
     style="fill:#000000;fill-opacity:1;fill-rule:evenodd;stroke:none"
     d="M 81.288825,7.0108907 L 90.005115,11.179552 L 81.288825,15.727182 L 81.288825,7.0108907" />
  <path
     id="path2769"
     style="fill:#ffffff;fill-opacity:1;fill-rule:evenodd;stroke:none"
     d="M 60.445522,18.758935 L 74.467506,18.758935 L 74.467506,3.6001687 L 60.445522,3.6001687 L 60.445522,18.758935 z" />
  <path
     id="path2779"
     style="fill:none;stroke:#000000;stroke-width:0.37889335;stroke-linecap:round;stroke-linejoin:round;stroke-miterlimit:10;stroke-dasharray:none;stroke-opacity:1"
     d="M 22.548607,11.179552 C 22.548607,5.1160457 27.854175,0.18944667 33.917682,0.18944667 C 39.981188,0.18944667 44.907787,5.1160457 44.907787,11.179552 C 44.907787,11.179552 44.907787,11.179552 44.907787,11.179552 C 44.907787,17.243058 39.981188,22.548626 33.917682,22.548626 C 27.854175,22.548626 22.548607,17.243058 22.548607,11.179552 z" />
  <path
     id="path2789"
     style="fill:none;stroke:#000000;stroke-width:0.37889335;stroke-linecap:round;stroke-linejoin:round;stroke-miterlimit:10;stroke-dasharray:none;stroke-opacity:1"
     d="M 90.005115,11.179552 C 90.005115,5.1160457 94.931714,0.18944667 100.99522,0.18944667 C 107.05873,0.18944667 112.3643,5.1160457 112.3643,11.179552 C 112.3643,11.179552 112.3643,11.179552 112.3643,11.179552 C 112.3643,17.243058 107.05873,22.548626 100.99522,22.548626 C 94.931714,22.548626 90.005115,17.243058 90.005115,11.179552 z" />
  <path
     id="path2799"
     style="fill:none;stroke:#000000;stroke-width:0.37885547;stroke-linecap:round;stroke-linejoin:round;stroke-miterlimit:10;stroke-dasharray:none;stroke-opacity:1"
     d="M 112.3643,11.179552 L 149.50327,11.179552" />
  <path
     id="path2801"
     style="fill:#000000;fill-opacity:1;fill-rule:evenodd;stroke:none"
     d="M 148.36637,7.0108907 L 157.08266,11.179552 L 148.36637,15.727182 L 148.36637,7.0108907" />
  <path
     id="path2803"
     style="fill:#ffffff;fill-opacity:1;fill-rule:evenodd;stroke:none"
     d="M 127.52306,18.758935 L 141.54505,18.758935 L 141.54505,3.6001687 L 127.52306,3.6001687 L 127.52306,18.758935 z" />
  <path
     id="path2813"
     style="fill:none;stroke:#000000;stroke-width:0.37889335;stroke-linecap:round;stroke-linejoin:round;stroke-miterlimit:10;stroke-dasharray:none;stroke-opacity:1"
     d="M 157.08266,11.179552 C 157.08266,5.1160457 162.00926,0.18944667 168.07276,0.18944667 C 174.13627,0.18944667 179.44184,5.1160457 179.44184,11.179552 C 179.44184,11.179552 179.44184,11.179552 179.44184,11.179552 C 179.44184,17.243058 174.13627,22.548626 168.07276,22.548626 C 162.00926,22.548626 157.08266,17.243058 157.08266,11.179552 z" />
  <path
     id="path2823"
     style="fill:none;stroke:#000000;stroke-width:0.37885547;stroke-linecap:round;stroke-linejoin:round;stroke-miterlimit:10;stroke-dasharray:none;stroke-opacity:1"
     d="M 179.44184,11.179552 L 216.58081,11.179552" />
  <path
     id="path2825"
     style="fill:#000000;fill-opacity:1;fill-rule:evenodd;stroke:none"
     d="M 215.4439,7.0108907 L 224.16019,11.179552 L 215.4439,15.727182 L 215.4439,7.0108907" />
  <path
     id="path2827"
     style="fill:#ffffff;fill-opacity:1;fill-rule:evenodd;stroke:none"
     d="M 194.6006,18.758935 L 208.62259,18.758935 L 208.62259,3.6001687 L 194.6006,3.6001687 L 194.6006,18.758935 z" />
  <path
     id="path2837"
     style="fill:none;stroke:#000000;stroke-width:0.37889335;stroke-linecap:round;stroke-linejoin:round;stroke-miterlimit:10;stroke-dasharray:none;stroke-opacity:1"
     d="M 224.16019,11.179552 C 224.16019,5.1160457 229.08679,0.18944667 235.1503,0.18944667 C 241.59278,0.18944667 246.51937,5.1160457 246.51937,11.179552 C 246.51937,11.179552 246.51937,11.179552 246.51937,11.179552 C 246.51937,17.243058 241.59278,22.548626 235.1503,22.548626 C 229.08679,22.548626 224.16019,17.243058 224.16019,11.179552 z" />
  <path
     id="path2847"
     style="fill:none;stroke:#000000;stroke-width:0.37885547;stroke-linecap:round;stroke-linejoin:round;stroke-miterlimit:10;stroke-dasharray:none;stroke-opacity:1"
     d="M 246.51937,11.179552 L 283.65835,11.179552" />
  <path
     id="path2849"
     style="fill:#000000;fill-opacity:1;fill-rule:evenodd;stroke:none"
     d="M 282.52144,7.0108907 L 291.23773,11.179552 L 282.52144,15.727182 L 282.52144,7.0108907" />
  <path
     id="path2851"
     style="fill:#ffffff;fill-opacity:1;fill-rule:evenodd;stroke:none"
     d="M 261.67814,18.758935 L 275.69951,18.758935 L 275.69951,3.6001687 L 261.67814,3.6001687 L 261.67814,18.758935 z" />
  <path
     id="path2861"
     style="fill:none;stroke:#000000;stroke-width:0.37889335;stroke-linecap:round;stroke-linejoin:round;stroke-miterlimit:10;stroke-dasharray:none;stroke-opacity:1"
     d="M 291.23773,11.179552 C 291.23773,5.1160457 296.16433,0.18944667 302.22784,0.18944667 C 308.67031,0.18944667 313.59691,5.1160457 313.59691,11.179552 C 313.59691,11.179552 313.59691,11.179552 313.59691,11.179552 C 313.59691,17.243058 308.67031,22.548626 302.22784,22.548626 C 296.16433,22.548626 291.23773,17.243058 291.23773,11.179552 z" />
  <path
     id="path2871"
     style="fill:none;stroke:#000000;stroke-width:0.37885547;stroke-linecap:round;stroke-linejoin:round;stroke-miterlimit:10;stroke-dasharray:none;stroke-opacity:1"
     d="M 313.59691,11.179552 L 350.73589,11.179552" />
  <path
     id="path2873"
     style="fill:#000000;fill-opacity:1;fill-rule:evenodd;stroke:none"
     d="M 349.59898,7.0108907 L 358.31527,11.179552 L 349.59898,15.727182 L 349.59898,7.0108907" />
  <path
     id="path2875"
     style="fill:#ffffff;fill-opacity:1;fill-rule:evenodd;stroke:none"
     d="M 329.13465,18.758935 L 343.15663,18.758935 L 343.15663,3.6001687 L 329.13465,3.6001687 L 329.13465,18.758935 z" />
  <path
     id="path2885"
     style="fill:none;stroke:#000000;stroke-width:0.37889335;stroke-linecap:round;stroke-linejoin:round;stroke-miterlimit:10;stroke-dasharray:none;stroke-opacity:1"
     d="M 358.31527,11.179552 C 358.31527,5.1160457 363.24187,0.18944667 369.68435,0.18944667 C 375.74785,0.18944667 380.67445,5.1160457 380.67445,11.179552 C 380.67445,11.179552 380.67445,11.179552 380.67445,11.179552 C 380.67445,17.243058 375.74785,22.548626 369.68435,22.548626 C 363.24187,22.548626 358.31527,17.243058 358.31527,11.179552 z" />
  <path
     id="path2895"
     style="fill:none;stroke:#000000;stroke-width:0.37885547;stroke-linecap:round;stroke-linejoin:round;stroke-miterlimit:10;stroke-dasharray:none;stroke-opacity:1"
     d="M 380.67445,11.179552 L 417.81343,11.179552" />
  <path
     id="path2897"
     style="fill:#000000;fill-opacity:1;fill-rule:evenodd;stroke:none"
     d="M 416.67652,7.0108907 L 425.39281,11.179552 L 416.67652,15.727182 L 416.67652,7.0108907" />
  <path
     id="path2899"
     style="fill:#ffffff;fill-opacity:1;fill-rule:evenodd;stroke:none"
     d="M 396.21219,18.758935 L 410.23356,18.758935 L 410.23356,3.6001687 L 396.21219,3.6001687 L 396.21219,18.758935 z" />
  <path
     id="path2909"
     style="fill:none;stroke:#000000;stroke-width:0.37889335;stroke-linecap:round;stroke-linejoin:round;stroke-miterlimit:10;stroke-dasharray:none;stroke-opacity:1"
     d="M 425.39281,11.179552 C 425.39281,5.1160457 430.31941,0.18944667 436.76188,0.18944667 C 442.82539,0.18944667 447.75199,5.1160457 447.75199,11.179552 C 447.75199,11.179552 447.75199,11.179552 447.75199,11.179552 C 447.75199,17.243058 442.82539,22.548626 436.76188,22.548626 C 430.31941,22.548626 425.39281,17.243058 425.39281,11.179552 z" />
  <path
     id="path2919"
     style="fill:none;stroke:#000000;stroke-width:0.37885547;stroke-linecap:round;stroke-linejoin:round;stroke-miterlimit:10;stroke-dasharray:none;stroke-opacity:1"
     d="M 447.75199,11.179552 L 484.89097,11.179552" />
  <path
     id="path2921"
     style="fill:#000000;fill-opacity:1;fill-rule:evenodd;stroke:none"
     d="M 483.75406,7.0108907 L 492.47035,11.179552 L 483.75406,15.727182 L 483.75406,7.0108907" />
  <path
     id="path2923"
     style="fill:#ffffff;fill-opacity:1;fill-rule:evenodd;stroke:none"
     d="M 463.28972,18.758935 L 477.31171,18.758935 L 477.31171,3.6001687 L 463.28972,3.6001687 L 463.28972,18.758935 z" />
  <path
     id="path2933"
     style="fill:none;stroke:#000000;stroke-width:0.37889335;stroke-linecap:round;stroke-linejoin:round;stroke-miterlimit:10;stroke-dasharray:none;stroke-opacity:1"
     d="M 492.47035,11.179552 C 492.47035,5.1160457 497.39695,0.18944667 503.46045,0.18944667 C 509.52396,0.18944667 514.45056,5.1160457 514.45056,11.179552 C 514.45056,11.179552 514.45056,11.179552 514.45056,11.179552 C 514.45056,17.243058 509.52396,22.169657 503.46045,22.169657 C 497.39695,22.169657 492.47035,17.243058 492.47035,11.179552 z" />
  <path
     id="path2935"
     style="fill:none;stroke:#000000;stroke-width:0.37889335;stroke-linecap:round;stroke-linejoin:round;stroke-miterlimit:10;stroke-dasharray:none;stroke-opacity:1"
     d="M 494.74416,11.179552 C 494.74416,6.2529527 498.91282,2.4632617 503.46045,2.4632617 C 508.38705,2.4632617 512.55571,6.2529527 512.55571,11.179552 C 512.55571,11.179552 512.55571,11.179552 512.55571,11.179552 C 512.55571,16.106151 508.38705,19.895842 503.46045,19.895842 C 498.91282,19.895842 494.74416,16.106151 494.74416,11.179552 z" />
  <text
     xml:space="preserve"
     x="-60.964775"
     y="-15.14112"
     style="font-size:-12.64092922px;font-style:normal;font-weight:normal;fill:#000000;fill-opacity:1;font-family:Calibri"
     id="text50"
     transform="scale(-1,-1)">69</text>
  <text
     xml:space="preserve"
     x="-30.496895"
     y="-15.14112"
     style="font-size:-12.64092922px;font-style:normal;font-weight:normal;fill:#000000;fill-opacity:1;font-family:Calibri"
     id="text54"
     transform="scale(-1,-1)">0</text>
  <text
     xml:space="preserve"
     x="-97.587357"
     y="-15.19667"
     style="font-size:-12.64092922px;font-style:normal;font-weight:normal;fill:#000000;fill-opacity:1;font-family:Calibri"
     id="text58"
     transform="scale(-1,-1)">1</text>
  <text
     xml:space="preserve"
     x="-128.05431"
     y="-15.159644"
     style="font-size:-12.64092922px;font-style:normal;font-weight:normal;fill:#000000;fill-opacity:1;font-family:Calibri"
     id="text66"
     transform="scale(-1,-1)">71</text>
  <text
     xml:space="preserve"
     x="-164.65483"
     y="-15.258391"
     style="font-size:-12.64092922px;font-style:normal;font-weight:normal;fill:#000000;fill-opacity:1;font-family:Calibri"
     id="text70"
     transform="scale(-1,-1)">2</text>
  <text
     xml:space="preserve"
     x="-195.28949"
     y="-15.14112"
     style="font-size:-12.64092922px;font-style:normal;font-weight:normal;fill:#000000;fill-opacity:1;font-family:Calibri"
     id="text78"
     transform="scale(-1,-1)">73</text>
  <text
     xml:space="preserve"
     x="-231.93941"
     y="-15.14112"
     style="font-size:-12.64092922px;font-style:normal;font-weight:normal;fill:#000000;fill-opacity:1;font-family:Calibri"
     id="text82"
     transform="scale(-1,-1)">3</text>
  <text
     xml:space="preserve"
     x="-262.04321"
     y="-15.14112"
     style="font-size:-12.64092922px;font-style:normal;font-weight:normal;fill:#000000;fill-opacity:1;font-family:Calibri"
     id="text90"
     transform="scale(-1,-1)">74</text>
  <text
     xml:space="preserve"
     x="-299.03259"
     y="-15.14112"
     style="font-size:-12.64092922px;font-style:normal;font-weight:normal;fill:#000000;fill-opacity:1;font-family:Calibri"
     id="text94"
     transform="scale(-1,-1)">4</text>
  <text
     xml:space="preserve"
     x="-329.33395"
     y="-15.134948"
     style="font-size:-12.64092922px;font-style:normal;font-weight:normal;fill:#000000;fill-opacity:1;font-family:Calibri"
     id="text102"
     transform="scale(-1,-1)">76</text>
  <text
     xml:space="preserve"
     x="-366.07913"
     y="-15.023849"
     style="font-size:-12.64092922px;font-style:normal;font-weight:normal;fill:#000000;fill-opacity:1;font-family:Calibri"
     id="text106"
     transform="scale(-1,-1)">5</text>
  <text
     xml:space="preserve"
     x="-396.57529"
     y="-15.104079"
     style="font-size:-12.64092922px;font-style:normal;font-weight:normal;fill:#000000;fill-opacity:1;font-family:Calibri"
     id="text114"
     transform="scale(-1,-1)">77</text>
  <text
     xml:space="preserve"
     x="-432.9563"
     y="-15.134948"
     style="font-size:-12.64092922px;font-style:normal;font-weight:normal;fill:#000000;fill-opacity:1;font-family:Calibri"
     id="text118"
     transform="scale(-1,-1)">6</text>
  <text
     xml:space="preserve"
     x="-463.48578"
     y="-15.134948"
     style="font-size:-12.64092922px;font-style:normal;font-weight:normal;fill:#000000;fill-opacity:1;font-family:Calibri"
     id="text126"
     transform="scale(-1,-1)">76</text>
  <text
     xml:space="preserve"
     x="-500.08899"
     y="-15.104087"
     style="font-size:-12.64092922px;font-style:normal;font-weight:normal;fill:#000000;fill-opacity:1;font-family:Calibri"
     id="text132"
     transform="scale(-1,-1)">7</text>
</svg>
