<?xml version="1.0" encoding="UTF-8" standalone="no"?>
<!-- Created with Inkscape (http://www.inkscape.org/) -->
<svg
   xmlns:dc="http://purl.org/dc/elements/1.1/"
   xmlns:cc="http://creativecommons.org/ns#"
   xmlns:rdf="http://www.w3.org/1999/02/22-rdf-syntax-ns#"
   xmlns:svg="http://www.w3.org/2000/svg"
   xmlns="http://www.w3.org/2000/svg"
   xmlns:sodipodi="http://sodipodi.sourceforge.net/DTD/sodipodi-0.dtd"
   xmlns:inkscape="http://www.inkscape.org/namespaces/inkscape"
   id="svg2403"
   sodipodi:version="0.32"
   inkscape:version="0.46"
   width="425.17145"
   height="292.49997"
   xml:space="preserve"
   sodipodi:docname="quant-rel.svg"
   version="1.0"
   inkscape:output_extension="org.inkscape.output.svg.inkscape"><metadata
     id="metadata2408"><rdf:RDF><cc:Work
         rdf:about=""><dc:format>image/svg+xml</dc:format><dc:type
           rdf:resource="http://purl.org/dc/dcmitype/StillImage" /></cc:Work></rdf:RDF></metadata><defs
     id="defs2406"><inkscape:perspective
       sodipodi:type="inkscape:persp3d"
       inkscape:vp_x="0 : 526.18109 : 1"
       inkscape:vp_y="0 : 1000 : 0"
       inkscape:vp_z="744.09448 : 526.18109 : 1"
       inkscape:persp3d-origin="372.04724 : 350.78739 : 1"
       id="perspective2410" /><clipPath
       clipPathUnits="userSpaceOnUse"
       id="clipPath2530"><path
         d="M 2146,1359.45 L 2146,1570.45 L 2227,1570.45 L 2227,1359.45 L 2146,1359.45 z"
         id="path2532" /></clipPath><clipPath
       clipPathUnits="userSpaceOnUse"
       id="clipPath2550"><path
         d="M 2146,1718.45 L 2146,2025.45 L 2227,2025.45 L 2227,1718.45 L 2146,1718.45 z"
         id="path2552" /></clipPath><clipPath
       clipPathUnits="userSpaceOnUse"
       id="clipPath2564"><path
         d="M 235.996,153.453 L 235.996,3355.45 L 2244,3355.45 L 2244,153.453 L 235.996,153.453 z"
         clip-rule="evenodd"
         id="path2566" /></clipPath></defs><sodipodi:namedview
     inkscape:window-height="750"
     inkscape:window-width="1280"
     inkscape:pageshadow="2"
     inkscape:pageopacity="0.0"
     guidetolerance="10.0"
     gridtolerance="10.0"
     objecttolerance="10.0"
     borderopacity="1.0"
     bordercolor="#666666"
     pagecolor="#ffffff"
     id="base"
     showgrid="false"
     inkscape:zoom="0.73095694"
     inkscape:cx="443.90903"
     inkscape:cy="318.43924"
     inkscape:window-x="-8"
     inkscape:window-y="-8"
     inkscape:current-layer="g2412" /><g
     id="g2412"
     inkscape:groupmode="layer"
     inkscape:label="x"
     transform="matrix(0,1.25,1.25,0,-279.69968,-237.44939)"><g
       id="g2644"
       transform="matrix(0.4919263,0,0,0.4919263,155.95804,200.0938)"><path
         d="M 478.08,86.50872 L 478.08,727.788 L 478.8,727.788 L 478.8,86.50872 L 478.08,86.50872 z M 457.2,86.50872 L 457.2,727.788 L 457.92,727.788 L 457.92,86.50872 L 457.2,86.50872 z M 436.56,86.50872 L 436.56,727.788 L 437.28,727.788 L 437.28,86.50872 L 436.56,86.50872 z M 415.68,86.50872 L 415.68,727.788 L 416.4,727.788 L 416.4,86.50872 L 415.68,86.50872 z M 373.92,86.50872 L 373.92,727.788 L 374.64,727.788 L 374.64,86.50872 L 373.92,86.50872 z M 353.28,86.50872 L 353.28,727.788 L 354,727.788 L 354,86.50872 L 353.28,86.50872 z M 332.4,86.50872 L 332.4,727.788 L 333.12,727.788 L 333.12,86.50872 L 332.4,86.50872 z M 311.52,86.50872 L 311.52,727.788 L 312.24,727.788 L 312.24,86.50872 L 311.52,86.50872 z M 270,86.50872 L 270,727.788 L 270.72,727.788 L 270.72,86.50872 L 270,86.50872 z M 249.12,86.50872 L 249.12,727.788 L 249.84,727.788 L 249.84,86.50872 L 249.12,86.50872 z M 228.23904,86.50872 L 228.23904,727.788 L 228.95904,727.788 L 228.95904,86.50872 L 228.23904,86.50872 z M 207.59904,86.50872 L 207.59904,727.788 L 208.31904,727.788 L 208.31904,86.50872 L 207.59904,86.50872 z M 165.83904,86.50872 L 165.83904,727.788 L 166.55904,727.788 L 166.55904,86.50872 L 165.83904,86.50872 z M 144.95904,86.50872 L 144.95904,727.788 L 145.67904,727.788 L 145.67904,86.50872 L 144.95904,86.50872 z M 124.31904,86.50872 L 124.31904,727.788 L 125.03904,727.788 L 125.03904,86.50872 L 124.31904,86.50872 z M 103.43904,86.50872 L 103.43904,727.788 L 104.15904,727.788 L 104.15904,86.50872"
         style="fill:#b7b7b7;fill-opacity:1;fill-rule:nonzero;stroke:none"
         id="path2416" /><path
         d="M 498.96,86.50872 L 498.96,727.788 L 499.68,727.788 L 499.68,86.50872 L 498.96,86.50872 z M 394.8,86.50872 L 394.8,727.788 L 395.52,727.788 L 395.52,86.50872 L 394.8,86.50872 z M 290.88,86.50872 L 290.88,727.788 L 291.6,727.788 L 291.6,86.50872 L 290.88,86.50872 z M 186.71904,86.50872 L 186.71904,727.788 L 187.43904,727.788 L 187.43904,86.50872 L 186.71904,86.50872 z M 82.79904,86.50872 L 82.79904,727.788 L 83.51904,727.788 L 83.51904,86.50872"
         style="fill:#868686;fill-opacity:1;fill-rule:nonzero;stroke:none"
         id="path2418" /><path
         d="M 83.03904,86.50872 L 83.03904,728.028 L 499.2,728.028 L 499.44,727.788 L 499.44,86.50872 L 499.2,86.50872 L 83.03904,86.50872 z M 499.2,86.74872 L 499.2,86.50872 L 499.2,727.788 L 83.03904,727.788 L 83.27904,727.788 L 83.27904,86.50872 L 83.03904,86.74872"
         style="fill:#000000;fill-opacity:1;fill-rule:nonzero;stroke:none"
         id="path2420" /><path
         d="M 219.35904,119.62872 L 293.04,183.70872 L 292.56,182.50872 L 284.4,246.588 L 284.88,245.628 L 212.63904,309.948 C 212.63904,310.188 212.39904,310.188 212.39904,310.428 L 171.59904,374.508 C 171.35904,374.748 171.35904,375.228 171.35904,375.708 C 171.59904,375.948 171.83904,376.428 172.31904,376.668 L 327.84,440.748 L 326.88,439.068 L 319.68,503.148 L 319.92,502.668 L 284.64,566.988 L 254.16,631.068 L 254.64,630.588 L 124.07904,694.668 C 123.35904,694.908 123.11904,695.868 123.59904,696.588 C 123.83904,697.308 124.79904,697.548 125.51904,697.068 L 256.08,632.988 C 256.32,632.988 256.56,632.748 256.56,632.508 L 287.04,568.428 L 322.32,504.108 C 322.56,503.868 322.56,503.628 322.56,503.628 L 329.76,439.548 C 329.76,438.828 329.52,438.108 328.8,437.868 L 173.27904,373.788 L 173.99904,375.948 L 214.79904,311.868 L 214.55904,312.108 L 286.8,247.788 C 287.04,247.548 287.28,247.308 287.28,247.068 L 295.44,182.98872 C 295.44,182.50872 295.2,182.02872 294.96,181.54872 L 221.27904,117.46872 C 220.55904,116.98872 219.83904,117.22872 219.11904,117.70872 C 218.63904,118.42872 218.87904,119.14872 219.35904,119.62872"
         style="fill:#7f7f7f;fill-opacity:1;fill-rule:nonzero;stroke:none"
         id="path2422" /><path
         d="M 220.07904,122.26872 C 221.99904,122.26872 223.67904,120.58872 223.67904,118.66872 C 223.67904,116.74872 221.99904,115.30872 220.07904,115.30872 C 218.15904,115.30872 216.71904,116.74872 216.71904,118.66872 C 216.71904,120.58872 218.15904,122.26872 220.07904,122.26872"
         style="fill:#ffffff;fill-opacity:1;fill-rule:evenodd;stroke:none"
         id="path2424" /><path
         d="M 220.07904,123.22872 C 220.07904,123.22872 220.31904,123.22872 220.31904,123.22872 L 221.03904,123.22872 C 221.03904,123.22872 221.03904,123.22872 221.27904,122.98872 L 221.75904,122.98872 C 221.99904,122.98872 221.99904,122.74872 221.99904,122.74872 L 222.47904,122.50872 C 222.71904,122.50872 222.71904,122.50872 222.71904,122.50872 L 223.19904,122.02872 C 223.19904,122.02872 223.43904,121.78872 223.43904,121.78872 L 223.91904,121.30872 C 223.91904,121.30872 223.91904,121.30872 223.91904,121.06872 L 224.15904,120.58872 C 224.15904,120.58872 224.39904,120.58872 224.39904,120.34872 L 224.39904,119.86872 C 224.63904,119.62872 224.63904,119.62872 224.63904,119.62872 L 224.63904,118.90872 C 224.63904,118.90872 224.63904,118.66872 224.63904,118.66872 L 224.63904,117.94872 C 224.63904,117.94872 224.63904,117.94872 224.39904,117.70872 L 224.39904,117.22872 C 224.39904,116.98872 224.39904,116.98872 224.15904,116.98872 L 223.91904,116.26872 C 223.91904,116.26872 223.91904,116.26872 223.91904,116.26872 L 223.43904,115.78872 C 223.43904,115.54872 223.19904,115.54872 223.19904,115.54872 L 222.71904,115.06872 C 222.71904,115.06872 222.71904,115.06872 222.71904,115.06872 L 221.99904,114.82872 C 221.99904,114.58872 221.99904,114.58872 221.75904,114.58872 L 221.27904,114.34872 C 221.03904,114.34872 221.03904,114.34872 221.03904,114.34872 L 220.31904,114.34872 C 220.31904,114.34872 220.07904,114.34872 220.07904,114.34872 L 219.35904,114.34872 C 219.35904,114.34872 219.35904,114.34872 219.11904,114.34872 L 218.63904,114.58872 C 218.39904,114.58872 218.39904,114.58872 218.39904,114.82872 L 217.67904,115.06872 C 217.67904,115.06872 217.67904,115.06872 217.67904,115.06872 L 217.19904,115.54872 C 216.95904,115.54872 216.95904,115.54872 216.95904,115.78872 L 216.47904,116.26872 C 216.47904,116.26872 216.47904,116.26872 216.47904,116.26872 L 216.23904,116.98872 C 215.99904,116.98872 215.99904,116.98872 215.99904,117.22872 L 215.75904,117.70872 C 215.75904,117.94872 215.75904,117.94872 215.75904,117.94872 L 215.75904,118.66872 C 215.75904,118.66872 215.75904,118.90872 215.75904,118.90872 L 215.75904,119.62872 C 215.75904,119.62872 215.75904,119.62872 215.75904,119.86872 L 215.99904,120.34872 C 215.99904,120.58872 215.99904,120.58872 216.23904,120.58872 L 216.47904,121.30872 C 216.47904,121.30872 216.47904,121.30872 216.47904,121.30872 L 216.95904,121.78872 C 216.95904,121.78872 216.95904,122.02872 217.19904,122.02872 L 217.67904,122.50872 C 217.67904,122.50872 217.67904,122.50872 217.67904,122.50872 L 218.39904,122.74872 C 218.39904,122.98872 218.39904,122.98872 218.63904,122.98872 L 219.11904,122.98872 C 219.35904,123.22872 219.35904,123.22872 219.35904,123.22872 L 220.07904,123.22872 z M 219.59904,121.30872 L 219.83904,121.30872 L 219.11904,121.06872 L 219.35904,121.06872 L 218.63904,120.82872 L 218.87904,120.82872 L 218.39904,120.58872 L 218.39904,120.58872 L 218.15904,120.10872 L 218.15904,120.34872 L 217.91904,119.62872 L 217.91904,119.86872 L 217.67904,119.14872 L 217.67904,119.38872 L 217.67904,118.66872 L 217.67904,118.90872 L 217.67904,118.18872 L 217.67904,118.42872 L 217.91904,117.70872 L 217.91904,117.94872 L 218.15904,117.22872 L 218.15904,117.46872 L 218.39904,116.98872 L 218.39904,116.98872 L 218.87904,116.74872 L 218.63904,116.74872 L 219.35904,116.50872 L 219.11904,116.50872 L 219.83904,116.26872 L 219.59904,116.26872 L 220.31904,116.26872 L 220.07904,116.26872 L 220.79904,116.26872 L 220.55904,116.26872 L 221.27904,116.50872 L 221.03904,116.50872 L 221.75904,116.74872 L 221.51904,116.74872 L 221.99904,116.98872 L 221.99904,116.98872 L 222.23904,117.46872 L 222.23904,117.22872 L 222.47904,117.94872 L 222.47904,117.70872 L 222.71904,118.42872 L 222.71904,118.18872 L 222.71904,118.90872 L 222.71904,118.66872 L 222.71904,119.38872 L 222.71904,119.14872 L 222.47904,119.86872 L 222.47904,119.62872 L 222.23904,120.34872 L 222.23904,120.10872 L 221.99904,120.58872 L 221.99904,120.58872 L 221.51904,120.82872 L 221.75904,120.82872 L 221.03904,121.06872 L 221.27904,121.06872 L 220.55904,121.30872 L 220.79904,121.30872 L 220.07904,121.30872 L 220.31904,121.30872"
         style="fill:#7f7f7f;fill-opacity:1;fill-rule:nonzero;stroke:none"
         id="path2426" /><path
         d="M 294,186.34872 C 295.92,186.34872 297.6,184.66872 297.6,182.74872 C 297.6,180.82872 295.92,179.38872 294,179.38872 C 292.08,179.38872 290.64,180.82872 290.64,182.74872 C 290.64,184.66872 292.08,186.34872 294,186.34872"
         style="fill:#ffffff;fill-opacity:1;fill-rule:evenodd;stroke:none"
         id="path2428" /><path
         d="M 294,187.30872 C 294,187.30872 294.24,187.30872 294.24,187.30872 L 294.96,187.30872 C 294.96,187.30872 294.96,187.30872 295.2,187.06872 L 295.68,187.06872 C 295.92,187.06872 295.92,186.82872 295.92,186.82872 L 296.4,186.58872 C 296.64,186.58872 296.64,186.58872 296.64,186.58872 L 297.12,186.10872 C 297.12,186.10872 297.36,185.86872 297.36,185.86872 L 297.84,185.38872 C 297.84,185.38872 297.84,185.38872 297.84,185.14872 L 298.08,184.66872 C 298.08,184.66872 298.32,184.66872 298.32,184.42872 L 298.32,183.94872 C 298.56,183.70872 298.56,183.70872 298.56,183.70872 L 298.56,182.98872 C 298.56,182.98872 298.56,182.74872 298.56,182.74872 L 298.56,182.02872 C 298.56,182.02872 298.56,182.02872 298.32,181.78872 L 298.32,181.30872 C 298.32,181.06872 298.32,181.06872 298.08,181.06872 L 297.84,180.34872 C 297.84,180.34872 297.84,180.34872 297.84,180.34872 L 297.36,179.86872 C 297.36,179.62872 297.12,179.62872 297.12,179.62872 L 296.64,179.14872 C 296.64,179.14872 296.64,179.14872 296.64,179.14872 L 295.92,178.90872 C 295.92,178.66872 295.92,178.66872 295.68,178.66872 L 295.2,178.42872 C 294.96,178.42872 294.96,178.42872 294.96,178.42872 L 294.24,178.42872 C 294.24,178.42872 294,178.42872 294,178.42872 L 293.28,178.42872 C 293.28,178.42872 293.28,178.42872 293.04,178.42872 L 292.56,178.66872 C 292.32,178.66872 292.32,178.66872 292.32,178.90872 L 291.6,179.14872 C 291.6,179.14872 291.6,179.14872 291.6,179.14872 L 291.12,179.62872 C 290.88,179.62872 290.88,179.62872 290.88,179.86872 L 290.4,180.34872 C 290.4,180.34872 290.4,180.34872 290.4,180.34872 L 290.16,181.06872 C 289.92,181.06872 289.92,181.06872 289.92,181.30872 L 289.68,181.78872 C 289.68,182.02872 289.68,182.02872 289.68,182.02872 L 289.68,182.74872 C 289.68,182.74872 289.68,182.98872 289.68,182.98872 L 289.68,183.70872 C 289.68,183.70872 289.68,183.70872 289.68,183.94872 L 289.92,184.42872 C 289.92,184.66872 289.92,184.66872 290.16,184.66872 L 290.4,185.38872 C 290.4,185.38872 290.4,185.38872 290.4,185.38872 L 290.88,185.86872 C 290.88,185.86872 290.88,186.10872 291.12,186.10872 L 291.6,186.58872 C 291.6,186.58872 291.6,186.58872 291.6,186.58872 L 292.32,186.82872 C 292.32,187.06872 292.32,187.06872 292.56,187.06872 L 293.04,187.06872 C 293.28,187.30872 293.28,187.30872 293.28,187.30872 L 294,187.30872 z M 293.52,185.38872 L 293.76,185.38872 L 293.04,185.14872 L 293.28,185.14872 L 292.56,184.90872 L 292.8,184.90872 L 292.32,184.66872 L 292.32,184.66872 L 292.08,184.18872 L 292.08,184.42872 L 291.84,183.70872 L 291.84,183.94872 L 291.6,183.22872 L 291.6,183.46872 L 291.6,182.74872 L 291.6,182.98872 L 291.6,182.26872 L 291.6,182.50872 L 291.84,181.78872 L 291.84,182.02872 L 292.08,181.30872 L 292.08,181.54872 L 292.32,181.06872 L 292.32,181.06872 L 292.8,180.82872 L 292.56,180.82872 L 293.28,180.58872 L 293.04,180.58872 L 293.76,180.34872 L 293.52,180.34872 L 294.24,180.34872 L 294,180.34872 L 294.72,180.34872 L 294.48,180.34872 L 295.2,180.58872 L 294.96,180.58872 L 295.68,180.82872 L 295.44,180.82872 L 295.92,181.06872 L 295.92,181.06872 L 296.16,181.54872 L 296.16,181.30872 L 296.4,182.02872 L 296.4,181.78872 L 296.64,182.50872 L 296.64,182.26872 L 296.64,182.98872 L 296.64,182.74872 L 296.64,183.46872 L 296.64,183.22872 L 296.4,183.94872 L 296.4,183.70872 L 296.16,184.42872 L 296.16,184.18872 L 295.92,184.66872 L 295.92,184.66872 L 295.44,184.90872 L 295.68,184.90872 L 294.96,185.14872 L 295.2,185.14872 L 294.48,185.38872 L 294.72,185.38872 L 294,185.38872 L 294.24,185.38872"
         style="fill:#7f7f7f;fill-opacity:1;fill-rule:nonzero;stroke:none"
         id="path2430" /><path
         d="M 285.84,250.428 C 287.76,250.428 289.44,248.748 289.44,246.828 C 289.44,244.908 287.76,243.468 285.84,243.468 C 283.92,243.468 282.48,244.908 282.48,246.828 C 282.48,248.748 283.92,250.428 285.84,250.428"
         style="fill:#ffffff;fill-opacity:1;fill-rule:evenodd;stroke:none"
         id="path2432" /><path
         d="M 285.84,251.388 C 285.84,251.388 286.08,251.388 286.08,251.388 L 286.8,251.388 C 286.8,251.388 286.8,251.388 287.04,251.148 L 287.52,251.148 C 287.76,251.148 287.76,250.908 287.76,250.908 L 288.24,250.668 C 288.48,250.668 288.48,250.668 288.48,250.668 L 288.96,250.188 C 288.96,250.188 289.2,249.948 289.2,249.948 L 289.68,249.468 C 289.68,249.468 289.68,249.468 289.68,249.228 L 289.92,248.748 C 289.92,248.748 290.16,248.748 290.16,248.508 L 290.16,248.028 C 290.4,247.788 290.4,247.788 290.4,247.788 L 290.4,247.068 C 290.4,247.068 290.4,246.828 290.4,246.828 L 290.4,246.108 C 290.4,246.108 290.4,246.108 290.16,245.868 L 290.16,245.388 C 290.16,245.148 290.16,245.148 289.92,245.148 L 289.68,244.428 C 289.68,244.428 289.68,244.428 289.68,244.428 L 289.2,243.948 C 289.2,243.708 288.96,243.708 288.96,243.708 L 288.48,243.228 C 288.48,243.228 288.48,243.228 288.48,243.228 L 287.76,242.988 C 287.76,242.748 287.76,242.748 287.52,242.748 L 287.04,242.508 C 286.8,242.508 286.8,242.508 286.8,242.508 L 286.08,242.508 C 286.08,242.508 285.84,242.508 285.84,242.508 L 285.12,242.508 C 285.12,242.508 285.12,242.508 284.88,242.508 L 284.4,242.748 C 284.16,242.748 284.16,242.748 284.16,242.988 L 283.44,243.228 C 283.44,243.228 283.44,243.228 283.44,243.228 L 282.96,243.708 C 282.72,243.708 282.72,243.708 282.72,243.948 L 282.24,244.428 C 282.24,244.428 282.24,244.428 282.24,244.428 L 282,245.148 C 281.76,245.148 281.76,245.148 281.76,245.388 L 281.52,245.868 C 281.52,246.108 281.52,246.108 281.52,246.108 L 281.52,246.828 C 281.52,246.828 281.52,247.068 281.52,247.068 L 281.52,247.788 C 281.52,247.788 281.52,247.788 281.52,248.028 L 281.76,248.508 C 281.76,248.748 281.76,248.748 282,248.748 L 282.24,249.468 C 282.24,249.468 282.24,249.468 282.24,249.468 L 282.72,249.948 C 282.72,249.948 282.72,250.188 282.96,250.188 L 283.44,250.668 C 283.44,250.668 283.44,250.668 283.44,250.668 L 284.16,250.908 C 284.16,251.148 284.16,251.148 284.4,251.148 L 284.88,251.148 C 285.12,251.388 285.12,251.388 285.12,251.388 L 285.84,251.388 z M 285.36,249.468 L 285.6,249.468 L 284.88,249.228 L 285.12,249.228 L 284.4,248.988 L 284.64,248.988 L 284.16,248.748 L 284.16,248.748 L 283.92,248.268 L 283.92,248.508 L 283.68,247.788 L 283.68,248.028 L 283.44,247.308 L 283.44,247.548 L 283.44,246.828 L 283.44,247.068 L 283.44,246.348 L 283.44,246.588 L 283.68,245.868 L 283.68,246.108 L 283.92,245.388 L 283.92,245.628 L 284.16,245.148 L 284.16,245.148 L 284.64,244.908 L 284.4,244.908 L 285.12,244.668 L 284.88,244.668 L 285.6,244.428 L 285.36,244.428 L 286.08,244.428 L 285.84,244.428 L 286.56,244.428 L 286.32,244.428 L 287.04,244.668 L 286.8,244.668 L 287.52,244.908 L 287.28,244.908 L 287.76,245.148 L 287.76,245.148 L 288,245.628 L 288,245.388 L 288.24,246.108 L 288.24,245.868 L 288.48,246.588 L 288.48,246.348 L 288.48,247.068 L 288.48,246.828 L 288.48,247.548 L 288.48,247.308 L 288.24,248.028 L 288.24,247.788 L 288,248.508 L 288,248.268 L 287.76,248.748 L 287.76,248.748 L 287.28,248.988 L 287.52,248.988 L 286.8,249.228 L 287.04,249.228 L 286.32,249.468 L 286.56,249.468 L 285.84,249.468 L 286.08,249.468"
         style="fill:#7f7f7f;fill-opacity:1;fill-rule:nonzero;stroke:none"
         id="path2434" /><path
         d="M 213.59904,314.508 C 215.51904,314.508 217.19904,312.828 217.19904,310.908 C 217.19904,308.988 215.51904,307.548 213.59904,307.548 C 211.67904,307.548 210.23904,308.988 210.23904,310.908 C 210.23904,312.828 211.67904,314.508 213.59904,314.508"
         style="fill:#ffffff;fill-opacity:1;fill-rule:evenodd;stroke:none"
         id="path2436" /><path
         d="M 213.59904,315.468 C 213.59904,315.468 213.83904,315.468 213.83904,315.468 L 214.55904,315.468 C 214.55904,315.468 214.55904,315.468 214.79904,315.228 L 215.27904,315.228 C 215.51904,315.228 215.51904,314.988 215.51904,314.988 L 215.99904,314.748 C 216.23904,314.748 216.23904,314.748 216.23904,314.748 L 216.71904,314.268 C 216.71904,314.268 216.95904,314.028 216.95904,314.028 L 217.43904,313.548 C 217.43904,313.548 217.43904,313.548 217.43904,313.308 L 217.67904,312.828 C 217.67904,312.828 217.91904,312.828 217.91904,312.588 L 217.91904,312.108 C 218.15904,311.868 218.15904,311.868 218.15904,311.868 L 218.15904,311.148 C 218.15904,311.148 218.15904,310.908 218.15904,310.908 L 218.15904,310.188 C 218.15904,310.188 218.15904,310.188 217.91904,309.948 L 217.91904,309.468 C 217.91904,309.228 217.91904,309.228 217.67904,309.228 L 217.43904,308.508 C 217.43904,308.508 217.43904,308.508 217.43904,308.508 L 216.95904,308.028 C 216.95904,307.788 216.71904,307.788 216.71904,307.788 L 216.23904,307.308 C 216.23904,307.308 216.23904,307.308 216.23904,307.308 L 215.51904,307.068 C 215.51904,306.828 215.51904,306.828 215.27904,306.828 L 214.79904,306.588 C 214.55904,306.588 214.55904,306.588 214.55904,306.588 L 213.83904,306.588 C 213.83904,306.588 213.59904,306.588 213.59904,306.588 L 212.87904,306.588 C 212.87904,306.588 212.87904,306.588 212.63904,306.588 L 212.15904,306.828 C 211.91904,306.828 211.91904,306.828 211.91904,307.068 L 211.19904,307.308 C 211.19904,307.308 211.19904,307.308 211.19904,307.308 L 210.71904,307.788 C 210.47904,307.788 210.47904,307.788 210.47904,308.028 L 209.99904,308.508 C 209.99904,308.508 209.99904,308.508 209.99904,308.508 L 209.75904,309.228 C 209.51904,309.228 209.51904,309.228 209.51904,309.468 L 209.27904,309.948 C 209.27904,310.188 209.27904,310.188 209.27904,310.188 L 209.27904,310.908 C 209.27904,310.908 209.27904,311.148 209.27904,311.148 L 209.27904,311.868 C 209.27904,311.868 209.27904,311.868 209.27904,312.108 L 209.51904,312.588 C 209.51904,312.828 209.51904,312.828 209.75904,312.828 L 209.99904,313.548 C 209.99904,313.548 209.99904,313.548 209.99904,313.548 L 210.47904,314.028 C 210.47904,314.028 210.47904,314.268 210.71904,314.268 L 211.19904,314.748 C 211.19904,314.748 211.19904,314.748 211.19904,314.748 L 211.91904,314.988 C 211.91904,315.228 211.91904,315.228 212.15904,315.228 L 212.63904,315.228 C 212.87904,315.468 212.87904,315.468 212.87904,315.468 L 213.59904,315.468 z M 213.11904,313.548 L 213.35904,313.548 L 212.63904,313.308 L 212.87904,313.308 L 212.15904,313.068 L 212.39904,313.068 L 211.91904,312.828 L 211.91904,312.828 L 211.67904,312.348 L 211.67904,312.588 L 211.43904,311.868 L 211.43904,312.108 L 211.19904,311.388 L 211.19904,311.628 L 211.19904,310.908 L 211.19904,311.148 L 211.19904,310.428 L 211.19904,310.668 L 211.43904,309.948 L 211.43904,310.188 L 211.67904,309.468 L 211.67904,309.708 L 211.91904,309.228 L 211.91904,309.228 L 212.39904,308.988 L 212.15904,308.988 L 212.87904,308.748 L 212.63904,308.748 L 213.35904,308.508 L 213.11904,308.508 L 213.83904,308.508 L 213.59904,308.508 L 214.31904,308.508 L 214.07904,308.508 L 214.79904,308.748 L 214.55904,308.748 L 215.27904,308.988 L 215.03904,308.988 L 215.51904,309.228 L 215.51904,309.228 L 215.75904,309.708 L 215.75904,309.468 L 215.99904,310.188 L 215.99904,309.948 L 216.23904,310.668 L 216.23904,310.428 L 216.23904,311.148 L 216.23904,310.908 L 216.23904,311.628 L 216.23904,311.388 L 215.99904,312.108 L 215.99904,311.868 L 215.75904,312.588 L 215.75904,312.348 L 215.51904,312.828 L 215.51904,312.828 L 215.03904,313.068 L 215.27904,313.068 L 214.55904,313.308 L 214.79904,313.308 L 214.07904,313.548 L 214.31904,313.548 L 213.59904,313.548 L 213.83904,313.548"
         style="fill:#7f7f7f;fill-opacity:1;fill-rule:nonzero;stroke:none"
         id="path2438" /><path
         d="M 172.79904,378.828 C 174.71904,378.828 176.39904,377.148 176.39904,375.228 C 176.39904,373.308 174.71904,371.628 172.79904,371.628 C 170.87904,371.628 169.19904,373.308 169.19904,375.228 C 169.19904,377.148 170.87904,378.828 172.79904,378.828"
         style="fill:#ffffff;fill-opacity:1;fill-rule:evenodd;stroke:none"
         id="path2440" /><path
         d="M 172.79904,379.788 C 172.79904,379.788 172.79904,379.788 172.79904,379.788 L 173.51904,379.788 C 173.75904,379.788 173.75904,379.788 173.75904,379.548 L 174.47904,379.548 C 174.47904,379.548 174.71904,379.308 174.71904,379.308 L 175.19904,379.068 C 175.19904,379.068 175.43904,379.068 175.43904,379.068 L 175.91904,378.588 C 175.91904,378.588 176.15904,378.348 176.15904,378.348 L 176.63904,377.868 C 176.63904,377.868 176.63904,377.628 176.63904,377.628 L 176.87904,377.148 C 176.87904,377.148 177.11904,376.908 177.11904,376.908 L 177.11904,376.188 C 177.35904,376.188 177.35904,376.188 177.35904,375.948 L 177.35904,375.228 C 177.35904,375.228 177.35904,375.228 177.35904,375.228 L 177.35904,374.508 C 177.35904,374.268 177.35904,374.268 177.11904,374.268 L 177.11904,373.548 C 177.11904,373.548 176.87904,373.308 176.87904,373.308 L 176.63904,372.828 C 176.63904,372.588 176.63904,372.588 176.39904,372.588 L 176.15904,372.108 C 176.15904,372.108 175.91904,371.868 175.91904,371.868 L 175.43904,371.388 C 175.43904,371.388 175.19904,371.388 175.19904,371.388 L 174.71904,371.148 C 174.71904,371.148 174.47904,370.908 174.47904,370.908 L 173.75904,370.668 C 173.75904,370.668 173.75904,370.668 173.51904,370.668 L 172.79904,370.668 C 172.79904,370.668 172.79904,370.668 172.79904,370.668 L 172.07904,370.668 C 171.83904,370.668 171.83904,370.668 171.83904,370.668 L 171.11904,370.908 C 171.11904,370.908 170.87904,371.148 170.87904,371.148 L 170.39904,371.388 C 170.15904,371.388 170.15904,371.388 170.15904,371.388 L 169.67904,371.868 C 169.67904,372.108 169.67904,372.108 169.43904,372.108 L 168.95904,372.588 C 168.95904,372.588 168.95904,372.588 168.95904,372.828 L 168.71904,373.308 C 168.71904,373.308 168.47904,373.548 168.47904,373.548 L 168.23904,374.268 C 168.23904,374.268 168.23904,374.268 168.23904,374.508 L 168.23904,375.228 C 168.23904,375.228 168.23904,375.228 168.23904,375.228 L 168.23904,375.948 C 168.23904,376.188 168.23904,376.188 168.23904,376.188 L 168.47904,376.908 C 168.47904,376.908 168.71904,377.148 168.71904,377.148 L 168.95904,377.628 C 168.95904,377.628 168.95904,377.868 168.95904,377.868 L 169.43904,378.348 C 169.43904,378.348 169.67904,378.588 169.67904,378.588 L 170.15904,378.828 C 170.15904,379.068 170.15904,379.068 170.39904,379.068 L 170.87904,379.308 C 170.87904,379.308 171.11904,379.548 171.11904,379.548 L 171.83904,379.548 C 171.83904,379.788 171.83904,379.788 172.07904,379.788 L 172.79904,379.788 z M 172.07904,377.868 L 172.31904,377.868 L 171.59904,377.628 L 171.83904,377.628 L 171.11904,377.388 L 171.35904,377.388 L 170.87904,377.148 L 170.87904,377.148 L 170.63904,376.668 L 170.63904,376.668 L 170.39904,376.188 L 170.39904,376.428 L 170.15904,375.708 L 170.15904,375.948 L 170.15904,374.508 L 170.15904,374.748 L 170.39904,374.028 L 170.39904,374.268 L 170.63904,373.548 L 170.63904,373.788 L 170.87904,373.308 L 170.87904,373.308 L 171.35904,373.068 L 171.11904,373.068 L 171.83904,372.828 L 171.59904,372.828 L 172.31904,372.588 L 172.07904,372.588 L 172.79904,372.588 L 173.51904,372.588 L 173.27904,372.588 L 173.99904,372.828 L 173.75904,372.828 L 174.23904,373.068 L 174.23904,373.068 L 174.71904,373.308 L 174.71904,373.308 L 174.95904,373.788 L 174.95904,373.548 L 175.19904,374.268 L 175.19904,374.028 L 175.43904,374.748 L 175.43904,374.508 L 175.43904,375.948 L 175.43904,375.708 L 175.19904,376.428 L 175.19904,376.188 L 174.95904,376.668 L 174.95904,376.668 L 174.47904,377.148 L 174.71904,376.908 L 174.23904,377.388 L 174.23904,377.388 L 173.75904,377.628 L 173.99904,377.628 L 173.27904,377.868 L 173.51904,377.868 L 172.79904,377.868 L 172.79904,377.868"
         style="fill:#7f7f7f;fill-opacity:1;fill-rule:nonzero;stroke:none"
         id="path2442" /><path
         d="M 328.32,442.908 C 330.24,442.908 331.92,441.228 331.92,439.308 C 331.92,437.388 330.24,435.708 328.32,435.708 C 326.4,435.708 324.96,437.388 324.96,439.308 C 324.96,441.228 326.4,442.908 328.32,442.908"
         style="fill:#ffffff;fill-opacity:1;fill-rule:evenodd;stroke:none"
         id="path2444" /><path
         d="M 328.32,443.868 C 328.32,443.868 328.56,443.868 328.56,443.868 L 329.28,443.868 C 329.28,443.868 329.28,443.868 329.52,443.628 L 330,443.628 C 330.24,443.628 330.24,443.388 330.24,443.388 L 330.96,443.148 C 330.96,443.148 330.96,443.148 330.96,442.908 L 331.44,442.668 C 331.68,442.428 331.68,442.428 331.68,442.428 L 332.16,441.948 C 332.16,441.948 332.16,441.708 332.16,441.708 L 332.4,441.228 C 332.64,440.988 332.64,440.988 332.64,440.988 L 332.88,440.268 C 332.88,440.268 332.88,440.268 332.88,440.028 L 332.88,439.308 C 332.88,439.308 332.88,439.308 332.88,439.308 L 332.88,438.588 C 332.88,438.348 332.88,438.348 332.64,438.348 L 332.64,437.628 C 332.64,437.628 332.64,437.628 332.4,437.388 L 332.16,436.908 C 332.16,436.908 332.16,436.668 332.16,436.668 L 331.68,436.188 C 331.68,436.188 331.68,436.188 331.44,435.948 L 330.96,435.708 C 330.96,435.468 330.96,435.468 330.96,435.468 L 330.24,435.228 C 330.24,435.228 330.24,434.988 330,434.988 L 329.52,434.748 C 329.28,434.748 329.28,434.748 329.28,434.748 L 328.56,434.748 C 328.56,434.748 328.32,434.748 328.32,434.748 L 327.6,434.748 C 327.6,434.748 327.6,434.748 327.36,434.748 L 326.88,434.988 C 326.64,434.988 326.64,435.228 326.64,435.228 L 325.92,435.468 C 325.92,435.468 325.92,435.468 325.92,435.708 L 325.44,435.948 C 325.2,436.188 325.2,436.188 325.2,436.188 L 324.72,436.668 C 324.72,436.668 324.72,436.668 324.72,436.908 L 324.48,437.388 C 324.24,437.628 324.24,437.628 324.24,437.628 L 324,438.348 C 324,438.348 324,438.348 324,438.588 L 324,439.308 C 324,439.308 324,439.308 324,439.308 L 324,440.028 C 324,440.268 324,440.268 324,440.268 L 324.24,440.988 C 324.24,440.988 324.24,441.228 324.48,441.228 L 324.72,441.708 C 324.72,441.708 324.72,441.948 324.72,441.948 L 325.2,442.428 C 325.2,442.428 325.2,442.428 325.44,442.668 L 325.92,442.908 C 325.92,443.148 325.92,443.148 325.92,443.148 L 326.64,443.388 C 326.64,443.388 326.64,443.628 326.88,443.628 L 327.36,443.628 C 327.6,443.868 327.6,443.868 327.6,443.868 L 328.32,443.868 z M 327.84,441.948 L 328.08,441.948 L 327.36,441.708 L 327.6,441.708 L 326.88,441.468 L 327.12,441.468 L 326.64,441.228 L 326.64,441.228 L 326.4,440.748 L 326.4,440.748 L 326.16,440.268 L 326.16,440.508 L 325.92,439.788 L 325.92,440.028 L 325.92,438.588 L 325.92,438.828 L 326.16,438.108 L 326.16,438.348 L 326.4,437.628 L 326.4,437.868 L 326.64,437.388 L 326.64,437.388 L 327.12,437.148 L 326.88,437.148 L 327.6,436.908 L 327.36,436.908 L 328.08,436.668 L 327.84,436.668 L 328.56,436.668 L 328.32,436.668 L 329.04,436.668 L 328.8,436.668 L 329.52,436.908 L 329.28,436.908 L 330,437.148 L 329.76,437.148 L 330.24,437.388 L 330.24,437.388 L 330.48,437.868 L 330.48,437.628 L 330.72,438.348 L 330.72,438.108 L 330.96,438.828 L 330.96,438.588 L 330.96,440.028 L 330.96,439.788 L 330.72,440.508 L 330.72,440.268 L 330.48,440.748 L 330.48,440.748 L 330.24,441.228 L 330.24,441.228 L 329.76,441.468 L 330,441.468 L 329.28,441.708 L 329.52,441.708 L 328.8,441.948 L 329.04,441.948 L 328.32,441.948 L 328.56,441.948"
         style="fill:#7f7f7f;fill-opacity:1;fill-rule:nonzero;stroke:none"
         id="path2446" /><path
         d="M 321.12,506.988 C 323.04,506.988 324.72,505.308 324.72,503.388 C 324.72,501.468 323.04,500.028 321.12,500.028 C 319.2,500.028 317.76,501.468 317.76,503.388 C 317.76,505.308 319.2,506.988 321.12,506.988"
         style="fill:#ffffff;fill-opacity:1;fill-rule:evenodd;stroke:none"
         id="path2448" /><path
         d="M 321.12,507.948 C 321.12,507.948 321.36,507.948 321.36,507.948 L 322.08,507.948 C 322.08,507.948 322.08,507.948 322.32,507.708 L 322.8,507.708 C 323.04,507.708 323.04,507.468 323.04,507.468 L 323.52,507.228 C 323.76,507.228 323.76,507.228 323.76,507.228 L 324.24,506.748 C 324.24,506.748 324.48,506.508 324.48,506.508 L 324.96,506.028 C 324.96,506.028 324.96,506.028 324.96,505.788 L 325.2,505.308 C 325.2,505.308 325.44,505.308 325.44,505.068 L 325.44,504.588 C 325.68,504.348 325.68,504.348 325.68,504.348 L 325.68,503.628 C 325.68,503.628 325.68,503.388 325.68,503.388 L 325.68,502.668 C 325.68,502.668 325.68,502.668 325.44,502.428 L 325.44,501.948 C 325.44,501.708 325.44,501.708 325.2,501.708 L 324.96,500.988 C 324.96,500.988 324.96,500.988 324.96,500.988 L 324.48,500.508 C 324.48,500.268 324.24,500.268 324.24,500.268 L 323.76,499.788 C 323.76,499.788 323.76,499.788 323.76,499.788 L 323.04,499.548 C 323.04,499.308 323.04,499.308 322.8,499.308 L 322.32,499.068 C 322.08,499.068 322.08,499.068 322.08,499.068 L 321.36,499.068 C 321.36,499.068 321.12,499.068 321.12,499.068 L 320.4,499.068 C 320.4,499.068 320.4,499.068 320.16,499.068 L 319.68,499.308 C 319.44,499.308 319.44,499.308 319.44,499.548 L 318.72,499.788 C 318.72,499.788 318.72,499.788 318.72,499.788 L 318.24,500.268 C 318,500.268 318,500.268 318,500.508 L 317.52,500.988 C 317.52,500.988 317.52,500.988 317.52,500.988 L 317.28,501.708 C 317.04,501.708 317.04,501.708 317.04,501.948 L 316.8,502.428 C 316.8,502.668 316.8,502.668 316.8,502.668 L 316.8,503.388 C 316.8,503.388 316.8,503.628 316.8,503.628 L 316.8,504.348 C 316.8,504.348 316.8,504.348 316.8,504.588 L 317.04,505.068 C 317.04,505.308 317.04,505.308 317.28,505.308 L 317.52,506.028 C 317.52,506.028 317.52,506.028 317.52,506.028 L 318,506.508 C 318,506.508 318,506.748 318.24,506.748 L 318.72,507.228 C 318.72,507.228 318.72,507.228 318.72,507.228 L 319.44,507.468 C 319.44,507.708 319.44,507.708 319.68,507.708 L 320.16,507.708 C 320.4,507.948 320.4,507.948 320.4,507.948 L 321.12,507.948 z M 320.64,506.028 L 320.88,506.028 L 320.16,505.788 L 320.4,505.788 L 319.68,505.548 L 319.92,505.548 L 319.44,505.308 L 319.44,505.308 L 319.2,504.828 L 319.2,505.068 L 318.96,504.348 L 318.96,504.588 L 318.72,503.868 L 318.72,504.108 L 318.72,503.388 L 318.72,503.628 L 318.72,502.908 L 318.72,503.148 L 318.96,502.428 L 318.96,502.668 L 319.2,501.948 L 319.2,502.188 L 319.44,501.708 L 319.44,501.708 L 319.92,501.468 L 319.68,501.468 L 320.4,501.228 L 320.16,501.228 L 320.88,500.988 L 320.64,500.988 L 321.36,500.988 L 321.12,500.988 L 321.84,500.988 L 321.6,500.988 L 322.32,501.228 L 322.08,501.228 L 322.8,501.468 L 322.56,501.468 L 323.04,501.708 L 323.04,501.708 L 323.28,502.188 L 323.28,501.948 L 323.52,502.668 L 323.52,502.428 L 323.76,503.148 L 323.76,502.908 L 323.76,503.628 L 323.76,503.388 L 323.76,504.108 L 323.76,503.868 L 323.52,504.588 L 323.52,504.348 L 323.28,505.068 L 323.28,504.828 L 323.04,505.308 L 323.04,505.308 L 322.56,505.548 L 322.8,505.548 L 322.08,505.788 L 322.32,505.788 L 321.6,506.028 L 321.84,506.028 L 321.12,506.028 L 321.36,506.028"
         style="fill:#7f7f7f;fill-opacity:1;fill-rule:nonzero;stroke:none"
         id="path2450" /><path
         d="M 285.84,571.068 C 287.76,571.068 289.44,569.388 289.44,567.468 C 289.44,565.548 287.76,564.108 285.84,564.108 C 283.92,564.108 282.48,565.548 282.48,567.468 C 282.48,569.388 283.92,571.068 285.84,571.068"
         style="fill:#ffffff;fill-opacity:1;fill-rule:evenodd;stroke:none"
         id="path2452" /><path
         d="M 285.84,572.028 C 285.84,572.028 286.08,572.028 286.08,572.028 L 286.8,572.028 C 286.8,572.028 286.8,572.028 287.04,571.788 L 287.52,571.788 C 287.76,571.788 287.76,571.548 287.76,571.548 L 288.24,571.308 C 288.48,571.308 288.48,571.308 288.48,571.308 L 288.96,570.828 C 288.96,570.828 289.2,570.588 289.2,570.588 L 289.68,570.108 C 289.68,570.108 289.68,570.108 289.68,569.868 L 289.92,569.388 C 289.92,569.388 290.16,569.388 290.16,569.148 L 290.16,568.668 C 290.4,568.428 290.4,568.428 290.4,568.428 L 290.4,567.708 C 290.4,567.708 290.4,567.468 290.4,567.468 L 290.4,566.748 C 290.4,566.748 290.4,566.748 290.16,566.508 L 290.16,566.028 C 290.16,565.788 290.16,565.788 289.92,565.788 L 289.68,565.068 C 289.68,565.068 289.68,565.068 289.68,565.068 L 289.2,564.588 C 289.2,564.348 288.96,564.348 288.96,564.348 L 288.48,563.868 C 288.48,563.868 288.48,563.868 288.48,563.868 L 287.76,563.628 C 287.76,563.388 287.76,563.388 287.52,563.388 L 287.04,563.148 C 286.8,563.148 286.8,563.148 286.8,563.148 L 286.08,563.148 C 286.08,563.148 285.84,563.148 285.84,563.148 L 285.12,563.148 C 285.12,563.148 285.12,563.148 284.88,563.148 L 284.4,563.388 C 284.16,563.388 284.16,563.388 284.16,563.628 L 283.44,563.868 C 283.44,563.868 283.44,563.868 283.44,563.868 L 282.96,564.348 C 282.72,564.348 282.72,564.348 282.72,564.588 L 282.24,565.068 C 282.24,565.068 282.24,565.068 282.24,565.068 L 282,565.788 C 281.76,565.788 281.76,565.788 281.76,566.028 L 281.52,566.508 C 281.52,566.748 281.52,566.748 281.52,566.748 L 281.52,567.468 C 281.52,567.468 281.52,567.708 281.52,567.708 L 281.52,568.428 C 281.52,568.428 281.52,568.428 281.52,568.668 L 281.76,569.148 C 281.76,569.388 281.76,569.388 282,569.388 L 282.24,570.108 C 282.24,570.108 282.24,570.108 282.24,570.108 L 282.72,570.588 C 282.72,570.588 282.72,570.828 282.96,570.828 L 283.44,571.308 C 283.44,571.308 283.44,571.308 283.44,571.308 L 284.16,571.548 C 284.16,571.788 284.16,571.788 284.4,571.788 L 284.88,571.788 C 285.12,572.028 285.12,572.028 285.12,572.028 L 285.84,572.028 z M 285.36,570.108 L 285.6,570.108 L 284.88,569.868 L 285.12,569.868 L 284.4,569.628 L 284.64,569.628 L 284.16,569.388 L 284.16,569.388 L 283.92,568.908 L 283.92,569.148 L 283.68,568.428 L 283.68,568.668 L 283.44,567.948 L 283.44,568.188 L 283.44,567.468 L 283.44,567.708 L 283.44,566.988 L 283.44,567.228 L 283.68,566.508 L 283.68,566.748 L 283.92,566.028 L 283.92,566.268 L 284.16,565.788 L 284.16,565.788 L 284.64,565.548 L 284.4,565.548 L 285.12,565.308 L 284.88,565.308 L 285.6,565.068 L 285.36,565.068 L 286.08,565.068 L 285.84,565.068 L 286.56,565.068 L 286.32,565.068 L 287.04,565.308 L 286.8,565.308 L 287.52,565.548 L 287.28,565.548 L 287.76,565.788 L 287.76,565.788 L 288,566.268 L 288,566.028 L 288.24,566.748 L 288.24,566.508 L 288.48,567.228 L 288.48,566.988 L 288.48,567.708 L 288.48,567.468 L 288.48,568.188 L 288.48,567.948 L 288.24,568.668 L 288.24,568.428 L 288,569.148 L 288,568.908 L 287.76,569.388 L 287.76,569.388 L 287.28,569.628 L 287.52,569.628 L 286.8,569.868 L 287.04,569.868 L 286.32,570.108 L 286.56,570.108 L 285.84,570.108 L 286.08,570.108"
         style="fill:#7f7f7f;fill-opacity:1;fill-rule:nonzero;stroke:none"
         id="path2454" /><path
         d="M 255.12,635.148 C 257.04,635.148 258.72,633.468 258.72,631.548 C 258.72,629.628 257.04,628.188 255.12,628.188 C 253.2,628.188 251.76,629.628 251.76,631.548 C 251.76,633.468 253.2,635.148 255.12,635.148"
         style="fill:#ffffff;fill-opacity:1;fill-rule:evenodd;stroke:none"
         id="path2456" /><path
         d="M 255.12,636.108 C 255.12,636.108 255.36,636.108 255.36,636.108 L 256.08,636.108 C 256.08,636.108 256.08,636.108 256.32,635.868 L 256.8,635.868 C 257.04,635.868 257.04,635.628 257.04,635.628 L 257.52,635.388 C 257.76,635.388 257.76,635.388 257.76,635.388 L 258.24,634.908 C 258.24,634.908 258.48,634.668 258.48,634.668 L 258.96,634.188 C 258.96,634.188 258.96,634.188 258.96,633.948 L 259.2,633.468 C 259.2,633.468 259.44,633.468 259.44,633.228 L 259.44,632.748 C 259.68,632.508 259.68,632.508 259.68,632.508 L 259.68,631.788 C 259.68,631.788 259.68,631.548 259.68,631.548 L 259.68,630.828 C 259.68,630.828 259.68,630.828 259.44,630.588 L 259.44,630.108 C 259.44,629.868 259.44,629.868 259.2,629.868 L 258.96,629.148 C 258.96,629.148 258.96,629.148 258.96,629.148 L 258.48,628.668 C 258.48,628.428 258.24,628.428 258.24,628.428 L 257.76,627.948 C 257.76,627.948 257.76,627.948 257.76,627.948 L 257.04,627.708 C 257.04,627.468 257.04,627.468 256.8,627.468 L 256.32,627.228 C 256.08,627.228 256.08,627.228 256.08,627.228 L 255.36,627.228 C 255.36,627.228 255.12,627.228 255.12,627.228 L 254.4,627.228 C 254.4,627.228 254.4,627.228 254.16,627.228 L 253.68,627.468 C 253.44,627.468 253.44,627.468 253.44,627.708 L 252.72,627.948 C 252.72,627.948 252.72,627.948 252.72,627.948 L 252.24,628.428 C 252,628.428 252,628.428 252,628.668 L 251.52,629.148 C 251.52,629.148 251.52,629.148 251.52,629.148 L 251.28,629.868 C 251.04,629.868 251.04,629.868 251.04,630.108 L 250.8,630.588 C 250.8,630.828 250.8,630.828 250.8,630.828 L 250.8,631.548 C 250.8,631.548 250.8,631.788 250.8,631.788 L 250.8,632.508 C 250.8,632.508 250.8,632.508 250.8,632.748 L 251.04,633.228 C 251.04,633.468 251.04,633.468 251.28,633.468 L 251.52,634.188 C 251.52,634.188 251.52,634.188 251.52,634.188 L 252,634.668 C 252,634.668 252,634.908 252.24,634.908 L 252.72,635.388 C 252.72,635.388 252.72,635.388 252.72,635.388 L 253.44,635.628 C 253.44,635.868 253.44,635.868 253.68,635.868 L 254.16,635.868 C 254.4,636.108 254.4,636.108 254.4,636.108 L 255.12,636.108 z M 254.64,634.188 L 254.88,634.188 L 254.16,633.948 L 254.4,633.948 L 253.68,633.708 L 253.92,633.708 L 253.44,633.468 L 253.44,633.468 L 253.2,632.988 L 253.2,633.228 L 252.96,632.508 L 252.96,632.748 L 252.72,632.028 L 252.72,632.268 L 252.72,631.548 L 252.72,631.788 L 252.72,631.068 L 252.72,631.308 L 252.96,630.588 L 252.96,630.828 L 253.2,630.108 L 253.2,630.348 L 253.44,629.868 L 253.44,629.868 L 253.92,629.628 L 253.68,629.628 L 254.4,629.388 L 254.16,629.388 L 254.88,629.148 L 254.64,629.148 L 255.36,629.148 L 255.12,629.148 L 255.84,629.148 L 255.6,629.148 L 256.32,629.388 L 256.08,629.388 L 256.8,629.628 L 256.56,629.628 L 257.04,629.868 L 257.04,629.868 L 257.28,630.348 L 257.28,630.108 L 257.52,630.828 L 257.52,630.588 L 257.76,631.308 L 257.76,631.068 L 257.76,631.788 L 257.76,631.548 L 257.76,632.268 L 257.76,632.028 L 257.52,632.748 L 257.52,632.508 L 257.28,633.228 L 257.28,632.988 L 257.04,633.468 L 257.04,633.468 L 256.56,633.708 L 256.8,633.708 L 256.08,633.948 L 256.32,633.948 L 255.6,634.188 L 255.84,634.188 L 255.12,634.188 L 255.36,634.188"
         style="fill:#7f7f7f;fill-opacity:1;fill-rule:nonzero;stroke:none"
         id="path2458" /><path
         d="M 124.55904,699.228 C 126.47904,699.228 128.15904,697.548 128.15904,695.628 C 128.15904,693.708 126.47904,692.268 124.55904,692.268 C 122.63904,692.268 121.19904,693.708 121.19904,695.628 C 121.19904,697.548 122.63904,699.228 124.55904,699.228"
         style="fill:#ffffff;fill-opacity:1;fill-rule:evenodd;stroke:none"
         id="path2460" /><path
         d="M 124.55904,700.188 C 124.55904,700.188 124.79904,700.188 124.79904,700.188 L 125.51904,700.188 C 125.51904,700.188 125.51904,700.188 125.75904,699.948 L 126.23904,699.948 C 126.47904,699.948 126.47904,699.708 126.47904,699.708 L 126.95904,699.468 C 127.19904,699.468 127.19904,699.468 127.19904,699.468 L 127.67904,698.988 C 127.67904,698.988 127.91904,698.748 127.91904,698.748 L 128.39904,698.268 C 128.39904,698.268 128.39904,698.268 128.39904,698.028 L 128.63904,697.548 C 128.63904,697.548 128.87904,697.548 128.87904,697.308 L 128.87904,696.828 C 129.11904,696.588 129.11904,696.588 129.11904,696.588 L 129.11904,695.868 C 129.11904,695.868 129.11904,695.628 129.11904,695.628 L 129.11904,694.908 C 129.11904,694.908 129.11904,694.908 128.87904,694.668 L 128.87904,694.188 C 128.87904,693.948 128.87904,693.948 128.63904,693.948 L 128.39904,693.228 C 128.39904,693.228 128.39904,693.228 128.39904,693.228 L 127.91904,692.748 C 127.91904,692.508 127.67904,692.508 127.67904,692.508 L 127.19904,692.028 C 127.19904,692.028 127.19904,692.028 127.19904,692.028 L 126.47904,691.788 C 126.47904,691.548 126.47904,691.548 126.23904,691.548 L 125.75904,691.308 C 125.51904,691.308 125.51904,691.308 125.51904,691.308 L 124.79904,691.308 C 124.79904,691.308 124.55904,691.308 124.55904,691.308 L 123.83904,691.308 C 123.83904,691.308 123.83904,691.308 123.59904,691.308 L 123.11904,691.548 C 122.87904,691.548 122.87904,691.548 122.87904,691.788 L 122.15904,692.028 C 122.15904,692.028 122.15904,692.028 122.15904,692.028 L 121.67904,692.508 C 121.43904,692.508 121.43904,692.508 121.43904,692.748 L 120.95904,693.228 C 120.95904,693.228 120.95904,693.228 120.95904,693.228 L 120.71904,693.948 C 120.47904,693.948 120.47904,693.948 120.47904,694.188 L 120.23904,694.668 C 120.23904,694.908 120.23904,694.908 120.23904,694.908 L 120.23904,695.628 C 120.23904,695.628 120.23904,695.868 120.23904,695.868 L 120.23904,696.588 C 120.23904,696.588 120.23904,696.588 120.23904,696.828 L 120.47904,697.308 C 120.47904,697.548 120.47904,697.548 120.71904,697.548 L 120.95904,698.268 C 120.95904,698.268 120.95904,698.268 120.95904,698.268 L 121.43904,698.748 C 121.43904,698.748 121.43904,698.988 121.67904,698.988 L 122.15904,699.468 C 122.15904,699.468 122.15904,699.468 122.15904,699.468 L 122.87904,699.708 C 122.87904,699.948 122.87904,699.948 123.11904,699.948 L 123.59904,699.948 C 123.83904,700.188 123.83904,700.188 123.83904,700.188 L 124.55904,700.188 z M 124.07904,698.268 L 124.31904,698.268 L 123.59904,698.028 L 123.83904,698.028 L 123.11904,697.788 L 123.35904,697.788 L 122.87904,697.548 L 122.87904,697.548 L 122.63904,697.068 L 122.63904,697.308 L 122.39904,696.588 L 122.39904,696.828 L 122.15904,696.108 L 122.15904,696.348 L 122.15904,695.628 L 122.15904,695.868 L 122.15904,695.148 L 122.15904,695.388 L 122.39904,694.668 L 122.39904,694.908 L 122.63904,694.188 L 122.63904,694.428 L 122.87904,693.948 L 122.87904,693.948 L 123.35904,693.708 L 123.11904,693.708 L 123.83904,693.468 L 123.59904,693.468 L 124.31904,693.228 L 124.07904,693.228 L 124.79904,693.228 L 124.55904,693.228 L 125.27904,693.228 L 125.03904,693.228 L 125.75904,693.468 L 125.51904,693.468 L 126.23904,693.708 L 125.99904,693.708 L 126.47904,693.948 L 126.47904,693.948 L 126.71904,694.428 L 126.71904,694.188 L 126.95904,694.908 L 126.95904,694.668 L 127.19904,695.388 L 127.19904,695.148 L 127.19904,695.868 L 127.19904,695.628 L 127.19904,696.348 L 127.19904,696.108 L 126.95904,696.828 L 126.95904,696.588 L 126.71904,697.308 L 126.71904,697.068 L 126.47904,697.548 L 126.47904,697.548 L 125.99904,697.788 L 126.23904,697.788 L 125.51904,698.028 L 125.75904,698.028 L 125.03904,698.268 L 125.27904,698.268 L 124.55904,698.268 L 124.79904,698.268"
         style="fill:#7f7f7f;fill-opacity:1;fill-rule:nonzero;stroke:none"
         id="path2462" /><path
         d="M 227.75904,119.86872 L 311.04,183.94872 L 310.56,182.74872 L 310.56,246.828 L 311.04,245.868 L 248.64,310.188 C 248.4,310.188 248.4,310.188 248.4,310.428 L 206.87904,374.508 C 206.63904,374.748 206.63904,375.228 206.63904,375.708 C 206.87904,375.948 207.11904,376.428 207.59904,376.428 L 353.28,440.508 L 352.32,439.308 L 352.32,503.388 L 352.56,502.668 L 310.8,566.988 C 310.8,566.988 310.56,567.228 310.56,567.228 L 289.92,631.308 L 290.64,630.588 L 165.59904,694.668 C 164.87904,694.908 164.63904,695.868 165.11904,696.588 C 165.35904,697.308 166.31904,697.548 167.03904,697.068 L 292.08,632.988 C 292.32,632.988 292.56,632.508 292.8,632.268 L 313.44,568.188 L 313.2,568.428 L 354.96,504.108 C 355.2,503.868 355.2,503.628 355.2,503.388 L 355.2,439.308 C 355.2,438.828 354.96,438.108 354.24,437.868 L 208.55904,373.788 L 209.27904,375.948 L 250.8,311.868 L 250.56,312.108 L 312.96,247.788 C 313.2,247.548 313.44,247.308 313.44,246.828 L 313.44,182.74872 C 313.44,182.26872 313.2,181.78872 312.96,181.54872 L 229.67904,117.46872 C 228.95904,116.98872 227.99904,117.22872 227.51904,117.70872 C 227.03904,118.42872 227.27904,119.38872 227.75904,119.86872"
         style="fill:#000000;fill-opacity:1;fill-rule:nonzero;stroke:none"
         id="path2464" /><path
         d="M 228.47904,122.26872 C 230.39904,122.26872 232.07904,120.58872 232.07904,118.66872 C 232.07904,116.74872 230.39904,115.30872 228.47904,115.30872 C 226.55904,115.30872 225.11904,116.74872 225.11904,118.66872 C 225.11904,120.58872 226.55904,122.26872 228.47904,122.26872"
         style="fill:#ffffff;fill-opacity:1;fill-rule:evenodd;stroke:none"
         id="path2466" /><path
         d="M 228.47904,123.22872 C 228.47904,123.22872 228.71904,123.22872 228.71904,123.22872 L 229.43904,123.22872 C 229.43904,123.22872 229.43904,123.22872 229.67904,122.98872 L 230.15904,122.98872 C 230.39904,122.98872 230.39904,122.74872 230.39904,122.74872 L 230.87904,122.50872 C 231.11904,122.50872 231.11904,122.50872 231.11904,122.50872 L 231.59904,122.02872 C 231.59904,122.02872 231.83904,121.78872 231.83904,121.78872 L 232.31904,121.30872 C 232.31904,121.30872 232.31904,121.30872 232.31904,121.06872 L 232.55904,120.58872 C 232.55904,120.58872 232.79904,120.58872 232.79904,120.34872 L 232.79904,119.86872 C 233.03904,119.62872 233.03904,119.62872 233.03904,119.62872 L 233.03904,118.90872 C 233.03904,118.90872 233.03904,118.66872 233.03904,118.66872 L 233.03904,117.94872 C 233.03904,117.94872 233.03904,117.94872 232.79904,117.70872 L 232.79904,117.22872 C 232.79904,116.98872 232.79904,116.98872 232.55904,116.98872 L 232.31904,116.26872 C 232.31904,116.26872 232.31904,116.26872 232.31904,116.26872 L 231.83904,115.78872 C 231.83904,115.54872 231.59904,115.54872 231.59904,115.54872 L 231.11904,115.06872 C 231.11904,115.06872 231.11904,115.06872 231.11904,115.06872 L 230.39904,114.82872 C 230.39904,114.58872 230.39904,114.58872 230.15904,114.58872 L 229.67904,114.34872 C 229.43904,114.34872 229.43904,114.34872 229.43904,114.34872 L 228.71904,114.34872 C 228.71904,114.34872 228.47904,114.34872 228.47904,114.34872 L 227.75904,114.34872 C 227.75904,114.34872 227.75904,114.34872 227.51904,114.34872 L 227.03904,114.58872 C 226.79904,114.58872 226.79904,114.58872 226.79904,114.82872 L 226.07904,115.06872 C 226.07904,115.06872 226.07904,115.06872 226.07904,115.06872 L 225.59904,115.54872 C 225.35904,115.54872 225.35904,115.54872 225.35904,115.78872 L 224.87904,116.26872 C 224.87904,116.26872 224.87904,116.26872 224.87904,116.26872 L 224.63904,116.98872 C 224.39904,116.98872 224.39904,116.98872 224.39904,117.22872 L 224.15904,117.70872 C 224.15904,117.94872 224.15904,117.94872 224.15904,117.94872 L 224.15904,118.66872 C 224.15904,118.66872 224.15904,118.90872 224.15904,118.90872 L 224.15904,119.62872 C 224.15904,119.62872 224.15904,119.62872 224.15904,119.86872 L 224.39904,120.34872 C 224.39904,120.58872 224.39904,120.58872 224.63904,120.58872 L 224.87904,121.30872 C 224.87904,121.30872 224.87904,121.30872 224.87904,121.30872 L 225.35904,121.78872 C 225.35904,121.78872 225.35904,122.02872 225.59904,122.02872 L 226.07904,122.50872 C 226.07904,122.50872 226.07904,122.50872 226.07904,122.50872 L 226.79904,122.74872 C 226.79904,122.98872 226.79904,122.98872 227.03904,122.98872 L 227.51904,122.98872 C 227.75904,123.22872 227.75904,123.22872 227.75904,123.22872 L 228.47904,123.22872 z M 227.99904,121.30872 L 228.23904,121.30872 L 227.51904,121.06872 L 227.75904,121.06872 L 227.03904,120.82872 L 227.27904,120.82872 L 226.79904,120.58872 L 226.79904,120.58872 L 226.55904,120.10872 L 226.55904,120.34872 L 226.31904,119.62872 L 226.31904,119.86872 L 226.07904,119.14872 L 226.07904,119.38872 L 226.07904,118.66872 L 226.07904,118.90872 L 226.07904,118.18872 L 226.07904,118.42872 L 226.31904,117.70872 L 226.31904,117.94872 L 226.55904,117.22872 L 226.55904,117.46872 L 226.79904,116.98872 L 226.79904,116.98872 L 227.27904,116.74872 L 227.03904,116.74872 L 227.75904,116.50872 L 227.51904,116.50872 L 228.23904,116.26872 L 227.99904,116.26872 L 228.71904,116.26872 L 228.47904,116.26872 L 229.19904,116.26872 L 228.95904,116.26872 L 229.67904,116.50872 L 229.43904,116.50872 L 230.15904,116.74872 L 229.91904,116.74872 L 230.39904,116.98872 L 230.39904,116.98872 L 230.63904,117.46872 L 230.63904,117.22872 L 230.87904,117.94872 L 230.87904,117.70872 L 231.11904,118.42872 L 231.11904,118.18872 L 231.11904,118.90872 L 231.11904,118.66872 L 231.11904,119.38872 L 231.11904,119.14872 L 230.87904,119.86872 L 230.87904,119.62872 L 230.63904,120.34872 L 230.63904,120.10872 L 230.39904,120.58872 L 230.39904,120.58872 L 229.91904,120.82872 L 230.15904,120.82872 L 229.43904,121.06872 L 229.67904,121.06872 L 228.95904,121.30872 L 229.19904,121.30872 L 228.47904,121.30872 L 228.71904,121.30872"
         style="fill:#000000;fill-opacity:1;fill-rule:nonzero;stroke:none"
         id="path2468" /><path
         d="M 311.76,186.34872 C 313.68,186.34872 315.36,184.66872 315.36,182.74872 C 315.36,180.82872 313.68,179.38872 311.76,179.38872 C 309.84,179.38872 308.4,180.82872 308.4,182.74872 C 308.4,184.66872 309.84,186.34872 311.76,186.34872"
         style="fill:#ffffff;fill-opacity:1;fill-rule:evenodd;stroke:none"
         id="path2470" /><path
         d="M 311.76,187.30872 C 311.76,187.30872 312,187.30872 312,187.30872 L 312.72,187.30872 C 312.72,187.30872 312.72,187.30872 312.96,187.06872 L 313.44,187.06872 C 313.68,187.06872 313.68,186.82872 313.68,186.82872 L 314.16,186.58872 C 314.4,186.58872 314.4,186.58872 314.4,186.58872 L 314.88,186.10872 C 314.88,186.10872 315.12,185.86872 315.12,185.86872 L 315.6,185.38872 C 315.6,185.38872 315.6,185.38872 315.6,185.14872 L 315.84,184.66872 C 315.84,184.66872 316.08,184.66872 316.08,184.42872 L 316.08,183.94872 C 316.32,183.70872 316.32,183.70872 316.32,183.70872 L 316.32,182.98872 C 316.32,182.98872 316.32,182.74872 316.32,182.74872 L 316.32,182.02872 C 316.32,182.02872 316.32,182.02872 316.08,181.78872 L 316.08,181.30872 C 316.08,181.06872 316.08,181.06872 315.84,181.06872 L 315.6,180.34872 C 315.6,180.34872 315.6,180.34872 315.6,180.34872 L 315.12,179.86872 C 315.12,179.62872 314.88,179.62872 314.88,179.62872 L 314.4,179.14872 C 314.4,179.14872 314.4,179.14872 314.4,179.14872 L 313.68,178.90872 C 313.68,178.66872 313.68,178.66872 313.44,178.66872 L 312.96,178.42872 C 312.72,178.42872 312.72,178.42872 312.72,178.42872 L 312,178.42872 C 312,178.42872 311.76,178.42872 311.76,178.42872 L 311.04,178.42872 C 311.04,178.42872 311.04,178.42872 310.8,178.42872 L 310.32,178.66872 C 310.08,178.66872 310.08,178.66872 310.08,178.90872 L 309.36,179.14872 C 309.36,179.14872 309.36,179.14872 309.36,179.14872 L 308.88,179.62872 C 308.64,179.62872 308.64,179.62872 308.64,179.86872 L 308.16,180.34872 C 308.16,180.34872 308.16,180.34872 308.16,180.34872 L 307.92,181.06872 C 307.68,181.06872 307.68,181.06872 307.68,181.30872 L 307.44,181.78872 C 307.44,182.02872 307.44,182.02872 307.44,182.02872 L 307.44,182.74872 C 307.44,182.74872 307.44,182.98872 307.44,182.98872 L 307.44,183.70872 C 307.44,183.70872 307.44,183.70872 307.44,183.94872 L 307.68,184.42872 C 307.68,184.66872 307.68,184.66872 307.92,184.66872 L 308.16,185.38872 C 308.16,185.38872 308.16,185.38872 308.16,185.38872 L 308.64,185.86872 C 308.64,185.86872 308.64,186.10872 308.88,186.10872 L 309.36,186.58872 C 309.36,186.58872 309.36,186.58872 309.36,186.58872 L 310.08,186.82872 C 310.08,187.06872 310.08,187.06872 310.32,187.06872 L 310.8,187.06872 C 311.04,187.30872 311.04,187.30872 311.04,187.30872 L 311.76,187.30872 z M 311.28,185.38872 L 311.52,185.38872 L 310.8,185.14872 L 311.04,185.14872 L 310.32,184.90872 L 310.56,184.90872 L 310.08,184.66872 L 310.08,184.66872 L 309.84,184.18872 L 309.84,184.42872 L 309.6,183.70872 L 309.6,183.94872 L 309.36,183.22872 L 309.36,183.46872 L 309.36,182.74872 L 309.36,182.98872 L 309.36,182.26872 L 309.36,182.50872 L 309.6,181.78872 L 309.6,182.02872 L 309.84,181.30872 L 309.84,181.54872 L 310.08,181.06872 L 310.08,181.06872 L 310.56,180.82872 L 310.32,180.82872 L 311.04,180.58872 L 310.8,180.58872 L 311.52,180.34872 L 311.28,180.34872 L 312,180.34872 L 311.76,180.34872 L 312.48,180.34872 L 312.24,180.34872 L 312.96,180.58872 L 312.72,180.58872 L 313.44,180.82872 L 313.2,180.82872 L 313.68,181.06872 L 313.68,181.06872 L 313.92,181.54872 L 313.92,181.30872 L 314.16,182.02872 L 314.16,181.78872 L 314.4,182.50872 L 314.4,182.26872 L 314.4,182.98872 L 314.4,182.74872 L 314.4,183.46872 L 314.4,183.22872 L 314.16,183.94872 L 314.16,183.70872 L 313.92,184.42872 L 313.92,184.18872 L 313.68,184.66872 L 313.68,184.66872 L 313.2,184.90872 L 313.44,184.90872 L 312.72,185.14872 L 312.96,185.14872 L 312.24,185.38872 L 312.48,185.38872 L 311.76,185.38872 L 312,185.38872"
         style="fill:#000000;fill-opacity:1;fill-rule:nonzero;stroke:none"
         id="path2472" /><path
         d="M 311.76,250.428 C 313.68,250.428 315.36,248.748 315.36,246.828 C 315.36,244.908 313.68,243.468 311.76,243.468 C 309.84,243.468 308.4,244.908 308.4,246.828 C 308.4,248.748 309.84,250.428 311.76,250.428"
         style="fill:#ffffff;fill-opacity:1;fill-rule:evenodd;stroke:none"
         id="path2474" /><path
         d="M 311.76,251.388 C 311.76,251.388 312,251.388 312,251.388 L 312.72,251.388 C 312.72,251.388 312.72,251.388 312.96,251.148 L 313.44,251.148 C 313.68,251.148 313.68,250.908 313.68,250.908 L 314.16,250.668 C 314.4,250.668 314.4,250.668 314.4,250.668 L 314.88,250.188 C 314.88,250.188 315.12,249.948 315.12,249.948 L 315.6,249.468 C 315.6,249.468 315.6,249.468 315.6,249.228 L 315.84,248.748 C 315.84,248.748 316.08,248.748 316.08,248.508 L 316.08,248.028 C 316.32,247.788 316.32,247.788 316.32,247.788 L 316.32,247.068 C 316.32,247.068 316.32,246.828 316.32,246.828 L 316.32,246.108 C 316.32,246.108 316.32,246.108 316.08,245.868 L 316.08,245.388 C 316.08,245.148 316.08,245.148 315.84,245.148 L 315.6,244.428 C 315.6,244.428 315.6,244.428 315.6,244.428 L 315.12,243.948 C 315.12,243.708 314.88,243.708 314.88,243.708 L 314.4,243.228 C 314.4,243.228 314.4,243.228 314.4,243.228 L 313.68,242.988 C 313.68,242.748 313.68,242.748 313.44,242.748 L 312.96,242.508 C 312.72,242.508 312.72,242.508 312.72,242.508 L 312,242.508 C 312,242.508 311.76,242.508 311.76,242.508 L 311.04,242.508 C 311.04,242.508 311.04,242.508 310.8,242.508 L 310.32,242.748 C 310.08,242.748 310.08,242.748 310.08,242.988 L 309.36,243.228 C 309.36,243.228 309.36,243.228 309.36,243.228 L 308.88,243.708 C 308.64,243.708 308.64,243.708 308.64,243.948 L 308.16,244.428 C 308.16,244.428 308.16,244.428 308.16,244.428 L 307.92,245.148 C 307.68,245.148 307.68,245.148 307.68,245.388 L 307.44,245.868 C 307.44,246.108 307.44,246.108 307.44,246.108 L 307.44,246.828 C 307.44,246.828 307.44,247.068 307.44,247.068 L 307.44,247.788 C 307.44,247.788 307.44,247.788 307.44,248.028 L 307.68,248.508 C 307.68,248.748 307.68,248.748 307.92,248.748 L 308.16,249.468 C 308.16,249.468 308.16,249.468 308.16,249.468 L 308.64,249.948 C 308.64,249.948 308.64,250.188 308.88,250.188 L 309.36,250.668 C 309.36,250.668 309.36,250.668 309.36,250.668 L 310.08,250.908 C 310.08,251.148 310.08,251.148 310.32,251.148 L 310.8,251.148 C 311.04,251.388 311.04,251.388 311.04,251.388 L 311.76,251.388 z M 311.28,249.468 L 311.52,249.468 L 310.8,249.228 L 311.04,249.228 L 310.32,248.988 L 310.56,248.988 L 310.08,248.748 L 310.08,248.748 L 309.84,248.268 L 309.84,248.508 L 309.6,247.788 L 309.6,248.028 L 309.36,247.308 L 309.36,247.548 L 309.36,246.828 L 309.36,247.068 L 309.36,246.348 L 309.36,246.588 L 309.6,245.868 L 309.6,246.108 L 309.84,245.388 L 309.84,245.628 L 310.08,245.148 L 310.08,245.148 L 310.56,244.908 L 310.32,244.908 L 311.04,244.668 L 310.8,244.668 L 311.52,244.428 L 311.28,244.428 L 312,244.428 L 311.76,244.428 L 312.48,244.428 L 312.24,244.428 L 312.96,244.668 L 312.72,244.668 L 313.44,244.908 L 313.2,244.908 L 313.68,245.148 L 313.68,245.148 L 313.92,245.628 L 313.92,245.388 L 314.16,246.108 L 314.16,245.868 L 314.4,246.588 L 314.4,246.348 L 314.4,247.068 L 314.4,246.828 L 314.4,247.548 L 314.4,247.308 L 314.16,248.028 L 314.16,247.788 L 313.92,248.508 L 313.92,248.268 L 313.68,248.748 L 313.68,248.748 L 313.2,248.988 L 313.44,248.988 L 312.72,249.228 L 312.96,249.228 L 312.24,249.468 L 312.48,249.468 L 311.76,249.468 L 312,249.468"
         style="fill:#000000;fill-opacity:1;fill-rule:nonzero;stroke:none"
         id="path2476" /><path
         d="M 249.36,314.508 C 251.28,314.508 252.96,312.828 252.96,310.908 C 252.96,308.988 251.28,307.548 249.36,307.548 C 247.44,307.548 246,308.988 246,310.908 C 246,312.828 247.44,314.508 249.36,314.508"
         style="fill:#ffffff;fill-opacity:1;fill-rule:evenodd;stroke:none"
         id="path2478" /><path
         d="M 249.36,315.468 C 249.36,315.468 249.6,315.468 249.6,315.468 L 250.32,315.468 C 250.32,315.468 250.32,315.468 250.56,315.228 L 251.04,315.228 C 251.28,315.228 251.28,314.988 251.28,314.988 L 251.76,314.748 C 252,314.748 252,314.748 252,314.748 L 252.48,314.268 C 252.48,314.268 252.72,314.028 252.72,314.028 L 253.2,313.548 C 253.2,313.548 253.2,313.548 253.2,313.308 L 253.44,312.828 C 253.44,312.828 253.68,312.828 253.68,312.588 L 253.68,312.108 C 253.92,311.868 253.92,311.868 253.92,311.868 L 253.92,311.148 C 253.92,311.148 253.92,310.908 253.92,310.908 L 253.92,310.188 C 253.92,310.188 253.92,310.188 253.68,309.948 L 253.68,309.468 C 253.68,309.228 253.68,309.228 253.44,309.228 L 253.2,308.508 C 253.2,308.508 253.2,308.508 253.2,308.508 L 252.72,308.028 C 252.72,307.788 252.48,307.788 252.48,307.788 L 252,307.308 C 252,307.308 252,307.308 252,307.308 L 251.28,307.068 C 251.28,306.828 251.28,306.828 251.04,306.828 L 250.56,306.588 C 250.32,306.588 250.32,306.588 250.32,306.588 L 249.6,306.588 C 249.6,306.588 249.36,306.588 249.36,306.588 L 248.64,306.588 C 248.64,306.588 248.64,306.588 248.4,306.588 L 247.92,306.828 C 247.68,306.828 247.68,306.828 247.68,307.068 L 246.96,307.308 C 246.96,307.308 246.96,307.308 246.96,307.308 L 246.48,307.788 C 246.24,307.788 246.24,307.788 246.24,308.028 L 245.76,308.508 C 245.76,308.508 245.76,308.508 245.76,308.508 L 245.52,309.228 C 245.28,309.228 245.28,309.228 245.28,309.468 L 245.04,309.948 C 245.04,310.188 245.04,310.188 245.04,310.188 L 245.04,310.908 C 245.04,310.908 245.04,311.148 245.04,311.148 L 245.04,311.868 C 245.04,311.868 245.04,311.868 245.04,312.108 L 245.28,312.588 C 245.28,312.828 245.28,312.828 245.52,312.828 L 245.76,313.548 C 245.76,313.548 245.76,313.548 245.76,313.548 L 246.24,314.028 C 246.24,314.028 246.24,314.268 246.48,314.268 L 246.96,314.748 C 246.96,314.748 246.96,314.748 246.96,314.748 L 247.68,314.988 C 247.68,315.228 247.68,315.228 247.92,315.228 L 248.4,315.228 C 248.64,315.468 248.64,315.468 248.64,315.468 L 249.36,315.468 z M 248.88,313.548 L 249.12,313.548 L 248.4,313.308 L 248.64,313.308 L 247.92,313.068 L 248.16,313.068 L 247.68,312.828 L 247.68,312.828 L 247.44,312.348 L 247.44,312.588 L 247.2,311.868 L 247.2,312.108 L 246.96,311.388 L 246.96,311.628 L 246.96,310.908 L 246.96,311.148 L 246.96,310.428 L 246.96,310.668 L 247.2,309.948 L 247.2,310.188 L 247.44,309.468 L 247.44,309.708 L 247.68,309.228 L 247.68,309.228 L 248.16,308.988 L 247.92,308.988 L 248.64,308.748 L 248.4,308.748 L 249.12,308.508 L 248.88,308.508 L 249.6,308.508 L 249.36,308.508 L 250.08,308.508 L 249.84,308.508 L 250.56,308.748 L 250.32,308.748 L 251.04,308.988 L 250.8,308.988 L 251.28,309.228 L 251.28,309.228 L 251.52,309.708 L 251.52,309.468 L 251.76,310.188 L 251.76,309.948 L 252,310.668 L 252,310.428 L 252,311.148 L 252,310.908 L 252,311.628 L 252,311.388 L 251.76,312.108 L 251.76,311.868 L 251.52,312.588 L 251.52,312.348 L 251.28,312.828 L 251.28,312.828 L 250.8,313.068 L 251.04,313.068 L 250.32,313.308 L 250.56,313.308 L 249.84,313.548 L 250.08,313.548 L 249.36,313.548 L 249.6,313.548"
         style="fill:#000000;fill-opacity:1;fill-rule:nonzero;stroke:none"
         id="path2480" /><path
         d="M 207.83904,378.828 C 209.75904,378.828 211.43904,377.148 211.43904,375.228 C 211.43904,373.308 209.75904,371.628 207.83904,371.628 C 205.91904,371.628 204.47904,373.308 204.47904,375.228 C 204.47904,377.148 205.91904,378.828 207.83904,378.828"
         style="fill:#ffffff;fill-opacity:1;fill-rule:evenodd;stroke:none"
         id="path2482" /><path
         d="M 207.83904,379.788 C 207.83904,379.788 208.07904,379.788 208.07904,379.788 L 208.79904,379.788 C 208.79904,379.788 208.79904,379.788 209.03904,379.548 L 209.51904,379.548 C 209.75904,379.548 209.75904,379.308 209.75904,379.308 L 210.47904,379.068 C 210.47904,379.068 210.47904,379.068 210.47904,378.828 L 210.95904,378.588 C 211.19904,378.348 211.19904,378.348 211.19904,378.348 L 211.67904,377.868 C 211.67904,377.868 211.67904,377.628 211.67904,377.628 L 211.91904,377.148 C 212.15904,376.908 212.15904,376.908 212.15904,376.908 L 212.39904,376.188 C 212.39904,376.188 212.39904,376.188 212.39904,375.948 L 212.39904,375.228 C 212.39904,375.228 212.39904,375.228 212.39904,375.228 L 212.39904,374.508 C 212.39904,374.268 212.39904,374.268 212.15904,374.268 L 212.15904,373.548 C 212.15904,373.548 212.15904,373.548 211.91904,373.308 L 211.67904,372.828 C 211.67904,372.828 211.67904,372.588 211.67904,372.588 L 211.19904,372.108 C 211.19904,372.108 211.19904,372.108 210.95904,371.868 L 210.47904,371.628 C 210.47904,371.388 210.47904,371.388 210.47904,371.388 L 209.75904,371.148 C 209.75904,371.148 209.75904,370.908 209.51904,370.908 L 209.03904,370.668 C 208.79904,370.668 208.79904,370.668 208.79904,370.668 L 208.07904,370.668 C 208.07904,370.668 207.83904,370.668 207.83904,370.668 L 207.11904,370.668 C 207.11904,370.668 207.11904,370.668 206.87904,370.668 L 206.39904,370.908 C 206.15904,370.908 206.15904,371.148 206.15904,371.148 L 205.43904,371.388 C 205.43904,371.388 205.43904,371.388 205.43904,371.628 L 204.95904,371.868 C 204.71904,372.108 204.71904,372.108 204.71904,372.108 L 204.23904,372.588 C 204.23904,372.588 204.23904,372.588 204.23904,372.828 L 203.99904,373.308 C 203.75904,373.548 203.75904,373.548 203.75904,373.548 L 203.51904,374.268 C 203.51904,374.268 203.51904,374.268 203.51904,374.508 L 203.51904,375.228 C 203.51904,375.228 203.51904,375.228 203.51904,375.228 L 203.51904,375.948 C 203.51904,376.188 203.51904,376.188 203.51904,376.188 L 203.75904,376.908 C 203.75904,376.908 203.75904,377.148 203.99904,377.148 L 204.23904,377.628 C 204.23904,377.628 204.23904,377.868 204.23904,377.868 L 204.71904,378.348 C 204.71904,378.348 204.71904,378.348 204.95904,378.588 L 205.43904,378.828 C 205.43904,379.068 205.43904,379.068 205.43904,379.068 L 206.15904,379.308 C 206.15904,379.308 206.15904,379.548 206.39904,379.548 L 206.87904,379.548 C 207.11904,379.788 207.11904,379.788 207.11904,379.788 L 207.83904,379.788 z M 207.35904,377.868 L 207.59904,377.868 L 206.87904,377.628 L 207.11904,377.628 L 206.39904,377.388 L 206.63904,377.388 L 206.15904,377.148 L 206.15904,377.148 L 205.91904,376.668 L 205.91904,376.668 L 205.67904,376.188 L 205.67904,376.428 L 205.43904,375.708 L 205.43904,375.948 L 205.43904,374.508 L 205.43904,374.748 L 205.67904,374.028 L 205.67904,374.268 L 205.91904,373.548 L 205.91904,373.788 L 206.15904,373.308 L 206.15904,373.308 L 206.63904,373.068 L 206.39904,373.068 L 207.11904,372.828 L 206.87904,372.828 L 207.59904,372.588 L 207.35904,372.588 L 208.07904,372.588 L 207.83904,372.588 L 208.55904,372.588 L 208.31904,372.588 L 209.03904,372.828 L 208.79904,372.828 L 209.51904,373.068 L 209.27904,373.068 L 209.75904,373.308 L 209.75904,373.308 L 209.99904,373.788 L 209.99904,373.548 L 210.23904,374.268 L 210.23904,374.028 L 210.47904,374.748 L 210.47904,374.508 L 210.47904,375.948 L 210.47904,375.708 L 210.23904,376.428 L 210.23904,376.188 L 209.99904,376.668 L 209.99904,376.668 L 209.75904,377.148 L 209.75904,377.148 L 209.27904,377.388 L 209.51904,377.388 L 208.79904,377.628 L 209.03904,377.628 L 208.31904,377.868 L 208.55904,377.868 L 207.83904,377.868 L 208.07904,377.868"
         style="fill:#000000;fill-opacity:1;fill-rule:nonzero;stroke:none"
         id="path2484" /><path
         d="M 353.52,442.908 C 355.44,442.908 357.12,441.228 357.12,439.308 C 357.12,437.388 355.44,435.708 353.52,435.708 C 351.6,435.708 350.16,437.388 350.16,439.308 C 350.16,441.228 351.6,442.908 353.52,442.908"
         style="fill:#ffffff;fill-opacity:1;fill-rule:evenodd;stroke:none"
         id="path2486" /><path
         d="M 353.52,443.868 C 353.52,443.868 353.76,443.868 353.76,443.868 L 354.48,443.868 C 354.48,443.868 354.48,443.868 354.72,443.628 L 355.2,443.628 C 355.44,443.628 355.44,443.388 355.44,443.388 L 356.16,443.148 C 356.16,443.148 356.16,443.148 356.16,442.908 L 356.64,442.668 C 356.88,442.428 356.88,442.428 356.88,442.428 L 357.36,441.948 C 357.36,441.948 357.36,441.708 357.36,441.708 L 357.6,441.228 C 357.84,440.988 357.84,440.988 357.84,440.988 L 358.08,440.268 C 358.08,440.268 358.08,440.268 358.08,440.028 L 358.08,439.308 C 358.08,439.308 358.08,439.308 358.08,439.308 L 358.08,438.588 C 358.08,438.348 358.08,438.348 357.84,438.348 L 357.84,437.628 C 357.84,437.628 357.84,437.628 357.6,437.388 L 357.36,436.908 C 357.36,436.908 357.36,436.668 357.36,436.668 L 356.88,436.188 C 356.88,436.188 356.88,436.188 356.64,435.948 L 356.16,435.708 C 356.16,435.468 356.16,435.468 356.16,435.468 L 355.44,435.228 C 355.44,435.228 355.44,434.988 355.2,434.988 L 354.72,434.748 C 354.48,434.748 354.48,434.748 354.48,434.748 L 353.76,434.748 C 353.76,434.748 353.52,434.748 353.52,434.748 L 352.8,434.748 C 352.8,434.748 352.8,434.748 352.56,434.748 L 352.08,434.988 C 351.84,434.988 351.84,435.228 351.84,435.228 L 351.12,435.468 C 351.12,435.468 351.12,435.468 351.12,435.708 L 350.64,435.948 C 350.4,436.188 350.4,436.188 350.4,436.188 L 349.92,436.668 C 349.92,436.668 349.92,436.668 349.92,436.908 L 349.68,437.388 C 349.44,437.628 349.44,437.628 349.44,437.628 L 349.2,438.348 C 349.2,438.348 349.2,438.348 349.2,438.588 L 349.2,439.308 C 349.2,439.308 349.2,439.308 349.2,439.308 L 349.2,440.028 C 349.2,440.268 349.2,440.268 349.2,440.268 L 349.44,440.988 C 349.44,440.988 349.44,441.228 349.68,441.228 L 349.92,441.708 C 349.92,441.708 349.92,441.948 349.92,441.948 L 350.4,442.428 C 350.4,442.428 350.4,442.428 350.64,442.668 L 351.12,442.908 C 351.12,443.148 351.12,443.148 351.12,443.148 L 351.84,443.388 C 351.84,443.388 351.84,443.628 352.08,443.628 L 352.56,443.628 C 352.8,443.868 352.8,443.868 352.8,443.868 L 353.52,443.868 z M 353.04,441.948 L 353.28,441.948 L 352.56,441.708 L 352.8,441.708 L 352.08,441.468 L 352.32,441.468 L 351.84,441.228 L 351.84,441.228 L 351.6,440.748 L 351.6,440.748 L 351.36,440.268 L 351.36,440.508 L 351.12,439.788 L 351.12,440.028 L 351.12,438.588 L 351.12,438.828 L 351.36,438.108 L 351.36,438.348 L 351.6,437.628 L 351.6,437.868 L 351.84,437.388 L 351.84,437.388 L 352.32,437.148 L 352.08,437.148 L 352.8,436.908 L 352.56,436.908 L 353.28,436.668 L 353.04,436.668 L 353.76,436.668 L 353.52,436.668 L 354.24,436.668 L 354,436.668 L 354.72,436.908 L 354.48,436.908 L 355.2,437.148 L 354.96,437.148 L 355.44,437.388 L 355.44,437.388 L 355.68,437.868 L 355.68,437.628 L 355.92,438.348 L 355.92,438.108 L 356.16,438.828 L 356.16,438.588 L 356.16,440.028 L 356.16,439.788 L 355.92,440.508 L 355.92,440.268 L 355.68,440.748 L 355.68,440.748 L 355.44,441.228 L 355.44,441.228 L 354.96,441.468 L 355.2,441.468 L 354.48,441.708 L 354.72,441.708 L 354,441.948 L 354.24,441.948 L 353.52,441.948 L 353.76,441.948"
         style="fill:#000000;fill-opacity:1;fill-rule:nonzero;stroke:none"
         id="path2488" /><path
         d="M 353.52,506.988 C 355.44,506.988 357.12,505.308 357.12,503.388 C 357.12,501.468 355.44,500.028 353.52,500.028 C 351.6,500.028 350.16,501.468 350.16,503.388 C 350.16,505.308 351.6,506.988 353.52,506.988"
         style="fill:#ffffff;fill-opacity:1;fill-rule:evenodd;stroke:none"
         id="path2490" /><path
         d="M 353.52,507.948 C 353.52,507.948 353.76,507.948 353.76,507.948 L 354.48,507.948 C 354.48,507.948 354.48,507.948 354.72,507.708 L 355.2,507.708 C 355.44,507.708 355.44,507.468 355.44,507.468 L 355.92,507.228 C 356.16,507.228 356.16,507.228 356.16,507.228 L 356.64,506.748 C 356.64,506.748 356.88,506.508 356.88,506.508 L 357.36,506.028 C 357.36,506.028 357.36,506.028 357.36,505.788 L 357.6,505.308 C 357.6,505.308 357.84,505.308 357.84,505.068 L 357.84,504.588 C 358.08,504.348 358.08,504.348 358.08,504.348 L 358.08,503.628 C 358.08,503.628 358.08,503.388 358.08,503.388 L 358.08,502.668 C 358.08,502.668 358.08,502.668 357.84,502.428 L 357.84,501.948 C 357.84,501.708 357.84,501.708 357.6,501.708 L 357.36,500.988 C 357.36,500.988 357.36,500.988 357.36,500.988 L 356.88,500.508 C 356.88,500.268 356.64,500.268 356.64,500.268 L 356.16,499.788 C 356.16,499.788 356.16,499.788 356.16,499.788 L 355.44,499.548 C 355.44,499.308 355.44,499.308 355.2,499.308 L 354.72,499.068 C 354.48,499.068 354.48,499.068 354.48,499.068 L 353.76,499.068 C 353.76,499.068 353.52,499.068 353.52,499.068 L 352.8,499.068 C 352.8,499.068 352.8,499.068 352.56,499.068 L 352.08,499.308 C 351.84,499.308 351.84,499.308 351.84,499.548 L 351.12,499.788 C 351.12,499.788 351.12,499.788 351.12,499.788 L 350.64,500.268 C 350.4,500.268 350.4,500.268 350.4,500.508 L 349.92,500.988 C 349.92,500.988 349.92,500.988 349.92,500.988 L 349.68,501.708 C 349.44,501.708 349.44,501.708 349.44,501.948 L 349.2,502.428 C 349.2,502.668 349.2,502.668 349.2,502.668 L 349.2,503.388 C 349.2,503.388 349.2,503.628 349.2,503.628 L 349.2,504.348 C 349.2,504.348 349.2,504.348 349.2,504.588 L 349.44,505.068 C 349.44,505.308 349.44,505.308 349.68,505.308 L 349.92,506.028 C 349.92,506.028 349.92,506.028 349.92,506.028 L 350.4,506.508 C 350.4,506.508 350.4,506.748 350.64,506.748 L 351.12,507.228 C 351.12,507.228 351.12,507.228 351.12,507.228 L 351.84,507.468 C 351.84,507.708 351.84,507.708 352.08,507.708 L 352.56,507.708 C 352.8,507.948 352.8,507.948 352.8,507.948 L 353.52,507.948 z M 353.04,506.028 L 353.28,506.028 L 352.56,505.788 L 352.8,505.788 L 352.08,505.548 L 352.32,505.548 L 351.84,505.308 L 351.84,505.308 L 351.6,504.828 L 351.6,505.068 L 351.36,504.348 L 351.36,504.588 L 351.12,503.868 L 351.12,504.108 L 351.12,503.388 L 351.12,503.628 L 351.12,502.908 L 351.12,503.148 L 351.36,502.428 L 351.36,502.668 L 351.6,501.948 L 351.6,502.188 L 351.84,501.708 L 351.84,501.708 L 352.32,501.468 L 352.08,501.468 L 352.8,501.228 L 352.56,501.228 L 353.28,500.988 L 353.04,500.988 L 353.76,500.988 L 353.52,500.988 L 354.24,500.988 L 354,500.988 L 354.72,501.228 L 354.48,501.228 L 355.2,501.468 L 354.96,501.468 L 355.44,501.708 L 355.44,501.708 L 355.68,502.188 L 355.68,501.948 L 355.92,502.668 L 355.92,502.428 L 356.16,503.148 L 356.16,502.908 L 356.16,503.628 L 356.16,503.388 L 356.16,504.108 L 356.16,503.868 L 355.92,504.588 L 355.92,504.348 L 355.68,505.068 L 355.68,504.828 L 355.44,505.308 L 355.44,505.308 L 354.96,505.548 L 355.2,505.548 L 354.48,505.788 L 354.72,505.788 L 354,506.028 L 354.24,506.028 L 353.52,506.028 L 353.76,506.028"
         style="fill:#000000;fill-opacity:1;fill-rule:nonzero;stroke:none"
         id="path2492" /><path
         d="M 311.76,571.068 C 313.68,571.068 315.36,569.388 315.36,567.468 C 315.36,565.548 313.68,564.108 311.76,564.108 C 309.84,564.108 308.4,565.548 308.4,567.468 C 308.4,569.388 309.84,571.068 311.76,571.068"
         style="fill:#ffffff;fill-opacity:1;fill-rule:evenodd;stroke:none"
         id="path2494" /><path
         d="M 311.76,572.028 C 311.76,572.028 312,572.028 312,572.028 L 312.72,572.028 C 312.72,572.028 312.72,572.028 312.96,571.788 L 313.44,571.788 C 313.68,571.788 313.68,571.548 313.68,571.548 L 314.16,571.308 C 314.4,571.308 314.4,571.308 314.4,571.308 L 314.88,570.828 C 314.88,570.828 315.12,570.588 315.12,570.588 L 315.6,570.108 C 315.6,570.108 315.6,570.108 315.6,569.868 L 315.84,569.388 C 315.84,569.388 316.08,569.388 316.08,569.148 L 316.08,568.668 C 316.32,568.428 316.32,568.428 316.32,568.428 L 316.32,567.708 C 316.32,567.708 316.32,567.468 316.32,567.468 L 316.32,566.748 C 316.32,566.748 316.32,566.748 316.08,566.508 L 316.08,566.028 C 316.08,565.788 316.08,565.788 315.84,565.788 L 315.6,565.068 C 315.6,565.068 315.6,565.068 315.6,565.068 L 315.12,564.588 C 315.12,564.348 314.88,564.348 314.88,564.348 L 314.4,563.868 C 314.4,563.868 314.4,563.868 314.4,563.868 L 313.68,563.628 C 313.68,563.388 313.68,563.388 313.44,563.388 L 312.96,563.148 C 312.72,563.148 312.72,563.148 312.72,563.148 L 312,563.148 C 312,563.148 311.76,563.148 311.76,563.148 L 311.04,563.148 C 311.04,563.148 311.04,563.148 310.8,563.148 L 310.32,563.388 C 310.08,563.388 310.08,563.388 310.08,563.628 L 309.36,563.868 C 309.36,563.868 309.36,563.868 309.36,563.868 L 308.88,564.348 C 308.64,564.348 308.64,564.348 308.64,564.588 L 308.16,565.068 C 308.16,565.068 308.16,565.068 308.16,565.068 L 307.92,565.788 C 307.68,565.788 307.68,565.788 307.68,566.028 L 307.44,566.508 C 307.44,566.748 307.44,566.748 307.44,566.748 L 307.44,567.468 C 307.44,567.468 307.44,567.708 307.44,567.708 L 307.44,568.428 C 307.44,568.428 307.44,568.428 307.44,568.668 L 307.68,569.148 C 307.68,569.388 307.68,569.388 307.92,569.388 L 308.16,570.108 C 308.16,570.108 308.16,570.108 308.16,570.108 L 308.64,570.588 C 308.64,570.588 308.64,570.828 308.88,570.828 L 309.36,571.308 C 309.36,571.308 309.36,571.308 309.36,571.308 L 310.08,571.548 C 310.08,571.788 310.08,571.788 310.32,571.788 L 310.8,571.788 C 311.04,572.028 311.04,572.028 311.04,572.028 L 311.76,572.028 z M 311.28,570.108 L 311.52,570.108 L 310.8,569.868 L 311.04,569.868 L 310.32,569.628 L 310.56,569.628 L 310.08,569.388 L 310.08,569.388 L 309.84,568.908 L 309.84,569.148 L 309.6,568.428 L 309.6,568.668 L 309.36,567.948 L 309.36,568.188 L 309.36,567.468 L 309.36,567.708 L 309.36,566.988 L 309.36,567.228 L 309.6,566.508 L 309.6,566.748 L 309.84,566.028 L 309.84,566.268 L 310.08,565.788 L 310.08,565.788 L 310.56,565.548 L 310.32,565.548 L 311.04,565.308 L 310.8,565.308 L 311.52,565.068 L 311.28,565.068 L 312,565.068 L 311.76,565.068 L 312.48,565.068 L 312.24,565.068 L 312.96,565.308 L 312.72,565.308 L 313.44,565.548 L 313.2,565.548 L 313.68,565.788 L 313.68,565.788 L 313.92,566.268 L 313.92,566.028 L 314.16,566.748 L 314.16,566.508 L 314.4,567.228 L 314.4,566.988 L 314.4,567.708 L 314.4,567.468 L 314.4,568.188 L 314.4,567.948 L 314.16,568.668 L 314.16,568.428 L 313.92,569.148 L 313.92,568.908 L 313.68,569.388 L 313.68,569.388 L 313.2,569.628 L 313.44,569.628 L 312.72,569.868 L 312.96,569.868 L 312.24,570.108 L 312.48,570.108 L 311.76,570.108 L 312,570.108"
         style="fill:#000000;fill-opacity:1;fill-rule:nonzero;stroke:none"
         id="path2496" /><path
         d="M 291.12,635.148 C 293.04,635.148 294.72,633.468 294.72,631.548 C 294.72,629.628 293.04,628.188 291.12,628.188 C 289.2,628.188 287.76,629.628 287.76,631.548 C 287.76,633.468 289.2,635.148 291.12,635.148"
         style="fill:#ffffff;fill-opacity:1;fill-rule:evenodd;stroke:none"
         id="path2498" /><path
         d="M 291.12,636.108 C 291.12,636.108 291.36,636.108 291.36,636.108 L 292.08,636.108 C 292.08,636.108 292.08,636.108 292.32,635.868 L 292.8,635.868 C 293.04,635.868 293.04,635.628 293.04,635.628 L 293.52,635.388 C 293.76,635.388 293.76,635.388 293.76,635.388 L 294.24,634.908 C 294.24,634.908 294.48,634.668 294.48,634.668 L 294.96,634.188 C 294.96,634.188 294.96,634.188 294.96,633.948 L 295.2,633.468 C 295.2,633.468 295.44,633.468 295.44,633.228 L 295.44,632.748 C 295.68,632.508 295.68,632.508 295.68,632.508 L 295.68,631.788 C 295.68,631.788 295.68,631.548 295.68,631.548 L 295.68,630.828 C 295.68,630.828 295.68,630.828 295.44,630.588 L 295.44,630.108 C 295.44,629.868 295.44,629.868 295.2,629.868 L 294.96,629.148 C 294.96,629.148 294.96,629.148 294.96,629.148 L 294.48,628.668 C 294.48,628.428 294.24,628.428 294.24,628.428 L 293.76,627.948 C 293.76,627.948 293.76,627.948 293.76,627.948 L 293.04,627.708 C 293.04,627.468 293.04,627.468 292.8,627.468 L 292.32,627.228 C 292.08,627.228 292.08,627.228 292.08,627.228 L 291.36,627.228 C 291.36,627.228 291.12,627.228 291.12,627.228 L 290.4,627.228 C 290.4,627.228 290.4,627.228 290.16,627.228 L 289.68,627.468 C 289.44,627.468 289.44,627.468 289.44,627.708 L 288.72,627.948 C 288.72,627.948 288.72,627.948 288.72,627.948 L 288.24,628.428 C 288,628.428 288,628.428 288,628.668 L 287.52,629.148 C 287.52,629.148 287.52,629.148 287.52,629.148 L 287.28,629.868 C 287.04,629.868 287.04,629.868 287.04,630.108 L 286.8,630.588 C 286.8,630.828 286.8,630.828 286.8,630.828 L 286.8,631.548 C 286.8,631.548 286.8,631.788 286.8,631.788 L 286.8,632.508 C 286.8,632.508 286.8,632.508 286.8,632.748 L 287.04,633.228 C 287.04,633.468 287.04,633.468 287.28,633.468 L 287.52,634.188 C 287.52,634.188 287.52,634.188 287.52,634.188 L 288,634.668 C 288,634.668 288,634.908 288.24,634.908 L 288.72,635.388 C 288.72,635.388 288.72,635.388 288.72,635.388 L 289.44,635.628 C 289.44,635.868 289.44,635.868 289.68,635.868 L 290.16,635.868 C 290.4,636.108 290.4,636.108 290.4,636.108 L 291.12,636.108 z M 290.64,634.188 L 290.88,634.188 L 290.16,633.948 L 290.4,633.948 L 289.68,633.708 L 289.92,633.708 L 289.44,633.468 L 289.44,633.468 L 289.2,632.988 L 289.2,633.228 L 288.96,632.508 L 288.96,632.748 L 288.72,632.028 L 288.72,632.268 L 288.72,631.548 L 288.72,631.788 L 288.72,631.068 L 288.72,631.308 L 288.96,630.588 L 288.96,630.828 L 289.2,630.108 L 289.2,630.348 L 289.44,629.868 L 289.44,629.868 L 289.92,629.628 L 289.68,629.628 L 290.4,629.388 L 290.16,629.388 L 290.88,629.148 L 290.64,629.148 L 291.36,629.148 L 291.12,629.148 L 291.84,629.148 L 291.6,629.148 L 292.32,629.388 L 292.08,629.388 L 292.8,629.628 L 292.56,629.628 L 293.04,629.868 L 293.04,629.868 L 293.28,630.348 L 293.28,630.108 L 293.52,630.828 L 293.52,630.588 L 293.76,631.308 L 293.76,631.068 L 293.76,631.788 L 293.76,631.548 L 293.76,632.268 L 293.76,632.028 L 293.52,632.748 L 293.52,632.508 L 293.28,633.228 L 293.28,632.988 L 293.04,633.468 L 293.04,633.468 L 292.56,633.708 L 292.8,633.708 L 292.08,633.948 L 292.32,633.948 L 291.6,634.188 L 291.84,634.188 L 291.12,634.188 L 291.36,634.188"
         style="fill:#000000;fill-opacity:1;fill-rule:nonzero;stroke:none"
         id="path2500" /><path
         d="M 166.07904,699.228 C 167.99904,699.228 169.67904,697.548 169.67904,695.628 C 169.67904,693.708 167.99904,692.268 166.07904,692.268 C 164.15904,692.268 162.71904,693.708 162.71904,695.628 C 162.71904,697.548 164.15904,699.228 166.07904,699.228"
         style="fill:#ffffff;fill-opacity:1;fill-rule:evenodd;stroke:none"
         id="path2502" /><path
         d="M 166.07904,700.188 C 166.07904,700.188 166.31904,700.188 166.31904,700.188 L 167.03904,700.188 C 167.03904,700.188 167.03904,700.188 167.27904,699.948 L 167.75904,699.948 C 167.99904,699.948 167.99904,699.708 167.99904,699.708 L 168.47904,699.468 C 168.71904,699.468 168.71904,699.468 168.71904,699.468 L 169.19904,698.988 C 169.19904,698.988 169.43904,698.748 169.43904,698.748 L 169.91904,698.268 C 169.91904,698.268 169.91904,698.268 169.91904,698.028 L 170.15904,697.548 C 170.15904,697.548 170.39904,697.548 170.39904,697.308 L 170.39904,696.828 C 170.63904,696.588 170.63904,696.588 170.63904,696.588 L 170.63904,695.868 C 170.63904,695.868 170.63904,695.628 170.63904,695.628 L 170.63904,694.908 C 170.63904,694.908 170.63904,694.908 170.39904,694.668 L 170.39904,694.188 C 170.39904,693.948 170.39904,693.948 170.15904,693.948 L 169.91904,693.228 C 169.91904,693.228 169.91904,693.228 169.91904,693.228 L 169.43904,692.748 C 169.43904,692.508 169.19904,692.508 169.19904,692.508 L 168.71904,692.028 C 168.71904,692.028 168.71904,692.028 168.71904,692.028 L 167.99904,691.788 C 167.99904,691.548 167.99904,691.548 167.75904,691.548 L 167.27904,691.308 C 167.03904,691.308 167.03904,691.308 167.03904,691.308 L 166.31904,691.308 C 166.31904,691.308 166.07904,691.308 166.07904,691.308 L 165.35904,691.308 C 165.35904,691.308 165.35904,691.308 165.11904,691.308 L 164.63904,691.548 C 164.39904,691.548 164.39904,691.548 164.39904,691.788 L 163.67904,692.028 C 163.67904,692.028 163.67904,692.028 163.67904,692.028 L 163.19904,692.508 C 162.95904,692.508 162.95904,692.508 162.95904,692.748 L 162.47904,693.228 C 162.47904,693.228 162.47904,693.228 162.47904,693.228 L 162.23904,693.948 C 161.99904,693.948 161.99904,693.948 161.99904,694.188 L 161.75904,694.668 C 161.75904,694.908 161.75904,694.908 161.75904,694.908 L 161.75904,695.628 C 161.75904,695.628 161.75904,695.868 161.75904,695.868 L 161.75904,696.588 C 161.75904,696.588 161.75904,696.588 161.75904,696.828 L 161.99904,697.308 C 161.99904,697.548 161.99904,697.548 162.23904,697.548 L 162.47904,698.268 C 162.47904,698.268 162.47904,698.268 162.47904,698.268 L 162.95904,698.748 C 162.95904,698.748 162.95904,698.988 163.19904,698.988 L 163.67904,699.468 C 163.67904,699.468 163.67904,699.468 163.67904,699.468 L 164.39904,699.708 C 164.39904,699.948 164.39904,699.948 164.63904,699.948 L 165.11904,699.948 C 165.35904,700.188 165.35904,700.188 165.35904,700.188 L 166.07904,700.188 z M 165.59904,698.268 L 165.83904,698.268 L 165.11904,698.028 L 165.35904,698.028 L 164.63904,697.788 L 164.87904,697.788 L 164.39904,697.548 L 164.39904,697.548 L 164.15904,697.068 L 164.15904,697.308 L 163.91904,696.588 L 163.91904,696.828 L 163.67904,696.108 L 163.67904,696.348 L 163.67904,695.628 L 163.67904,695.868 L 163.67904,695.148 L 163.67904,695.388 L 163.91904,694.668 L 163.91904,694.908 L 164.15904,694.188 L 164.15904,694.428 L 164.39904,693.948 L 164.39904,693.948 L 164.87904,693.708 L 164.63904,693.708 L 165.35904,693.468 L 165.11904,693.468 L 165.83904,693.228 L 165.59904,693.228 L 166.31904,693.228 L 166.07904,693.228 L 166.79904,693.228 L 166.55904,693.228 L 167.27904,693.468 L 167.03904,693.468 L 167.75904,693.708 L 167.51904,693.708 L 167.99904,693.948 L 167.99904,693.948 L 168.23904,694.428 L 168.23904,694.188 L 168.47904,694.908 L 168.47904,694.668 L 168.71904,695.388 L 168.71904,695.148 L 168.71904,695.868 L 168.71904,695.628 L 168.71904,696.348 L 168.71904,696.108 L 168.47904,696.828 L 168.47904,696.588 L 168.23904,697.308 L 168.23904,697.068 L 167.99904,697.548 L 167.99904,697.548 L 167.51904,697.788 L 167.75904,697.788 L 167.03904,698.028 L 167.27904,698.028 L 166.55904,698.268 L 166.79904,698.268 L 166.07904,698.268 L 166.31904,698.268"
         style="fill:#000000;fill-opacity:1;fill-rule:nonzero;stroke:none"
         id="path2504" /><g
         id="g2506"><text
           transform="matrix(0,1,1,0,503.519,59.6287)"
           id="text2508"><tspan
             style="font-size:13.92000008px;font-variant:normal;font-weight:normal;writing-mode:lr-tb;fill:#000000;fill-opacity:1;fill-rule:nonzero;stroke:none;font-family:TTE21E1758t00;-inkscape-font-specification:TTE21E1758t00"
             x="0 6.9622836"
             y="0"
             sodipodi:role="line"
             id="tspan2510">75</tspan><tspan
             style="font-size:13.92000008px;font-variant:normal;font-weight:normal;writing-mode:lr-tb;fill:#000000;fill-opacity:1;fill-rule:nonzero;stroke:none;font-family:TTE21E1758t00;-inkscape-font-specification:TTE21E1758t00"
             x="0 6.9622836"
             y="-104.16"
             sodipodi:role="line"
             id="tspan2512">80</tspan><tspan
             style="font-size:13.92000008px;font-variant:normal;font-weight:normal;writing-mode:lr-tb;fill:#000000;fill-opacity:1;fill-rule:nonzero;stroke:none;font-family:TTE21E1758t00;-inkscape-font-specification:TTE21E1758t00"
             x="0 6.9622836"
             y="-208.08"
             sodipodi:role="line"
             id="tspan2514">85</tspan><tspan
             style="font-size:13.92000008px;font-variant:normal;font-weight:normal;writing-mode:lr-tb;fill:#000000;fill-opacity:1;fill-rule:nonzero;stroke:none;font-family:TTE21E1758t00;-inkscape-font-specification:TTE21E1758t00"
             x="0 6.9622836"
             y="-312.23999"
             sodipodi:role="line"
             id="tspan2516">90</tspan><tspan
             style="font-size:13.92000008px;font-variant:normal;font-weight:normal;writing-mode:lr-tb;fill:#000000;fill-opacity:1;fill-rule:nonzero;stroke:none;font-family:TTE21E1758t00;-inkscape-font-specification:TTE21E1758t00"
             x="0 6.9622836"
             y="-416.39999"
             sodipodi:role="line"
             id="tspan2518">95</tspan></text>
</g><path
         d="M 524.16,304.668 L 524.16,323.868 C 524.16,324.588 524.88,325.308 525.6,325.308 C 526.32,325.308 527.04,324.588 527.04,323.868 L 527.04,304.668 C 527.04,303.948 526.32,303.228 525.6,303.228 C 524.88,303.228 524.16,303.948 524.16,304.668"
         style="fill:#7f7f7f;fill-opacity:1;fill-rule:nonzero;stroke:none"
         id="path2520" /><path
         d="M 525.36,317.868 C 527.28,317.868 528.96,316.188 528.96,314.268 C 528.96,312.348 527.28,310.908 525.36,310.908 C 523.44,310.908 522,312.348 522,314.268 C 522,316.188 523.44,317.868 525.36,317.868"
         style="fill:#ffffff;fill-opacity:1;fill-rule:evenodd;stroke:none"
         id="path2522" /><path
         d="M 525.36,318.828 C 525.36,318.828 525.6,318.828 525.6,318.828 L 526.32,318.828 C 526.32,318.828 526.32,318.828 526.56,318.588 L 527.04,318.588 C 527.28,318.588 527.28,318.348 527.28,318.348 L 527.76,318.108 C 528,318.108 528,318.108 528,318.108 L 528.48,317.628 C 528.48,317.628 528.72,317.388 528.72,317.388 L 529.2,316.908 C 529.2,316.908 529.2,316.908 529.2,316.668 L 529.44,316.188 C 529.44,316.188 529.68,316.188 529.68,315.948 L 529.68,315.468 C 529.92,315.228 529.92,315.228 529.92,315.228 L 529.92,314.508 C 529.92,314.508 529.92,314.268 529.92,314.268 L 529.92,313.548 C 529.92,313.548 529.92,313.548 529.68,313.308 L 529.68,312.828 C 529.68,312.588 529.68,312.588 529.44,312.588 L 529.2,311.868 C 529.2,311.868 529.2,311.868 529.2,311.868 L 528.72,311.388 C 528.72,311.148 528.48,311.148 528.48,311.148 L 528,310.668 C 528,310.668 528,310.668 528,310.668 L 527.28,310.428 C 527.28,310.188 527.28,310.188 527.04,310.188 L 526.56,309.948 C 526.32,309.948 526.32,309.948 526.32,309.948 L 525.6,309.948 C 525.6,309.948 525.36,309.948 525.36,309.948 L 524.64,309.948 C 524.64,309.948 524.64,309.948 524.4,309.948 L 523.92,310.188 C 523.68,310.188 523.68,310.188 523.68,310.428 L 522.96,310.668 C 522.96,310.668 522.96,310.668 522.96,310.668 L 522.48,311.148 C 522.24,311.148 522.24,311.148 522.24,311.388 L 521.76,311.868 C 521.76,311.868 521.76,311.868 521.76,311.868 L 521.52,312.588 C 521.28,312.588 521.28,312.588 521.28,312.828 L 521.04,313.308 C 521.04,313.548 521.04,313.548 521.04,313.548 L 521.04,314.268 C 521.04,314.268 521.04,314.508 521.04,314.508 L 521.04,315.228 C 521.04,315.228 521.04,315.228 521.04,315.468 L 521.28,315.948 C 521.28,316.188 521.28,316.188 521.52,316.188 L 521.76,316.908 C 521.76,316.908 521.76,316.908 521.76,316.908 L 522.24,317.388 C 522.24,317.388 522.24,317.628 522.48,317.628 L 522.96,318.108 C 522.96,318.108 522.96,318.108 522.96,318.108 L 523.68,318.348 C 523.68,318.588 523.68,318.588 523.92,318.588 L 524.4,318.588 C 524.64,318.828 524.64,318.828 524.64,318.828 L 525.36,318.828 z M 524.88,316.908 L 525.12,316.908 L 524.4,316.668 L 524.64,316.668 L 523.92,316.428 L 524.16,316.428 L 523.68,316.188 L 523.68,316.188 L 523.44,315.708 L 523.44,315.948 L 523.2,315.228 L 523.2,315.468 L 522.96,314.748 L 522.96,314.988 L 522.96,314.268 L 522.96,314.508 L 522.96,313.788 L 522.96,314.028 L 523.2,313.308 L 523.2,313.548 L 523.44,312.828 L 523.44,313.068 L 523.68,312.588 L 523.68,312.588 L 524.16,312.348 L 523.92,312.348 L 524.64,312.108 L 524.4,312.108 L 525.12,311.868 L 524.88,311.868 L 525.6,311.868 L 525.36,311.868 L 526.08,311.868 L 525.84,311.868 L 526.56,312.108 L 526.32,312.108 L 527.04,312.348 L 526.8,312.348 L 527.28,312.588 L 527.28,312.588 L 527.52,313.068 L 527.52,312.828 L 527.76,313.548 L 527.76,313.308 L 528,314.028 L 528,313.788 L 528,314.508 L 528,314.268 L 528,314.988 L 528,314.748 L 527.76,315.468 L 527.76,315.228 L 527.52,315.948 L 527.52,315.708 L 527.28,316.188 L 527.28,316.188 L 526.8,316.428 L 527.04,316.428 L 526.32,316.668 L 526.56,316.668 L 525.84,316.908 L 526.08,316.908 L 525.36,316.908 L 525.6,316.908"
         style="fill:#7f7f7f;fill-opacity:1;fill-rule:nonzero;stroke:none"
         id="path2524" /><g
         transform="scale(0.24,0.24)"
         id="g2526"><g
           id="g2528"
           clip-path="url(#clipPath2530)"><g
             id="g2534"
             transform="scale(4.16667,4.16667)"><text
               transform="matrix(0,1,1,0,530.159,326.269)"
               id="text2536"><tspan
                 style="font-size:16.07999992px;font-variant:normal;font-weight:normal;writing-mode:lr-tb;fill:#000000;fill-opacity:1;fill-rule:nonzero;stroke:none;font-family:TTE21E1758t00;-inkscape-font-specification:TTE21E1758t00"
                 x="0 10.558241 16.084146 19.676231 27.361006 30.953091 39.346809 47.026745"
                 y="0"
                 sodipodi:role="line"
                 id="tspan2538">Original</tspan></text>
</g></g></g><path
         d="M 524.16,391.068 L 524.16,410.268 C 524.16,410.988 524.88,411.708 525.6,411.708 C 526.32,411.708 527.04,410.988 527.04,410.268 L 527.04,391.068 C 527.04,390.348 526.32,389.628 525.6,389.628 C 524.88,389.628 524.16,390.348 524.16,391.068"
         style="fill:#000000;fill-opacity:1;fill-rule:nonzero;stroke:none"
         id="path2540" /><path
         d="M 525.36,404.028 C 527.28,404.028 528.96,402.348 528.96,400.428 C 528.96,398.508 527.28,397.068 525.36,397.068 C 523.44,397.068 522,398.508 522,400.428 C 522,402.348 523.44,404.028 525.36,404.028"
         style="fill:#ffffff;fill-opacity:1;fill-rule:evenodd;stroke:none"
         id="path2542" /><path
         d="M 525.36,404.988 C 525.36,404.988 525.6,404.988 525.6,404.988 L 526.32,404.988 C 526.32,404.988 526.32,404.988 526.56,404.748 L 527.04,404.748 C 527.28,404.748 527.28,404.508 527.28,404.508 L 527.76,404.268 C 528,404.268 528,404.268 528,404.268 L 528.48,403.788 C 528.48,403.788 528.72,403.548 528.72,403.548 L 529.2,403.068 C 529.2,403.068 529.2,403.068 529.2,402.828 L 529.44,402.348 C 529.44,402.348 529.68,402.348 529.68,402.108 L 529.68,401.628 C 529.92,401.388 529.92,401.388 529.92,401.388 L 529.92,400.668 C 529.92,400.668 529.92,400.428 529.92,400.428 L 529.92,399.708 C 529.92,399.708 529.92,399.708 529.68,399.468 L 529.68,398.988 C 529.68,398.748 529.68,398.748 529.44,398.748 L 529.2,398.028 C 529.2,398.028 529.2,398.028 529.2,398.028 L 528.72,397.548 C 528.72,397.308 528.48,397.308 528.48,397.308 L 528,396.828 C 528,396.828 528,396.828 528,396.828 L 527.28,396.588 C 527.28,396.348 527.28,396.348 527.04,396.348 L 526.56,396.108 C 526.32,396.108 526.32,396.108 526.32,396.108 L 525.6,396.108 C 525.6,396.108 525.36,396.108 525.36,396.108 L 524.64,396.108 C 524.64,396.108 524.64,396.108 524.4,396.108 L 523.92,396.348 C 523.68,396.348 523.68,396.348 523.68,396.588 L 522.96,396.828 C 522.96,396.828 522.96,396.828 522.96,396.828 L 522.48,397.308 C 522.24,397.308 522.24,397.308 522.24,397.548 L 521.76,398.028 C 521.76,398.028 521.76,398.028 521.76,398.028 L 521.52,398.748 C 521.28,398.748 521.28,398.748 521.28,398.988 L 521.04,399.468 C 521.04,399.708 521.04,399.708 521.04,399.708 L 521.04,400.428 C 521.04,400.428 521.04,400.668 521.04,400.668 L 521.04,401.388 C 521.04,401.388 521.04,401.388 521.04,401.628 L 521.28,402.108 C 521.28,402.348 521.28,402.348 521.52,402.348 L 521.76,403.068 C 521.76,403.068 521.76,403.068 521.76,403.068 L 522.24,403.548 C 522.24,403.548 522.24,403.788 522.48,403.788 L 522.96,404.268 C 522.96,404.268 522.96,404.268 522.96,404.268 L 523.68,404.508 C 523.68,404.748 523.68,404.748 523.92,404.748 L 524.4,404.748 C 524.64,404.988 524.64,404.988 524.64,404.988 L 525.36,404.988 z M 524.88,403.068 L 525.12,403.068 L 524.4,402.828 L 524.64,402.828 L 523.92,402.588 L 524.16,402.588 L 523.68,402.348 L 523.68,402.348 L 523.44,401.868 L 523.44,402.108 L 523.2,401.388 L 523.2,401.628 L 522.96,400.908 L 522.96,401.148 L 522.96,400.428 L 522.96,400.668 L 522.96,399.948 L 522.96,400.188 L 523.2,399.468 L 523.2,399.708 L 523.44,398.988 L 523.44,399.228 L 523.68,398.748 L 523.68,398.748 L 524.16,398.508 L 523.92,398.508 L 524.64,398.268 L 524.4,398.268 L 525.12,398.028 L 524.88,398.028 L 525.6,398.028 L 525.36,398.028 L 526.08,398.028 L 525.84,398.028 L 526.56,398.268 L 526.32,398.268 L 527.04,398.508 L 526.8,398.508 L 527.28,398.748 L 527.28,398.748 L 527.52,399.228 L 527.52,398.988 L 527.76,399.708 L 527.76,399.468 L 528,400.188 L 528,399.948 L 528,400.668 L 528,400.428 L 528,401.148 L 528,400.908 L 527.76,401.628 L 527.76,401.388 L 527.52,402.108 L 527.52,401.868 L 527.28,402.348 L 527.28,402.348 L 526.8,402.588 L 527.04,402.588 L 526.32,402.828 L 526.56,402.828 L 525.84,403.068 L 526.08,403.068 L 525.36,403.068 L 525.6,403.068"
         style="fill:#000000;fill-opacity:1;fill-rule:nonzero;stroke:none"
         id="path2544" /><g
         transform="scale(0.24,0.24)"
         id="g2546"><g
           id="g2548"
           clip-path="url(#clipPath2550)"><g
             id="g2554"
             transform="scale(4.16667,4.16667)"><text
               transform="matrix(0,1,1,0,530.159,412.429)"
               id="text2556"><tspan
                 style="font-size:16.07999992px;font-variant:normal;font-weight:normal;writing-mode:lr-tb;fill:#000000;fill-opacity:1;fill-rule:nonzero;stroke:none;font-family:TTE21E1758t00;-inkscape-font-specification:TTE21E1758t00"
                 x="0 10.802387 19.196106 26.876043 35.029762 40.31039 43.902477 49.902161 57.5821 65.975815"
                 y="0"
                 sodipodi:role="line"
                 id="tspan2558">Quantizada</tspan></text>
</g></g></g><path
         d="M 69.59904,48.10872 C 69.35904,48.10872 69.11904,48.34872 69.11904,48.58872 L 69.11904,739.068 C 69.11904,739.308 69.35904,739.548 69.59904,739.548 L 544.32,739.548 C 544.56,739.548 544.8,739.308 544.8,739.068 L 544.8,48.58872 C 544.8,48.34872 544.56,48.10872 544.32,48.10872 L 69.59904,48.10872 z M 544.32,49.06872 L 543.84,48.58872 L 543.84,739.068 L 544.32,738.348 L 69.59904,738.348 L 70.07904,739.068 L 70.07904,48.58872 L 69.59904,49.06872"
         style="fill:#868686;fill-opacity:1;fill-rule:nonzero;stroke:none"
         id="path2568" /></g></g></svg>