<?xml version="1.0" encoding="UTF-8" standalone="no"?>
<!-- Created with Inkscape (http://www.inkscape.org/) -->
<svg
   xmlns:dc="http://purl.org/dc/elements/1.1/"
   xmlns:cc="http://creativecommons.org/ns#"
   xmlns:rdf="http://www.w3.org/1999/02/22-rdf-syntax-ns#"
   xmlns:svg="http://www.w3.org/2000/svg"
   xmlns="http://www.w3.org/2000/svg"
   xmlns:sodipodi="http://sodipodi.sourceforge.net/DTD/sodipodi-0.dtd"
   xmlns:inkscape="http://www.inkscape.org/namespaces/inkscape"
   id="svg5873"
   sodipodi:version="0.32"
   inkscape:version="0.46"
   width="425.19684"
   height="237.06543"
   xml:space="preserve"
   sodipodi:docname="quant-cmp.svg"
   version="1.0"
   inkscape:output_extension="org.inkscape.output.svg.inkscape"><metadata
     id="metadata5878"><rdf:RDF><cc:Work
         rdf:about=""><dc:format>image/svg+xml</dc:format><dc:type
           rdf:resource="http://purl.org/dc/dcmitype/StillImage" /></cc:Work></rdf:RDF></metadata><defs
     id="defs5876"><inkscape:perspective
       sodipodi:type="inkscape:persp3d"
       inkscape:vp_x="0 : 526.18109 : 1"
       inkscape:vp_y="0 : 1000 : 0"
       inkscape:vp_z="744.09448 : 526.18109 : 1"
       inkscape:persp3d-origin="372.04724 : 350.78739 : 1"
       id="perspective5880" /></defs><sodipodi:namedview
     inkscape:window-height="669"
     inkscape:window-width="664"
     inkscape:pageshadow="2"
     inkscape:pageopacity="0.0"
     guidetolerance="10.0"
     gridtolerance="10.0"
     objecttolerance="10.0"
     borderopacity="1.0"
     bordercolor="#666666"
     pagecolor="#ffffff"
     id="base"
     showgrid="false"
     inkscape:zoom="1.3358519"
     inkscape:cx="212.59842"
     inkscape:cy="118.53272"
     inkscape:window-x="23"
     inkscape:window-y="23"
     inkscape:current-layer="g5882" /><g
     id="g5882"
     inkscape:groupmode="layer"
     inkscape:label="quantizaçãox"
     transform="matrix(1.25,0,0,-1.25,-124.45158,934.40821)"><g
       id="g5884"
       transform="matrix(8.8169381e-2,0,0,8.8169381e-2,71.523401,173.13215)"><path
         d="M 321,4367.67 L 4171,4367.67 L 4171,6510.67 L 321,6510.67 L 321,4367.67 z"
         style="fill:#ffffff;fill-opacity:1;fill-rule:evenodd;stroke:none"
         id="path5886" /><path
         d="M 575,4660.67 L 4080,4660.67 L 4080,6418.67 L 575,6418.67 L 575,4660.67 z"
         style="fill:#ffffff;fill-opacity:1;fill-rule:evenodd;stroke:none"
         id="path5888" /><path
         d="M 575,4781.67 L 4080,4781.67 L 4080,4775.67 L 575,4775.67 L 575,4781.67 z M 575,4898.67 L 4080,4898.67 L 4080,4892.67 L 575,4892.67 L 575,4898.67 z M 575,5015.67 L 4080,5015.67 L 4080,5009.67 L 575,5009.67 L 575,5015.67 z M 575,5132.67 L 4080,5132.67 L 4080,5126.67 L 575,5126.67 L 575,5132.67 z M 575,5366.67 L 4080,5366.67 L 4080,5360.67 L 575,5360.67 L 575,5366.67 z M 575,5483.67 L 4080,5483.67 L 4080,5477.67 L 575,5477.67 L 575,5483.67 z M 575,5601.67 L 4080,5601.67 L 4080,5595.67 L 575,5595.67 L 575,5601.67 z M 575,5718.67 L 4080,5718.67 L 4080,5712.67 L 575,5712.67 L 575,5718.67 z M 575,5952.67 L 4080,5952.67 L 4080,5946.67 L 575,5946.67 L 575,5952.67 z M 575,6069.67 L 4080,6069.67 L 4080,6063.67 L 575,6063.67 L 575,6069.67 z M 575,6186.67 L 4080,6186.67 L 4080,6180.67 L 575,6180.67 L 575,6186.67 z M 575,6303.67 L 4080,6303.67 L 4080,6297.67 L 575,6297.67"
         style="fill:#b7b7b7;fill-opacity:1;fill-rule:nonzero;stroke:none"
         id="path5890" /><path
         d="M 575,4663.67 L 4080,4663.67 L 4080,4657.67 L 575,4657.67 L 575,4663.67 z M 575,5249.67 L 4080,5249.67 L 4080,5243.67 L 575,5243.67 L 575,5249.67 z M 575,5835.67 L 4080,5835.67 L 4080,5829.67 L 575,5829.67 L 575,5835.67 z M 575,6421.67 L 4080,6421.67 L 4080,6415.67 L 575,6415.67"
         style="fill:#868686;fill-opacity:1;fill-rule:nonzero;stroke:none"
         id="path5892" /><path
         d="M 574,6418.67 L 575,6419.67 L 4080,6419.67 L 4081,6418.67 L 4081,4660.67 L 4080,4659.67 L 575,4659.67 L 574,4660.67 L 574,6418.67 z M 576,4660.67 L 575,4661.67 L 4080,4661.67 L 4079,4660.67 L 4079,6418.67 L 4080,6417.67 L 575,6417.67 L 576,6418.67"
         style="fill:#000000;fill-opacity:1;fill-rule:nonzero;stroke:none"
         id="path5894" /><path
         d="M 753,5648.67 L 1103,5233.67 L 1099,5234.67 L 1450,5280.67 L 1448,5279.67 L 1798,5686.67 C 1798,5686.67 1798,5686.67 1799,5686.67 L 2150,5915.67 C 2151,5916.67 2152,5916.67 2153,5916.67 C 2154,5915.67 2155,5915.67 2156,5914.67 L 2506,5039.67 L 2502,5041.67 L 2853,5081.67 L 2851,5081.67 L 3201,5280.67 L 3552,5452.67 L 3550,5450.67 L 3900,6185.67 C 3901,6187.67 3904,6188.67 3906,6187.67 C 3908,6186.67 3909,6183.67 3908,6181.67 L 3558,5446.67 C 3557,5445.67 3557,5445.67 3556,5444.67 L 3205,5273.67 L 2855,5074.67 C 2854,5073.67 2854,5073.67 2853,5073.67 L 2502,5033.67 C 2501,5033.67 2499,5034.67 2498,5036.67 L 2148,5911.67 L 2154,5909.67 L 1803,5680.67 L 1804,5680.67 L 1454,5273.67 C 1453,5273.67 1452,5272.67 1451,5272.67 L 1100,5226.67 C 1099,5226.67 1098,5226.67 1097,5227.67 L 747,5642.67 C 745,5644.67 746,5647.67 747,5648.67 C 749,5650.67 752,5649.67 753,5648.67"
         style="fill:#a6a6a6;fill-opacity:1;fill-rule:nonzero;stroke:none"
         id="path5896" /><path
         d="M 766,5646.67 C 766,5636.67 759,5629.67 749,5629.67 C 740,5629.67 733,5636.67 733,5646.67 C 733,5655.67 740,5662.67 749,5662.67 C 759,5662.67 766,5655.67 766,5646.67"
         style="fill:#ffffff;fill-opacity:1;fill-rule:evenodd;stroke:none"
         id="path5898" /><path
         d="M 769,5646.67 L 769,5641.67 L 768,5638.67 L 767,5638.67 L 766,5635.67 L 765,5634.67 L 763,5632.67 L 763,5632.67 L 761,5630.67 L 760,5629.67 L 757,5628.67 L 757,5627.67 L 754,5626.67 L 745,5626.67 L 742,5627.67 L 742,5628.67 L 739,5629.67 L 738,5630.67 L 736,5632.67 L 736,5632.67 L 734,5634.67 L 733,5635.67 L 732,5638.67 L 731,5638.67 L 730,5641.67 L 730,5650.67 L 731,5653.67 L 732,5653.67 L 733,5656.67 L 734,5657.67 L 736,5659.67 L 736,5659.67 L 738,5661.67 L 739,5662.67 L 742,5663.67 L 742,5664.67 L 745,5665.67 L 754,5665.67 L 757,5664.67 L 757,5663.67 L 760,5662.67 L 761,5661.67 L 763,5659.67 L 763,5659.67 L 765,5657.67 L 766,5656.67 L 767,5653.67 L 768,5653.67 L 769,5650.67 L 769,5649.67 L 769,5646.67 z M 763,5649.67 L 763,5648.67 L 762,5651.67 L 762,5650.67 L 761,5653.67 L 761,5653.67 L 759,5655.67 L 759,5655.67 L 757,5657.67 L 757,5657.67 L 755,5658.67 L 755,5658.67 L 752,5659.67 L 753,5659.67 L 749,5659.67 L 750,5659.67 L 746,5659.67 L 747,5659.67 L 744,5658.67 L 745,5658.67 L 742,5657.67 L 742,5657.67 L 740,5655.67 L 740,5655.67 L 738,5653.67 L 738,5653.67 L 737,5650.67 L 737,5651.67 L 736,5648.67 L 736,5649.67 L 736,5645.67 L 736,5646.67 L 736,5642.67 L 736,5643.67 L 737,5640.67 L 737,5640.67 L 738,5638.67 L 738,5638.67 L 740,5636.67 L 740,5636.67 L 742,5634.67 L 742,5634.67 L 745,5633.67 L 744,5633.67 L 747,5632.67 L 746,5632.67 L 750,5632.67 L 749,5632.67 L 753,5632.67 L 752,5632.67 L 755,5633.67 L 755,5633.67 L 757,5634.67 L 757,5634.67 L 759,5636.67 L 759,5636.67 L 761,5638.67 L 761,5638.67 L 762,5640.67 L 762,5640.67 L 763,5643.67 L 763,5642.67 L 763,5646.67 L 763,5645.67"
         style="fill:#a6a6a6;fill-opacity:1;fill-rule:nonzero;stroke:none"
         id="path5900" /><path
         d="M 1117,5230.67 C 1117,5221.67 1110,5213.67 1100,5213.67 C 1091,5213.67 1084,5221.67 1084,5230.67 C 1084,5239.67 1091,5247.67 1100,5247.67 C 1110,5247.67 1117,5239.67 1117,5230.67"
         style="fill:#ffffff;fill-opacity:1;fill-rule:evenodd;stroke:none"
         id="path5902" /><path
         d="M 1120,5230.67 L 1120,5226.67 L 1119,5222.67 L 1118,5222.67 L 1117,5219.67 L 1117,5219.67 L 1115,5216.67 L 1114,5216.67 L 1112,5214.67 L 1111,5213.67 L 1108,5212.67 L 1108,5211.67 L 1105,5210.67 L 1096,5210.67 L 1093,5211.67 L 1093,5212.67 L 1090,5213.67 L 1089,5214.67 L 1087,5216.67 L 1087,5216.67 L 1084,5219.67 L 1084,5219.67 L 1083,5222.67 L 1082,5222.67 L 1081,5226.67 L 1081,5234.67 L 1082,5238.67 L 1083,5238.67 L 1084,5241.67 L 1084,5241.67 L 1087,5244.67 L 1087,5244.67 L 1089,5246.67 L 1090,5247.67 L 1093,5248.67 L 1093,5249.67 L 1096,5250.67 L 1105,5250.67 L 1108,5249.67 L 1108,5248.67 L 1111,5247.67 L 1112,5246.67 L 1114,5244.67 L 1115,5244.67 L 1117,5241.67 L 1117,5241.67 L 1118,5238.67 L 1119,5238.67 L 1120,5234.67 L 1120,5234.67 L 1120,5230.67 z M 1114,5233.67 L 1114,5233.67 L 1113,5236.67 L 1113,5235.67 L 1112,5238.67 L 1112,5238.67 L 1110,5240.67 L 1110,5240.67 L 1108,5242.67 L 1108,5241.67 L 1105,5243.67 L 1106,5243.67 L 1103,5244.67 L 1100,5244.67 L 1101,5244.67 L 1098,5244.67 L 1098,5244.67 L 1095,5243.67 L 1096,5243.67 L 1093,5241.67 L 1093,5242.67 L 1091,5240.67 L 1091,5240.67 L 1089,5238.67 L 1089,5238.67 L 1088,5235.67 L 1088,5236.67 L 1087,5233.67 L 1087,5227.67 L 1088,5224.67 L 1088,5225.67 L 1089,5222.67 L 1089,5222.67 L 1091,5220.67 L 1091,5220.67 L 1093,5218.67 L 1093,5219.67 L 1096,5217.67 L 1095,5217.67 L 1098,5216.67 L 1097,5216.67 L 1101,5216.67 L 1100,5216.67 L 1104,5216.67 L 1103,5216.67 L 1106,5217.67 L 1105,5217.67 L 1108,5219.67 L 1108,5218.67 L 1110,5220.67 L 1110,5220.67 L 1112,5222.67 L 1112,5222.67 L 1113,5225.67 L 1113,5224.67 L 1114,5227.67 L 1114,5230.67"
         style="fill:#a6a6a6;fill-opacity:1;fill-rule:nonzero;stroke:none"
         id="path5904" /><path
         d="M 1467,5276.67 C 1467,5266.67 1460,5259.67 1450,5259.67 C 1441,5259.67 1434,5266.67 1434,5276.67 C 1434,5285.67 1441,5292.67 1450,5292.67 C 1460,5292.67 1467,5285.67 1467,5276.67"
         style="fill:#ffffff;fill-opacity:1;fill-rule:evenodd;stroke:none"
         id="path5906" /><path
         d="M 1470,5276.67 L 1470,5271.67 L 1469,5268.67 L 1468,5268.67 L 1467,5265.67 L 1466,5264.67 L 1464,5262.67 L 1464,5262.67 L 1462,5260.67 L 1461,5259.67 L 1458,5258.67 L 1458,5257.67 L 1455,5256.67 L 1446,5256.67 L 1443,5257.67 L 1443,5258.67 L 1440,5259.67 L 1439,5260.67 L 1437,5262.67 L 1437,5262.67 L 1435,5264.67 L 1434,5265.67 L 1433,5268.67 L 1432,5268.67 L 1431,5271.67 L 1431,5280.67 L 1432,5283.67 L 1433,5283.67 L 1434,5286.67 L 1435,5287.67 L 1437,5289.67 L 1437,5289.67 L 1439,5291.67 L 1440,5292.67 L 1443,5293.67 L 1443,5294.67 L 1446,5295.67 L 1455,5295.67 L 1458,5294.67 L 1458,5293.67 L 1461,5292.67 L 1462,5291.67 L 1464,5289.67 L 1464,5289.67 L 1466,5287.67 L 1467,5286.67 L 1468,5283.67 L 1469,5283.67 L 1470,5280.67 L 1470,5279.67 L 1470,5276.67 z M 1464,5279.67 L 1464,5278.67 L 1463,5281.67 L 1463,5280.67 L 1462,5283.67 L 1462,5283.67 L 1460,5285.67 L 1460,5285.67 L 1458,5287.67 L 1458,5287.67 L 1456,5288.67 L 1456,5288.67 L 1453,5289.67 L 1454,5289.67 L 1450,5289.67 L 1451,5289.67 L 1447,5289.67 L 1448,5289.67 L 1445,5288.67 L 1446,5288.67 L 1443,5287.67 L 1443,5287.67 L 1441,5285.67 L 1441,5285.67 L 1439,5283.67 L 1439,5283.67 L 1438,5280.67 L 1438,5281.67 L 1437,5278.67 L 1437,5279.67 L 1437,5275.67 L 1437,5276.67 L 1437,5272.67 L 1437,5273.67 L 1438,5270.67 L 1438,5270.67 L 1439,5268.67 L 1439,5268.67 L 1441,5266.67 L 1441,5266.67 L 1443,5264.67 L 1443,5264.67 L 1446,5263.67 L 1445,5263.67 L 1448,5262.67 L 1447,5262.67 L 1451,5262.67 L 1450,5262.67 L 1454,5262.67 L 1453,5262.67 L 1456,5263.67 L 1456,5263.67 L 1458,5264.67 L 1458,5264.67 L 1460,5266.67 L 1460,5266.67 L 1462,5268.67 L 1462,5268.67 L 1463,5270.67 L 1463,5270.67 L 1464,5273.67 L 1464,5272.67 L 1464,5276.67 L 1464,5275.67"
         style="fill:#a6a6a6;fill-opacity:1;fill-rule:nonzero;stroke:none"
         id="path5908" /><path
         d="M 1818,5683.67 C 1818,5673.67 1811,5666.67 1801,5666.67 C 1792,5666.67 1785,5673.67 1785,5683.67 C 1785,5692.67 1792,5699.67 1801,5699.67 C 1811,5699.67 1818,5692.67 1818,5683.67"
         style="fill:#ffffff;fill-opacity:1;fill-rule:evenodd;stroke:none"
         id="path5910" /><path
         d="M 1821,5683.67 L 1821,5678.67 L 1820,5675.67 L 1819,5675.67 L 1818,5672.67 L 1817,5671.67 L 1815,5669.67 L 1815,5669.67 L 1813,5667.67 L 1812,5666.67 L 1809,5665.67 L 1809,5664.67 L 1806,5663.67 L 1797,5663.67 L 1794,5664.67 L 1794,5665.67 L 1791,5666.67 L 1790,5667.67 L 1788,5669.67 L 1788,5669.67 L 1786,5671.67 L 1785,5672.67 L 1784,5675.67 L 1783,5675.67 L 1782,5678.67 L 1782,5687.67 L 1783,5690.67 L 1784,5690.67 L 1785,5693.67 L 1786,5694.67 L 1788,5696.67 L 1788,5696.67 L 1790,5698.67 L 1791,5699.67 L 1794,5700.67 L 1794,5701.67 L 1797,5702.67 L 1806,5702.67 L 1809,5701.67 L 1809,5700.67 L 1812,5699.67 L 1813,5698.67 L 1815,5696.67 L 1815,5696.67 L 1817,5694.67 L 1818,5693.67 L 1819,5690.67 L 1820,5690.67 L 1821,5687.67 L 1821,5686.67 L 1821,5683.67 z M 1815,5686.67 L 1815,5685.67 L 1814,5688.67 L 1814,5687.67 L 1813,5690.67 L 1813,5690.67 L 1811,5692.67 L 1811,5692.67 L 1809,5694.67 L 1809,5694.67 L 1807,5695.67 L 1807,5695.67 L 1804,5696.67 L 1805,5696.67 L 1801,5696.67 L 1802,5696.67 L 1798,5696.67 L 1799,5696.67 L 1796,5695.67 L 1797,5695.67 L 1794,5694.67 L 1794,5694.67 L 1792,5692.67 L 1792,5692.67 L 1790,5690.67 L 1790,5690.67 L 1789,5687.67 L 1789,5688.67 L 1788,5685.67 L 1788,5686.67 L 1788,5682.67 L 1788,5683.67 L 1788,5679.67 L 1788,5680.67 L 1789,5677.67 L 1789,5677.67 L 1790,5675.67 L 1790,5675.67 L 1792,5673.67 L 1792,5673.67 L 1794,5671.67 L 1794,5671.67 L 1797,5670.67 L 1796,5670.67 L 1799,5669.67 L 1798,5669.67 L 1802,5669.67 L 1801,5669.67 L 1805,5669.67 L 1804,5669.67 L 1807,5670.67 L 1807,5670.67 L 1809,5671.67 L 1809,5671.67 L 1811,5673.67 L 1811,5673.67 L 1813,5675.67 L 1813,5675.67 L 1814,5677.67 L 1814,5677.67 L 1815,5680.67 L 1815,5679.67 L 1815,5683.67 L 1815,5682.67"
         style="fill:#a6a6a6;fill-opacity:1;fill-rule:nonzero;stroke:none"
         id="path5912" /><path
         d="M 2168,5913.67 C 2168,5903.67 2161,5896.67 2151,5896.67 C 2142,5896.67 2135,5903.67 2135,5913.67 C 2135,5922.67 2142,5929.67 2151,5929.67 C 2161,5929.67 2168,5922.67 2168,5913.67"
         style="fill:#ffffff;fill-opacity:1;fill-rule:evenodd;stroke:none"
         id="path5914" /><path
         d="M 2171,5913.67 L 2171,5908.67 L 2170,5905.67 L 2169,5905.67 L 2168,5902.67 L 2167,5901.67 L 2165,5899.67 L 2165,5899.67 L 2163,5897.67 L 2162,5896.67 L 2159,5895.67 L 2159,5894.67 L 2156,5893.67 L 2147,5893.67 L 2144,5894.67 L 2144,5895.67 L 2141,5896.67 L 2140,5897.67 L 2138,5899.67 L 2138,5899.67 L 2136,5901.67 L 2135,5902.67 L 2134,5905.67 L 2133,5905.67 L 2132,5908.67 L 2132,5917.67 L 2133,5920.67 L 2134,5920.67 L 2135,5923.67 L 2136,5924.67 L 2138,5926.67 L 2138,5926.67 L 2140,5928.67 L 2141,5929.67 L 2144,5930.67 L 2144,5931.67 L 2147,5932.67 L 2156,5932.67 L 2159,5931.67 L 2159,5930.67 L 2162,5929.67 L 2163,5928.67 L 2165,5926.67 L 2165,5926.67 L 2167,5924.67 L 2168,5923.67 L 2169,5920.67 L 2170,5920.67 L 2171,5917.67 L 2171,5916.67 L 2171,5913.67 z M 2165,5916.67 L 2165,5915.67 L 2164,5918.67 L 2164,5917.67 L 2163,5920.67 L 2163,5920.67 L 2161,5922.67 L 2161,5922.67 L 2159,5924.67 L 2159,5924.67 L 2157,5925.67 L 2157,5925.67 L 2154,5926.67 L 2155,5926.67 L 2151,5926.67 L 2152,5926.67 L 2148,5926.67 L 2149,5926.67 L 2146,5925.67 L 2147,5925.67 L 2144,5924.67 L 2144,5924.67 L 2142,5922.67 L 2142,5922.67 L 2140,5920.67 L 2140,5920.67 L 2139,5917.67 L 2139,5918.67 L 2138,5915.67 L 2138,5916.67 L 2138,5912.67 L 2138,5913.67 L 2138,5909.67 L 2138,5910.67 L 2139,5907.67 L 2139,5907.67 L 2140,5905.67 L 2140,5905.67 L 2142,5903.67 L 2142,5903.67 L 2144,5901.67 L 2144,5901.67 L 2147,5900.67 L 2146,5900.67 L 2149,5899.67 L 2148,5899.67 L 2152,5899.67 L 2151,5899.67 L 2155,5899.67 L 2154,5899.67 L 2157,5900.67 L 2157,5900.67 L 2159,5901.67 L 2159,5901.67 L 2161,5903.67 L 2161,5903.67 L 2163,5905.67 L 2163,5905.67 L 2164,5907.67 L 2164,5907.67 L 2165,5910.67 L 2165,5909.67 L 2165,5913.67 L 2165,5912.67"
         style="fill:#a6a6a6;fill-opacity:1;fill-rule:nonzero;stroke:none"
         id="path5916" /><path
         d="M 2519,5037.67 C 2519,5027.67 2512,5020.67 2502,5020.67 C 2493,5020.67 2486,5027.67 2486,5037.67 C 2486,5046.67 2493,5053.67 2502,5053.67 C 2512,5053.67 2519,5046.67 2519,5037.67"
         style="fill:#ffffff;fill-opacity:1;fill-rule:evenodd;stroke:none"
         id="path5918" /><path
         d="M 2522,5037.67 L 2522,5032.67 L 2521,5029.67 L 2520,5029.67 L 2519,5026.67 L 2518,5025.67 L 2516,5023.67 L 2516,5023.67 L 2514,5021.67 L 2513,5020.67 L 2510,5019.67 L 2510,5018.67 L 2507,5017.67 L 2498,5017.67 L 2495,5018.67 L 2495,5019.67 L 2492,5020.67 L 2491,5021.67 L 2489,5023.67 L 2489,5023.67 L 2487,5025.67 L 2486,5026.67 L 2485,5029.67 L 2484,5029.67 L 2483,5032.67 L 2483,5041.67 L 2484,5044.67 L 2485,5044.67 L 2486,5047.67 L 2487,5048.67 L 2489,5050.67 L 2489,5050.67 L 2491,5052.67 L 2492,5053.67 L 2495,5054.67 L 2495,5055.67 L 2498,5056.67 L 2507,5056.67 L 2510,5055.67 L 2510,5054.67 L 2513,5053.67 L 2514,5052.67 L 2516,5050.67 L 2516,5050.67 L 2518,5048.67 L 2519,5047.67 L 2520,5044.67 L 2521,5044.67 L 2522,5041.67 L 2522,5040.67 L 2522,5037.67 z M 2516,5040.67 L 2516,5039.67 L 2515,5042.67 L 2515,5041.67 L 2514,5044.67 L 2514,5044.67 L 2512,5046.67 L 2512,5046.67 L 2510,5048.67 L 2510,5048.67 L 2508,5049.67 L 2508,5049.67 L 2505,5050.67 L 2506,5050.67 L 2502,5050.67 L 2503,5050.67 L 2499,5050.67 L 2500,5050.67 L 2497,5049.67 L 2498,5049.67 L 2495,5048.67 L 2495,5048.67 L 2493,5046.67 L 2493,5046.67 L 2491,5044.67 L 2491,5044.67 L 2490,5041.67 L 2490,5042.67 L 2489,5039.67 L 2489,5040.67 L 2489,5036.67 L 2489,5037.67 L 2489,5033.67 L 2489,5034.67 L 2490,5031.67 L 2490,5031.67 L 2491,5029.67 L 2491,5029.67 L 2493,5027.67 L 2493,5027.67 L 2495,5025.67 L 2495,5025.67 L 2498,5024.67 L 2497,5024.67 L 2500,5023.67 L 2499,5023.67 L 2503,5023.67 L 2502,5023.67 L 2506,5023.67 L 2505,5023.67 L 2508,5024.67 L 2508,5024.67 L 2510,5025.67 L 2510,5025.67 L 2512,5027.67 L 2512,5027.67 L 2514,5029.67 L 2514,5029.67 L 2515,5031.67 L 2515,5031.67 L 2516,5034.67 L 2516,5033.67 L 2516,5037.67 L 2516,5036.67"
         style="fill:#a6a6a6;fill-opacity:1;fill-rule:nonzero;stroke:none"
         id="path5920" /><path
         d="M 2869,5077.67 C 2869,5068.67 2862,5060.67 2852,5060.67 C 2843,5060.67 2836,5068.67 2836,5077.67 C 2836,5086.67 2843,5094.67 2852,5094.67 C 2862,5094.67 2869,5086.67 2869,5077.67"
         style="fill:#ffffff;fill-opacity:1;fill-rule:evenodd;stroke:none"
         id="path5922" /><path
         d="M 2872,5077.67 L 2872,5073.67 L 2871,5069.67 L 2870,5069.67 L 2869,5066.67 L 2869,5066.67 L 2867,5063.67 L 2866,5063.67 L 2864,5061.67 L 2863,5060.67 L 2860,5059.67 L 2860,5058.67 L 2857,5057.67 L 2848,5057.67 L 2845,5058.67 L 2845,5059.67 L 2842,5060.67 L 2841,5061.67 L 2839,5063.67 L 2839,5063.67 L 2836,5066.67 L 2836,5066.67 L 2835,5069.67 L 2834,5069.67 L 2833,5073.67 L 2833,5081.67 L 2834,5085.67 L 2835,5085.67 L 2836,5088.67 L 2836,5088.67 L 2839,5091.67 L 2839,5091.67 L 2841,5093.67 L 2842,5094.67 L 2845,5095.67 L 2845,5096.67 L 2848,5097.67 L 2857,5097.67 L 2860,5096.67 L 2860,5095.67 L 2863,5094.67 L 2864,5093.67 L 2866,5091.67 L 2867,5091.67 L 2869,5088.67 L 2869,5088.67 L 2870,5085.67 L 2871,5085.67 L 2872,5081.67 L 2872,5081.67 L 2872,5077.67 z M 2866,5080.67 L 2866,5080.67 L 2865,5083.67 L 2865,5082.67 L 2864,5085.67 L 2864,5085.67 L 2862,5087.67 L 2862,5087.67 L 2860,5089.67 L 2860,5088.67 L 2857,5090.67 L 2858,5090.67 L 2855,5091.67 L 2852,5091.67 L 2853,5091.67 L 2850,5091.67 L 2850,5091.67 L 2847,5090.67 L 2848,5090.67 L 2845,5088.67 L 2845,5089.67 L 2843,5087.67 L 2843,5087.67 L 2841,5085.67 L 2841,5085.67 L 2840,5082.67 L 2840,5083.67 L 2839,5080.67 L 2839,5074.67 L 2840,5071.67 L 2840,5072.67 L 2841,5069.67 L 2841,5069.67 L 2843,5067.67 L 2843,5067.67 L 2845,5065.67 L 2845,5066.67 L 2848,5064.67 L 2847,5064.67 L 2850,5063.67 L 2849,5063.67 L 2853,5063.67 L 2852,5063.67 L 2856,5063.67 L 2855,5063.67 L 2858,5064.67 L 2857,5064.67 L 2860,5066.67 L 2860,5065.67 L 2862,5067.67 L 2862,5067.67 L 2864,5069.67 L 2864,5069.67 L 2865,5072.67 L 2865,5071.67 L 2866,5074.67 L 2866,5077.67"
         style="fill:#a6a6a6;fill-opacity:1;fill-rule:nonzero;stroke:none"
         id="path5924" /><path
         d="M 3220,5276.67 C 3220,5266.67 3213,5259.67 3203,5259.67 C 3194,5259.67 3187,5266.67 3187,5276.67 C 3187,5285.67 3194,5292.67 3203,5292.67 C 3213,5292.67 3220,5285.67 3220,5276.67"
         style="fill:#ffffff;fill-opacity:1;fill-rule:evenodd;stroke:none"
         id="path5926" /><path
         d="M 3223,5276.67 L 3223,5271.67 L 3222,5268.67 L 3221,5268.67 L 3220,5265.67 L 3219,5264.67 L 3217,5262.67 L 3217,5262.67 L 3215,5260.67 L 3214,5259.67 L 3211,5258.67 L 3211,5257.67 L 3208,5256.67 L 3199,5256.67 L 3196,5257.67 L 3196,5258.67 L 3193,5259.67 L 3192,5260.67 L 3190,5262.67 L 3190,5262.67 L 3188,5264.67 L 3187,5265.67 L 3186,5268.67 L 3185,5268.67 L 3184,5271.67 L 3184,5280.67 L 3185,5283.67 L 3186,5283.67 L 3187,5286.67 L 3188,5287.67 L 3190,5289.67 L 3190,5289.67 L 3192,5291.67 L 3193,5292.67 L 3196,5293.67 L 3196,5294.67 L 3199,5295.67 L 3208,5295.67 L 3211,5294.67 L 3211,5293.67 L 3214,5292.67 L 3215,5291.67 L 3217,5289.67 L 3217,5289.67 L 3219,5287.67 L 3220,5286.67 L 3221,5283.67 L 3222,5283.67 L 3223,5280.67 L 3223,5279.67 L 3223,5276.67 z M 3217,5279.67 L 3217,5278.67 L 3216,5281.67 L 3216,5280.67 L 3215,5283.67 L 3215,5283.67 L 3213,5285.67 L 3213,5285.67 L 3211,5287.67 L 3211,5287.67 L 3209,5288.67 L 3209,5288.67 L 3206,5289.67 L 3207,5289.67 L 3203,5289.67 L 3204,5289.67 L 3200,5289.67 L 3201,5289.67 L 3198,5288.67 L 3199,5288.67 L 3196,5287.67 L 3196,5287.67 L 3194,5285.67 L 3194,5285.67 L 3192,5283.67 L 3192,5283.67 L 3191,5280.67 L 3191,5281.67 L 3190,5278.67 L 3190,5279.67 L 3190,5275.67 L 3190,5276.67 L 3190,5272.67 L 3190,5273.67 L 3191,5270.67 L 3191,5270.67 L 3192,5268.67 L 3192,5268.67 L 3194,5266.67 L 3194,5266.67 L 3196,5264.67 L 3196,5264.67 L 3199,5263.67 L 3198,5263.67 L 3201,5262.67 L 3200,5262.67 L 3204,5262.67 L 3203,5262.67 L 3207,5262.67 L 3206,5262.67 L 3209,5263.67 L 3209,5263.67 L 3211,5264.67 L 3211,5264.67 L 3213,5266.67 L 3213,5266.67 L 3215,5268.67 L 3215,5268.67 L 3216,5270.67 L 3216,5270.67 L 3217,5273.67 L 3217,5272.67 L 3217,5276.67 L 3217,5275.67"
         style="fill:#a6a6a6;fill-opacity:1;fill-rule:nonzero;stroke:none"
         id="path5928" /><path
         d="M 3570,5449.67 C 3570,5439.67 3563,5432.67 3553,5432.67 C 3544,5432.67 3537,5439.67 3537,5449.67 C 3537,5458.67 3544,5465.67 3553,5465.67 C 3563,5465.67 3570,5458.67 3570,5449.67"
         style="fill:#ffffff;fill-opacity:1;fill-rule:evenodd;stroke:none"
         id="path5930" /><path
         d="M 3573,5449.67 L 3573,5444.67 L 3572,5441.67 L 3571,5441.67 L 3570,5438.67 L 3569,5437.67 L 3567,5435.67 L 3567,5435.67 L 3565,5433.67 L 3564,5432.67 L 3561,5431.67 L 3561,5430.67 L 3558,5429.67 L 3549,5429.67 L 3546,5430.67 L 3546,5431.67 L 3543,5432.67 L 3542,5433.67 L 3540,5435.67 L 3540,5435.67 L 3538,5437.67 L 3537,5438.67 L 3536,5441.67 L 3535,5441.67 L 3534,5444.67 L 3534,5453.67 L 3535,5456.67 L 3536,5456.67 L 3537,5459.67 L 3538,5460.67 L 3540,5462.67 L 3540,5462.67 L 3542,5464.67 L 3543,5465.67 L 3546,5466.67 L 3546,5467.67 L 3549,5468.67 L 3558,5468.67 L 3561,5467.67 L 3561,5466.67 L 3564,5465.67 L 3565,5464.67 L 3567,5462.67 L 3567,5462.67 L 3569,5460.67 L 3570,5459.67 L 3571,5456.67 L 3572,5456.67 L 3573,5453.67 L 3573,5452.67 L 3573,5449.67 z M 3567,5452.67 L 3567,5451.67 L 3566,5454.67 L 3566,5453.67 L 3565,5456.67 L 3565,5456.67 L 3563,5458.67 L 3563,5458.67 L 3561,5460.67 L 3561,5460.67 L 3559,5461.67 L 3559,5461.67 L 3556,5462.67 L 3557,5462.67 L 3553,5462.67 L 3554,5462.67 L 3550,5462.67 L 3551,5462.67 L 3548,5461.67 L 3549,5461.67 L 3546,5460.67 L 3546,5460.67 L 3544,5458.67 L 3544,5458.67 L 3542,5456.67 L 3542,5456.67 L 3541,5453.67 L 3541,5454.67 L 3540,5451.67 L 3540,5452.67 L 3540,5448.67 L 3540,5449.67 L 3540,5445.67 L 3540,5446.67 L 3541,5443.67 L 3541,5443.67 L 3542,5441.67 L 3542,5441.67 L 3544,5439.67 L 3544,5439.67 L 3546,5437.67 L 3546,5437.67 L 3549,5436.67 L 3548,5436.67 L 3551,5435.67 L 3550,5435.67 L 3554,5435.67 L 3553,5435.67 L 3557,5435.67 L 3556,5435.67 L 3559,5436.67 L 3559,5436.67 L 3561,5437.67 L 3561,5437.67 L 3563,5439.67 L 3563,5439.67 L 3565,5441.67 L 3565,5441.67 L 3566,5443.67 L 3566,5443.67 L 3567,5446.67 L 3567,5445.67 L 3567,5449.67 L 3567,5448.67"
         style="fill:#a6a6a6;fill-opacity:1;fill-rule:nonzero;stroke:none"
         id="path5932" /><path
         d="M 3921,6184.67 C 3921,6174.67 3914,6167.67 3904,6167.67 C 3895,6167.67 3888,6174.67 3888,6184.67 C 3888,6193.67 3895,6200.67 3904,6200.67 C 3914,6200.67 3921,6193.67 3921,6184.67"
         style="fill:#ffffff;fill-opacity:1;fill-rule:evenodd;stroke:none"
         id="path5934" /><path
         d="M 3924,6184.67 L 3924,6179.67 L 3923,6176.67 L 3922,6176.67 L 3921,6173.67 L 3920,6172.67 L 3918,6170.67 L 3918,6170.67 L 3916,6168.67 L 3915,6167.67 L 3912,6166.67 L 3912,6165.67 L 3909,6164.67 L 3900,6164.67 L 3897,6165.67 L 3897,6166.67 L 3894,6167.67 L 3893,6168.67 L 3891,6170.67 L 3891,6170.67 L 3889,6172.67 L 3888,6173.67 L 3887,6176.67 L 3886,6176.67 L 3885,6179.67 L 3885,6188.67 L 3886,6191.67 L 3887,6191.67 L 3888,6194.67 L 3889,6195.67 L 3891,6197.67 L 3891,6197.67 L 3893,6199.67 L 3894,6200.67 L 3897,6201.67 L 3897,6202.67 L 3900,6203.67 L 3909,6203.67 L 3912,6202.67 L 3912,6201.67 L 3915,6200.67 L 3916,6199.67 L 3918,6197.67 L 3918,6197.67 L 3920,6195.67 L 3921,6194.67 L 3922,6191.67 L 3923,6191.67 L 3924,6188.67 L 3924,6187.67 L 3924,6184.67 z M 3918,6187.67 L 3918,6186.67 L 3917,6189.67 L 3917,6188.67 L 3916,6191.67 L 3916,6191.67 L 3914,6193.67 L 3914,6193.67 L 3912,6195.67 L 3912,6195.67 L 3910,6196.67 L 3910,6196.67 L 3907,6197.67 L 3908,6197.67 L 3904,6197.67 L 3905,6197.67 L 3901,6197.67 L 3902,6197.67 L 3899,6196.67 L 3900,6196.67 L 3897,6195.67 L 3897,6195.67 L 3895,6193.67 L 3895,6193.67 L 3893,6191.67 L 3893,6191.67 L 3892,6188.67 L 3892,6189.67 L 3891,6186.67 L 3891,6187.67 L 3891,6183.67 L 3891,6184.67 L 3891,6180.67 L 3891,6181.67 L 3892,6178.67 L 3892,6178.67 L 3893,6176.67 L 3893,6176.67 L 3895,6174.67 L 3895,6174.67 L 3897,6172.67 L 3897,6172.67 L 3900,6171.67 L 3899,6171.67 L 3902,6170.67 L 3901,6170.67 L 3905,6170.67 L 3904,6170.67 L 3908,6170.67 L 3907,6170.67 L 3910,6171.67 L 3910,6171.67 L 3912,6172.67 L 3912,6172.67 L 3914,6174.67 L 3914,6174.67 L 3916,6176.67 L 3916,6176.67 L 3917,6178.67 L 3917,6178.67 L 3918,6181.67 L 3918,6180.67 L 3918,6184.67 L 3918,6183.67"
         style="fill:#a6a6a6;fill-opacity:1;fill-rule:nonzero;stroke:none"
         id="path5936" /><path
         d="M 753,5600.67 L 1103,5131.67 L 1100,5133.67 L 1451,5133.67 L 1448,5132.67 L 1798,5484.67 L 1799,5484.67 L 2150,5718.67 C 2151,5719.67 2152,5719.67 2153,5719.67 C 2154,5719.67 2155,5718.67 2156,5717.67 L 2506,4897.67 L 2502,4899.67 L 2853,4899.67 L 2851,4898.67 L 3201,5132.67 C 3201,5133.67 3201,5133.67 3202,5133.67 L 3553,5250.67 L 3550,5248.67 L 3900,5951.67 C 3901,5953.67 3904,5954.67 3906,5953.67 C 3908,5952.67 3909,5949.67 3908,5947.67 L 3558,5244.67 C 3557,5243.67 3556,5243.67 3555,5242.67 L 3204,5125.67 L 3205,5126.67 L 2855,4892.67 C 2855,4891.67 2854,4891.67 2853,4891.67 L 2502,4891.67 C 2500,4891.67 2499,4892.67 2498,4893.67 L 2148,5713.67 L 2154,5712.67 L 1803,5478.67 L 1804,5478.67 L 1454,5126.67 C 1453,5125.67 1452,5125.67 1451,5125.67 L 1100,5125.67 C 1099,5125.67 1098,5126.67 1097,5127.67 L 747,5596.67 C 745,5597.67 746,5600.67 748,5601.67 C 749,5603.67 752,5602.67 753,5600.67"
         style="fill:#000000;fill-opacity:1;fill-rule:nonzero;stroke:none"
         id="path5938" /><path
         d="M 766,5598.67 C 766,5588.67 759,5581.67 749,5581.67 C 740,5581.67 733,5588.67 733,5598.67 C 733,5607.67 740,5614.67 749,5614.67 C 759,5614.67 766,5607.67 766,5598.67"
         style="fill:#ffffff;fill-opacity:1;fill-rule:evenodd;stroke:none"
         id="path5940" /><path
         d="M 769,5598.67 L 769,5593.67 L 768,5590.67 L 767,5590.67 L 766,5587.67 L 765,5586.67 L 763,5584.67 L 763,5584.67 L 761,5582.67 L 760,5581.67 L 757,5580.67 L 757,5579.67 L 754,5578.67 L 745,5578.67 L 742,5579.67 L 742,5580.67 L 739,5581.67 L 738,5582.67 L 736,5584.67 L 736,5584.67 L 734,5586.67 L 733,5587.67 L 732,5590.67 L 731,5590.67 L 730,5593.67 L 730,5602.67 L 731,5605.67 L 732,5605.67 L 733,5608.67 L 734,5609.67 L 736,5611.67 L 736,5611.67 L 738,5613.67 L 739,5614.67 L 742,5615.67 L 742,5616.67 L 745,5617.67 L 754,5617.67 L 757,5616.67 L 757,5615.67 L 760,5614.67 L 761,5613.67 L 763,5611.67 L 763,5611.67 L 765,5609.67 L 766,5608.67 L 767,5605.67 L 768,5605.67 L 769,5602.67 L 769,5601.67 L 769,5598.67 z M 763,5601.67 L 763,5600.67 L 762,5603.67 L 762,5602.67 L 761,5605.67 L 761,5605.67 L 759,5607.67 L 759,5607.67 L 757,5609.67 L 757,5609.67 L 755,5610.67 L 755,5610.67 L 752,5611.67 L 753,5611.67 L 749,5611.67 L 750,5611.67 L 746,5611.67 L 747,5611.67 L 744,5610.67 L 745,5610.67 L 742,5609.67 L 742,5609.67 L 740,5607.67 L 740,5607.67 L 738,5605.67 L 738,5605.67 L 737,5602.67 L 737,5603.67 L 736,5600.67 L 736,5601.67 L 736,5597.67 L 736,5598.67 L 736,5594.67 L 736,5595.67 L 737,5592.67 L 737,5592.67 L 738,5590.67 L 738,5590.67 L 740,5588.67 L 740,5588.67 L 742,5586.67 L 742,5586.67 L 745,5585.67 L 744,5585.67 L 747,5584.67 L 746,5584.67 L 750,5584.67 L 749,5584.67 L 753,5584.67 L 752,5584.67 L 755,5585.67 L 755,5585.67 L 757,5586.67 L 757,5586.67 L 759,5588.67 L 759,5588.67 L 761,5590.67 L 761,5590.67 L 762,5592.67 L 762,5592.67 L 763,5595.67 L 763,5594.67 L 763,5598.67 L 763,5597.67"
         style="fill:#000000;fill-opacity:1;fill-rule:nonzero;stroke:none"
         id="path5942" /><path
         d="M 1117,5129.67 C 1117,5120.67 1110,5112.67 1100,5112.67 C 1091,5112.67 1084,5120.67 1084,5129.67 C 1084,5138.67 1091,5146.67 1100,5146.67 C 1110,5146.67 1117,5138.67 1117,5129.67"
         style="fill:#ffffff;fill-opacity:1;fill-rule:evenodd;stroke:none"
         id="path5944" /><path
         d="M 1120,5129.67 L 1120,5125.67 L 1119,5121.67 L 1118,5121.67 L 1117,5118.67 L 1117,5118.67 L 1115,5115.67 L 1114,5115.67 L 1112,5113.67 L 1111,5112.67 L 1108,5111.67 L 1108,5110.67 L 1105,5109.67 L 1096,5109.67 L 1093,5110.67 L 1093,5111.67 L 1090,5112.67 L 1089,5113.67 L 1087,5115.67 L 1087,5115.67 L 1084,5118.67 L 1084,5118.67 L 1083,5121.67 L 1082,5121.67 L 1081,5125.67 L 1081,5133.67 L 1082,5137.67 L 1083,5137.67 L 1084,5140.67 L 1084,5140.67 L 1087,5143.67 L 1087,5143.67 L 1089,5145.67 L 1090,5146.67 L 1093,5147.67 L 1093,5148.67 L 1096,5149.67 L 1105,5149.67 L 1108,5148.67 L 1108,5147.67 L 1111,5146.67 L 1112,5145.67 L 1114,5143.67 L 1115,5143.67 L 1117,5140.67 L 1117,5140.67 L 1118,5137.67 L 1119,5137.67 L 1120,5133.67 L 1120,5133.67 L 1120,5129.67 z M 1114,5132.67 L 1114,5132.67 L 1113,5135.67 L 1113,5134.67 L 1112,5137.67 L 1112,5137.67 L 1110,5139.67 L 1110,5139.67 L 1108,5141.67 L 1108,5140.67 L 1105,5142.67 L 1106,5142.67 L 1103,5143.67 L 1100,5143.67 L 1101,5143.67 L 1098,5143.67 L 1098,5143.67 L 1095,5142.67 L 1096,5142.67 L 1093,5140.67 L 1093,5141.67 L 1091,5139.67 L 1091,5139.67 L 1089,5137.67 L 1089,5137.67 L 1088,5134.67 L 1088,5135.67 L 1087,5132.67 L 1087,5126.67 L 1088,5123.67 L 1088,5124.67 L 1089,5121.67 L 1089,5121.67 L 1091,5119.67 L 1091,5119.67 L 1093,5117.67 L 1093,5118.67 L 1096,5116.67 L 1095,5116.67 L 1098,5115.67 L 1097,5115.67 L 1101,5115.67 L 1100,5115.67 L 1104,5115.67 L 1103,5115.67 L 1106,5116.67 L 1105,5116.67 L 1108,5118.67 L 1108,5117.67 L 1110,5119.67 L 1110,5119.67 L 1112,5121.67 L 1112,5121.67 L 1113,5124.67 L 1113,5123.67 L 1114,5126.67 L 1114,5129.67"
         style="fill:#000000;fill-opacity:1;fill-rule:nonzero;stroke:none"
         id="path5946" /><path
         d="M 1467,5129.67 C 1467,5120.67 1460,5112.67 1450,5112.67 C 1441,5112.67 1434,5120.67 1434,5129.67 C 1434,5138.67 1441,5146.67 1450,5146.67 C 1460,5146.67 1467,5138.67 1467,5129.67"
         style="fill:#ffffff;fill-opacity:1;fill-rule:evenodd;stroke:none"
         id="path5948" /><path
         d="M 1470,5129.67 L 1470,5125.67 L 1469,5121.67 L 1468,5121.67 L 1467,5118.67 L 1467,5118.67 L 1465,5115.67 L 1464,5115.67 L 1462,5113.67 L 1461,5112.67 L 1458,5111.67 L 1458,5110.67 L 1455,5109.67 L 1446,5109.67 L 1443,5110.67 L 1443,5111.67 L 1440,5112.67 L 1439,5113.67 L 1437,5115.67 L 1437,5115.67 L 1434,5118.67 L 1434,5118.67 L 1433,5121.67 L 1432,5121.67 L 1431,5125.67 L 1431,5133.67 L 1432,5137.67 L 1433,5137.67 L 1434,5140.67 L 1434,5140.67 L 1437,5143.67 L 1437,5143.67 L 1439,5145.67 L 1440,5146.67 L 1443,5147.67 L 1443,5148.67 L 1446,5149.67 L 1455,5149.67 L 1458,5148.67 L 1458,5147.67 L 1461,5146.67 L 1462,5145.67 L 1464,5143.67 L 1465,5143.67 L 1467,5140.67 L 1467,5140.67 L 1468,5137.67 L 1469,5137.67 L 1470,5133.67 L 1470,5133.67 L 1470,5129.67 z M 1464,5132.67 L 1464,5132.67 L 1463,5135.67 L 1463,5134.67 L 1462,5137.67 L 1462,5137.67 L 1460,5139.67 L 1460,5139.67 L 1458,5141.67 L 1458,5140.67 L 1455,5142.67 L 1456,5142.67 L 1453,5143.67 L 1450,5143.67 L 1451,5143.67 L 1448,5143.67 L 1448,5143.67 L 1445,5142.67 L 1446,5142.67 L 1443,5140.67 L 1443,5141.67 L 1441,5139.67 L 1441,5139.67 L 1439,5137.67 L 1439,5137.67 L 1438,5134.67 L 1438,5135.67 L 1437,5132.67 L 1437,5126.67 L 1438,5123.67 L 1438,5124.67 L 1439,5121.67 L 1439,5121.67 L 1441,5119.67 L 1441,5119.67 L 1443,5117.67 L 1443,5118.67 L 1446,5116.67 L 1445,5116.67 L 1448,5115.67 L 1447,5115.67 L 1451,5115.67 L 1450,5115.67 L 1454,5115.67 L 1453,5115.67 L 1456,5116.67 L 1455,5116.67 L 1458,5118.67 L 1458,5117.67 L 1460,5119.67 L 1460,5119.67 L 1462,5121.67 L 1462,5121.67 L 1463,5124.67 L 1463,5123.67 L 1464,5126.67 L 1464,5129.67"
         style="fill:#000000;fill-opacity:1;fill-rule:nonzero;stroke:none"
         id="path5950" /><path
         d="M 1818,5481.67 C 1818,5471.67 1811,5464.67 1801,5464.67 C 1792,5464.67 1785,5471.67 1785,5481.67 C 1785,5490.67 1792,5497.67 1801,5497.67 C 1811,5497.67 1818,5490.67 1818,5481.67"
         style="fill:#ffffff;fill-opacity:1;fill-rule:evenodd;stroke:none"
         id="path5952" /><path
         d="M 1821,5481.67 L 1821,5476.67 L 1820,5473.67 L 1819,5473.67 L 1818,5470.67 L 1817,5469.67 L 1815,5467.67 L 1815,5467.67 L 1813,5465.67 L 1812,5464.67 L 1809,5463.67 L 1809,5462.67 L 1806,5461.67 L 1797,5461.67 L 1794,5462.67 L 1794,5463.67 L 1791,5464.67 L 1790,5465.67 L 1788,5467.67 L 1788,5467.67 L 1786,5469.67 L 1785,5470.67 L 1784,5473.67 L 1783,5473.67 L 1782,5476.67 L 1782,5485.67 L 1783,5488.67 L 1784,5488.67 L 1785,5491.67 L 1786,5492.67 L 1788,5494.67 L 1788,5494.67 L 1790,5496.67 L 1791,5497.67 L 1794,5498.67 L 1794,5499.67 L 1797,5500.67 L 1806,5500.67 L 1809,5499.67 L 1809,5498.67 L 1812,5497.67 L 1813,5496.67 L 1815,5494.67 L 1815,5494.67 L 1817,5492.67 L 1818,5491.67 L 1819,5488.67 L 1820,5488.67 L 1821,5485.67 L 1821,5484.67 L 1821,5481.67 z M 1815,5484.67 L 1815,5483.67 L 1814,5486.67 L 1814,5485.67 L 1813,5488.67 L 1813,5488.67 L 1811,5490.67 L 1811,5490.67 L 1809,5492.67 L 1809,5492.67 L 1807,5493.67 L 1807,5493.67 L 1804,5494.67 L 1805,5494.67 L 1801,5494.67 L 1802,5494.67 L 1798,5494.67 L 1799,5494.67 L 1796,5493.67 L 1797,5493.67 L 1794,5492.67 L 1794,5492.67 L 1792,5490.67 L 1792,5490.67 L 1790,5488.67 L 1790,5488.67 L 1789,5485.67 L 1789,5486.67 L 1788,5483.67 L 1788,5484.67 L 1788,5480.67 L 1788,5481.67 L 1788,5477.67 L 1788,5478.67 L 1789,5475.67 L 1789,5475.67 L 1790,5473.67 L 1790,5473.67 L 1792,5471.67 L 1792,5471.67 L 1794,5469.67 L 1794,5469.67 L 1797,5468.67 L 1796,5468.67 L 1799,5467.67 L 1798,5467.67 L 1802,5467.67 L 1801,5467.67 L 1805,5467.67 L 1804,5467.67 L 1807,5468.67 L 1807,5468.67 L 1809,5469.67 L 1809,5469.67 L 1811,5471.67 L 1811,5471.67 L 1813,5473.67 L 1813,5473.67 L 1814,5475.67 L 1814,5475.67 L 1815,5478.67 L 1815,5477.67 L 1815,5481.67 L 1815,5480.67"
         style="fill:#000000;fill-opacity:1;fill-rule:nonzero;stroke:none"
         id="path5954" /><path
         d="M 2168,5715.67 C 2168,5706.67 2161,5698.67 2151,5698.67 C 2142,5698.67 2135,5706.67 2135,5715.67 C 2135,5724.67 2142,5732.67 2151,5732.67 C 2161,5732.67 2168,5724.67 2168,5715.67"
         style="fill:#ffffff;fill-opacity:1;fill-rule:evenodd;stroke:none"
         id="path5956" /><path
         d="M 2171,5715.67 L 2171,5711.67 L 2170,5707.67 L 2169,5707.67 L 2168,5704.67 L 2168,5704.67 L 2166,5701.67 L 2165,5701.67 L 2163,5699.67 L 2162,5698.67 L 2159,5697.67 L 2159,5696.67 L 2156,5695.67 L 2147,5695.67 L 2144,5696.67 L 2144,5697.67 L 2141,5698.67 L 2140,5699.67 L 2138,5701.67 L 2138,5701.67 L 2135,5704.67 L 2135,5704.67 L 2134,5707.67 L 2133,5707.67 L 2132,5711.67 L 2132,5719.67 L 2133,5723.67 L 2134,5723.67 L 2135,5726.67 L 2135,5726.67 L 2138,5729.67 L 2138,5729.67 L 2140,5731.67 L 2141,5732.67 L 2144,5733.67 L 2144,5734.67 L 2147,5735.67 L 2156,5735.67 L 2159,5734.67 L 2159,5733.67 L 2162,5732.67 L 2163,5731.67 L 2165,5729.67 L 2166,5729.67 L 2168,5726.67 L 2168,5726.67 L 2169,5723.67 L 2170,5723.67 L 2171,5719.67 L 2171,5719.67 L 2171,5715.67 z M 2165,5718.67 L 2165,5718.67 L 2164,5721.67 L 2164,5720.67 L 2163,5723.67 L 2163,5723.67 L 2161,5725.67 L 2161,5725.67 L 2159,5727.67 L 2159,5726.67 L 2156,5728.67 L 2157,5728.67 L 2154,5729.67 L 2151,5729.67 L 2152,5729.67 L 2149,5729.67 L 2149,5729.67 L 2146,5728.67 L 2147,5728.67 L 2144,5726.67 L 2144,5727.67 L 2142,5725.67 L 2142,5725.67 L 2140,5723.67 L 2140,5723.67 L 2139,5720.67 L 2139,5721.67 L 2138,5718.67 L 2138,5712.67 L 2139,5709.67 L 2139,5710.67 L 2140,5707.67 L 2140,5707.67 L 2142,5705.67 L 2142,5705.67 L 2144,5703.67 L 2144,5704.67 L 2147,5702.67 L 2146,5702.67 L 2149,5701.67 L 2148,5701.67 L 2152,5701.67 L 2151,5701.67 L 2155,5701.67 L 2154,5701.67 L 2157,5702.67 L 2156,5702.67 L 2159,5704.67 L 2159,5703.67 L 2161,5705.67 L 2161,5705.67 L 2163,5707.67 L 2163,5707.67 L 2164,5710.67 L 2164,5709.67 L 2165,5712.67 L 2165,5715.67"
         style="fill:#000000;fill-opacity:1;fill-rule:nonzero;stroke:none"
         id="path5958" /><path
         d="M 2519,4895.67 C 2519,4885.67 2512,4878.67 2502,4878.67 C 2493,4878.67 2486,4885.67 2486,4895.67 C 2486,4904.67 2493,4911.67 2502,4911.67 C 2512,4911.67 2519,4904.67 2519,4895.67"
         style="fill:#ffffff;fill-opacity:1;fill-rule:evenodd;stroke:none"
         id="path5960" /><path
         d="M 2522,4895.67 L 2522,4890.67 L 2521,4887.67 L 2520,4887.67 L 2519,4884.67 L 2518,4883.67 L 2516,4881.67 L 2516,4881.67 L 2514,4879.67 L 2513,4878.67 L 2510,4877.67 L 2510,4876.67 L 2507,4875.67 L 2498,4875.67 L 2495,4876.67 L 2495,4877.67 L 2492,4878.67 L 2491,4879.67 L 2489,4881.67 L 2489,4881.67 L 2487,4883.67 L 2486,4884.67 L 2485,4887.67 L 2484,4887.67 L 2483,4890.67 L 2483,4899.67 L 2484,4902.67 L 2485,4902.67 L 2486,4905.67 L 2487,4906.67 L 2489,4908.67 L 2489,4908.67 L 2491,4910.67 L 2492,4911.67 L 2495,4912.67 L 2495,4913.67 L 2498,4914.67 L 2507,4914.67 L 2510,4913.67 L 2510,4912.67 L 2513,4911.67 L 2514,4910.67 L 2516,4908.67 L 2516,4908.67 L 2518,4906.67 L 2519,4905.67 L 2520,4902.67 L 2521,4902.67 L 2522,4899.67 L 2522,4898.67 L 2522,4895.67 z M 2516,4898.67 L 2516,4897.67 L 2515,4900.67 L 2515,4899.67 L 2514,4902.67 L 2514,4902.67 L 2512,4904.67 L 2512,4904.67 L 2510,4906.67 L 2510,4906.67 L 2508,4907.67 L 2508,4907.67 L 2505,4908.67 L 2506,4908.67 L 2502,4908.67 L 2503,4908.67 L 2499,4908.67 L 2500,4908.67 L 2497,4907.67 L 2498,4907.67 L 2495,4906.67 L 2495,4906.67 L 2493,4904.67 L 2493,4904.67 L 2491,4902.67 L 2491,4902.67 L 2490,4899.67 L 2490,4900.67 L 2489,4897.67 L 2489,4898.67 L 2489,4894.67 L 2489,4895.67 L 2489,4891.67 L 2489,4892.67 L 2490,4889.67 L 2490,4889.67 L 2491,4887.67 L 2491,4887.67 L 2493,4885.67 L 2493,4885.67 L 2495,4883.67 L 2495,4883.67 L 2498,4882.67 L 2497,4882.67 L 2500,4881.67 L 2499,4881.67 L 2503,4881.67 L 2502,4881.67 L 2506,4881.67 L 2505,4881.67 L 2508,4882.67 L 2508,4882.67 L 2510,4883.67 L 2510,4883.67 L 2512,4885.67 L 2512,4885.67 L 2514,4887.67 L 2514,4887.67 L 2515,4889.67 L 2515,4889.67 L 2516,4892.67 L 2516,4891.67 L 2516,4895.67 L 2516,4894.67"
         style="fill:#000000;fill-opacity:1;fill-rule:nonzero;stroke:none"
         id="path5962" /><path
         d="M 2869,4895.67 C 2869,4885.67 2862,4878.67 2852,4878.67 C 2843,4878.67 2836,4885.67 2836,4895.67 C 2836,4904.67 2843,4911.67 2852,4911.67 C 2862,4911.67 2869,4904.67 2869,4895.67"
         style="fill:#ffffff;fill-opacity:1;fill-rule:evenodd;stroke:none"
         id="path5964" /><path
         d="M 2872,4895.67 L 2872,4890.67 L 2871,4887.67 L 2870,4887.67 L 2869,4884.67 L 2868,4883.67 L 2866,4881.67 L 2866,4881.67 L 2864,4879.67 L 2863,4878.67 L 2860,4877.67 L 2860,4876.67 L 2857,4875.67 L 2848,4875.67 L 2845,4876.67 L 2845,4877.67 L 2842,4878.67 L 2841,4879.67 L 2839,4881.67 L 2839,4881.67 L 2837,4883.67 L 2836,4884.67 L 2835,4887.67 L 2834,4887.67 L 2833,4890.67 L 2833,4899.67 L 2834,4902.67 L 2835,4902.67 L 2836,4905.67 L 2837,4906.67 L 2839,4908.67 L 2839,4908.67 L 2841,4910.67 L 2842,4911.67 L 2845,4912.67 L 2845,4913.67 L 2848,4914.67 L 2857,4914.67 L 2860,4913.67 L 2860,4912.67 L 2863,4911.67 L 2864,4910.67 L 2866,4908.67 L 2866,4908.67 L 2868,4906.67 L 2869,4905.67 L 2870,4902.67 L 2871,4902.67 L 2872,4899.67 L 2872,4898.67 L 2872,4895.67 z M 2866,4898.67 L 2866,4897.67 L 2865,4900.67 L 2865,4899.67 L 2864,4902.67 L 2864,4902.67 L 2862,4904.67 L 2862,4904.67 L 2860,4906.67 L 2860,4906.67 L 2858,4907.67 L 2858,4907.67 L 2855,4908.67 L 2856,4908.67 L 2852,4908.67 L 2853,4908.67 L 2849,4908.67 L 2850,4908.67 L 2847,4907.67 L 2848,4907.67 L 2845,4906.67 L 2845,4906.67 L 2843,4904.67 L 2843,4904.67 L 2841,4902.67 L 2841,4902.67 L 2840,4899.67 L 2840,4900.67 L 2839,4897.67 L 2839,4898.67 L 2839,4894.67 L 2839,4895.67 L 2839,4891.67 L 2839,4892.67 L 2840,4889.67 L 2840,4889.67 L 2841,4887.67 L 2841,4887.67 L 2843,4885.67 L 2843,4885.67 L 2845,4883.67 L 2845,4883.67 L 2848,4882.67 L 2847,4882.67 L 2850,4881.67 L 2849,4881.67 L 2853,4881.67 L 2852,4881.67 L 2856,4881.67 L 2855,4881.67 L 2858,4882.67 L 2858,4882.67 L 2860,4883.67 L 2860,4883.67 L 2862,4885.67 L 2862,4885.67 L 2864,4887.67 L 2864,4887.67 L 2865,4889.67 L 2865,4889.67 L 2866,4892.67 L 2866,4891.67 L 2866,4895.67 L 2866,4894.67"
         style="fill:#000000;fill-opacity:1;fill-rule:nonzero;stroke:none"
         id="path5966" /><path
         d="M 3220,5129.67 C 3220,5120.67 3213,5112.67 3203,5112.67 C 3194,5112.67 3187,5120.67 3187,5129.67 C 3187,5138.67 3194,5146.67 3203,5146.67 C 3213,5146.67 3220,5138.67 3220,5129.67"
         style="fill:#ffffff;fill-opacity:1;fill-rule:evenodd;stroke:none"
         id="path5968" /><path
         d="M 3223,5129.67 L 3223,5125.67 L 3222,5121.67 L 3221,5121.67 L 3220,5118.67 L 3220,5118.67 L 3218,5115.67 L 3217,5115.67 L 3215,5113.67 L 3214,5112.67 L 3211,5111.67 L 3211,5110.67 L 3208,5109.67 L 3199,5109.67 L 3196,5110.67 L 3196,5111.67 L 3193,5112.67 L 3192,5113.67 L 3190,5115.67 L 3190,5115.67 L 3187,5118.67 L 3187,5118.67 L 3186,5121.67 L 3185,5121.67 L 3184,5125.67 L 3184,5133.67 L 3185,5137.67 L 3186,5137.67 L 3187,5140.67 L 3187,5140.67 L 3190,5143.67 L 3190,5143.67 L 3192,5145.67 L 3193,5146.67 L 3196,5147.67 L 3196,5148.67 L 3199,5149.67 L 3208,5149.67 L 3211,5148.67 L 3211,5147.67 L 3214,5146.67 L 3215,5145.67 L 3217,5143.67 L 3218,5143.67 L 3220,5140.67 L 3220,5140.67 L 3221,5137.67 L 3222,5137.67 L 3223,5133.67 L 3223,5133.67 L 3223,5129.67 z M 3217,5132.67 L 3217,5132.67 L 3216,5135.67 L 3216,5134.67 L 3215,5137.67 L 3215,5137.67 L 3213,5139.67 L 3213,5139.67 L 3211,5141.67 L 3211,5140.67 L 3208,5142.67 L 3209,5142.67 L 3206,5143.67 L 3203,5143.67 L 3204,5143.67 L 3201,5143.67 L 3201,5143.67 L 3198,5142.67 L 3199,5142.67 L 3196,5140.67 L 3196,5141.67 L 3194,5139.67 L 3194,5139.67 L 3192,5137.67 L 3192,5137.67 L 3191,5134.67 L 3191,5135.67 L 3190,5132.67 L 3190,5126.67 L 3191,5123.67 L 3191,5124.67 L 3192,5121.67 L 3192,5121.67 L 3194,5119.67 L 3194,5119.67 L 3196,5117.67 L 3196,5118.67 L 3199,5116.67 L 3198,5116.67 L 3201,5115.67 L 3200,5115.67 L 3204,5115.67 L 3203,5115.67 L 3207,5115.67 L 3206,5115.67 L 3209,5116.67 L 3208,5116.67 L 3211,5118.67 L 3211,5117.67 L 3213,5119.67 L 3213,5119.67 L 3215,5121.67 L 3215,5121.67 L 3216,5124.67 L 3216,5123.67 L 3217,5126.67 L 3217,5129.67"
         style="fill:#000000;fill-opacity:1;fill-rule:nonzero;stroke:none"
         id="path5970" /><path
         d="M 3570,5247.67 C 3570,5237.67 3563,5230.67 3553,5230.67 C 3544,5230.67 3537,5237.67 3537,5247.67 C 3537,5256.67 3544,5263.67 3553,5263.67 C 3563,5263.67 3570,5256.67 3570,5247.67"
         style="fill:#ffffff;fill-opacity:1;fill-rule:evenodd;stroke:none"
         id="path5972" /><path
         d="M 3573,5247.67 L 3573,5242.67 L 3572,5239.67 L 3571,5239.67 L 3570,5236.67 L 3569,5235.67 L 3567,5233.67 L 3567,5233.67 L 3565,5231.67 L 3564,5230.67 L 3561,5229.67 L 3561,5228.67 L 3558,5227.67 L 3549,5227.67 L 3546,5228.67 L 3546,5229.67 L 3543,5230.67 L 3542,5231.67 L 3540,5233.67 L 3540,5233.67 L 3538,5235.67 L 3537,5236.67 L 3536,5239.67 L 3535,5239.67 L 3534,5242.67 L 3534,5251.67 L 3535,5254.67 L 3536,5254.67 L 3537,5257.67 L 3538,5258.67 L 3540,5260.67 L 3540,5260.67 L 3542,5262.67 L 3543,5263.67 L 3546,5264.67 L 3546,5265.67 L 3549,5266.67 L 3558,5266.67 L 3561,5265.67 L 3561,5264.67 L 3564,5263.67 L 3565,5262.67 L 3567,5260.67 L 3567,5260.67 L 3569,5258.67 L 3570,5257.67 L 3571,5254.67 L 3572,5254.67 L 3573,5251.67 L 3573,5250.67 L 3573,5247.67 z M 3567,5250.67 L 3567,5249.67 L 3566,5252.67 L 3566,5251.67 L 3565,5254.67 L 3565,5254.67 L 3563,5256.67 L 3563,5256.67 L 3561,5258.67 L 3561,5258.67 L 3559,5259.67 L 3559,5259.67 L 3556,5260.67 L 3557,5260.67 L 3553,5260.67 L 3554,5260.67 L 3550,5260.67 L 3551,5260.67 L 3548,5259.67 L 3549,5259.67 L 3546,5258.67 L 3546,5258.67 L 3544,5256.67 L 3544,5256.67 L 3542,5254.67 L 3542,5254.67 L 3541,5251.67 L 3541,5252.67 L 3540,5249.67 L 3540,5250.67 L 3540,5246.67 L 3540,5247.67 L 3540,5243.67 L 3540,5244.67 L 3541,5241.67 L 3541,5241.67 L 3542,5239.67 L 3542,5239.67 L 3544,5237.67 L 3544,5237.67 L 3546,5235.67 L 3546,5235.67 L 3549,5234.67 L 3548,5234.67 L 3551,5233.67 L 3550,5233.67 L 3554,5233.67 L 3553,5233.67 L 3557,5233.67 L 3556,5233.67 L 3559,5234.67 L 3559,5234.67 L 3561,5235.67 L 3561,5235.67 L 3563,5237.67 L 3563,5237.67 L 3565,5239.67 L 3565,5239.67 L 3566,5241.67 L 3566,5241.67 L 3567,5244.67 L 3567,5243.67 L 3567,5247.67 L 3567,5246.67"
         style="fill:#000000;fill-opacity:1;fill-rule:nonzero;stroke:none"
         id="path5974" /><path
         d="M 3921,5950.67 C 3921,5940.67 3914,5933.67 3904,5933.67 C 3895,5933.67 3888,5940.67 3888,5950.67 C 3888,5959.67 3895,5966.67 3904,5966.67 C 3914,5966.67 3921,5959.67 3921,5950.67"
         style="fill:#ffffff;fill-opacity:1;fill-rule:evenodd;stroke:none"
         id="path5976" /><path
         d="M 3924,5950.67 L 3924,5945.67 L 3923,5942.67 L 3922,5942.67 L 3921,5939.67 L 3920,5938.67 L 3918,5936.67 L 3918,5936.67 L 3916,5934.67 L 3915,5933.67 L 3912,5932.67 L 3912,5931.67 L 3909,5930.67 L 3900,5930.67 L 3897,5931.67 L 3897,5932.67 L 3894,5933.67 L 3893,5934.67 L 3891,5936.67 L 3891,5936.67 L 3889,5938.67 L 3888,5939.67 L 3887,5942.67 L 3886,5942.67 L 3885,5945.67 L 3885,5954.67 L 3886,5957.67 L 3887,5957.67 L 3888,5960.67 L 3889,5961.67 L 3891,5963.67 L 3891,5963.67 L 3893,5965.67 L 3894,5966.67 L 3897,5967.67 L 3897,5968.67 L 3900,5969.67 L 3909,5969.67 L 3912,5968.67 L 3912,5967.67 L 3915,5966.67 L 3916,5965.67 L 3918,5963.67 L 3918,5963.67 L 3920,5961.67 L 3921,5960.67 L 3922,5957.67 L 3923,5957.67 L 3924,5954.67 L 3924,5953.67 L 3924,5950.67 z M 3918,5953.67 L 3918,5952.67 L 3917,5955.67 L 3917,5954.67 L 3916,5957.67 L 3916,5957.67 L 3914,5959.67 L 3914,5959.67 L 3912,5961.67 L 3912,5961.67 L 3910,5962.67 L 3910,5962.67 L 3907,5963.67 L 3908,5963.67 L 3904,5963.67 L 3905,5963.67 L 3901,5963.67 L 3902,5963.67 L 3899,5962.67 L 3900,5962.67 L 3897,5961.67 L 3897,5961.67 L 3895,5959.67 L 3895,5959.67 L 3893,5957.67 L 3893,5957.67 L 3892,5954.67 L 3892,5955.67 L 3891,5952.67 L 3891,5953.67 L 3891,5949.67 L 3891,5950.67 L 3891,5946.67 L 3891,5947.67 L 3892,5944.67 L 3892,5944.67 L 3893,5942.67 L 3893,5942.67 L 3895,5940.67 L 3895,5940.67 L 3897,5938.67 L 3897,5938.67 L 3900,5937.67 L 3899,5937.67 L 3902,5936.67 L 3901,5936.67 L 3905,5936.67 L 3904,5936.67 L 3908,5936.67 L 3907,5936.67 L 3910,5937.67 L 3910,5937.67 L 3912,5938.67 L 3912,5938.67 L 3914,5940.67 L 3914,5940.67 L 3916,5942.67 L 3916,5942.67 L 3917,5944.67 L 3917,5944.67 L 3918,5947.67 L 3918,5946.67 L 3918,5950.67 L 3918,5949.67"
         style="fill:#000000;fill-opacity:1;fill-rule:nonzero;stroke:none"
         id="path5978" /><path
         d="M 753,5717.67 L 1103,5248.67 L 1099,5250.67 L 1450,5367.67 L 1448,5366.67 L 1798,5718.67 L 1799,5718.67 L 2150,5952.67 C 2151,5953.67 2152,5953.67 2153,5953.67 C 2154,5953.67 2155,5952.67 2156,5951.67 L 2506,5131.67 L 2502,5133.67 L 2853,5133.67 L 2851,5132.67 L 3201,5366.67 C 3201,5367.67 3201,5367.67 3202,5367.67 L 3553,5484.67 L 3550,5482.67 L 3900,6185.67 C 3901,6187.67 3904,6188.67 3906,6187.67 C 3908,6186.67 3909,6183.67 3908,6181.67 L 3558,5478.67 C 3557,5477.67 3556,5477.67 3555,5476.67 L 3204,5359.67 L 3205,5360.67 L 2855,5126.67 C 2855,5125.67 2854,5125.67 2853,5125.67 L 2502,5125.67 C 2500,5125.67 2499,5126.67 2498,5127.67 L 2148,5947.67 L 2154,5946.67 L 1803,5712.67 L 1804,5712.67 L 1454,5360.67 C 1453,5360.67 1453,5359.67 1452,5359.67 L 1101,5242.67 C 1100,5242.67 1098,5242.67 1097,5244.67 L 747,5713.67 C 745,5714.67 746,5717.67 748,5718.67 C 749,5720.67 752,5719.67 753,5717.67"
         style="fill:#595959;fill-opacity:1;fill-rule:nonzero;stroke:none"
         id="path5980" /><path
         d="M 766,5715.67 C 766,5705.67 759,5698.67 749,5698.67 C 740,5698.67 733,5705.67 733,5715.67 C 733,5724.67 740,5731.67 749,5731.67 C 759,5731.67 766,5724.67 766,5715.67"
         style="fill:#ffffff;fill-opacity:1;fill-rule:evenodd;stroke:none"
         id="path5982" /><path
         d="M 769,5715.67 L 769,5710.67 L 768,5707.67 L 767,5707.67 L 766,5704.67 L 765,5703.67 L 763,5701.67 L 763,5701.67 L 761,5699.67 L 760,5698.67 L 757,5697.67 L 757,5696.67 L 754,5695.67 L 745,5695.67 L 742,5696.67 L 742,5697.67 L 739,5698.67 L 738,5699.67 L 736,5701.67 L 736,5701.67 L 734,5703.67 L 733,5704.67 L 732,5707.67 L 731,5707.67 L 730,5710.67 L 730,5719.67 L 731,5722.67 L 732,5722.67 L 733,5725.67 L 734,5726.67 L 736,5728.67 L 736,5728.67 L 738,5730.67 L 739,5731.67 L 742,5732.67 L 742,5733.67 L 745,5734.67 L 754,5734.67 L 757,5733.67 L 757,5732.67 L 760,5731.67 L 761,5730.67 L 763,5728.67 L 763,5728.67 L 765,5726.67 L 766,5725.67 L 767,5722.67 L 768,5722.67 L 769,5719.67 L 769,5718.67 L 769,5715.67 z M 763,5718.67 L 763,5717.67 L 762,5720.67 L 762,5719.67 L 761,5722.67 L 761,5722.67 L 759,5724.67 L 759,5724.67 L 757,5726.67 L 757,5726.67 L 755,5727.67 L 755,5727.67 L 752,5728.67 L 753,5728.67 L 749,5728.67 L 750,5728.67 L 746,5728.67 L 747,5728.67 L 744,5727.67 L 745,5727.67 L 742,5726.67 L 742,5726.67 L 740,5724.67 L 740,5724.67 L 738,5722.67 L 738,5722.67 L 737,5719.67 L 737,5720.67 L 736,5717.67 L 736,5718.67 L 736,5714.67 L 736,5715.67 L 736,5711.67 L 736,5712.67 L 737,5709.67 L 737,5709.67 L 738,5707.67 L 738,5707.67 L 740,5705.67 L 740,5705.67 L 742,5703.67 L 742,5703.67 L 745,5702.67 L 744,5702.67 L 747,5701.67 L 746,5701.67 L 750,5701.67 L 749,5701.67 L 753,5701.67 L 752,5701.67 L 755,5702.67 L 755,5702.67 L 757,5703.67 L 757,5703.67 L 759,5705.67 L 759,5705.67 L 761,5707.67 L 761,5707.67 L 762,5709.67 L 762,5709.67 L 763,5712.67 L 763,5711.67 L 763,5715.67 L 763,5714.67"
         style="fill:#595959;fill-opacity:1;fill-rule:nonzero;stroke:none"
         id="path5984" /><path
         d="M 1117,5246.67 C 1117,5237.67 1110,5229.67 1100,5229.67 C 1091,5229.67 1084,5237.67 1084,5246.67 C 1084,5255.67 1091,5263.67 1100,5263.67 C 1110,5263.67 1117,5255.67 1117,5246.67"
         style="fill:#ffffff;fill-opacity:1;fill-rule:evenodd;stroke:none"
         id="path5986" /><path
         d="M 1120,5246.67 L 1120,5242.67 L 1119,5238.67 L 1118,5238.67 L 1117,5235.67 L 1117,5235.67 L 1115,5232.67 L 1114,5232.67 L 1112,5230.67 L 1111,5229.67 L 1108,5228.67 L 1108,5227.67 L 1105,5226.67 L 1096,5226.67 L 1093,5227.67 L 1093,5228.67 L 1090,5229.67 L 1089,5230.67 L 1087,5232.67 L 1087,5232.67 L 1084,5235.67 L 1084,5235.67 L 1083,5238.67 L 1082,5238.67 L 1081,5242.67 L 1081,5250.67 L 1082,5254.67 L 1083,5254.67 L 1084,5257.67 L 1084,5257.67 L 1087,5260.67 L 1087,5260.67 L 1089,5262.67 L 1090,5263.67 L 1093,5264.67 L 1093,5265.67 L 1096,5266.67 L 1105,5266.67 L 1108,5265.67 L 1108,5264.67 L 1111,5263.67 L 1112,5262.67 L 1114,5260.67 L 1115,5260.67 L 1117,5257.67 L 1117,5257.67 L 1118,5254.67 L 1119,5254.67 L 1120,5250.67 L 1120,5250.67 L 1120,5246.67 z M 1114,5249.67 L 1114,5249.67 L 1113,5252.67 L 1113,5251.67 L 1112,5254.67 L 1112,5254.67 L 1110,5256.67 L 1110,5256.67 L 1108,5258.67 L 1108,5257.67 L 1105,5259.67 L 1106,5259.67 L 1103,5260.67 L 1100,5260.67 L 1101,5260.67 L 1098,5260.67 L 1098,5260.67 L 1095,5259.67 L 1096,5259.67 L 1093,5257.67 L 1093,5258.67 L 1091,5256.67 L 1091,5256.67 L 1089,5254.67 L 1089,5254.67 L 1088,5251.67 L 1088,5252.67 L 1087,5249.67 L 1087,5243.67 L 1088,5240.67 L 1088,5241.67 L 1089,5238.67 L 1089,5238.67 L 1091,5236.67 L 1091,5236.67 L 1093,5234.67 L 1093,5235.67 L 1096,5233.67 L 1095,5233.67 L 1098,5232.67 L 1097,5232.67 L 1101,5232.67 L 1100,5232.67 L 1104,5232.67 L 1103,5232.67 L 1106,5233.67 L 1105,5233.67 L 1108,5235.67 L 1108,5234.67 L 1110,5236.67 L 1110,5236.67 L 1112,5238.67 L 1112,5238.67 L 1113,5241.67 L 1113,5240.67 L 1114,5243.67 L 1114,5246.67"
         style="fill:#595959;fill-opacity:1;fill-rule:nonzero;stroke:none"
         id="path5988" /><path
         d="M 1467,5363.67 C 1467,5354.67 1460,5346.67 1450,5346.67 C 1441,5346.67 1434,5354.67 1434,5363.67 C 1434,5372.67 1441,5380.67 1450,5380.67 C 1460,5380.67 1467,5372.67 1467,5363.67"
         style="fill:#ffffff;fill-opacity:1;fill-rule:evenodd;stroke:none"
         id="path5990" /><path
         d="M 1470,5363.67 L 1470,5359.67 L 1469,5355.67 L 1468,5355.67 L 1467,5352.67 L 1467,5352.67 L 1465,5349.67 L 1464,5349.67 L 1462,5347.67 L 1461,5346.67 L 1458,5345.67 L 1458,5344.67 L 1455,5343.67 L 1446,5343.67 L 1443,5344.67 L 1443,5345.67 L 1440,5346.67 L 1439,5347.67 L 1437,5349.67 L 1437,5349.67 L 1434,5352.67 L 1434,5352.67 L 1433,5355.67 L 1432,5355.67 L 1431,5359.67 L 1431,5367.67 L 1432,5371.67 L 1433,5371.67 L 1434,5374.67 L 1434,5374.67 L 1437,5377.67 L 1437,5377.67 L 1439,5379.67 L 1440,5380.67 L 1443,5381.67 L 1443,5382.67 L 1446,5383.67 L 1455,5383.67 L 1458,5382.67 L 1458,5381.67 L 1461,5380.67 L 1462,5379.67 L 1464,5377.67 L 1465,5377.67 L 1467,5374.67 L 1467,5374.67 L 1468,5371.67 L 1469,5371.67 L 1470,5367.67 L 1470,5367.67 L 1470,5363.67 z M 1464,5366.67 L 1464,5366.67 L 1463,5369.67 L 1463,5368.67 L 1462,5371.67 L 1462,5371.67 L 1460,5373.67 L 1460,5373.67 L 1458,5375.67 L 1458,5374.67 L 1455,5376.67 L 1456,5376.67 L 1453,5377.67 L 1450,5377.67 L 1451,5377.67 L 1448,5377.67 L 1448,5377.67 L 1445,5376.67 L 1446,5376.67 L 1443,5374.67 L 1443,5375.67 L 1441,5373.67 L 1441,5373.67 L 1439,5371.67 L 1439,5371.67 L 1438,5368.67 L 1438,5369.67 L 1437,5366.67 L 1437,5360.67 L 1438,5357.67 L 1438,5358.67 L 1439,5355.67 L 1439,5355.67 L 1441,5353.67 L 1441,5353.67 L 1443,5351.67 L 1443,5352.67 L 1446,5350.67 L 1445,5350.67 L 1448,5349.67 L 1447,5349.67 L 1451,5349.67 L 1450,5349.67 L 1454,5349.67 L 1453,5349.67 L 1456,5350.67 L 1455,5350.67 L 1458,5352.67 L 1458,5351.67 L 1460,5353.67 L 1460,5353.67 L 1462,5355.67 L 1462,5355.67 L 1463,5358.67 L 1463,5357.67 L 1464,5360.67 L 1464,5363.67"
         style="fill:#595959;fill-opacity:1;fill-rule:nonzero;stroke:none"
         id="path5992" /><path
         d="M 1818,5715.67 C 1818,5705.67 1811,5698.67 1801,5698.67 C 1792,5698.67 1785,5705.67 1785,5715.67 C 1785,5724.67 1792,5731.67 1801,5731.67 C 1811,5731.67 1818,5724.67 1818,5715.67"
         style="fill:#ffffff;fill-opacity:1;fill-rule:evenodd;stroke:none"
         id="path5994" /><path
         d="M 1821,5715.67 L 1821,5710.67 L 1820,5707.67 L 1819,5707.67 L 1818,5704.67 L 1817,5703.67 L 1815,5701.67 L 1815,5701.67 L 1813,5699.67 L 1812,5698.67 L 1809,5697.67 L 1809,5696.67 L 1806,5695.67 L 1797,5695.67 L 1794,5696.67 L 1794,5697.67 L 1791,5698.67 L 1790,5699.67 L 1788,5701.67 L 1788,5701.67 L 1786,5703.67 L 1785,5704.67 L 1784,5707.67 L 1783,5707.67 L 1782,5710.67 L 1782,5719.67 L 1783,5722.67 L 1784,5722.67 L 1785,5725.67 L 1786,5726.67 L 1788,5728.67 L 1788,5728.67 L 1790,5730.67 L 1791,5731.67 L 1794,5732.67 L 1794,5733.67 L 1797,5734.67 L 1806,5734.67 L 1809,5733.67 L 1809,5732.67 L 1812,5731.67 L 1813,5730.67 L 1815,5728.67 L 1815,5728.67 L 1817,5726.67 L 1818,5725.67 L 1819,5722.67 L 1820,5722.67 L 1821,5719.67 L 1821,5718.67 L 1821,5715.67 z M 1815,5718.67 L 1815,5717.67 L 1814,5720.67 L 1814,5719.67 L 1813,5722.67 L 1813,5722.67 L 1811,5724.67 L 1811,5724.67 L 1809,5726.67 L 1809,5726.67 L 1807,5727.67 L 1807,5727.67 L 1804,5728.67 L 1805,5728.67 L 1801,5728.67 L 1802,5728.67 L 1798,5728.67 L 1799,5728.67 L 1796,5727.67 L 1797,5727.67 L 1794,5726.67 L 1794,5726.67 L 1792,5724.67 L 1792,5724.67 L 1790,5722.67 L 1790,5722.67 L 1789,5719.67 L 1789,5720.67 L 1788,5717.67 L 1788,5718.67 L 1788,5714.67 L 1788,5715.67 L 1788,5711.67 L 1788,5712.67 L 1789,5709.67 L 1789,5709.67 L 1790,5707.67 L 1790,5707.67 L 1792,5705.67 L 1792,5705.67 L 1794,5703.67 L 1794,5703.67 L 1797,5702.67 L 1796,5702.67 L 1799,5701.67 L 1798,5701.67 L 1802,5701.67 L 1801,5701.67 L 1805,5701.67 L 1804,5701.67 L 1807,5702.67 L 1807,5702.67 L 1809,5703.67 L 1809,5703.67 L 1811,5705.67 L 1811,5705.67 L 1813,5707.67 L 1813,5707.67 L 1814,5709.67 L 1814,5709.67 L 1815,5712.67 L 1815,5711.67 L 1815,5715.67 L 1815,5714.67"
         style="fill:#595959;fill-opacity:1;fill-rule:nonzero;stroke:none"
         id="path5996" /><path
         d="M 2168,5949.67 C 2168,5940.67 2161,5932.67 2151,5932.67 C 2142,5932.67 2135,5940.67 2135,5949.67 C 2135,5958.67 2142,5966.67 2151,5966.67 C 2161,5966.67 2168,5958.67 2168,5949.67"
         style="fill:#ffffff;fill-opacity:1;fill-rule:evenodd;stroke:none"
         id="path5998" /><path
         d="M 2171,5949.67 L 2171,5945.67 L 2170,5941.67 L 2169,5941.67 L 2168,5938.67 L 2168,5938.67 L 2166,5935.67 L 2165,5935.67 L 2163,5933.67 L 2162,5932.67 L 2159,5931.67 L 2159,5930.67 L 2156,5929.67 L 2147,5929.67 L 2144,5930.67 L 2144,5931.67 L 2141,5932.67 L 2140,5933.67 L 2138,5935.67 L 2138,5935.67 L 2135,5938.67 L 2135,5938.67 L 2134,5941.67 L 2133,5941.67 L 2132,5945.67 L 2132,5953.67 L 2133,5957.67 L 2134,5957.67 L 2135,5960.67 L 2135,5960.67 L 2138,5963.67 L 2138,5963.67 L 2140,5965.67 L 2141,5966.67 L 2144,5967.67 L 2144,5968.67 L 2147,5969.67 L 2156,5969.67 L 2159,5968.67 L 2159,5967.67 L 2162,5966.67 L 2163,5965.67 L 2165,5963.67 L 2166,5963.67 L 2168,5960.67 L 2168,5960.67 L 2169,5957.67 L 2170,5957.67 L 2171,5953.67 L 2171,5953.67 L 2171,5949.67 z M 2165,5952.67 L 2165,5952.67 L 2164,5955.67 L 2164,5954.67 L 2163,5957.67 L 2163,5957.67 L 2161,5959.67 L 2161,5959.67 L 2159,5961.67 L 2159,5960.67 L 2156,5962.67 L 2157,5962.67 L 2154,5963.67 L 2151,5963.67 L 2152,5963.67 L 2149,5963.67 L 2149,5963.67 L 2146,5962.67 L 2147,5962.67 L 2144,5960.67 L 2144,5961.67 L 2142,5959.67 L 2142,5959.67 L 2140,5957.67 L 2140,5957.67 L 2139,5954.67 L 2139,5955.67 L 2138,5952.67 L 2138,5946.67 L 2139,5943.67 L 2139,5944.67 L 2140,5941.67 L 2140,5941.67 L 2142,5939.67 L 2142,5939.67 L 2144,5937.67 L 2144,5938.67 L 2147,5936.67 L 2146,5936.67 L 2149,5935.67 L 2148,5935.67 L 2152,5935.67 L 2151,5935.67 L 2155,5935.67 L 2154,5935.67 L 2157,5936.67 L 2156,5936.67 L 2159,5938.67 L 2159,5937.67 L 2161,5939.67 L 2161,5939.67 L 2163,5941.67 L 2163,5941.67 L 2164,5944.67 L 2164,5943.67 L 2165,5946.67 L 2165,5949.67"
         style="fill:#595959;fill-opacity:1;fill-rule:nonzero;stroke:none"
         id="path6000" /><path
         d="M 2519,5129.67 C 2519,5119.67 2512,5112.67 2502,5112.67 C 2493,5112.67 2486,5119.67 2486,5129.67 C 2486,5138.67 2493,5145.67 2502,5145.67 C 2512,5145.67 2519,5138.67 2519,5129.67"
         style="fill:#ffffff;fill-opacity:1;fill-rule:evenodd;stroke:none"
         id="path6002" /><path
         d="M 2522,5129.67 L 2522,5124.67 L 2521,5121.67 L 2520,5121.67 L 2519,5118.67 L 2518,5117.67 L 2516,5115.67 L 2516,5115.67 L 2514,5113.67 L 2513,5112.67 L 2510,5111.67 L 2510,5110.67 L 2507,5109.67 L 2498,5109.67 L 2495,5110.67 L 2495,5111.67 L 2492,5112.67 L 2491,5113.67 L 2489,5115.67 L 2489,5115.67 L 2487,5117.67 L 2486,5118.67 L 2485,5121.67 L 2484,5121.67 L 2483,5124.67 L 2483,5133.67 L 2484,5136.67 L 2485,5136.67 L 2486,5139.67 L 2487,5140.67 L 2489,5142.67 L 2489,5142.67 L 2491,5144.67 L 2492,5145.67 L 2495,5146.67 L 2495,5147.67 L 2498,5148.67 L 2507,5148.67 L 2510,5147.67 L 2510,5146.67 L 2513,5145.67 L 2514,5144.67 L 2516,5142.67 L 2516,5142.67 L 2518,5140.67 L 2519,5139.67 L 2520,5136.67 L 2521,5136.67 L 2522,5133.67 L 2522,5132.67 L 2522,5129.67 z M 2516,5132.67 L 2516,5131.67 L 2515,5134.67 L 2515,5133.67 L 2514,5136.67 L 2514,5136.67 L 2512,5138.67 L 2512,5138.67 L 2510,5140.67 L 2510,5140.67 L 2508,5141.67 L 2508,5141.67 L 2505,5142.67 L 2506,5142.67 L 2502,5142.67 L 2503,5142.67 L 2499,5142.67 L 2500,5142.67 L 2497,5141.67 L 2498,5141.67 L 2495,5140.67 L 2495,5140.67 L 2493,5138.67 L 2493,5138.67 L 2491,5136.67 L 2491,5136.67 L 2490,5133.67 L 2490,5134.67 L 2489,5131.67 L 2489,5132.67 L 2489,5128.67 L 2489,5129.67 L 2489,5125.67 L 2489,5126.67 L 2490,5123.67 L 2490,5123.67 L 2491,5121.67 L 2491,5121.67 L 2493,5119.67 L 2493,5119.67 L 2495,5117.67 L 2495,5117.67 L 2498,5116.67 L 2497,5116.67 L 2500,5115.67 L 2499,5115.67 L 2503,5115.67 L 2502,5115.67 L 2506,5115.67 L 2505,5115.67 L 2508,5116.67 L 2508,5116.67 L 2510,5117.67 L 2510,5117.67 L 2512,5119.67 L 2512,5119.67 L 2514,5121.67 L 2514,5121.67 L 2515,5123.67 L 2515,5123.67 L 2516,5126.67 L 2516,5125.67 L 2516,5129.67 L 2516,5128.67"
         style="fill:#595959;fill-opacity:1;fill-rule:nonzero;stroke:none"
         id="path6004" /><path
         d="M 2869,5129.67 C 2869,5119.67 2862,5112.67 2852,5112.67 C 2843,5112.67 2836,5119.67 2836,5129.67 C 2836,5138.67 2843,5145.67 2852,5145.67 C 2862,5145.67 2869,5138.67 2869,5129.67"
         style="fill:#ffffff;fill-opacity:1;fill-rule:evenodd;stroke:none"
         id="path6006" /><path
         d="M 2872,5129.67 L 2872,5124.67 L 2871,5121.67 L 2870,5121.67 L 2869,5118.67 L 2868,5117.67 L 2866,5115.67 L 2866,5115.67 L 2864,5113.67 L 2863,5112.67 L 2860,5111.67 L 2860,5110.67 L 2857,5109.67 L 2848,5109.67 L 2845,5110.67 L 2845,5111.67 L 2842,5112.67 L 2841,5113.67 L 2839,5115.67 L 2839,5115.67 L 2837,5117.67 L 2836,5118.67 L 2835,5121.67 L 2834,5121.67 L 2833,5124.67 L 2833,5133.67 L 2834,5136.67 L 2835,5136.67 L 2836,5139.67 L 2837,5140.67 L 2839,5142.67 L 2839,5142.67 L 2841,5144.67 L 2842,5145.67 L 2845,5146.67 L 2845,5147.67 L 2848,5148.67 L 2857,5148.67 L 2860,5147.67 L 2860,5146.67 L 2863,5145.67 L 2864,5144.67 L 2866,5142.67 L 2866,5142.67 L 2868,5140.67 L 2869,5139.67 L 2870,5136.67 L 2871,5136.67 L 2872,5133.67 L 2872,5132.67 L 2872,5129.67 z M 2866,5132.67 L 2866,5131.67 L 2865,5134.67 L 2865,5133.67 L 2864,5136.67 L 2864,5136.67 L 2862,5138.67 L 2862,5138.67 L 2860,5140.67 L 2860,5140.67 L 2858,5141.67 L 2858,5141.67 L 2855,5142.67 L 2856,5142.67 L 2852,5142.67 L 2853,5142.67 L 2849,5142.67 L 2850,5142.67 L 2847,5141.67 L 2848,5141.67 L 2845,5140.67 L 2845,5140.67 L 2843,5138.67 L 2843,5138.67 L 2841,5136.67 L 2841,5136.67 L 2840,5133.67 L 2840,5134.67 L 2839,5131.67 L 2839,5132.67 L 2839,5128.67 L 2839,5129.67 L 2839,5125.67 L 2839,5126.67 L 2840,5123.67 L 2840,5123.67 L 2841,5121.67 L 2841,5121.67 L 2843,5119.67 L 2843,5119.67 L 2845,5117.67 L 2845,5117.67 L 2848,5116.67 L 2847,5116.67 L 2850,5115.67 L 2849,5115.67 L 2853,5115.67 L 2852,5115.67 L 2856,5115.67 L 2855,5115.67 L 2858,5116.67 L 2858,5116.67 L 2860,5117.67 L 2860,5117.67 L 2862,5119.67 L 2862,5119.67 L 2864,5121.67 L 2864,5121.67 L 2865,5123.67 L 2865,5123.67 L 2866,5126.67 L 2866,5125.67 L 2866,5129.67 L 2866,5128.67"
         style="fill:#595959;fill-opacity:1;fill-rule:nonzero;stroke:none"
         id="path6008" /><path
         d="M 3220,5363.67 C 3220,5354.67 3213,5346.67 3203,5346.67 C 3194,5346.67 3187,5354.67 3187,5363.67 C 3187,5372.67 3194,5380.67 3203,5380.67 C 3213,5380.67 3220,5372.67 3220,5363.67"
         style="fill:#ffffff;fill-opacity:1;fill-rule:evenodd;stroke:none"
         id="path6010" /><path
         d="M 3223,5363.67 L 3223,5359.67 L 3222,5355.67 L 3221,5355.67 L 3220,5352.67 L 3220,5352.67 L 3218,5349.67 L 3217,5349.67 L 3215,5347.67 L 3214,5346.67 L 3211,5345.67 L 3211,5344.67 L 3208,5343.67 L 3199,5343.67 L 3196,5344.67 L 3196,5345.67 L 3193,5346.67 L 3192,5347.67 L 3190,5349.67 L 3190,5349.67 L 3187,5352.67 L 3187,5352.67 L 3186,5355.67 L 3185,5355.67 L 3184,5359.67 L 3184,5367.67 L 3185,5371.67 L 3186,5371.67 L 3187,5374.67 L 3187,5374.67 L 3190,5377.67 L 3190,5377.67 L 3192,5379.67 L 3193,5380.67 L 3196,5381.67 L 3196,5382.67 L 3199,5383.67 L 3208,5383.67 L 3211,5382.67 L 3211,5381.67 L 3214,5380.67 L 3215,5379.67 L 3217,5377.67 L 3218,5377.67 L 3220,5374.67 L 3220,5374.67 L 3221,5371.67 L 3222,5371.67 L 3223,5367.67 L 3223,5367.67 L 3223,5363.67 z M 3217,5366.67 L 3217,5366.67 L 3216,5369.67 L 3216,5368.67 L 3215,5371.67 L 3215,5371.67 L 3213,5373.67 L 3213,5373.67 L 3211,5375.67 L 3211,5374.67 L 3208,5376.67 L 3209,5376.67 L 3206,5377.67 L 3203,5377.67 L 3204,5377.67 L 3201,5377.67 L 3201,5377.67 L 3198,5376.67 L 3199,5376.67 L 3196,5374.67 L 3196,5375.67 L 3194,5373.67 L 3194,5373.67 L 3192,5371.67 L 3192,5371.67 L 3191,5368.67 L 3191,5369.67 L 3190,5366.67 L 3190,5360.67 L 3191,5357.67 L 3191,5358.67 L 3192,5355.67 L 3192,5355.67 L 3194,5353.67 L 3194,5353.67 L 3196,5351.67 L 3196,5352.67 L 3199,5350.67 L 3198,5350.67 L 3201,5349.67 L 3200,5349.67 L 3204,5349.67 L 3203,5349.67 L 3207,5349.67 L 3206,5349.67 L 3209,5350.67 L 3208,5350.67 L 3211,5352.67 L 3211,5351.67 L 3213,5353.67 L 3213,5353.67 L 3215,5355.67 L 3215,5355.67 L 3216,5358.67 L 3216,5357.67 L 3217,5360.67 L 3217,5363.67"
         style="fill:#595959;fill-opacity:1;fill-rule:nonzero;stroke:none"
         id="path6012" /><path
         d="M 3570,5481.67 C 3570,5471.67 3563,5464.67 3553,5464.67 C 3544,5464.67 3537,5471.67 3537,5481.67 C 3537,5490.67 3544,5497.67 3553,5497.67 C 3563,5497.67 3570,5490.67 3570,5481.67"
         style="fill:#ffffff;fill-opacity:1;fill-rule:evenodd;stroke:none"
         id="path6014" /><path
         d="M 3573,5481.67 L 3573,5476.67 L 3572,5473.67 L 3571,5473.67 L 3570,5470.67 L 3569,5469.67 L 3567,5467.67 L 3567,5467.67 L 3565,5465.67 L 3564,5464.67 L 3561,5463.67 L 3561,5462.67 L 3558,5461.67 L 3549,5461.67 L 3546,5462.67 L 3546,5463.67 L 3543,5464.67 L 3542,5465.67 L 3540,5467.67 L 3540,5467.67 L 3538,5469.67 L 3537,5470.67 L 3536,5473.67 L 3535,5473.67 L 3534,5476.67 L 3534,5485.67 L 3535,5488.67 L 3536,5488.67 L 3537,5491.67 L 3538,5492.67 L 3540,5494.67 L 3540,5494.67 L 3542,5496.67 L 3543,5497.67 L 3546,5498.67 L 3546,5499.67 L 3549,5500.67 L 3558,5500.67 L 3561,5499.67 L 3561,5498.67 L 3564,5497.67 L 3565,5496.67 L 3567,5494.67 L 3567,5494.67 L 3569,5492.67 L 3570,5491.67 L 3571,5488.67 L 3572,5488.67 L 3573,5485.67 L 3573,5484.67 L 3573,5481.67 z M 3567,5484.67 L 3567,5483.67 L 3566,5486.67 L 3566,5485.67 L 3565,5488.67 L 3565,5488.67 L 3563,5490.67 L 3563,5490.67 L 3561,5492.67 L 3561,5492.67 L 3559,5493.67 L 3559,5493.67 L 3556,5494.67 L 3557,5494.67 L 3553,5494.67 L 3554,5494.67 L 3550,5494.67 L 3551,5494.67 L 3548,5493.67 L 3549,5493.67 L 3546,5492.67 L 3546,5492.67 L 3544,5490.67 L 3544,5490.67 L 3542,5488.67 L 3542,5488.67 L 3541,5485.67 L 3541,5486.67 L 3540,5483.67 L 3540,5484.67 L 3540,5480.67 L 3540,5481.67 L 3540,5477.67 L 3540,5478.67 L 3541,5475.67 L 3541,5475.67 L 3542,5473.67 L 3542,5473.67 L 3544,5471.67 L 3544,5471.67 L 3546,5469.67 L 3546,5469.67 L 3549,5468.67 L 3548,5468.67 L 3551,5467.67 L 3550,5467.67 L 3554,5467.67 L 3553,5467.67 L 3557,5467.67 L 3556,5467.67 L 3559,5468.67 L 3559,5468.67 L 3561,5469.67 L 3561,5469.67 L 3563,5471.67 L 3563,5471.67 L 3565,5473.67 L 3565,5473.67 L 3566,5475.67 L 3566,5475.67 L 3567,5478.67 L 3567,5477.67 L 3567,5481.67 L 3567,5480.67"
         style="fill:#595959;fill-opacity:1;fill-rule:nonzero;stroke:none"
         id="path6016" /><path
         d="M 3921,6184.67 C 3921,6174.67 3914,6167.67 3904,6167.67 C 3895,6167.67 3888,6174.67 3888,6184.67 C 3888,6193.67 3895,6200.67 3904,6200.67 C 3914,6200.67 3921,6193.67 3921,6184.67"
         style="fill:#ffffff;fill-opacity:1;fill-rule:evenodd;stroke:none"
         id="path6018" /><path
         d="M 3924,6184.67 L 3924,6179.67 L 3923,6176.67 L 3922,6176.67 L 3921,6173.67 L 3920,6172.67 L 3918,6170.67 L 3918,6170.67 L 3916,6168.67 L 3915,6167.67 L 3912,6166.67 L 3912,6165.67 L 3909,6164.67 L 3900,6164.67 L 3897,6165.67 L 3897,6166.67 L 3894,6167.67 L 3893,6168.67 L 3891,6170.67 L 3891,6170.67 L 3889,6172.67 L 3888,6173.67 L 3887,6176.67 L 3886,6176.67 L 3885,6179.67 L 3885,6188.67 L 3886,6191.67 L 3887,6191.67 L 3888,6194.67 L 3889,6195.67 L 3891,6197.67 L 3891,6197.67 L 3893,6199.67 L 3894,6200.67 L 3897,6201.67 L 3897,6202.67 L 3900,6203.67 L 3909,6203.67 L 3912,6202.67 L 3912,6201.67 L 3915,6200.67 L 3916,6199.67 L 3918,6197.67 L 3918,6197.67 L 3920,6195.67 L 3921,6194.67 L 3922,6191.67 L 3923,6191.67 L 3924,6188.67 L 3924,6187.67 L 3924,6184.67 z M 3918,6187.67 L 3918,6186.67 L 3917,6189.67 L 3917,6188.67 L 3916,6191.67 L 3916,6191.67 L 3914,6193.67 L 3914,6193.67 L 3912,6195.67 L 3912,6195.67 L 3910,6196.67 L 3910,6196.67 L 3907,6197.67 L 3908,6197.67 L 3904,6197.67 L 3905,6197.67 L 3901,6197.67 L 3902,6197.67 L 3899,6196.67 L 3900,6196.67 L 3897,6195.67 L 3897,6195.67 L 3895,6193.67 L 3895,6193.67 L 3893,6191.67 L 3893,6191.67 L 3892,6188.67 L 3892,6189.67 L 3891,6186.67 L 3891,6187.67 L 3891,6183.67 L 3891,6184.67 L 3891,6180.67 L 3891,6181.67 L 3892,6178.67 L 3892,6178.67 L 3893,6176.67 L 3893,6176.67 L 3895,6174.67 L 3895,6174.67 L 3897,6172.67 L 3897,6172.67 L 3900,6171.67 L 3899,6171.67 L 3902,6170.67 L 3901,6170.67 L 3905,6170.67 L 3904,6170.67 L 3908,6170.67 L 3907,6170.67 L 3910,6171.67 L 3910,6171.67 L 3912,6172.67 L 3912,6172.67 L 3914,6174.67 L 3914,6174.67 L 3916,6176.67 L 3916,6176.67 L 3917,6178.67 L 3917,6178.67 L 3918,6181.67 L 3918,6180.67 L 3918,6184.67 L 3918,6183.67"
         style="fill:#595959;fill-opacity:1;fill-rule:nonzero;stroke:none"
         id="path6020" /><g
         id="g6022"
         transform="scale(8.33333,8.33333)"><text
           transform="matrix(1,0,0,-1,49.68,556.52)"
           id="text6024"><tspan
             style="font-size:9.96000004px;font-variant:normal;font-weight:normal;writing-mode:lr-tb;fill:#000000;fill-opacity:1;fill-rule:nonzero;stroke:none;font-family:Calibri;-inkscape-font-specification:Calibri"
             x="0 5.0416341"
             y="0"
             sodipodi:role="line"
             id="tspan6026">80</tspan><tspan
             style="font-size:9.96000004px;font-variant:normal;font-weight:normal;writing-mode:lr-tb;fill:#000000;fill-opacity:1;fill-rule:nonzero;stroke:none;font-family:Calibri;-inkscape-font-specification:Calibri"
             x="0 5.0416341"
             y="-70.199997"
             sodipodi:role="line"
             id="tspan6028">85</tspan><tspan
             style="font-size:9.96000004px;font-variant:normal;font-weight:normal;writing-mode:lr-tb;fill:#000000;fill-opacity:1;fill-rule:nonzero;stroke:none;font-family:Calibri;-inkscape-font-specification:Calibri"
             x="0 5.0416341"
             y="-140.52"
             sodipodi:role="line"
             id="tspan6030">90</tspan><tspan
             style="font-size:9.96000004px;font-variant:normal;font-weight:normal;writing-mode:lr-tb;fill:#000000;fill-opacity:1;fill-rule:nonzero;stroke:none;font-family:Calibri;-inkscape-font-specification:Calibri"
             x="0 5.0416341"
             y="-210.84"
             sodipodi:role="line"
             id="tspan6032">95</tspan></text>
</g><path
         d="M 998,4497.67 L 1158,4497.67 C 1160,4497.67 1162,4495.67 1162,4493.67 C 1162,4491.67 1160,4489.67 1158,4489.67 L 998,4489.67 C 996,4489.67 994,4491.67 994,4493.67 C 994,4495.67 996,4497.67 998,4497.67"
         style="fill:#a6a6a6;fill-opacity:1;fill-rule:nonzero;stroke:none"
         id="path6034" /><path
         d="M 1095,4493.67 C 1095,4483.67 1088,4476.67 1078,4476.67 C 1069,4476.67 1062,4483.67 1062,4493.67 C 1062,4502.67 1069,4509.67 1078,4509.67 C 1088,4509.67 1095,4502.67 1095,4493.67"
         style="fill:#ffffff;fill-opacity:1;fill-rule:evenodd;stroke:none"
         id="path6036" /><path
         d="M 1098,4493.67 L 1098,4488.67 L 1097,4485.67 L 1096,4485.67 L 1095,4482.67 L 1094,4481.67 L 1092,4479.67 L 1092,4479.67 L 1090,4477.67 L 1089,4476.67 L 1086,4475.67 L 1086,4474.67 L 1083,4473.67 L 1074,4473.67 L 1071,4474.67 L 1071,4475.67 L 1068,4476.67 L 1067,4477.67 L 1065,4479.67 L 1065,4479.67 L 1063,4481.67 L 1062,4482.67 L 1061,4485.67 L 1060,4485.67 L 1059,4488.67 L 1059,4497.67 L 1060,4500.67 L 1061,4500.67 L 1062,4503.67 L 1063,4504.67 L 1065,4506.67 L 1065,4506.67 L 1067,4508.67 L 1068,4509.67 L 1071,4510.67 L 1071,4511.67 L 1074,4512.67 L 1083,4512.67 L 1086,4511.67 L 1086,4510.67 L 1089,4509.67 L 1090,4508.67 L 1092,4506.67 L 1092,4506.67 L 1094,4504.67 L 1095,4503.67 L 1096,4500.67 L 1097,4500.67 L 1098,4497.67 L 1098,4496.67 L 1098,4493.67 z M 1092,4496.67 L 1092,4495.67 L 1091,4498.67 L 1091,4497.67 L 1090,4500.67 L 1090,4500.67 L 1088,4502.67 L 1088,4502.67 L 1086,4504.67 L 1086,4504.67 L 1084,4505.67 L 1084,4505.67 L 1081,4506.67 L 1082,4506.67 L 1078,4506.67 L 1079,4506.67 L 1075,4506.67 L 1076,4506.67 L 1073,4505.67 L 1074,4505.67 L 1071,4504.67 L 1071,4504.67 L 1069,4502.67 L 1069,4502.67 L 1067,4500.67 L 1067,4500.67 L 1066,4497.67 L 1066,4498.67 L 1065,4495.67 L 1065,4496.67 L 1065,4492.67 L 1065,4493.67 L 1065,4489.67 L 1065,4490.67 L 1066,4487.67 L 1066,4487.67 L 1067,4485.67 L 1067,4485.67 L 1069,4483.67 L 1069,4483.67 L 1071,4481.67 L 1071,4481.67 L 1074,4480.67 L 1073,4480.67 L 1076,4479.67 L 1075,4479.67 L 1079,4479.67 L 1078,4479.67 L 1082,4479.67 L 1081,4479.67 L 1084,4480.67 L 1084,4480.67 L 1086,4481.67 L 1086,4481.67 L 1088,4483.67 L 1088,4483.67 L 1090,4485.67 L 1090,4485.67 L 1091,4487.67 L 1091,4487.67 L 1092,4490.67 L 1092,4489.67 L 1092,4493.67 L 1092,4492.67"
         style="fill:#a6a6a6;fill-opacity:1;fill-rule:nonzero;stroke:none"
         id="path6038" /><g
         id="g6040"
         transform="scale(8.33333,8.33333)"><text
           transform="matrix(1,0,0,-1,141.12,536.36)"
           id="text6042"><tspan
             style="font-size:9.96000004px;font-variant:normal;font-weight:normal;writing-mode:lr-tb;fill:#000000;fill-opacity:1;fill-rule:nonzero;stroke:none;font-family:Calibri;-inkscape-font-specification:Calibri"
             x="0 6.5989108 10.082568 12.357666 17.040623 19.31572 24.591829 29.39179"
             y="0"
             sodipodi:role="line"
             id="tspan6044">Original</tspan></text>
</g><path
         d="M 1579,4497.67 L 1739,4497.67 C 1741,4497.67 1743,4495.67 1743,4493.67 C 1743,4491.67 1741,4489.67 1739,4489.67 L 1579,4489.67 C 1577,4489.67 1575,4491.67 1575,4493.67 C 1575,4495.67 1577,4497.67 1579,4497.67"
         style="fill:#000000;fill-opacity:1;fill-rule:nonzero;stroke:none"
         id="path6046" /><path
         d="M 1675,4493.67 C 1675,4483.67 1668,4476.67 1658,4476.67 C 1649,4476.67 1642,4483.67 1642,4493.67 C 1642,4502.67 1649,4509.67 1658,4509.67 C 1668,4509.67 1675,4502.67 1675,4493.67"
         style="fill:#ffffff;fill-opacity:1;fill-rule:evenodd;stroke:none"
         id="path6048" /><path
         d="M 1678,4493.67 L 1678,4488.67 L 1677,4485.67 L 1676,4485.67 L 1675,4482.67 L 1674,4481.67 L 1672,4479.67 L 1672,4479.67 L 1670,4477.67 L 1669,4476.67 L 1666,4475.67 L 1666,4474.67 L 1663,4473.67 L 1654,4473.67 L 1651,4474.67 L 1651,4475.67 L 1648,4476.67 L 1647,4477.67 L 1645,4479.67 L 1645,4479.67 L 1643,4481.67 L 1642,4482.67 L 1641,4485.67 L 1640,4485.67 L 1639,4488.67 L 1639,4497.67 L 1640,4500.67 L 1641,4500.67 L 1642,4503.67 L 1643,4504.67 L 1645,4506.67 L 1645,4506.67 L 1647,4508.67 L 1648,4509.67 L 1651,4510.67 L 1651,4511.67 L 1654,4512.67 L 1663,4512.67 L 1666,4511.67 L 1666,4510.67 L 1669,4509.67 L 1670,4508.67 L 1672,4506.67 L 1672,4506.67 L 1674,4504.67 L 1675,4503.67 L 1676,4500.67 L 1677,4500.67 L 1678,4497.67 L 1678,4496.67 L 1678,4493.67 z M 1672,4496.67 L 1672,4495.67 L 1671,4498.67 L 1671,4497.67 L 1670,4500.67 L 1670,4500.67 L 1668,4502.67 L 1668,4502.67 L 1666,4504.67 L 1666,4504.67 L 1664,4505.67 L 1664,4505.67 L 1661,4506.67 L 1662,4506.67 L 1658,4506.67 L 1659,4506.67 L 1655,4506.67 L 1656,4506.67 L 1653,4505.67 L 1654,4505.67 L 1651,4504.67 L 1651,4504.67 L 1649,4502.67 L 1649,4502.67 L 1647,4500.67 L 1647,4500.67 L 1646,4497.67 L 1646,4498.67 L 1645,4495.67 L 1645,4496.67 L 1645,4492.67 L 1645,4493.67 L 1645,4489.67 L 1645,4490.67 L 1646,4487.67 L 1646,4487.67 L 1647,4485.67 L 1647,4485.67 L 1649,4483.67 L 1649,4483.67 L 1651,4481.67 L 1651,4481.67 L 1654,4480.67 L 1653,4480.67 L 1656,4479.67 L 1655,4479.67 L 1659,4479.67 L 1658,4479.67 L 1662,4479.67 L 1661,4479.67 L 1664,4480.67 L 1664,4480.67 L 1666,4481.67 L 1666,4481.67 L 1668,4483.67 L 1668,4483.67 L 1670,4485.67 L 1670,4485.67 L 1671,4487.67 L 1671,4487.67 L 1672,4490.67 L 1672,4489.67 L 1672,4493.67 L 1672,4492.67"
         style="fill:#000000;fill-opacity:1;fill-rule:nonzero;stroke:none"
         id="path6050" /><g
         id="g6052"
         transform="scale(8.33333,8.33333)"><text
           transform="matrix(1,0,0,-1,210.72,536.36)"
           id="text6054"><tspan
             style="font-size:9.96000004px;font-variant:normal;font-weight:normal;writing-mode:lr-tb;fill:#000000;fill-opacity:1;fill-rule:nonzero;stroke:none;font-family:Calibri;-inkscape-font-specification:Calibri"
             x="0 6.7214785 11.997588 16.797548 22.073658 25.434048 27.709145 31.668951 36.46891 40.670391 45.470352 50.746929 52.78619 58.186501 63.110897 65.385994 70.185951 73.546341 75.821442 80.264824"
             y="0"
             sodipodi:role="line"
             id="tspan6056">Quantização Relativa</tspan></text>
</g><path
         d="M 2606,4497.67 L 2766,4497.67 C 2768,4497.67 2770,4495.67 2770,4493.67 C 2770,4491.67 2768,4489.67 2766,4489.67 L 2606,4489.67 C 2604,4489.67 2602,4491.67 2602,4493.67 C 2602,4495.67 2604,4497.67 2606,4497.67"
         style="fill:#595959;fill-opacity:1;fill-rule:nonzero;stroke:none"
         id="path6058" /><path
         d="M 2703,4493.67 C 2703,4483.67 2695,4476.67 2686,4476.67 C 2677,4476.67 2669,4483.67 2669,4493.67 C 2669,4502.67 2677,4509.67 2686,4509.67 C 2695,4509.67 2703,4502.67 2703,4493.67"
         style="fill:#ffffff;fill-opacity:1;fill-rule:evenodd;stroke:none"
         id="path6060" /><path
         d="M 2706,4493.67 L 2706,4488.67 L 2705,4485.67 L 2704,4485.67 L 2703,4482.67 L 2702,4481.67 L 2700,4479.67 L 2700,4478.67 L 2697,4476.67 L 2697,4476.67 L 2694,4475.67 L 2694,4474.67 L 2690,4473.67 L 2686,4473.67 L 2682,4473.67 L 2682,4473.67 L 2678,4474.67 L 2678,4475.67 L 2675,4476.67 L 2675,4476.67 L 2672,4478.67 L 2672,4479.67 L 2670,4481.67 L 2669,4482.67 L 2668,4485.67 L 2667,4485.67 L 2666,4488.67 L 2666,4497.67 L 2667,4500.67 L 2668,4500.67 L 2669,4503.67 L 2670,4504.67 L 2672,4506.67 L 2672,4506.67 L 2675,4509.67 L 2675,4509.67 L 2678,4510.67 L 2678,4511.67 L 2682,4512.67 L 2686,4512.67 L 2690,4512.67 L 2690,4512.67 L 2694,4511.67 L 2694,4510.67 L 2697,4509.67 L 2697,4509.67 L 2700,4506.67 L 2700,4506.67 L 2702,4504.67 L 2703,4503.67 L 2704,4500.67 L 2705,4500.67 L 2706,4497.67 L 2706,4496.67 L 2706,4493.67 z M 2700,4496.67 L 2700,4495.67 L 2699,4498.67 L 2699,4497.67 L 2697,4500.67 L 2698,4500.67 L 2696,4502.67 L 2696,4502.67 L 2694,4504.67 L 2694,4504.67 L 2691,4505.67 L 2692,4505.67 L 2689,4506.67 L 2686,4506.67 L 2683,4506.67 L 2683,4506.67 L 2680,4505.67 L 2681,4505.67 L 2678,4504.67 L 2678,4504.67 L 2676,4502.67 L 2676,4502.67 L 2674,4500.67 L 2675,4500.67 L 2673,4497.67 L 2673,4498.67 L 2672,4495.67 L 2672,4492.67 L 2672,4493.67 L 2672,4490.67 L 2673,4487.67 L 2673,4488.67 L 2675,4485.67 L 2674,4485.67 L 2676,4483.67 L 2676,4483.67 L 2678,4481.67 L 2678,4481.67 L 2681,4480.67 L 2680,4480.67 L 2683,4479.67 L 2686,4479.67 L 2689,4479.67 L 2689,4479.67 L 2692,4480.67 L 2691,4480.67 L 2694,4481.67 L 2694,4481.67 L 2696,4483.67 L 2696,4483.67 L 2698,4485.67 L 2697,4485.67 L 2699,4488.67 L 2699,4487.67 L 2700,4490.67 L 2700,4489.67 L 2700,4493.67 L 2700,4492.67"
         style="fill:#595959;fill-opacity:1;fill-rule:nonzero;stroke:none"
         id="path6062" /><g
         id="g6064"
         transform="scale(8.33333,8.33333)"><text
           transform="matrix(1,0,0,-1,334.08,536.36)"
           id="text6066"><tspan
             style="font-size:9.96000004px;font-variant:normal;font-weight:normal;writing-mode:lr-tb;fill:#000000;fill-opacity:1;fill-rule:nonzero;stroke:none;font-family:Calibri;-inkscape-font-specification:Calibri"
             x="0 6.7214785 11.997588 16.797548 22.073658 25.434048 27.709145 31.668951 36.46891 40.670391 45.470352 50.746929 52.78619 58.550041 63.826149 67.665024 72.941597 75.216698 80.492805 83.853195"
             y="0"
             sodipodi:role="line"
             id="tspan6068">Quantização Absoluta</tspan></text>
</g><path
         d="M 318,6510.67 C 318,6512.67 319,6514.67 322,6514.67 L 4172,6514.67 C 4174,6514.67 4176,6512.67 4176,6510.67 L 4176,4367.67 C 4176,4364.67 4174,4363.67 4172,4363.67 L 322,4363.67 C 319,4363.67 318,4364.67 318,4367.67 L 318,6510.67 z M 326,4367.67 L 322,4371.67 L 4172,4371.67 L 4168,4367.67 L 4168,6510.67 L 4172,6505.67 L 322,6505.67 L 326,6510.67"
         style="fill:#868686;fill-opacity:1;fill-rule:nonzero;stroke:none"
         id="path6070" /></g></g></svg>