<?xml version="1.0" encoding="UTF-8" standalone="no"?>
<!-- Created with Inkscape (http://www.inkscape.org/) -->
<svg
   xmlns:dc="http://purl.org/dc/elements/1.1/"
   xmlns:cc="http://creativecommons.org/ns#"
   xmlns:rdf="http://www.w3.org/1999/02/22-rdf-syntax-ns#"
   xmlns:svg="http://www.w3.org/2000/svg"
   xmlns="http://www.w3.org/2000/svg"
   xmlns:sodipodi="http://sodipodi.sourceforge.net/DTD/sodipodi-0.dtd"
   xmlns:inkscape="http://www.inkscape.org/namespaces/inkscape"
   id="svg2403"
   sodipodi:version="0.32"
   inkscape:version="0.46"
   width="384.30704"
   height="200.10367"
   xml:space="preserve"
   sodipodi:docname="acerto.svg"
   version="1.0"
   inkscape:output_extension="org.inkscape.output.svg.inkscape"><metadata
     id="metadata2408"><rdf:RDF><cc:Work
         rdf:about=""><dc:format>image/svg+xml</dc:format><dc:type
           rdf:resource="http://purl.org/dc/dcmitype/StillImage" /></cc:Work></rdf:RDF></metadata><defs
     id="defs2406"><inkscape:perspective
       sodipodi:type="inkscape:persp3d"
       inkscape:vp_x="0 : 526.18109 : 1"
       inkscape:vp_y="0 : 1000 : 0"
       inkscape:vp_z="744.09448 : 526.18109 : 1"
       inkscape:persp3d-origin="372.04724 : 350.78739 : 1"
       id="perspective2410" /></defs><sodipodi:namedview
     inkscape:window-height="750"
     inkscape:window-width="1280"
     inkscape:pageshadow="2"
     inkscape:pageopacity="0.0"
     guidetolerance="10.0"
     gridtolerance="10.0"
     objecttolerance="10.0"
     borderopacity="1.0"
     bordercolor="#666666"
     pagecolor="#ffffff"
     id="base"
     showgrid="false"
     inkscape:zoom="2.7135934"
     inkscape:cx="192.15352"
     inkscape:cy="100.05184"
     inkscape:window-x="-8"
     inkscape:window-y="-8"
     inkscape:current-layer="g2412" /><g
     id="g2412"
     inkscape:groupmode="layer"
     inkscape:label="xxx"
     transform="matrix(1.25,0,0,-1.25,-155.54645,865.75227)"><g
       id="g2414"
       transform="matrix(0.1200022,0,0,0.1200022,-5.1225592e-3,-1.1280835e-2)"><path
         d="M 1040,4442.67 L 3594,4442.67 L 3594,5767.67 L 1040,5767.67 L 1040,4442.67 z"
         style="fill:#ffffff;fill-opacity:1;fill-rule:evenodd;stroke:none"
         id="path2416" /><path
         d="M 1294,4713.67 L 3503,4713.67 L 3503,5463.67 L 1294,5463.67 L 1294,4713.67 z"
         style="fill:#ffffff;fill-opacity:1;fill-rule:evenodd;stroke:none"
         id="path2418" /><path
         d="M 1294,4841.67 L 3503,4841.67 L 3503,4835.67 L 1294,4835.67 L 1294,4841.67 z M 1294,4966.67 L 3503,4966.67 L 3503,4960.67 L 1294,4960.67 L 1294,4966.67 z M 1294,5091.67 L 3503,5091.67 L 3503,5085.67 L 1294,5085.67 L 1294,5091.67 z M 1294,5216.67 L 3503,5216.67 L 3503,5210.67 L 1294,5210.67 L 1294,5216.67 z M 1294,5341.67 L 3503,5341.67 L 3503,5335.67 L 1294,5335.67 L 1294,5341.67 z M 1294,5466.67 L 3503,5466.67 L 3503,5460.67 L 1294,5460.67"
         style="fill:#dadada;fill-opacity:1;fill-rule:nonzero;stroke:none"
         id="path2420" /><path
         d="M 1404,5338.67 L 1552,5338.67 L 1552,4713.67 L 1404,4713.67 L 1404,5338.67 z M 1773,4963.67 L 1920,4963.67 L 1920,4713.67 L 1773,4713.67 L 1773,4963.67 z M 2141,4838.67 L 2288,4838.67 L 2288,4713.67 L 2141,4713.67 L 2141,4838.67 z M 2877,4775.67 L 3024,4775.67 L 3024,4713.67 L 2877,4713.67 L 2877,4775.67 z M 3245,4838.67 L 3393,4838.67 L 3393,4713.67 L 3245,4713.67"
         style="fill:#4f81bd;fill-opacity:1;fill-rule:nonzero;stroke:none"
         id="path2422" /><path
         d="M 1291,4713.67 L 1297,4713.67 L 1297,5463.67 L 1291,5463.67 L 1291,4713.67 z"
         style="fill:#868686;fill-opacity:1;fill-rule:nonzero;stroke:none"
         id="path2424" /><path
         d="M 1267,4716.67 L 1294,4716.67 L 1294,4710.67 L 1267,4710.67 L 1267,4716.67 z M 1267,4841.67 L 1294,4841.67 L 1294,4835.67 L 1267,4835.67 L 1267,4841.67 z M 1267,4966.67 L 1294,4966.67 L 1294,4960.67 L 1267,4960.67 L 1267,4966.67 z M 1267,5091.67 L 1294,5091.67 L 1294,5085.67 L 1267,5085.67 L 1267,5091.67 z M 1267,5216.67 L 1294,5216.67 L 1294,5210.67 L 1267,5210.67 L 1267,5216.67 z M 1267,5341.67 L 1294,5341.67 L 1294,5335.67 L 1267,5335.67 L 1267,5341.67 z M 1267,5466.67 L 1294,5466.67 L 1294,5460.67 L 1267,5460.67"
         style="fill:#868686;fill-opacity:1;fill-rule:nonzero;stroke:none"
         id="path2426" /><path
         d="M 1294,4710.67 L 3503,4710.67 L 3503,4716.67 L 1294,4716.67 L 1294,4710.67 z"
         style="fill:#868686;fill-opacity:1;fill-rule:nonzero;stroke:none"
         id="path2428" /><path
         d="M 1297,4713.67 L 1297,4686.67 L 1291,4686.67 L 1291,4713.67 L 1297,4713.67 z M 1665,4713.67 L 1665,4686.67 L 1659,4686.67 L 1659,4713.67 L 1665,4713.67 z M 2033,4713.67 L 2033,4686.67 L 2027,4686.67 L 2027,4713.67 L 2033,4713.67 z M 2402,4713.67 L 2402,4686.67 L 2396,4686.67 L 2396,4713.67 L 2402,4713.67 z M 2770,4713.67 L 2770,4686.67 L 2764,4686.67 L 2764,4713.67 L 2770,4713.67 z M 3138,4713.67 L 3138,4686.67 L 3132,4686.67 L 3132,4713.67 L 3138,4713.67 z M 3506,4713.67 L 3506,4686.67 L 3500,4686.67 L 3500,4713.67"
         style="fill:#868686;fill-opacity:1;fill-rule:nonzero;stroke:none"
         id="path2430" /><g
         id="g2432"
         transform="scale(8.33333,8.33333)"><text
           transform="matrix(1,0,0,-1,141.12,562.76)"
           id="text2434"><tspan
             style="font-size:9.96000004px;font-variant:normal;font-weight:normal;writing-mode:lr-tb;fill:#000000;fill-opacity:1;fill-rule:nonzero;stroke:none;font-family:Calibri;-inkscape-font-specification:Calibri"
             x="0"
             y="0"
             id="tspan2436">0</tspan><tspan
             style="font-size:9.96000004px;font-variant:normal;font-weight:normal;writing-mode:lr-tb;fill:#000000;fill-opacity:1;fill-rule:nonzero;stroke:none;font-family:Calibri;-inkscape-font-specification:Calibri"
             x="0"
             y="-15"
             id="tspan2438">2</tspan><tspan
             style="font-size:9.96000004px;font-variant:normal;font-weight:normal;writing-mode:lr-tb;fill:#000000;fill-opacity:1;fill-rule:nonzero;stroke:none;font-family:Calibri;-inkscape-font-specification:Calibri"
             x="0"
             y="-30"
             id="tspan2440">4</tspan><tspan
             style="font-size:9.96000004px;font-variant:normal;font-weight:normal;writing-mode:lr-tb;fill:#000000;fill-opacity:1;fill-rule:nonzero;stroke:none;font-family:Calibri;-inkscape-font-specification:Calibri"
             x="0"
             y="-45"
             id="tspan2442">6</tspan><tspan
             style="font-size:9.96000004px;font-variant:normal;font-weight:normal;writing-mode:lr-tb;fill:#000000;fill-opacity:1;fill-rule:nonzero;stroke:none;font-family:Calibri;-inkscape-font-specification:Calibri"
             x="0"
             y="-60"
             id="tspan2444">8</tspan><tspan
             style="font-size:9.96000004px;font-variant:normal;font-weight:normal;writing-mode:lr-tb;fill:#000000;fill-opacity:1;fill-rule:nonzero;stroke:none;font-family:Calibri;-inkscape-font-specification:Calibri"
             x="-5.1599998 -0.11836594"
             y="-75"
             sodipodi:role="line"
             id="tspan2446">10</tspan><tspan
             style="font-size:9.96000004px;font-variant:normal;font-weight:normal;writing-mode:lr-tb;fill:#000000;fill-opacity:1;fill-rule:nonzero;stroke:none;font-family:Calibri;-inkscape-font-specification:Calibri"
             x="-5.1599998 -0.11836594"
             y="-90"
             sodipodi:role="line"
             id="tspan2448">12</tspan><tspan
             style="font-size:9.96000004px;font-variant:normal;font-weight:normal;writing-mode:lr-tb;fill:#000000;fill-opacity:1;fill-rule:nonzero;stroke:none;font-family:Calibri;-inkscape-font-specification:Calibri"
             x="33.84 78.00164 122.16328 166.32494 210.48657 252.24826 257.28989"
             y="15.96"
             sodipodi:role="line"
             id="tspan2450">123455+</tspan></text>
<text
           transform="matrix(1,0,0,-1,231.84,671.36)"
           id="text2452"><tspan
             style="font-size:14.03999996px;font-variant:normal;font-weight:bold;writing-mode:lr-tb;fill:#000000;fill-opacity:1;fill-rule:nonzero;stroke:none;font-family:Cambria;-inkscape-font-specification:'Cambria,Bold'"
             x="0 7.9177513 15.475557 22.550074 30.10788 32.984863 41.382507 48.825851 51.822834 59.380642 65.864151 73.307495 79.781517 84.698227"
             y="0"
             sodipodi:role="line"
             id="tspan2454">Taxa de acerto</tspan></text>
</g><path
         d="M 1037,5767.67 C 1037,5769.67 1039,5771.67 1041,5771.67 L 3595,5771.67 C 3597,5771.67 3599,5769.67 3599,5767.67 L 3599,4442.67 C 3599,4439.67 3597,4437.67 3595,4437.67 L 1041,4437.67 C 1039,4437.67 1037,4439.67 1037,4442.67 L 1037,5767.67 z M 1045,4442.67 L 1041,4446.67 L 3595,4446.67 L 3591,4442.67 L 3591,5767.67 L 3595,5763.67 L 1041,5763.67 L 1045,5767.67"
         style="fill:#868686;fill-opacity:1;fill-rule:nonzero;stroke:none"
         id="path2456" /></g></g></svg>