<?xml version="1.0" encoding="UTF-8" standalone="no"?>
<!-- Created with Inkscape (http://www.inkscape.org/) -->
<svg
   xmlns:dc="http://purl.org/dc/elements/1.1/"
   xmlns:cc="http://creativecommons.org/ns#"
   xmlns:rdf="http://www.w3.org/1999/02/22-rdf-syntax-ns#"
   xmlns:svg="http://www.w3.org/2000/svg"
   xmlns="http://www.w3.org/2000/svg"
   xmlns:sodipodi="http://sodipodi.sourceforge.net/DTD/sodipodi-0.dtd"
   xmlns:inkscape="http://www.inkscape.org/namespaces/inkscape"
   id="svg2403"
   sodipodi:version="0.32"
   inkscape:version="0.46"
   width="425.19684"
   height="237.06543"
   xml:space="preserve"
   sodipodi:docname="quant-rel.svg"
   version="1.0"
   inkscape:output_extension="org.inkscape.output.svg.inkscape"><metadata
     id="metadata2408"><rdf:RDF><cc:Work
         rdf:about=""><dc:format>image/svg+xml</dc:format><dc:type
           rdf:resource="http://purl.org/dc/dcmitype/StillImage" /></cc:Work></rdf:RDF></metadata><defs
     id="defs2406"><inkscape:perspective
       sodipodi:type="inkscape:persp3d"
       inkscape:vp_x="0 : 526.18109 : 1"
       inkscape:vp_y="0 : 1000 : 0"
       inkscape:vp_z="744.09448 : 526.18109 : 1"
       inkscape:persp3d-origin="372.04724 : 350.78739 : 1"
       id="perspective2410" /></defs><sodipodi:namedview
     inkscape:window-height="669"
     inkscape:window-width="664"
     inkscape:pageshadow="2"
     inkscape:pageopacity="0.0"
     guidetolerance="10.0"
     gridtolerance="10.0"
     objecttolerance="10.0"
     borderopacity="1.0"
     bordercolor="#666666"
     pagecolor="#ffffff"
     id="base"
     showgrid="false"
     inkscape:zoom="0.43895487"
     inkscape:cx="750.046"
     inkscape:cy="526.25"
     inkscape:window-x="161"
     inkscape:window-y="95"
     inkscape:current-layer="g2412" /><g
     id="g2412"
     inkscape:groupmode="layer"
     inkscape:label="quantizaçãox"
     transform="matrix(1.25,0,0,-1.25,-124.45158,934.40821)"><g
       id="g2414"
       transform="matrix(8.8169381e-2,0,0,8.8169381e-2,71.523401,173.13215)"><path
         d="M 321,4367.67 L 4171,4367.67 L 4171,6510.67 L 321,6510.67 L 321,4367.67 z"
         style="fill:#ffffff;fill-opacity:1;fill-rule:evenodd;stroke:none"
         id="path2416" /><path
         d="M 575,4660.67 L 4080,4660.67 L 4080,6418.67 L 575,6418.67 L 575,4660.67 z"
         style="fill:#ffffff;fill-opacity:1;fill-rule:evenodd;stroke:none"
         id="path2418" /><path
         d="M 575,4781.67 L 4080,4781.67 L 4080,4775.67 L 575,4775.67 L 575,4781.67 z M 575,4898.67 L 4080,4898.67 L 4080,4892.67 L 575,4892.67 L 575,4898.67 z M 575,5015.67 L 4080,5015.67 L 4080,5009.67 L 575,5009.67 L 575,5015.67 z M 575,5132.67 L 4080,5132.67 L 4080,5126.67 L 575,5126.67 L 575,5132.67 z M 575,5366.67 L 4080,5366.67 L 4080,5360.67 L 575,5360.67 L 575,5366.67 z M 575,5483.67 L 4080,5483.67 L 4080,5477.67 L 575,5477.67 L 575,5483.67 z M 575,5601.67 L 4080,5601.67 L 4080,5595.67 L 575,5595.67 L 575,5601.67 z M 575,5718.67 L 4080,5718.67 L 4080,5712.67 L 575,5712.67 L 575,5718.67 z M 575,5952.67 L 4080,5952.67 L 4080,5946.67 L 575,5946.67 L 575,5952.67 z M 575,6069.67 L 4080,6069.67 L 4080,6063.67 L 575,6063.67 L 575,6069.67 z M 575,6186.67 L 4080,6186.67 L 4080,6180.67 L 575,6180.67 L 575,6186.67 z M 575,6303.67 L 4080,6303.67 L 4080,6297.67 L 575,6297.67"
         style="fill:#b7b7b7;fill-opacity:1;fill-rule:nonzero;stroke:none"
         id="path2420" /><path
         d="M 575,4663.67 L 4080,4663.67 L 4080,4657.67 L 575,4657.67 L 575,4663.67 z M 575,5249.67 L 4080,5249.67 L 4080,5243.67 L 575,5243.67 L 575,5249.67 z M 575,5835.67 L 4080,5835.67 L 4080,5829.67 L 575,5829.67 L 575,5835.67 z M 575,6421.67 L 4080,6421.67 L 4080,6415.67 L 575,6415.67"
         style="fill:#868686;fill-opacity:1;fill-rule:nonzero;stroke:none"
         id="path2422" /><path
         d="M 574,6418.67 L 575,6419.67 L 4080,6419.67 L 4081,6418.67 L 4081,4660.67 L 4080,4659.67 L 575,4659.67 L 574,4660.67 L 574,6418.67 z M 576,4660.67 L 575,4661.67 L 4080,4661.67 L 4079,4660.67 L 4079,6418.67 L 4080,6417.67 L 575,6417.67 L 576,6418.67"
         style="fill:#000000;fill-opacity:1;fill-rule:nonzero;stroke:none"
         id="path2424" /><path
         d="M 753,5648.67 L 1103,5233.67 L 1099,5234.67 L 1450,5280.67 L 1448,5279.67 L 1798,5686.67 C 1798,5686.67 1798,5686.67 1799,5686.67 L 2150,5915.67 C 2151,5916.67 2152,5916.67 2153,5916.67 C 2154,5915.67 2155,5915.67 2156,5914.67 L 2506,5039.67 L 2502,5041.67 L 2853,5081.67 L 2851,5081.67 L 3201,5280.67 L 3552,5452.67 L 3550,5450.67 L 3900,6185.67 C 3901,6187.67 3904,6188.67 3906,6187.67 C 3908,6186.67 3909,6183.67 3908,6181.67 L 3558,5446.67 C 3557,5445.67 3557,5445.67 3556,5444.67 L 3205,5273.67 L 2855,5074.67 C 2854,5073.67 2854,5073.67 2853,5073.67 L 2502,5033.67 C 2501,5033.67 2499,5034.67 2498,5036.67 L 2148,5911.67 L 2154,5909.67 L 1803,5680.67 L 1804,5680.67 L 1454,5273.67 C 1453,5273.67 1452,5272.67 1451,5272.67 L 1100,5226.67 C 1099,5226.67 1098,5226.67 1097,5227.67 L 747,5642.67 C 745,5644.67 746,5647.67 747,5648.67 C 749,5650.67 752,5649.67 753,5648.67"
         style="fill:#a6a6a6;fill-opacity:1;fill-rule:nonzero;stroke:none"
         id="path2426" /><path
         d="M 766,5646.67 C 766,5636.67 759,5629.67 749,5629.67 C 740,5629.67 733,5636.67 733,5646.67 C 733,5655.67 740,5662.67 749,5662.67 C 759,5662.67 766,5655.67 766,5646.67"
         style="fill:#ffffff;fill-opacity:1;fill-rule:evenodd;stroke:none"
         id="path2428" /><path
         d="M 769,5646.67 L 769,5641.67 L 768,5638.67 L 767,5638.67 L 766,5635.67 L 765,5634.67 L 763,5632.67 L 763,5632.67 L 761,5630.67 L 760,5629.67 L 757,5628.67 L 757,5627.67 L 754,5626.67 L 745,5626.67 L 742,5627.67 L 742,5628.67 L 739,5629.67 L 738,5630.67 L 736,5632.67 L 736,5632.67 L 734,5634.67 L 733,5635.67 L 732,5638.67 L 731,5638.67 L 730,5641.67 L 730,5650.67 L 731,5653.67 L 732,5653.67 L 733,5656.67 L 734,5657.67 L 736,5659.67 L 736,5659.67 L 738,5661.67 L 739,5662.67 L 742,5663.67 L 742,5664.67 L 745,5665.67 L 754,5665.67 L 757,5664.67 L 757,5663.67 L 760,5662.67 L 761,5661.67 L 763,5659.67 L 763,5659.67 L 765,5657.67 L 766,5656.67 L 767,5653.67 L 768,5653.67 L 769,5650.67 L 769,5649.67 L 769,5646.67 z M 763,5649.67 L 763,5648.67 L 762,5651.67 L 762,5650.67 L 761,5653.67 L 761,5653.67 L 759,5655.67 L 759,5655.67 L 757,5657.67 L 757,5657.67 L 755,5658.67 L 755,5658.67 L 752,5659.67 L 753,5659.67 L 749,5659.67 L 750,5659.67 L 746,5659.67 L 747,5659.67 L 744,5658.67 L 745,5658.67 L 742,5657.67 L 742,5657.67 L 740,5655.67 L 740,5655.67 L 738,5653.67 L 738,5653.67 L 737,5650.67 L 737,5651.67 L 736,5648.67 L 736,5649.67 L 736,5645.67 L 736,5646.67 L 736,5642.67 L 736,5643.67 L 737,5640.67 L 737,5640.67 L 738,5638.67 L 738,5638.67 L 740,5636.67 L 740,5636.67 L 742,5634.67 L 742,5634.67 L 745,5633.67 L 744,5633.67 L 747,5632.67 L 746,5632.67 L 750,5632.67 L 749,5632.67 L 753,5632.67 L 752,5632.67 L 755,5633.67 L 755,5633.67 L 757,5634.67 L 757,5634.67 L 759,5636.67 L 759,5636.67 L 761,5638.67 L 761,5638.67 L 762,5640.67 L 762,5640.67 L 763,5643.67 L 763,5642.67 L 763,5646.67 L 763,5645.67"
         style="fill:#a6a6a6;fill-opacity:1;fill-rule:nonzero;stroke:none"
         id="path2430" /><path
         d="M 1117,5230.67 C 1117,5221.67 1110,5213.67 1100,5213.67 C 1091,5213.67 1084,5221.67 1084,5230.67 C 1084,5239.67 1091,5247.67 1100,5247.67 C 1110,5247.67 1117,5239.67 1117,5230.67"
         style="fill:#ffffff;fill-opacity:1;fill-rule:evenodd;stroke:none"
         id="path2432" /><path
         d="M 1120,5230.67 L 1120,5226.67 L 1119,5222.67 L 1118,5222.67 L 1117,5219.67 L 1117,5219.67 L 1115,5216.67 L 1114,5216.67 L 1112,5214.67 L 1111,5213.67 L 1108,5212.67 L 1108,5211.67 L 1105,5210.67 L 1096,5210.67 L 1093,5211.67 L 1093,5212.67 L 1090,5213.67 L 1089,5214.67 L 1087,5216.67 L 1087,5216.67 L 1084,5219.67 L 1084,5219.67 L 1083,5222.67 L 1082,5222.67 L 1081,5226.67 L 1081,5234.67 L 1082,5238.67 L 1083,5238.67 L 1084,5241.67 L 1084,5241.67 L 1087,5244.67 L 1087,5244.67 L 1089,5246.67 L 1090,5247.67 L 1093,5248.67 L 1093,5249.67 L 1096,5250.67 L 1105,5250.67 L 1108,5249.67 L 1108,5248.67 L 1111,5247.67 L 1112,5246.67 L 1114,5244.67 L 1115,5244.67 L 1117,5241.67 L 1117,5241.67 L 1118,5238.67 L 1119,5238.67 L 1120,5234.67 L 1120,5234.67 L 1120,5230.67 z M 1114,5233.67 L 1114,5233.67 L 1113,5236.67 L 1113,5235.67 L 1112,5238.67 L 1112,5238.67 L 1110,5240.67 L 1110,5240.67 L 1108,5242.67 L 1108,5241.67 L 1105,5243.67 L 1106,5243.67 L 1103,5244.67 L 1100,5244.67 L 1101,5244.67 L 1098,5244.67 L 1098,5244.67 L 1095,5243.67 L 1096,5243.67 L 1093,5241.67 L 1093,5242.67 L 1091,5240.67 L 1091,5240.67 L 1089,5238.67 L 1089,5238.67 L 1088,5235.67 L 1088,5236.67 L 1087,5233.67 L 1087,5227.67 L 1088,5224.67 L 1088,5225.67 L 1089,5222.67 L 1089,5222.67 L 1091,5220.67 L 1091,5220.67 L 1093,5218.67 L 1093,5219.67 L 1096,5217.67 L 1095,5217.67 L 1098,5216.67 L 1097,5216.67 L 1101,5216.67 L 1100,5216.67 L 1104,5216.67 L 1103,5216.67 L 1106,5217.67 L 1105,5217.67 L 1108,5219.67 L 1108,5218.67 L 1110,5220.67 L 1110,5220.67 L 1112,5222.67 L 1112,5222.67 L 1113,5225.67 L 1113,5224.67 L 1114,5227.67 L 1114,5230.67"
         style="fill:#a6a6a6;fill-opacity:1;fill-rule:nonzero;stroke:none"
         id="path2434" /><path
         d="M 1467,5276.67 C 1467,5266.67 1460,5259.67 1450,5259.67 C 1441,5259.67 1434,5266.67 1434,5276.67 C 1434,5285.67 1441,5292.67 1450,5292.67 C 1460,5292.67 1467,5285.67 1467,5276.67"
         style="fill:#ffffff;fill-opacity:1;fill-rule:evenodd;stroke:none"
         id="path2436" /><path
         d="M 1470,5276.67 L 1470,5271.67 L 1469,5268.67 L 1468,5268.67 L 1467,5265.67 L 1466,5264.67 L 1464,5262.67 L 1464,5262.67 L 1462,5260.67 L 1461,5259.67 L 1458,5258.67 L 1458,5257.67 L 1455,5256.67 L 1446,5256.67 L 1443,5257.67 L 1443,5258.67 L 1440,5259.67 L 1439,5260.67 L 1437,5262.67 L 1437,5262.67 L 1435,5264.67 L 1434,5265.67 L 1433,5268.67 L 1432,5268.67 L 1431,5271.67 L 1431,5280.67 L 1432,5283.67 L 1433,5283.67 L 1434,5286.67 L 1435,5287.67 L 1437,5289.67 L 1437,5289.67 L 1439,5291.67 L 1440,5292.67 L 1443,5293.67 L 1443,5294.67 L 1446,5295.67 L 1455,5295.67 L 1458,5294.67 L 1458,5293.67 L 1461,5292.67 L 1462,5291.67 L 1464,5289.67 L 1464,5289.67 L 1466,5287.67 L 1467,5286.67 L 1468,5283.67 L 1469,5283.67 L 1470,5280.67 L 1470,5279.67 L 1470,5276.67 z M 1464,5279.67 L 1464,5278.67 L 1463,5281.67 L 1463,5280.67 L 1462,5283.67 L 1462,5283.67 L 1460,5285.67 L 1460,5285.67 L 1458,5287.67 L 1458,5287.67 L 1456,5288.67 L 1456,5288.67 L 1453,5289.67 L 1454,5289.67 L 1450,5289.67 L 1451,5289.67 L 1447,5289.67 L 1448,5289.67 L 1445,5288.67 L 1446,5288.67 L 1443,5287.67 L 1443,5287.67 L 1441,5285.67 L 1441,5285.67 L 1439,5283.67 L 1439,5283.67 L 1438,5280.67 L 1438,5281.67 L 1437,5278.67 L 1437,5279.67 L 1437,5275.67 L 1437,5276.67 L 1437,5272.67 L 1437,5273.67 L 1438,5270.67 L 1438,5270.67 L 1439,5268.67 L 1439,5268.67 L 1441,5266.67 L 1441,5266.67 L 1443,5264.67 L 1443,5264.67 L 1446,5263.67 L 1445,5263.67 L 1448,5262.67 L 1447,5262.67 L 1451,5262.67 L 1450,5262.67 L 1454,5262.67 L 1453,5262.67 L 1456,5263.67 L 1456,5263.67 L 1458,5264.67 L 1458,5264.67 L 1460,5266.67 L 1460,5266.67 L 1462,5268.67 L 1462,5268.67 L 1463,5270.67 L 1463,5270.67 L 1464,5273.67 L 1464,5272.67 L 1464,5276.67 L 1464,5275.67"
         style="fill:#a6a6a6;fill-opacity:1;fill-rule:nonzero;stroke:none"
         id="path2438" /><path
         d="M 1818,5683.67 C 1818,5673.67 1811,5666.67 1801,5666.67 C 1792,5666.67 1785,5673.67 1785,5683.67 C 1785,5692.67 1792,5699.67 1801,5699.67 C 1811,5699.67 1818,5692.67 1818,5683.67"
         style="fill:#ffffff;fill-opacity:1;fill-rule:evenodd;stroke:none"
         id="path2440" /><path
         d="M 1821,5683.67 L 1821,5678.67 L 1820,5675.67 L 1819,5675.67 L 1818,5672.67 L 1817,5671.67 L 1815,5669.67 L 1815,5669.67 L 1813,5667.67 L 1812,5666.67 L 1809,5665.67 L 1809,5664.67 L 1806,5663.67 L 1797,5663.67 L 1794,5664.67 L 1794,5665.67 L 1791,5666.67 L 1790,5667.67 L 1788,5669.67 L 1788,5669.67 L 1786,5671.67 L 1785,5672.67 L 1784,5675.67 L 1783,5675.67 L 1782,5678.67 L 1782,5687.67 L 1783,5690.67 L 1784,5690.67 L 1785,5693.67 L 1786,5694.67 L 1788,5696.67 L 1788,5696.67 L 1790,5698.67 L 1791,5699.67 L 1794,5700.67 L 1794,5701.67 L 1797,5702.67 L 1806,5702.67 L 1809,5701.67 L 1809,5700.67 L 1812,5699.67 L 1813,5698.67 L 1815,5696.67 L 1815,5696.67 L 1817,5694.67 L 1818,5693.67 L 1819,5690.67 L 1820,5690.67 L 1821,5687.67 L 1821,5686.67 L 1821,5683.67 z M 1815,5686.67 L 1815,5685.67 L 1814,5688.67 L 1814,5687.67 L 1813,5690.67 L 1813,5690.67 L 1811,5692.67 L 1811,5692.67 L 1809,5694.67 L 1809,5694.67 L 1807,5695.67 L 1807,5695.67 L 1804,5696.67 L 1805,5696.67 L 1801,5696.67 L 1802,5696.67 L 1798,5696.67 L 1799,5696.67 L 1796,5695.67 L 1797,5695.67 L 1794,5694.67 L 1794,5694.67 L 1792,5692.67 L 1792,5692.67 L 1790,5690.67 L 1790,5690.67 L 1789,5687.67 L 1789,5688.67 L 1788,5685.67 L 1788,5686.67 L 1788,5682.67 L 1788,5683.67 L 1788,5679.67 L 1788,5680.67 L 1789,5677.67 L 1789,5677.67 L 1790,5675.67 L 1790,5675.67 L 1792,5673.67 L 1792,5673.67 L 1794,5671.67 L 1794,5671.67 L 1797,5670.67 L 1796,5670.67 L 1799,5669.67 L 1798,5669.67 L 1802,5669.67 L 1801,5669.67 L 1805,5669.67 L 1804,5669.67 L 1807,5670.67 L 1807,5670.67 L 1809,5671.67 L 1809,5671.67 L 1811,5673.67 L 1811,5673.67 L 1813,5675.67 L 1813,5675.67 L 1814,5677.67 L 1814,5677.67 L 1815,5680.67 L 1815,5679.67 L 1815,5683.67 L 1815,5682.67"
         style="fill:#a6a6a6;fill-opacity:1;fill-rule:nonzero;stroke:none"
         id="path2442" /><path
         d="M 2168,5913.67 C 2168,5903.67 2161,5896.67 2151,5896.67 C 2142,5896.67 2135,5903.67 2135,5913.67 C 2135,5922.67 2142,5929.67 2151,5929.67 C 2161,5929.67 2168,5922.67 2168,5913.67"
         style="fill:#ffffff;fill-opacity:1;fill-rule:evenodd;stroke:none"
         id="path2444" /><path
         d="M 2171,5913.67 L 2171,5908.67 L 2170,5905.67 L 2169,5905.67 L 2168,5902.67 L 2167,5901.67 L 2165,5899.67 L 2165,5899.67 L 2163,5897.67 L 2162,5896.67 L 2159,5895.67 L 2159,5894.67 L 2156,5893.67 L 2147,5893.67 L 2144,5894.67 L 2144,5895.67 L 2141,5896.67 L 2140,5897.67 L 2138,5899.67 L 2138,5899.67 L 2136,5901.67 L 2135,5902.67 L 2134,5905.67 L 2133,5905.67 L 2132,5908.67 L 2132,5917.67 L 2133,5920.67 L 2134,5920.67 L 2135,5923.67 L 2136,5924.67 L 2138,5926.67 L 2138,5926.67 L 2140,5928.67 L 2141,5929.67 L 2144,5930.67 L 2144,5931.67 L 2147,5932.67 L 2156,5932.67 L 2159,5931.67 L 2159,5930.67 L 2162,5929.67 L 2163,5928.67 L 2165,5926.67 L 2165,5926.67 L 2167,5924.67 L 2168,5923.67 L 2169,5920.67 L 2170,5920.67 L 2171,5917.67 L 2171,5916.67 L 2171,5913.67 z M 2165,5916.67 L 2165,5915.67 L 2164,5918.67 L 2164,5917.67 L 2163,5920.67 L 2163,5920.67 L 2161,5922.67 L 2161,5922.67 L 2159,5924.67 L 2159,5924.67 L 2157,5925.67 L 2157,5925.67 L 2154,5926.67 L 2155,5926.67 L 2151,5926.67 L 2152,5926.67 L 2148,5926.67 L 2149,5926.67 L 2146,5925.67 L 2147,5925.67 L 2144,5924.67 L 2144,5924.67 L 2142,5922.67 L 2142,5922.67 L 2140,5920.67 L 2140,5920.67 L 2139,5917.67 L 2139,5918.67 L 2138,5915.67 L 2138,5916.67 L 2138,5912.67 L 2138,5913.67 L 2138,5909.67 L 2138,5910.67 L 2139,5907.67 L 2139,5907.67 L 2140,5905.67 L 2140,5905.67 L 2142,5903.67 L 2142,5903.67 L 2144,5901.67 L 2144,5901.67 L 2147,5900.67 L 2146,5900.67 L 2149,5899.67 L 2148,5899.67 L 2152,5899.67 L 2151,5899.67 L 2155,5899.67 L 2154,5899.67 L 2157,5900.67 L 2157,5900.67 L 2159,5901.67 L 2159,5901.67 L 2161,5903.67 L 2161,5903.67 L 2163,5905.67 L 2163,5905.67 L 2164,5907.67 L 2164,5907.67 L 2165,5910.67 L 2165,5909.67 L 2165,5913.67 L 2165,5912.67"
         style="fill:#a6a6a6;fill-opacity:1;fill-rule:nonzero;stroke:none"
         id="path2446" /><path
         d="M 2519,5037.67 C 2519,5027.67 2512,5020.67 2502,5020.67 C 2493,5020.67 2486,5027.67 2486,5037.67 C 2486,5046.67 2493,5053.67 2502,5053.67 C 2512,5053.67 2519,5046.67 2519,5037.67"
         style="fill:#ffffff;fill-opacity:1;fill-rule:evenodd;stroke:none"
         id="path2448" /><path
         d="M 2522,5037.67 L 2522,5032.67 L 2521,5029.67 L 2520,5029.67 L 2519,5026.67 L 2518,5025.67 L 2516,5023.67 L 2516,5023.67 L 2514,5021.67 L 2513,5020.67 L 2510,5019.67 L 2510,5018.67 L 2507,5017.67 L 2498,5017.67 L 2495,5018.67 L 2495,5019.67 L 2492,5020.67 L 2491,5021.67 L 2489,5023.67 L 2489,5023.67 L 2487,5025.67 L 2486,5026.67 L 2485,5029.67 L 2484,5029.67 L 2483,5032.67 L 2483,5041.67 L 2484,5044.67 L 2485,5044.67 L 2486,5047.67 L 2487,5048.67 L 2489,5050.67 L 2489,5050.67 L 2491,5052.67 L 2492,5053.67 L 2495,5054.67 L 2495,5055.67 L 2498,5056.67 L 2507,5056.67 L 2510,5055.67 L 2510,5054.67 L 2513,5053.67 L 2514,5052.67 L 2516,5050.67 L 2516,5050.67 L 2518,5048.67 L 2519,5047.67 L 2520,5044.67 L 2521,5044.67 L 2522,5041.67 L 2522,5040.67 L 2522,5037.67 z M 2516,5040.67 L 2516,5039.67 L 2515,5042.67 L 2515,5041.67 L 2514,5044.67 L 2514,5044.67 L 2512,5046.67 L 2512,5046.67 L 2510,5048.67 L 2510,5048.67 L 2508,5049.67 L 2508,5049.67 L 2505,5050.67 L 2506,5050.67 L 2502,5050.67 L 2503,5050.67 L 2499,5050.67 L 2500,5050.67 L 2497,5049.67 L 2498,5049.67 L 2495,5048.67 L 2495,5048.67 L 2493,5046.67 L 2493,5046.67 L 2491,5044.67 L 2491,5044.67 L 2490,5041.67 L 2490,5042.67 L 2489,5039.67 L 2489,5040.67 L 2489,5036.67 L 2489,5037.67 L 2489,5033.67 L 2489,5034.67 L 2490,5031.67 L 2490,5031.67 L 2491,5029.67 L 2491,5029.67 L 2493,5027.67 L 2493,5027.67 L 2495,5025.67 L 2495,5025.67 L 2498,5024.67 L 2497,5024.67 L 2500,5023.67 L 2499,5023.67 L 2503,5023.67 L 2502,5023.67 L 2506,5023.67 L 2505,5023.67 L 2508,5024.67 L 2508,5024.67 L 2510,5025.67 L 2510,5025.67 L 2512,5027.67 L 2512,5027.67 L 2514,5029.67 L 2514,5029.67 L 2515,5031.67 L 2515,5031.67 L 2516,5034.67 L 2516,5033.67 L 2516,5037.67 L 2516,5036.67"
         style="fill:#a6a6a6;fill-opacity:1;fill-rule:nonzero;stroke:none"
         id="path2450" /><path
         d="M 2869,5077.67 C 2869,5068.67 2862,5060.67 2852,5060.67 C 2843,5060.67 2836,5068.67 2836,5077.67 C 2836,5086.67 2843,5094.67 2852,5094.67 C 2862,5094.67 2869,5086.67 2869,5077.67"
         style="fill:#ffffff;fill-opacity:1;fill-rule:evenodd;stroke:none"
         id="path2452" /><path
         d="M 2872,5077.67 L 2872,5073.67 L 2871,5069.67 L 2870,5069.67 L 2869,5066.67 L 2869,5066.67 L 2867,5063.67 L 2866,5063.67 L 2864,5061.67 L 2863,5060.67 L 2860,5059.67 L 2860,5058.67 L 2857,5057.67 L 2848,5057.67 L 2845,5058.67 L 2845,5059.67 L 2842,5060.67 L 2841,5061.67 L 2839,5063.67 L 2839,5063.67 L 2836,5066.67 L 2836,5066.67 L 2835,5069.67 L 2834,5069.67 L 2833,5073.67 L 2833,5081.67 L 2834,5085.67 L 2835,5085.67 L 2836,5088.67 L 2836,5088.67 L 2839,5091.67 L 2839,5091.67 L 2841,5093.67 L 2842,5094.67 L 2845,5095.67 L 2845,5096.67 L 2848,5097.67 L 2857,5097.67 L 2860,5096.67 L 2860,5095.67 L 2863,5094.67 L 2864,5093.67 L 2866,5091.67 L 2867,5091.67 L 2869,5088.67 L 2869,5088.67 L 2870,5085.67 L 2871,5085.67 L 2872,5081.67 L 2872,5081.67 L 2872,5077.67 z M 2866,5080.67 L 2866,5080.67 L 2865,5083.67 L 2865,5082.67 L 2864,5085.67 L 2864,5085.67 L 2862,5087.67 L 2862,5087.67 L 2860,5089.67 L 2860,5088.67 L 2857,5090.67 L 2858,5090.67 L 2855,5091.67 L 2852,5091.67 L 2853,5091.67 L 2850,5091.67 L 2850,5091.67 L 2847,5090.67 L 2848,5090.67 L 2845,5088.67 L 2845,5089.67 L 2843,5087.67 L 2843,5087.67 L 2841,5085.67 L 2841,5085.67 L 2840,5082.67 L 2840,5083.67 L 2839,5080.67 L 2839,5074.67 L 2840,5071.67 L 2840,5072.67 L 2841,5069.67 L 2841,5069.67 L 2843,5067.67 L 2843,5067.67 L 2845,5065.67 L 2845,5066.67 L 2848,5064.67 L 2847,5064.67 L 2850,5063.67 L 2849,5063.67 L 2853,5063.67 L 2852,5063.67 L 2856,5063.67 L 2855,5063.67 L 2858,5064.67 L 2857,5064.67 L 2860,5066.67 L 2860,5065.67 L 2862,5067.67 L 2862,5067.67 L 2864,5069.67 L 2864,5069.67 L 2865,5072.67 L 2865,5071.67 L 2866,5074.67 L 2866,5077.67"
         style="fill:#a6a6a6;fill-opacity:1;fill-rule:nonzero;stroke:none"
         id="path2454" /><path
         d="M 3220,5276.67 C 3220,5266.67 3213,5259.67 3203,5259.67 C 3194,5259.67 3187,5266.67 3187,5276.67 C 3187,5285.67 3194,5292.67 3203,5292.67 C 3213,5292.67 3220,5285.67 3220,5276.67"
         style="fill:#ffffff;fill-opacity:1;fill-rule:evenodd;stroke:none"
         id="path2456" /><path
         d="M 3223,5276.67 L 3223,5271.67 L 3222,5268.67 L 3221,5268.67 L 3220,5265.67 L 3219,5264.67 L 3217,5262.67 L 3217,5262.67 L 3215,5260.67 L 3214,5259.67 L 3211,5258.67 L 3211,5257.67 L 3208,5256.67 L 3199,5256.67 L 3196,5257.67 L 3196,5258.67 L 3193,5259.67 L 3192,5260.67 L 3190,5262.67 L 3190,5262.67 L 3188,5264.67 L 3187,5265.67 L 3186,5268.67 L 3185,5268.67 L 3184,5271.67 L 3184,5280.67 L 3185,5283.67 L 3186,5283.67 L 3187,5286.67 L 3188,5287.67 L 3190,5289.67 L 3190,5289.67 L 3192,5291.67 L 3193,5292.67 L 3196,5293.67 L 3196,5294.67 L 3199,5295.67 L 3208,5295.67 L 3211,5294.67 L 3211,5293.67 L 3214,5292.67 L 3215,5291.67 L 3217,5289.67 L 3217,5289.67 L 3219,5287.67 L 3220,5286.67 L 3221,5283.67 L 3222,5283.67 L 3223,5280.67 L 3223,5279.67 L 3223,5276.67 z M 3217,5279.67 L 3217,5278.67 L 3216,5281.67 L 3216,5280.67 L 3215,5283.67 L 3215,5283.67 L 3213,5285.67 L 3213,5285.67 L 3211,5287.67 L 3211,5287.67 L 3209,5288.67 L 3209,5288.67 L 3206,5289.67 L 3207,5289.67 L 3203,5289.67 L 3204,5289.67 L 3200,5289.67 L 3201,5289.67 L 3198,5288.67 L 3199,5288.67 L 3196,5287.67 L 3196,5287.67 L 3194,5285.67 L 3194,5285.67 L 3192,5283.67 L 3192,5283.67 L 3191,5280.67 L 3191,5281.67 L 3190,5278.67 L 3190,5279.67 L 3190,5275.67 L 3190,5276.67 L 3190,5272.67 L 3190,5273.67 L 3191,5270.67 L 3191,5270.67 L 3192,5268.67 L 3192,5268.67 L 3194,5266.67 L 3194,5266.67 L 3196,5264.67 L 3196,5264.67 L 3199,5263.67 L 3198,5263.67 L 3201,5262.67 L 3200,5262.67 L 3204,5262.67 L 3203,5262.67 L 3207,5262.67 L 3206,5262.67 L 3209,5263.67 L 3209,5263.67 L 3211,5264.67 L 3211,5264.67 L 3213,5266.67 L 3213,5266.67 L 3215,5268.67 L 3215,5268.67 L 3216,5270.67 L 3216,5270.67 L 3217,5273.67 L 3217,5272.67 L 3217,5276.67 L 3217,5275.67"
         style="fill:#a6a6a6;fill-opacity:1;fill-rule:nonzero;stroke:none"
         id="path2458" /><path
         d="M 3570,5449.67 C 3570,5439.67 3563,5432.67 3553,5432.67 C 3544,5432.67 3537,5439.67 3537,5449.67 C 3537,5458.67 3544,5465.67 3553,5465.67 C 3563,5465.67 3570,5458.67 3570,5449.67"
         style="fill:#ffffff;fill-opacity:1;fill-rule:evenodd;stroke:none"
         id="path2460" /><path
         d="M 3573,5449.67 L 3573,5444.67 L 3572,5441.67 L 3571,5441.67 L 3570,5438.67 L 3569,5437.67 L 3567,5435.67 L 3567,5435.67 L 3565,5433.67 L 3564,5432.67 L 3561,5431.67 L 3561,5430.67 L 3558,5429.67 L 3549,5429.67 L 3546,5430.67 L 3546,5431.67 L 3543,5432.67 L 3542,5433.67 L 3540,5435.67 L 3540,5435.67 L 3538,5437.67 L 3537,5438.67 L 3536,5441.67 L 3535,5441.67 L 3534,5444.67 L 3534,5453.67 L 3535,5456.67 L 3536,5456.67 L 3537,5459.67 L 3538,5460.67 L 3540,5462.67 L 3540,5462.67 L 3542,5464.67 L 3543,5465.67 L 3546,5466.67 L 3546,5467.67 L 3549,5468.67 L 3558,5468.67 L 3561,5467.67 L 3561,5466.67 L 3564,5465.67 L 3565,5464.67 L 3567,5462.67 L 3567,5462.67 L 3569,5460.67 L 3570,5459.67 L 3571,5456.67 L 3572,5456.67 L 3573,5453.67 L 3573,5452.67 L 3573,5449.67 z M 3567,5452.67 L 3567,5451.67 L 3566,5454.67 L 3566,5453.67 L 3565,5456.67 L 3565,5456.67 L 3563,5458.67 L 3563,5458.67 L 3561,5460.67 L 3561,5460.67 L 3559,5461.67 L 3559,5461.67 L 3556,5462.67 L 3557,5462.67 L 3553,5462.67 L 3554,5462.67 L 3550,5462.67 L 3551,5462.67 L 3548,5461.67 L 3549,5461.67 L 3546,5460.67 L 3546,5460.67 L 3544,5458.67 L 3544,5458.67 L 3542,5456.67 L 3542,5456.67 L 3541,5453.67 L 3541,5454.67 L 3540,5451.67 L 3540,5452.67 L 3540,5448.67 L 3540,5449.67 L 3540,5445.67 L 3540,5446.67 L 3541,5443.67 L 3541,5443.67 L 3542,5441.67 L 3542,5441.67 L 3544,5439.67 L 3544,5439.67 L 3546,5437.67 L 3546,5437.67 L 3549,5436.67 L 3548,5436.67 L 3551,5435.67 L 3550,5435.67 L 3554,5435.67 L 3553,5435.67 L 3557,5435.67 L 3556,5435.67 L 3559,5436.67 L 3559,5436.67 L 3561,5437.67 L 3561,5437.67 L 3563,5439.67 L 3563,5439.67 L 3565,5441.67 L 3565,5441.67 L 3566,5443.67 L 3566,5443.67 L 3567,5446.67 L 3567,5445.67 L 3567,5449.67 L 3567,5448.67"
         style="fill:#a6a6a6;fill-opacity:1;fill-rule:nonzero;stroke:none"
         id="path2462" /><path
         d="M 3921,6184.67 C 3921,6174.67 3914,6167.67 3904,6167.67 C 3895,6167.67 3888,6174.67 3888,6184.67 C 3888,6193.67 3895,6200.67 3904,6200.67 C 3914,6200.67 3921,6193.67 3921,6184.67"
         style="fill:#ffffff;fill-opacity:1;fill-rule:evenodd;stroke:none"
         id="path2464" /><path
         d="M 3924,6184.67 L 3924,6179.67 L 3923,6176.67 L 3922,6176.67 L 3921,6173.67 L 3920,6172.67 L 3918,6170.67 L 3918,6170.67 L 3916,6168.67 L 3915,6167.67 L 3912,6166.67 L 3912,6165.67 L 3909,6164.67 L 3900,6164.67 L 3897,6165.67 L 3897,6166.67 L 3894,6167.67 L 3893,6168.67 L 3891,6170.67 L 3891,6170.67 L 3889,6172.67 L 3888,6173.67 L 3887,6176.67 L 3886,6176.67 L 3885,6179.67 L 3885,6188.67 L 3886,6191.67 L 3887,6191.67 L 3888,6194.67 L 3889,6195.67 L 3891,6197.67 L 3891,6197.67 L 3893,6199.67 L 3894,6200.67 L 3897,6201.67 L 3897,6202.67 L 3900,6203.67 L 3909,6203.67 L 3912,6202.67 L 3912,6201.67 L 3915,6200.67 L 3916,6199.67 L 3918,6197.67 L 3918,6197.67 L 3920,6195.67 L 3921,6194.67 L 3922,6191.67 L 3923,6191.67 L 3924,6188.67 L 3924,6187.67 L 3924,6184.67 z M 3918,6187.67 L 3918,6186.67 L 3917,6189.67 L 3917,6188.67 L 3916,6191.67 L 3916,6191.67 L 3914,6193.67 L 3914,6193.67 L 3912,6195.67 L 3912,6195.67 L 3910,6196.67 L 3910,6196.67 L 3907,6197.67 L 3908,6197.67 L 3904,6197.67 L 3905,6197.67 L 3901,6197.67 L 3902,6197.67 L 3899,6196.67 L 3900,6196.67 L 3897,6195.67 L 3897,6195.67 L 3895,6193.67 L 3895,6193.67 L 3893,6191.67 L 3893,6191.67 L 3892,6188.67 L 3892,6189.67 L 3891,6186.67 L 3891,6187.67 L 3891,6183.67 L 3891,6184.67 L 3891,6180.67 L 3891,6181.67 L 3892,6178.67 L 3892,6178.67 L 3893,6176.67 L 3893,6176.67 L 3895,6174.67 L 3895,6174.67 L 3897,6172.67 L 3897,6172.67 L 3900,6171.67 L 3899,6171.67 L 3902,6170.67 L 3901,6170.67 L 3905,6170.67 L 3904,6170.67 L 3908,6170.67 L 3907,6170.67 L 3910,6171.67 L 3910,6171.67 L 3912,6172.67 L 3912,6172.67 L 3914,6174.67 L 3914,6174.67 L 3916,6176.67 L 3916,6176.67 L 3917,6178.67 L 3917,6178.67 L 3918,6181.67 L 3918,6180.67 L 3918,6184.67 L 3918,6183.67"
         style="fill:#a6a6a6;fill-opacity:1;fill-rule:nonzero;stroke:none"
         id="path2466" /><path
         d="M 753,5600.67 L 1103,5131.67 L 1100,5133.67 L 1451,5133.67 L 1448,5132.67 L 1798,5484.67 L 1799,5484.67 L 2150,5718.67 C 2151,5719.67 2152,5719.67 2153,5719.67 C 2154,5719.67 2155,5718.67 2156,5717.67 L 2506,4897.67 L 2502,4899.67 L 2853,4899.67 L 2851,4898.67 L 3201,5132.67 C 3201,5133.67 3201,5133.67 3202,5133.67 L 3553,5250.67 L 3550,5248.67 L 3900,5951.67 C 3901,5953.67 3904,5954.67 3906,5953.67 C 3908,5952.67 3909,5949.67 3908,5947.67 L 3558,5244.67 C 3557,5243.67 3556,5243.67 3555,5242.67 L 3204,5125.67 L 3205,5126.67 L 2855,4892.67 C 2855,4891.67 2854,4891.67 2853,4891.67 L 2502,4891.67 C 2500,4891.67 2499,4892.67 2498,4893.67 L 2148,5713.67 L 2154,5712.67 L 1803,5478.67 L 1804,5478.67 L 1454,5126.67 C 1453,5125.67 1452,5125.67 1451,5125.67 L 1100,5125.67 C 1099,5125.67 1098,5126.67 1097,5127.67 L 747,5596.67 C 745,5597.67 746,5600.67 748,5601.67 C 749,5603.67 752,5602.67 753,5600.67"
         style="fill:#000000;fill-opacity:1;fill-rule:nonzero;stroke:none"
         id="path2468" /><path
         d="M 766,5598.67 C 766,5588.67 759,5581.67 749,5581.67 C 740,5581.67 733,5588.67 733,5598.67 C 733,5607.67 740,5614.67 749,5614.67 C 759,5614.67 766,5607.67 766,5598.67"
         style="fill:#ffffff;fill-opacity:1;fill-rule:evenodd;stroke:none"
         id="path2470" /><path
         d="M 769,5598.67 L 769,5593.67 L 768,5590.67 L 767,5590.67 L 766,5587.67 L 765,5586.67 L 763,5584.67 L 763,5584.67 L 761,5582.67 L 760,5581.67 L 757,5580.67 L 757,5579.67 L 754,5578.67 L 745,5578.67 L 742,5579.67 L 742,5580.67 L 739,5581.67 L 738,5582.67 L 736,5584.67 L 736,5584.67 L 734,5586.67 L 733,5587.67 L 732,5590.67 L 731,5590.67 L 730,5593.67 L 730,5602.67 L 731,5605.67 L 732,5605.67 L 733,5608.67 L 734,5609.67 L 736,5611.67 L 736,5611.67 L 738,5613.67 L 739,5614.67 L 742,5615.67 L 742,5616.67 L 745,5617.67 L 754,5617.67 L 757,5616.67 L 757,5615.67 L 760,5614.67 L 761,5613.67 L 763,5611.67 L 763,5611.67 L 765,5609.67 L 766,5608.67 L 767,5605.67 L 768,5605.67 L 769,5602.67 L 769,5601.67 L 769,5598.67 z M 763,5601.67 L 763,5600.67 L 762,5603.67 L 762,5602.67 L 761,5605.67 L 761,5605.67 L 759,5607.67 L 759,5607.67 L 757,5609.67 L 757,5609.67 L 755,5610.67 L 755,5610.67 L 752,5611.67 L 753,5611.67 L 749,5611.67 L 750,5611.67 L 746,5611.67 L 747,5611.67 L 744,5610.67 L 745,5610.67 L 742,5609.67 L 742,5609.67 L 740,5607.67 L 740,5607.67 L 738,5605.67 L 738,5605.67 L 737,5602.67 L 737,5603.67 L 736,5600.67 L 736,5601.67 L 736,5597.67 L 736,5598.67 L 736,5594.67 L 736,5595.67 L 737,5592.67 L 737,5592.67 L 738,5590.67 L 738,5590.67 L 740,5588.67 L 740,5588.67 L 742,5586.67 L 742,5586.67 L 745,5585.67 L 744,5585.67 L 747,5584.67 L 746,5584.67 L 750,5584.67 L 749,5584.67 L 753,5584.67 L 752,5584.67 L 755,5585.67 L 755,5585.67 L 757,5586.67 L 757,5586.67 L 759,5588.67 L 759,5588.67 L 761,5590.67 L 761,5590.67 L 762,5592.67 L 762,5592.67 L 763,5595.67 L 763,5594.67 L 763,5598.67 L 763,5597.67"
         style="fill:#000000;fill-opacity:1;fill-rule:nonzero;stroke:none"
         id="path2472" /><path
         d="M 1117,5129.67 C 1117,5120.67 1110,5112.67 1100,5112.67 C 1091,5112.67 1084,5120.67 1084,5129.67 C 1084,5138.67 1091,5146.67 1100,5146.67 C 1110,5146.67 1117,5138.67 1117,5129.67"
         style="fill:#ffffff;fill-opacity:1;fill-rule:evenodd;stroke:none"
         id="path2474" /><path
         d="M 1120,5129.67 L 1120,5125.67 L 1119,5121.67 L 1118,5121.67 L 1117,5118.67 L 1117,5118.67 L 1115,5115.67 L 1114,5115.67 L 1112,5113.67 L 1111,5112.67 L 1108,5111.67 L 1108,5110.67 L 1105,5109.67 L 1096,5109.67 L 1093,5110.67 L 1093,5111.67 L 1090,5112.67 L 1089,5113.67 L 1087,5115.67 L 1087,5115.67 L 1084,5118.67 L 1084,5118.67 L 1083,5121.67 L 1082,5121.67 L 1081,5125.67 L 1081,5133.67 L 1082,5137.67 L 1083,5137.67 L 1084,5140.67 L 1084,5140.67 L 1087,5143.67 L 1087,5143.67 L 1089,5145.67 L 1090,5146.67 L 1093,5147.67 L 1093,5148.67 L 1096,5149.67 L 1105,5149.67 L 1108,5148.67 L 1108,5147.67 L 1111,5146.67 L 1112,5145.67 L 1114,5143.67 L 1115,5143.67 L 1117,5140.67 L 1117,5140.67 L 1118,5137.67 L 1119,5137.67 L 1120,5133.67 L 1120,5133.67 L 1120,5129.67 z M 1114,5132.67 L 1114,5132.67 L 1113,5135.67 L 1113,5134.67 L 1112,5137.67 L 1112,5137.67 L 1110,5139.67 L 1110,5139.67 L 1108,5141.67 L 1108,5140.67 L 1105,5142.67 L 1106,5142.67 L 1103,5143.67 L 1100,5143.67 L 1101,5143.67 L 1098,5143.67 L 1098,5143.67 L 1095,5142.67 L 1096,5142.67 L 1093,5140.67 L 1093,5141.67 L 1091,5139.67 L 1091,5139.67 L 1089,5137.67 L 1089,5137.67 L 1088,5134.67 L 1088,5135.67 L 1087,5132.67 L 1087,5126.67 L 1088,5123.67 L 1088,5124.67 L 1089,5121.67 L 1089,5121.67 L 1091,5119.67 L 1091,5119.67 L 1093,5117.67 L 1093,5118.67 L 1096,5116.67 L 1095,5116.67 L 1098,5115.67 L 1097,5115.67 L 1101,5115.67 L 1100,5115.67 L 1104,5115.67 L 1103,5115.67 L 1106,5116.67 L 1105,5116.67 L 1108,5118.67 L 1108,5117.67 L 1110,5119.67 L 1110,5119.67 L 1112,5121.67 L 1112,5121.67 L 1113,5124.67 L 1113,5123.67 L 1114,5126.67 L 1114,5129.67"
         style="fill:#000000;fill-opacity:1;fill-rule:nonzero;stroke:none"
         id="path2476" /><path
         d="M 1467,5129.67 C 1467,5120.67 1460,5112.67 1450,5112.67 C 1441,5112.67 1434,5120.67 1434,5129.67 C 1434,5138.67 1441,5146.67 1450,5146.67 C 1460,5146.67 1467,5138.67 1467,5129.67"
         style="fill:#ffffff;fill-opacity:1;fill-rule:evenodd;stroke:none"
         id="path2478" /><path
         d="M 1470,5129.67 L 1470,5125.67 L 1469,5121.67 L 1468,5121.67 L 1467,5118.67 L 1467,5118.67 L 1465,5115.67 L 1464,5115.67 L 1462,5113.67 L 1461,5112.67 L 1458,5111.67 L 1458,5110.67 L 1455,5109.67 L 1446,5109.67 L 1443,5110.67 L 1443,5111.67 L 1440,5112.67 L 1439,5113.67 L 1437,5115.67 L 1437,5115.67 L 1434,5118.67 L 1434,5118.67 L 1433,5121.67 L 1432,5121.67 L 1431,5125.67 L 1431,5133.67 L 1432,5137.67 L 1433,5137.67 L 1434,5140.67 L 1434,5140.67 L 1437,5143.67 L 1437,5143.67 L 1439,5145.67 L 1440,5146.67 L 1443,5147.67 L 1443,5148.67 L 1446,5149.67 L 1455,5149.67 L 1458,5148.67 L 1458,5147.67 L 1461,5146.67 L 1462,5145.67 L 1464,5143.67 L 1465,5143.67 L 1467,5140.67 L 1467,5140.67 L 1468,5137.67 L 1469,5137.67 L 1470,5133.67 L 1470,5133.67 L 1470,5129.67 z M 1464,5132.67 L 1464,5132.67 L 1463,5135.67 L 1463,5134.67 L 1462,5137.67 L 1462,5137.67 L 1460,5139.67 L 1460,5139.67 L 1458,5141.67 L 1458,5140.67 L 1455,5142.67 L 1456,5142.67 L 1453,5143.67 L 1450,5143.67 L 1451,5143.67 L 1448,5143.67 L 1448,5143.67 L 1445,5142.67 L 1446,5142.67 L 1443,5140.67 L 1443,5141.67 L 1441,5139.67 L 1441,5139.67 L 1439,5137.67 L 1439,5137.67 L 1438,5134.67 L 1438,5135.67 L 1437,5132.67 L 1437,5126.67 L 1438,5123.67 L 1438,5124.67 L 1439,5121.67 L 1439,5121.67 L 1441,5119.67 L 1441,5119.67 L 1443,5117.67 L 1443,5118.67 L 1446,5116.67 L 1445,5116.67 L 1448,5115.67 L 1447,5115.67 L 1451,5115.67 L 1450,5115.67 L 1454,5115.67 L 1453,5115.67 L 1456,5116.67 L 1455,5116.67 L 1458,5118.67 L 1458,5117.67 L 1460,5119.67 L 1460,5119.67 L 1462,5121.67 L 1462,5121.67 L 1463,5124.67 L 1463,5123.67 L 1464,5126.67 L 1464,5129.67"
         style="fill:#000000;fill-opacity:1;fill-rule:nonzero;stroke:none"
         id="path2480" /><path
         d="M 1818,5481.67 C 1818,5471.67 1811,5464.67 1801,5464.67 C 1792,5464.67 1785,5471.67 1785,5481.67 C 1785,5490.67 1792,5497.67 1801,5497.67 C 1811,5497.67 1818,5490.67 1818,5481.67"
         style="fill:#ffffff;fill-opacity:1;fill-rule:evenodd;stroke:none"
         id="path2482" /><path
         d="M 1821,5481.67 L 1821,5476.67 L 1820,5473.67 L 1819,5473.67 L 1818,5470.67 L 1817,5469.67 L 1815,5467.67 L 1815,5467.67 L 1813,5465.67 L 1812,5464.67 L 1809,5463.67 L 1809,5462.67 L 1806,5461.67 L 1797,5461.67 L 1794,5462.67 L 1794,5463.67 L 1791,5464.67 L 1790,5465.67 L 1788,5467.67 L 1788,5467.67 L 1786,5469.67 L 1785,5470.67 L 1784,5473.67 L 1783,5473.67 L 1782,5476.67 L 1782,5485.67 L 1783,5488.67 L 1784,5488.67 L 1785,5491.67 L 1786,5492.67 L 1788,5494.67 L 1788,5494.67 L 1790,5496.67 L 1791,5497.67 L 1794,5498.67 L 1794,5499.67 L 1797,5500.67 L 1806,5500.67 L 1809,5499.67 L 1809,5498.67 L 1812,5497.67 L 1813,5496.67 L 1815,5494.67 L 1815,5494.67 L 1817,5492.67 L 1818,5491.67 L 1819,5488.67 L 1820,5488.67 L 1821,5485.67 L 1821,5484.67 L 1821,5481.67 z M 1815,5484.67 L 1815,5483.67 L 1814,5486.67 L 1814,5485.67 L 1813,5488.67 L 1813,5488.67 L 1811,5490.67 L 1811,5490.67 L 1809,5492.67 L 1809,5492.67 L 1807,5493.67 L 1807,5493.67 L 1804,5494.67 L 1805,5494.67 L 1801,5494.67 L 1802,5494.67 L 1798,5494.67 L 1799,5494.67 L 1796,5493.67 L 1797,5493.67 L 1794,5492.67 L 1794,5492.67 L 1792,5490.67 L 1792,5490.67 L 1790,5488.67 L 1790,5488.67 L 1789,5485.67 L 1789,5486.67 L 1788,5483.67 L 1788,5484.67 L 1788,5480.67 L 1788,5481.67 L 1788,5477.67 L 1788,5478.67 L 1789,5475.67 L 1789,5475.67 L 1790,5473.67 L 1790,5473.67 L 1792,5471.67 L 1792,5471.67 L 1794,5469.67 L 1794,5469.67 L 1797,5468.67 L 1796,5468.67 L 1799,5467.67 L 1798,5467.67 L 1802,5467.67 L 1801,5467.67 L 1805,5467.67 L 1804,5467.67 L 1807,5468.67 L 1807,5468.67 L 1809,5469.67 L 1809,5469.67 L 1811,5471.67 L 1811,5471.67 L 1813,5473.67 L 1813,5473.67 L 1814,5475.67 L 1814,5475.67 L 1815,5478.67 L 1815,5477.67 L 1815,5481.67 L 1815,5480.67"
         style="fill:#000000;fill-opacity:1;fill-rule:nonzero;stroke:none"
         id="path2484" /><path
         d="M 2168,5715.67 C 2168,5706.67 2161,5698.67 2151,5698.67 C 2142,5698.67 2135,5706.67 2135,5715.67 C 2135,5724.67 2142,5732.67 2151,5732.67 C 2161,5732.67 2168,5724.67 2168,5715.67"
         style="fill:#ffffff;fill-opacity:1;fill-rule:evenodd;stroke:none"
         id="path2486" /><path
         d="M 2171,5715.67 L 2171,5711.67 L 2170,5707.67 L 2169,5707.67 L 2168,5704.67 L 2168,5704.67 L 2166,5701.67 L 2165,5701.67 L 2163,5699.67 L 2162,5698.67 L 2159,5697.67 L 2159,5696.67 L 2156,5695.67 L 2147,5695.67 L 2144,5696.67 L 2144,5697.67 L 2141,5698.67 L 2140,5699.67 L 2138,5701.67 L 2138,5701.67 L 2135,5704.67 L 2135,5704.67 L 2134,5707.67 L 2133,5707.67 L 2132,5711.67 L 2132,5719.67 L 2133,5723.67 L 2134,5723.67 L 2135,5726.67 L 2135,5726.67 L 2138,5729.67 L 2138,5729.67 L 2140,5731.67 L 2141,5732.67 L 2144,5733.67 L 2144,5734.67 L 2147,5735.67 L 2156,5735.67 L 2159,5734.67 L 2159,5733.67 L 2162,5732.67 L 2163,5731.67 L 2165,5729.67 L 2166,5729.67 L 2168,5726.67 L 2168,5726.67 L 2169,5723.67 L 2170,5723.67 L 2171,5719.67 L 2171,5719.67 L 2171,5715.67 z M 2165,5718.67 L 2165,5718.67 L 2164,5721.67 L 2164,5720.67 L 2163,5723.67 L 2163,5723.67 L 2161,5725.67 L 2161,5725.67 L 2159,5727.67 L 2159,5726.67 L 2156,5728.67 L 2157,5728.67 L 2154,5729.67 L 2151,5729.67 L 2152,5729.67 L 2149,5729.67 L 2149,5729.67 L 2146,5728.67 L 2147,5728.67 L 2144,5726.67 L 2144,5727.67 L 2142,5725.67 L 2142,5725.67 L 2140,5723.67 L 2140,5723.67 L 2139,5720.67 L 2139,5721.67 L 2138,5718.67 L 2138,5712.67 L 2139,5709.67 L 2139,5710.67 L 2140,5707.67 L 2140,5707.67 L 2142,5705.67 L 2142,5705.67 L 2144,5703.67 L 2144,5704.67 L 2147,5702.67 L 2146,5702.67 L 2149,5701.67 L 2148,5701.67 L 2152,5701.67 L 2151,5701.67 L 2155,5701.67 L 2154,5701.67 L 2157,5702.67 L 2156,5702.67 L 2159,5704.67 L 2159,5703.67 L 2161,5705.67 L 2161,5705.67 L 2163,5707.67 L 2163,5707.67 L 2164,5710.67 L 2164,5709.67 L 2165,5712.67 L 2165,5715.67"
         style="fill:#000000;fill-opacity:1;fill-rule:nonzero;stroke:none"
         id="path2488" /><path
         d="M 2519,4895.67 C 2519,4885.67 2512,4878.67 2502,4878.67 C 2493,4878.67 2486,4885.67 2486,4895.67 C 2486,4904.67 2493,4911.67 2502,4911.67 C 2512,4911.67 2519,4904.67 2519,4895.67"
         style="fill:#ffffff;fill-opacity:1;fill-rule:evenodd;stroke:none"
         id="path2490" /><path
         d="M 2522,4895.67 L 2522,4890.67 L 2521,4887.67 L 2520,4887.67 L 2519,4884.67 L 2518,4883.67 L 2516,4881.67 L 2516,4881.67 L 2514,4879.67 L 2513,4878.67 L 2510,4877.67 L 2510,4876.67 L 2507,4875.67 L 2498,4875.67 L 2495,4876.67 L 2495,4877.67 L 2492,4878.67 L 2491,4879.67 L 2489,4881.67 L 2489,4881.67 L 2487,4883.67 L 2486,4884.67 L 2485,4887.67 L 2484,4887.67 L 2483,4890.67 L 2483,4899.67 L 2484,4902.67 L 2485,4902.67 L 2486,4905.67 L 2487,4906.67 L 2489,4908.67 L 2489,4908.67 L 2491,4910.67 L 2492,4911.67 L 2495,4912.67 L 2495,4913.67 L 2498,4914.67 L 2507,4914.67 L 2510,4913.67 L 2510,4912.67 L 2513,4911.67 L 2514,4910.67 L 2516,4908.67 L 2516,4908.67 L 2518,4906.67 L 2519,4905.67 L 2520,4902.67 L 2521,4902.67 L 2522,4899.67 L 2522,4898.67 L 2522,4895.67 z M 2516,4898.67 L 2516,4897.67 L 2515,4900.67 L 2515,4899.67 L 2514,4902.67 L 2514,4902.67 L 2512,4904.67 L 2512,4904.67 L 2510,4906.67 L 2510,4906.67 L 2508,4907.67 L 2508,4907.67 L 2505,4908.67 L 2506,4908.67 L 2502,4908.67 L 2503,4908.67 L 2499,4908.67 L 2500,4908.67 L 2497,4907.67 L 2498,4907.67 L 2495,4906.67 L 2495,4906.67 L 2493,4904.67 L 2493,4904.67 L 2491,4902.67 L 2491,4902.67 L 2490,4899.67 L 2490,4900.67 L 2489,4897.67 L 2489,4898.67 L 2489,4894.67 L 2489,4895.67 L 2489,4891.67 L 2489,4892.67 L 2490,4889.67 L 2490,4889.67 L 2491,4887.67 L 2491,4887.67 L 2493,4885.67 L 2493,4885.67 L 2495,4883.67 L 2495,4883.67 L 2498,4882.67 L 2497,4882.67 L 2500,4881.67 L 2499,4881.67 L 2503,4881.67 L 2502,4881.67 L 2506,4881.67 L 2505,4881.67 L 2508,4882.67 L 2508,4882.67 L 2510,4883.67 L 2510,4883.67 L 2512,4885.67 L 2512,4885.67 L 2514,4887.67 L 2514,4887.67 L 2515,4889.67 L 2515,4889.67 L 2516,4892.67 L 2516,4891.67 L 2516,4895.67 L 2516,4894.67"
         style="fill:#000000;fill-opacity:1;fill-rule:nonzero;stroke:none"
         id="path2492" /><path
         d="M 2869,4895.67 C 2869,4885.67 2862,4878.67 2852,4878.67 C 2843,4878.67 2836,4885.67 2836,4895.67 C 2836,4904.67 2843,4911.67 2852,4911.67 C 2862,4911.67 2869,4904.67 2869,4895.67"
         style="fill:#ffffff;fill-opacity:1;fill-rule:evenodd;stroke:none"
         id="path2494" /><path
         d="M 2872,4895.67 L 2872,4890.67 L 2871,4887.67 L 2870,4887.67 L 2869,4884.67 L 2868,4883.67 L 2866,4881.67 L 2866,4881.67 L 2864,4879.67 L 2863,4878.67 L 2860,4877.67 L 2860,4876.67 L 2857,4875.67 L 2848,4875.67 L 2845,4876.67 L 2845,4877.67 L 2842,4878.67 L 2841,4879.67 L 2839,4881.67 L 2839,4881.67 L 2837,4883.67 L 2836,4884.67 L 2835,4887.67 L 2834,4887.67 L 2833,4890.67 L 2833,4899.67 L 2834,4902.67 L 2835,4902.67 L 2836,4905.67 L 2837,4906.67 L 2839,4908.67 L 2839,4908.67 L 2841,4910.67 L 2842,4911.67 L 2845,4912.67 L 2845,4913.67 L 2848,4914.67 L 2857,4914.67 L 2860,4913.67 L 2860,4912.67 L 2863,4911.67 L 2864,4910.67 L 2866,4908.67 L 2866,4908.67 L 2868,4906.67 L 2869,4905.67 L 2870,4902.67 L 2871,4902.67 L 2872,4899.67 L 2872,4898.67 L 2872,4895.67 z M 2866,4898.67 L 2866,4897.67 L 2865,4900.67 L 2865,4899.67 L 2864,4902.67 L 2864,4902.67 L 2862,4904.67 L 2862,4904.67 L 2860,4906.67 L 2860,4906.67 L 2858,4907.67 L 2858,4907.67 L 2855,4908.67 L 2856,4908.67 L 2852,4908.67 L 2853,4908.67 L 2849,4908.67 L 2850,4908.67 L 2847,4907.67 L 2848,4907.67 L 2845,4906.67 L 2845,4906.67 L 2843,4904.67 L 2843,4904.67 L 2841,4902.67 L 2841,4902.67 L 2840,4899.67 L 2840,4900.67 L 2839,4897.67 L 2839,4898.67 L 2839,4894.67 L 2839,4895.67 L 2839,4891.67 L 2839,4892.67 L 2840,4889.67 L 2840,4889.67 L 2841,4887.67 L 2841,4887.67 L 2843,4885.67 L 2843,4885.67 L 2845,4883.67 L 2845,4883.67 L 2848,4882.67 L 2847,4882.67 L 2850,4881.67 L 2849,4881.67 L 2853,4881.67 L 2852,4881.67 L 2856,4881.67 L 2855,4881.67 L 2858,4882.67 L 2858,4882.67 L 2860,4883.67 L 2860,4883.67 L 2862,4885.67 L 2862,4885.67 L 2864,4887.67 L 2864,4887.67 L 2865,4889.67 L 2865,4889.67 L 2866,4892.67 L 2866,4891.67 L 2866,4895.67 L 2866,4894.67"
         style="fill:#000000;fill-opacity:1;fill-rule:nonzero;stroke:none"
         id="path2496" /><path
         d="M 3220,5129.67 C 3220,5120.67 3213,5112.67 3203,5112.67 C 3194,5112.67 3187,5120.67 3187,5129.67 C 3187,5138.67 3194,5146.67 3203,5146.67 C 3213,5146.67 3220,5138.67 3220,5129.67"
         style="fill:#ffffff;fill-opacity:1;fill-rule:evenodd;stroke:none"
         id="path2498" /><path
         d="M 3223,5129.67 L 3223,5125.67 L 3222,5121.67 L 3221,5121.67 L 3220,5118.67 L 3220,5118.67 L 3218,5115.67 L 3217,5115.67 L 3215,5113.67 L 3214,5112.67 L 3211,5111.67 L 3211,5110.67 L 3208,5109.67 L 3199,5109.67 L 3196,5110.67 L 3196,5111.67 L 3193,5112.67 L 3192,5113.67 L 3190,5115.67 L 3190,5115.67 L 3187,5118.67 L 3187,5118.67 L 3186,5121.67 L 3185,5121.67 L 3184,5125.67 L 3184,5133.67 L 3185,5137.67 L 3186,5137.67 L 3187,5140.67 L 3187,5140.67 L 3190,5143.67 L 3190,5143.67 L 3192,5145.67 L 3193,5146.67 L 3196,5147.67 L 3196,5148.67 L 3199,5149.67 L 3208,5149.67 L 3211,5148.67 L 3211,5147.67 L 3214,5146.67 L 3215,5145.67 L 3217,5143.67 L 3218,5143.67 L 3220,5140.67 L 3220,5140.67 L 3221,5137.67 L 3222,5137.67 L 3223,5133.67 L 3223,5133.67 L 3223,5129.67 z M 3217,5132.67 L 3217,5132.67 L 3216,5135.67 L 3216,5134.67 L 3215,5137.67 L 3215,5137.67 L 3213,5139.67 L 3213,5139.67 L 3211,5141.67 L 3211,5140.67 L 3208,5142.67 L 3209,5142.67 L 3206,5143.67 L 3203,5143.67 L 3204,5143.67 L 3201,5143.67 L 3201,5143.67 L 3198,5142.67 L 3199,5142.67 L 3196,5140.67 L 3196,5141.67 L 3194,5139.67 L 3194,5139.67 L 3192,5137.67 L 3192,5137.67 L 3191,5134.67 L 3191,5135.67 L 3190,5132.67 L 3190,5126.67 L 3191,5123.67 L 3191,5124.67 L 3192,5121.67 L 3192,5121.67 L 3194,5119.67 L 3194,5119.67 L 3196,5117.67 L 3196,5118.67 L 3199,5116.67 L 3198,5116.67 L 3201,5115.67 L 3200,5115.67 L 3204,5115.67 L 3203,5115.67 L 3207,5115.67 L 3206,5115.67 L 3209,5116.67 L 3208,5116.67 L 3211,5118.67 L 3211,5117.67 L 3213,5119.67 L 3213,5119.67 L 3215,5121.67 L 3215,5121.67 L 3216,5124.67 L 3216,5123.67 L 3217,5126.67 L 3217,5129.67"
         style="fill:#000000;fill-opacity:1;fill-rule:nonzero;stroke:none"
         id="path2500" /><path
         d="M 3570,5247.67 C 3570,5237.67 3563,5230.67 3553,5230.67 C 3544,5230.67 3537,5237.67 3537,5247.67 C 3537,5256.67 3544,5263.67 3553,5263.67 C 3563,5263.67 3570,5256.67 3570,5247.67"
         style="fill:#ffffff;fill-opacity:1;fill-rule:evenodd;stroke:none"
         id="path2502" /><path
         d="M 3573,5247.67 L 3573,5242.67 L 3572,5239.67 L 3571,5239.67 L 3570,5236.67 L 3569,5235.67 L 3567,5233.67 L 3567,5233.67 L 3565,5231.67 L 3564,5230.67 L 3561,5229.67 L 3561,5228.67 L 3558,5227.67 L 3549,5227.67 L 3546,5228.67 L 3546,5229.67 L 3543,5230.67 L 3542,5231.67 L 3540,5233.67 L 3540,5233.67 L 3538,5235.67 L 3537,5236.67 L 3536,5239.67 L 3535,5239.67 L 3534,5242.67 L 3534,5251.67 L 3535,5254.67 L 3536,5254.67 L 3537,5257.67 L 3538,5258.67 L 3540,5260.67 L 3540,5260.67 L 3542,5262.67 L 3543,5263.67 L 3546,5264.67 L 3546,5265.67 L 3549,5266.67 L 3558,5266.67 L 3561,5265.67 L 3561,5264.67 L 3564,5263.67 L 3565,5262.67 L 3567,5260.67 L 3567,5260.67 L 3569,5258.67 L 3570,5257.67 L 3571,5254.67 L 3572,5254.67 L 3573,5251.67 L 3573,5250.67 L 3573,5247.67 z M 3567,5250.67 L 3567,5249.67 L 3566,5252.67 L 3566,5251.67 L 3565,5254.67 L 3565,5254.67 L 3563,5256.67 L 3563,5256.67 L 3561,5258.67 L 3561,5258.67 L 3559,5259.67 L 3559,5259.67 L 3556,5260.67 L 3557,5260.67 L 3553,5260.67 L 3554,5260.67 L 3550,5260.67 L 3551,5260.67 L 3548,5259.67 L 3549,5259.67 L 3546,5258.67 L 3546,5258.67 L 3544,5256.67 L 3544,5256.67 L 3542,5254.67 L 3542,5254.67 L 3541,5251.67 L 3541,5252.67 L 3540,5249.67 L 3540,5250.67 L 3540,5246.67 L 3540,5247.67 L 3540,5243.67 L 3540,5244.67 L 3541,5241.67 L 3541,5241.67 L 3542,5239.67 L 3542,5239.67 L 3544,5237.67 L 3544,5237.67 L 3546,5235.67 L 3546,5235.67 L 3549,5234.67 L 3548,5234.67 L 3551,5233.67 L 3550,5233.67 L 3554,5233.67 L 3553,5233.67 L 3557,5233.67 L 3556,5233.67 L 3559,5234.67 L 3559,5234.67 L 3561,5235.67 L 3561,5235.67 L 3563,5237.67 L 3563,5237.67 L 3565,5239.67 L 3565,5239.67 L 3566,5241.67 L 3566,5241.67 L 3567,5244.67 L 3567,5243.67 L 3567,5247.67 L 3567,5246.67"
         style="fill:#000000;fill-opacity:1;fill-rule:nonzero;stroke:none"
         id="path2504" /><path
         d="M 3921,5950.67 C 3921,5940.67 3914,5933.67 3904,5933.67 C 3895,5933.67 3888,5940.67 3888,5950.67 C 3888,5959.67 3895,5966.67 3904,5966.67 C 3914,5966.67 3921,5959.67 3921,5950.67"
         style="fill:#ffffff;fill-opacity:1;fill-rule:evenodd;stroke:none"
         id="path2506" /><path
         d="M 3924,5950.67 L 3924,5945.67 L 3923,5942.67 L 3922,5942.67 L 3921,5939.67 L 3920,5938.67 L 3918,5936.67 L 3918,5936.67 L 3916,5934.67 L 3915,5933.67 L 3912,5932.67 L 3912,5931.67 L 3909,5930.67 L 3900,5930.67 L 3897,5931.67 L 3897,5932.67 L 3894,5933.67 L 3893,5934.67 L 3891,5936.67 L 3891,5936.67 L 3889,5938.67 L 3888,5939.67 L 3887,5942.67 L 3886,5942.67 L 3885,5945.67 L 3885,5954.67 L 3886,5957.67 L 3887,5957.67 L 3888,5960.67 L 3889,5961.67 L 3891,5963.67 L 3891,5963.67 L 3893,5965.67 L 3894,5966.67 L 3897,5967.67 L 3897,5968.67 L 3900,5969.67 L 3909,5969.67 L 3912,5968.67 L 3912,5967.67 L 3915,5966.67 L 3916,5965.67 L 3918,5963.67 L 3918,5963.67 L 3920,5961.67 L 3921,5960.67 L 3922,5957.67 L 3923,5957.67 L 3924,5954.67 L 3924,5953.67 L 3924,5950.67 z M 3918,5953.67 L 3918,5952.67 L 3917,5955.67 L 3917,5954.67 L 3916,5957.67 L 3916,5957.67 L 3914,5959.67 L 3914,5959.67 L 3912,5961.67 L 3912,5961.67 L 3910,5962.67 L 3910,5962.67 L 3907,5963.67 L 3908,5963.67 L 3904,5963.67 L 3905,5963.67 L 3901,5963.67 L 3902,5963.67 L 3899,5962.67 L 3900,5962.67 L 3897,5961.67 L 3897,5961.67 L 3895,5959.67 L 3895,5959.67 L 3893,5957.67 L 3893,5957.67 L 3892,5954.67 L 3892,5955.67 L 3891,5952.67 L 3891,5953.67 L 3891,5949.67 L 3891,5950.67 L 3891,5946.67 L 3891,5947.67 L 3892,5944.67 L 3892,5944.67 L 3893,5942.67 L 3893,5942.67 L 3895,5940.67 L 3895,5940.67 L 3897,5938.67 L 3897,5938.67 L 3900,5937.67 L 3899,5937.67 L 3902,5936.67 L 3901,5936.67 L 3905,5936.67 L 3904,5936.67 L 3908,5936.67 L 3907,5936.67 L 3910,5937.67 L 3910,5937.67 L 3912,5938.67 L 3912,5938.67 L 3914,5940.67 L 3914,5940.67 L 3916,5942.67 L 3916,5942.67 L 3917,5944.67 L 3917,5944.67 L 3918,5947.67 L 3918,5946.67 L 3918,5950.67 L 3918,5949.67"
         style="fill:#000000;fill-opacity:1;fill-rule:nonzero;stroke:none"
         id="path2508" /><g
         id="g2510"
         transform="scale(8.33333,8.33333)"><text
           transform="matrix(1,0,0,-1,49.68,556.52)"
           id="text2512"><tspan
             style="font-size:9.96000004px;font-variant:normal;font-weight:normal;writing-mode:lr-tb;fill:#000000;fill-opacity:1;fill-rule:nonzero;stroke:none;font-family:Calibri;-inkscape-font-specification:Calibri"
             x="0 5.0416341"
             y="0"
             sodipodi:role="line"
             id="tspan2514">80</tspan><tspan
             style="font-size:9.96000004px;font-variant:normal;font-weight:normal;writing-mode:lr-tb;fill:#000000;fill-opacity:1;fill-rule:nonzero;stroke:none;font-family:Calibri;-inkscape-font-specification:Calibri"
             x="0 5.0416341"
             y="-70.199997"
             sodipodi:role="line"
             id="tspan2516">85</tspan><tspan
             style="font-size:9.96000004px;font-variant:normal;font-weight:normal;writing-mode:lr-tb;fill:#000000;fill-opacity:1;fill-rule:nonzero;stroke:none;font-family:Calibri;-inkscape-font-specification:Calibri"
             x="0 5.0416341"
             y="-140.52"
             sodipodi:role="line"
             id="tspan2518">90</tspan><tspan
             style="font-size:9.96000004px;font-variant:normal;font-weight:normal;writing-mode:lr-tb;fill:#000000;fill-opacity:1;fill-rule:nonzero;stroke:none;font-family:Calibri;-inkscape-font-specification:Calibri"
             x="0 5.0416341"
             y="-210.84"
             sodipodi:role="line"
             id="tspan2520">95</tspan></text>
</g><path
         d="M 1712,4497.67 L 1872,4497.67 C 1874,4497.67 1876,4495.67 1876,4493.67 C 1876,4491.67 1874,4489.67 1872,4489.67 L 1712,4489.67 C 1710,4489.67 1708,4491.67 1708,4493.67 C 1708,4495.67 1710,4497.67 1712,4497.67"
         style="fill:#a6a6a6;fill-opacity:1;fill-rule:nonzero;stroke:none"
         id="path2522" /><path
         d="M 1808,4493.67 C 1808,4483.67 1801,4476.67 1791,4476.67 C 1782,4476.67 1775,4483.67 1775,4493.67 C 1775,4502.67 1782,4509.67 1791,4509.67 C 1801,4509.67 1808,4502.67 1808,4493.67"
         style="fill:#ffffff;fill-opacity:1;fill-rule:evenodd;stroke:none"
         id="path2524" /><path
         d="M 1811,4493.67 L 1811,4488.67 L 1810,4485.67 L 1809,4485.67 L 1808,4482.67 L 1807,4481.67 L 1805,4479.67 L 1805,4479.67 L 1803,4477.67 L 1802,4476.67 L 1799,4475.67 L 1799,4474.67 L 1796,4473.67 L 1787,4473.67 L 1784,4474.67 L 1784,4475.67 L 1781,4476.67 L 1780,4477.67 L 1778,4479.67 L 1778,4479.67 L 1776,4481.67 L 1775,4482.67 L 1774,4485.67 L 1773,4485.67 L 1772,4488.67 L 1772,4497.67 L 1773,4500.67 L 1774,4500.67 L 1775,4503.67 L 1776,4504.67 L 1778,4506.67 L 1778,4506.67 L 1780,4508.67 L 1781,4509.67 L 1784,4510.67 L 1784,4511.67 L 1787,4512.67 L 1796,4512.67 L 1799,4511.67 L 1799,4510.67 L 1802,4509.67 L 1803,4508.67 L 1805,4506.67 L 1805,4506.67 L 1807,4504.67 L 1808,4503.67 L 1809,4500.67 L 1810,4500.67 L 1811,4497.67 L 1811,4496.67 L 1811,4493.67 z M 1805,4496.67 L 1805,4495.67 L 1804,4498.67 L 1804,4497.67 L 1803,4500.67 L 1803,4500.67 L 1801,4502.67 L 1801,4502.67 L 1799,4504.67 L 1799,4504.67 L 1797,4505.67 L 1797,4505.67 L 1794,4506.67 L 1795,4506.67 L 1791,4506.67 L 1792,4506.67 L 1788,4506.67 L 1789,4506.67 L 1786,4505.67 L 1787,4505.67 L 1784,4504.67 L 1784,4504.67 L 1782,4502.67 L 1782,4502.67 L 1780,4500.67 L 1780,4500.67 L 1779,4497.67 L 1779,4498.67 L 1778,4495.67 L 1778,4496.67 L 1778,4492.67 L 1778,4493.67 L 1778,4489.67 L 1778,4490.67 L 1779,4487.67 L 1779,4487.67 L 1780,4485.67 L 1780,4485.67 L 1782,4483.67 L 1782,4483.67 L 1784,4481.67 L 1784,4481.67 L 1787,4480.67 L 1786,4480.67 L 1789,4479.67 L 1788,4479.67 L 1792,4479.67 L 1791,4479.67 L 1795,4479.67 L 1794,4479.67 L 1797,4480.67 L 1797,4480.67 L 1799,4481.67 L 1799,4481.67 L 1801,4483.67 L 1801,4483.67 L 1803,4485.67 L 1803,4485.67 L 1804,4487.67 L 1804,4487.67 L 1805,4490.67 L 1805,4489.67 L 1805,4493.67 L 1805,4492.67"
         style="fill:#a6a6a6;fill-opacity:1;fill-rule:nonzero;stroke:none"
         id="path2526" /><g
         id="g2528"
         transform="scale(8.33333,8.33333)"><text
           transform="matrix(1,0,0,-1,226.68,536.36)"
           id="text2530"><tspan
             style="font-size:9.96000004px;font-variant:normal;font-weight:normal;writing-mode:lr-tb;fill:#000000;fill-opacity:1;fill-rule:nonzero;stroke:none;font-family:Calibri;-inkscape-font-specification:Calibri"
             x="0 6.5989108 10.082568 12.357666 17.040623 19.31572 24.591829 29.39179"
             y="0"
             sodipodi:role="line"
             id="tspan2532">Original</tspan></text>
</g><path
         d="M 2246,4497.67 L 2406,4497.67 C 2408,4497.67 2410,4495.67 2410,4493.67 C 2410,4491.67 2408,4489.67 2406,4489.67 L 2246,4489.67 C 2244,4489.67 2242,4491.67 2242,4493.67 C 2242,4495.67 2244,4497.67 2246,4497.67"
         style="fill:#000000;fill-opacity:1;fill-rule:nonzero;stroke:none"
         id="path2534" /><path
         d="M 2343,4493.67 C 2343,4483.67 2336,4476.67 2326,4476.67 C 2317,4476.67 2310,4483.67 2310,4493.67 C 2310,4502.67 2317,4509.67 2326,4509.67 C 2336,4509.67 2343,4502.67 2343,4493.67"
         style="fill:#ffffff;fill-opacity:1;fill-rule:evenodd;stroke:none"
         id="path2536" /><path
         d="M 2346,4493.67 L 2346,4488.67 L 2345,4485.67 L 2344,4485.67 L 2343,4482.67 L 2342,4481.67 L 2340,4479.67 L 2340,4479.67 L 2338,4477.67 L 2337,4476.67 L 2334,4475.67 L 2334,4474.67 L 2331,4473.67 L 2322,4473.67 L 2319,4474.67 L 2319,4475.67 L 2316,4476.67 L 2315,4477.67 L 2313,4479.67 L 2313,4479.67 L 2311,4481.67 L 2310,4482.67 L 2309,4485.67 L 2308,4485.67 L 2307,4488.67 L 2307,4497.67 L 2308,4500.67 L 2309,4500.67 L 2310,4503.67 L 2311,4504.67 L 2313,4506.67 L 2313,4506.67 L 2315,4508.67 L 2316,4509.67 L 2319,4510.67 L 2319,4511.67 L 2322,4512.67 L 2331,4512.67 L 2334,4511.67 L 2334,4510.67 L 2337,4509.67 L 2338,4508.67 L 2340,4506.67 L 2340,4506.67 L 2342,4504.67 L 2343,4503.67 L 2344,4500.67 L 2345,4500.67 L 2346,4497.67 L 2346,4496.67 L 2346,4493.67 z M 2340,4496.67 L 2340,4495.67 L 2339,4498.67 L 2339,4497.67 L 2338,4500.67 L 2338,4500.67 L 2336,4502.67 L 2336,4502.67 L 2334,4504.67 L 2334,4504.67 L 2332,4505.67 L 2332,4505.67 L 2329,4506.67 L 2330,4506.67 L 2326,4506.67 L 2327,4506.67 L 2323,4506.67 L 2324,4506.67 L 2321,4505.67 L 2322,4505.67 L 2319,4504.67 L 2319,4504.67 L 2317,4502.67 L 2317,4502.67 L 2315,4500.67 L 2315,4500.67 L 2314,4497.67 L 2314,4498.67 L 2313,4495.67 L 2313,4496.67 L 2313,4492.67 L 2313,4493.67 L 2313,4489.67 L 2313,4490.67 L 2314,4487.67 L 2314,4487.67 L 2315,4485.67 L 2315,4485.67 L 2317,4483.67 L 2317,4483.67 L 2319,4481.67 L 2319,4481.67 L 2322,4480.67 L 2321,4480.67 L 2324,4479.67 L 2323,4479.67 L 2327,4479.67 L 2326,4479.67 L 2330,4479.67 L 2329,4479.67 L 2332,4480.67 L 2332,4480.67 L 2334,4481.67 L 2334,4481.67 L 2336,4483.67 L 2336,4483.67 L 2338,4485.67 L 2338,4485.67 L 2339,4487.67 L 2339,4487.67 L 2340,4490.67 L 2340,4489.67 L 2340,4493.67 L 2340,4492.67"
         style="fill:#000000;fill-opacity:1;fill-rule:nonzero;stroke:none"
         id="path2538" /><g
         id="g2540"
         transform="scale(8.33333,8.33333)"><text
           transform="matrix(1,0,0,-1,290.88,536.36)"
           id="text2542"><tspan
             style="font-size:9.96000004px;font-variant:normal;font-weight:normal;writing-mode:lr-tb;fill:#000000;fill-opacity:1;fill-rule:nonzero;stroke:none;font-family:Calibri;-inkscape-font-specification:Calibri"
             x="0 6.7214785 11.997588 16.797548 22.073658 25.434048 27.709145 31.668951 36.46891 41.745022"
             y="0"
             sodipodi:role="line"
             id="tspan2544">Quantizada</tspan></text>
</g><path
         d="M 318,6510.67 C 318,6512.67 319,6514.67 322,6514.67 L 4172,6514.67 C 4174,6514.67 4176,6512.67 4176,6510.67 L 4176,4367.67 C 4176,4364.67 4174,4363.67 4172,4363.67 L 322,4363.67 C 319,4363.67 318,4364.67 318,4367.67 L 318,6510.67 z M 326,4367.67 L 322,4371.67 L 4172,4371.67 L 4168,4367.67 L 4168,6510.67 L 4172,6505.67 L 322,6505.67 L 326,6510.67"
         style="fill:#868686;fill-opacity:1;fill-rule:nonzero;stroke:none"
         id="path2546" /></g></g></svg>